<?xml version="1.0" standalone="no"?>
 <!DOCTYPE svg PUBLIC "-//W3C//DTD SVG 1.1//EN" 
 "http://www.w3.org/Graphics/SVG/1.1/DTD/svg11.dtd"> 
<svg
  xmlns:svg="http://www.w3.org/2000/svg"
  xmlns="http://www.w3.org/2000/svg"
  xmlns:xlink="http://www.w3.org/1999/xlink"
  version="1.1"
  width="29.700220cm" height="21.000720cm" viewBox="0 0 116930 82680">
<title>SVG Picture created as Peepsy-brd.svg date 2022/06/29 16:30:16 </title>
  <desc>Picture generated by PCBNEW </desc>
<g style="fill:#000000; fill-opacity:1;stroke:#000000; stroke-opacity:1;
stroke-linecap:round; stroke-linejoin:round;"
 transform="translate(0 0) scale(1 1)">
</g>
<g style="fill:#000000; fill-opacity:0.0; 
stroke:#000000; stroke-width:-0.000393701; stroke-opacity:1; 
stroke-linecap:round; stroke-linejoin:round;">
</g>
<g style="fill:#000000; fill-opacity:0.0; 
stroke:#000000; stroke-width:39.3701; stroke-opacity:1; 
stroke-linecap:round; stroke-linejoin:round;">
</g>
<g style="fill:#000000; fill-opacity:0.0; 
stroke:#000000; stroke-width:59.0551; stroke-opacity:1; 
stroke-linecap:round; stroke-linejoin:round;">
<rect x="69685.9" y="65357.2" width="42519.7" height="12598.4" rx="0" />
</g>
<g style="fill:#000000; fill-opacity:0.0; 
stroke:#000000; stroke-width:39.3701; stroke-opacity:1; 
stroke-linecap:round; stroke-linejoin:round;">
</g>
<g style="fill:#000000; fill-opacity:0.0; 
stroke:#000000; stroke-width:59.0551; stroke-opacity:1; 
stroke-linecap:round; stroke-linejoin:round;">
<rect x="3937.01" y="3937.01" width="109056" height="74806" rx="0" />
</g>
<g style="fill:#000000; fill-opacity:0.0; 
stroke:#000000; stroke-width:39.3701; stroke-opacity:1; 
stroke-linecap:round; stroke-linejoin:round;">
</g>
<g style="fill:#000000; fill-opacity:0.0; 
stroke:#000000; stroke-width:59.0551; stroke-opacity:1; 
stroke-linecap:round; stroke-linejoin:round;">
<rect x="4724.41" y="4724.41" width="107481" height="73231.2" rx="0" />
</g>
<g style="fill:#000000; fill-opacity:0.0; 
stroke:#000000; stroke-width:39.3701; stroke-opacity:1; 
stroke-linecap:round; stroke-linejoin:round;">
</g>
<g style="fill:#000000; fill-opacity:0.0; 
stroke:#000000; stroke-width:59.0551; stroke-opacity:1; 
stroke-linecap:round; stroke-linejoin:round;">
<path d="M23622 4724
L23622 3937
" />
</g>
<g style="fill:#000000; fill-opacity:0.0; 
stroke:#000000; stroke-width:39.3701; stroke-opacity:1; 
stroke-linecap:round; stroke-linejoin:round;">
</g>
<g style="fill:#000000; fill-opacity:0.0; 
stroke:#000000; stroke-width:59.0551; stroke-opacity:1; 
stroke-linecap:round; stroke-linejoin:round;">
<path d="M43307 4724
L43307 3937
" />
</g>
<g style="fill:#000000; fill-opacity:0.0; 
stroke:#000000; stroke-width:39.3701; stroke-opacity:1; 
stroke-linecap:round; stroke-linejoin:round;">
</g>
<g style="fill:#000000; fill-opacity:0.0; 
stroke:#000000; stroke-width:59.0551; stroke-opacity:1; 
stroke-linecap:round; stroke-linejoin:round;">
<path d="M62992 4724
L62992 3937
" />
</g>
<g style="fill:#000000; fill-opacity:0.0; 
stroke:#000000; stroke-width:39.3701; stroke-opacity:1; 
stroke-linecap:round; stroke-linejoin:round;">
</g>
<g style="fill:#000000; fill-opacity:0.0; 
stroke:#000000; stroke-width:59.0551; stroke-opacity:1; 
stroke-linecap:round; stroke-linejoin:round;">
<path d="M82677 4724
L82677 3937
" />
</g>
<g style="fill:#000000; fill-opacity:0.0; 
stroke:#000000; stroke-width:39.3701; stroke-opacity:1; 
stroke-linecap:round; stroke-linejoin:round;">
</g>
<g style="fill:#000000; fill-opacity:0.0; 
stroke:#000000; stroke-width:59.0551; stroke-opacity:1; 
stroke-linecap:round; stroke-linejoin:round;">
<path d="M102362 4724
L102362 3937
" />
</g>
<g style="fill:#000000; fill-opacity:0.0; 
stroke:#000000; stroke-width:39.3701; stroke-opacity:1; 
stroke-linecap:round; stroke-linejoin:round;">
</g>
<g style="fill:#000000; fill-opacity:0.0; 
stroke:#000000; stroke-width:59.0551; stroke-opacity:1; 
stroke-linecap:round; stroke-linejoin:round;">
<text x="13779.5" y="4586.61"
textLength="487.439" font-size="682.415" lengthAdjust="spacingAndGlyphs"
text-anchor="start" opacity="0">1</text>
<path d="M14199 4562
L13906 4562
" />
<path d="M14052 4562
L14052 4050
L14004 4123
L13955 4172
L13906 4196
" />
</g>
<g style="fill:#000000; fill-opacity:0.0; 
stroke:#000000; stroke-width:39.3701; stroke-opacity:1; 
stroke-linecap:round; stroke-linejoin:round;">
</g>
<g style="fill:#000000; fill-opacity:0.0; 
stroke:#000000; stroke-width:59.0551; stroke-opacity:1; 
stroke-linecap:round; stroke-linejoin:round;">
<text x="33464.6" y="4586.61"
textLength="546.494" font-size="682.415" lengthAdjust="spacingAndGlyphs"
text-anchor="start" opacity="0">2</text>
<path d="M33591 4099
L33615 4074
L33664 4050
L33786 4050
L33835 4074
L33859 4099
L33884 4147
L33884 4196
L33859 4269
L33567 4562
L33884 4562
" />
</g>
<g style="fill:#000000; fill-opacity:0.0; 
stroke:#000000; stroke-width:39.3701; stroke-opacity:1; 
stroke-linecap:round; stroke-linejoin:round;">
</g>
<g style="fill:#000000; fill-opacity:0.0; 
stroke:#000000; stroke-width:59.0551; stroke-opacity:1; 
stroke-linecap:round; stroke-linejoin:round;">
<text x="53149.6" y="4586.61"
textLength="546.494" font-size="682.415" lengthAdjust="spacingAndGlyphs"
text-anchor="start" opacity="0">3</text>
<path d="M53252 4050
L53569 4050
L53398 4245
L53471 4245
L53520 4269
L53544 4294
L53569 4342
L53569 4464
L53544 4513
L53520 4537
L53471 4562
L53325 4562
L53276 4537
L53252 4513
" />
</g>
<g style="fill:#000000; fill-opacity:0.0; 
stroke:#000000; stroke-width:39.3701; stroke-opacity:1; 
stroke-linecap:round; stroke-linejoin:round;">
</g>
<g style="fill:#000000; fill-opacity:0.0; 
stroke:#000000; stroke-width:59.0551; stroke-opacity:1; 
stroke-linecap:round; stroke-linejoin:round;">
<text x="72834.6" y="4586.61"
textLength="546.494" font-size="682.415" lengthAdjust="spacingAndGlyphs"
text-anchor="start" opacity="0">4</text>
<path d="M73205 4221
L73205 4562
" />
<path d="M73083 4026
L72961 4391
L73278 4391
" />
</g>
<g style="fill:#000000; fill-opacity:0.0; 
stroke:#000000; stroke-width:39.3701; stroke-opacity:1; 
stroke-linecap:round; stroke-linejoin:round;">
</g>
<g style="fill:#000000; fill-opacity:0.0; 
stroke:#000000; stroke-width:59.0551; stroke-opacity:1; 
stroke-linecap:round; stroke-linejoin:round;">
<text x="92519.7" y="4586.61"
textLength="546.494" font-size="682.415" lengthAdjust="spacingAndGlyphs"
text-anchor="start" opacity="0">5</text>
<path d="M92914 4050
L92671 4050
L92646 4294
L92671 4269
L92719 4245
L92841 4245
L92890 4269
L92914 4294
L92939 4342
L92939 4464
L92914 4513
L92890 4537
L92841 4562
L92719 4562
L92671 4537
L92646 4513
" />
</g>
<g style="fill:#000000; fill-opacity:0.0; 
stroke:#000000; stroke-width:39.3701; stroke-opacity:1; 
stroke-linecap:round; stroke-linejoin:round;">
</g>
<g style="fill:#000000; fill-opacity:0.0; 
stroke:#000000; stroke-width:59.0551; stroke-opacity:1; 
stroke-linecap:round; stroke-linejoin:round;">
<text x="112205" y="4586.61"
textLength="546.494" font-size="682.415" lengthAdjust="spacingAndGlyphs"
text-anchor="start" opacity="0">6</text>
<path d="M112575 4050
L112477 4050
L112429 4074
L112404 4099
L112356 4172
L112331 4269
L112331 4464
L112356 4513
L112380 4537
L112429 4562
L112526 4562
L112575 4537
L112599 4513
L112624 4464
L112624 4342
L112599 4294
L112575 4269
L112526 4245
L112429 4245
L112380 4269
L112356 4294
L112331 4342
" />
</g>
<g style="fill:#000000; fill-opacity:0.0; 
stroke:#000000; stroke-width:39.3701; stroke-opacity:1; 
stroke-linecap:round; stroke-linejoin:round;">
</g>
<g style="fill:#000000; fill-opacity:0.0; 
stroke:#000000; stroke-width:59.0551; stroke-opacity:1; 
stroke-linecap:round; stroke-linejoin:round;">
<path d="M23622 77955
L23622 78742
" />
</g>
<g style="fill:#000000; fill-opacity:0.0; 
stroke:#000000; stroke-width:39.3701; stroke-opacity:1; 
stroke-linecap:round; stroke-linejoin:round;">
</g>
<g style="fill:#000000; fill-opacity:0.0; 
stroke:#000000; stroke-width:59.0551; stroke-opacity:1; 
stroke-linecap:round; stroke-linejoin:round;">
<path d="M43307 77955
L43307 78742
" />
</g>
<g style="fill:#000000; fill-opacity:0.0; 
stroke:#000000; stroke-width:39.3701; stroke-opacity:1; 
stroke-linecap:round; stroke-linejoin:round;">
</g>
<g style="fill:#000000; fill-opacity:0.0; 
stroke:#000000; stroke-width:59.0551; stroke-opacity:1; 
stroke-linecap:round; stroke-linejoin:round;">
<path d="M62992 77955
L62992 78742
" />
</g>
<g style="fill:#000000; fill-opacity:0.0; 
stroke:#000000; stroke-width:39.3701; stroke-opacity:1; 
stroke-linecap:round; stroke-linejoin:round;">
</g>
<g style="fill:#000000; fill-opacity:0.0; 
stroke:#000000; stroke-width:59.0551; stroke-opacity:1; 
stroke-linecap:round; stroke-linejoin:round;">
<path d="M82677 77955
L82677 78742
" />
</g>
<g style="fill:#000000; fill-opacity:0.0; 
stroke:#000000; stroke-width:39.3701; stroke-opacity:1; 
stroke-linecap:round; stroke-linejoin:round;">
</g>
<g style="fill:#000000; fill-opacity:0.0; 
stroke:#000000; stroke-width:59.0551; stroke-opacity:1; 
stroke-linecap:round; stroke-linejoin:round;">
<path d="M102362 77955
L102362 78742
" />
</g>
<g style="fill:#000000; fill-opacity:0.0; 
stroke:#000000; stroke-width:39.3701; stroke-opacity:1; 
stroke-linecap:round; stroke-linejoin:round;">
</g>
<g style="fill:#000000; fill-opacity:0.0; 
stroke:#000000; stroke-width:59.0551; stroke-opacity:1; 
stroke-linecap:round; stroke-linejoin:round;">
<text x="13779.5" y="78605.2"
textLength="546.494" font-size="682.415" lengthAdjust="spacingAndGlyphs"
text-anchor="start" opacity="0">1</text>
<path d="M14199 78580
L13906 78580
" />
<path d="M14052 78580
L14052 78069
L14004 78142
L13955 78190
L13906 78215
" />
</g>
<g style="fill:#000000; fill-opacity:0.0; 
stroke:#000000; stroke-width:39.3701; stroke-opacity:1; 
stroke-linecap:round; stroke-linejoin:round;">
</g>
<g style="fill:#000000; fill-opacity:0.0; 
stroke:#000000; stroke-width:59.0551; stroke-opacity:1; 
stroke-linecap:round; stroke-linejoin:round;">
<text x="33464.6" y="78605.2"
textLength="546.494" font-size="682.415" lengthAdjust="spacingAndGlyphs"
text-anchor="start" opacity="0">2</text>
<path d="M33591 78117
L33615 78093
L33664 78069
L33786 78069
L33835 78093
L33859 78117
L33884 78166
L33884 78215
L33859 78288
L33567 78580
L33884 78580
" />
</g>
<g style="fill:#000000; fill-opacity:0.0; 
stroke:#000000; stroke-width:39.3701; stroke-opacity:1; 
stroke-linecap:round; stroke-linejoin:round;">
</g>
<g style="fill:#000000; fill-opacity:0.0; 
stroke:#000000; stroke-width:59.0551; stroke-opacity:1; 
stroke-linecap:round; stroke-linejoin:round;">
<text x="53149.6" y="78605.2"
textLength="546.494" font-size="682.415" lengthAdjust="spacingAndGlyphs"
text-anchor="start" opacity="0">3</text>
<path d="M53252 78069
L53569 78069
L53398 78263
L53471 78263
L53520 78288
L53544 78312
L53569 78361
L53569 78483
L53544 78532
L53520 78556
L53471 78580
L53325 78580
L53276 78556
L53252 78532
" />
</g>
<g style="fill:#000000; fill-opacity:0.0; 
stroke:#000000; stroke-width:39.3701; stroke-opacity:1; 
stroke-linecap:round; stroke-linejoin:round;">
</g>
<g style="fill:#000000; fill-opacity:0.0; 
stroke:#000000; stroke-width:59.0551; stroke-opacity:1; 
stroke-linecap:round; stroke-linejoin:round;">
<text x="72834.6" y="78605.2"
textLength="546.494" font-size="682.415" lengthAdjust="spacingAndGlyphs"
text-anchor="start" opacity="0">4</text>
<path d="M73205 78239
L73205 78580
" />
<path d="M73083 78044
L72961 78410
L73278 78410
" />
</g>
<g style="fill:#000000; fill-opacity:0.0; 
stroke:#000000; stroke-width:39.3701; stroke-opacity:1; 
stroke-linecap:round; stroke-linejoin:round;">
</g>
<g style="fill:#000000; fill-opacity:0.0; 
stroke:#000000; stroke-width:59.0551; stroke-opacity:1; 
stroke-linecap:round; stroke-linejoin:round;">
<text x="92519.7" y="78605.2"
textLength="546.494" font-size="682.415" lengthAdjust="spacingAndGlyphs"
text-anchor="start" opacity="0">5</text>
<path d="M92914 78069
L92671 78069
L92646 78312
L92671 78288
L92719 78263
L92841 78263
L92890 78288
L92914 78312
L92939 78361
L92939 78483
L92914 78532
L92890 78556
L92841 78580
L92719 78580
L92671 78556
L92646 78532
" />
</g>
<g style="fill:#000000; fill-opacity:0.0; 
stroke:#000000; stroke-width:39.3701; stroke-opacity:1; 
stroke-linecap:round; stroke-linejoin:round;">
</g>
<g style="fill:#000000; fill-opacity:0.0; 
stroke:#000000; stroke-width:59.0551; stroke-opacity:1; 
stroke-linecap:round; stroke-linejoin:round;">
<text x="112205" y="78605.2"
textLength="546.494" font-size="682.415" lengthAdjust="spacingAndGlyphs"
text-anchor="start" opacity="0">6</text>
<path d="M112575 78069
L112477 78069
L112429 78093
L112404 78117
L112356 78190
L112331 78288
L112331 78483
L112356 78532
L112380 78556
L112429 78580
L112526 78580
L112575 78556
L112599 78532
L112624 78483
L112624 78361
L112599 78312
L112575 78288
L112526 78263
L112429 78263
L112380 78288
L112356 78312
L112331 78361
" />
</g>
<g style="fill:#000000; fill-opacity:0.0; 
stroke:#000000; stroke-width:39.3701; stroke-opacity:1; 
stroke-linecap:round; stroke-linejoin:round;">
</g>
<g style="fill:#000000; fill-opacity:0.0; 
stroke:#000000; stroke-width:59.0551; stroke-opacity:1; 
stroke-linecap:round; stroke-linejoin:round;">
<path d="M3937 23622
L4724 23622
" />
</g>
<g style="fill:#000000; fill-opacity:0.0; 
stroke:#000000; stroke-width:39.3701; stroke-opacity:1; 
stroke-linecap:round; stroke-linejoin:round;">
</g>
<g style="fill:#000000; fill-opacity:0.0; 
stroke:#000000; stroke-width:59.0551; stroke-opacity:1; 
stroke-linecap:round; stroke-linejoin:round;">
<path d="M3937 43307
L4724 43307
" />
</g>
<g style="fill:#000000; fill-opacity:0.0; 
stroke:#000000; stroke-width:39.3701; stroke-opacity:1; 
stroke-linecap:round; stroke-linejoin:round;">
</g>
<g style="fill:#000000; fill-opacity:0.0; 
stroke:#000000; stroke-width:59.0551; stroke-opacity:1; 
stroke-linecap:round; stroke-linejoin:round;">
<path d="M3937 62992
L4724 62992
" />
</g>
<g style="fill:#000000; fill-opacity:0.0; 
stroke:#000000; stroke-width:39.3701; stroke-opacity:1; 
stroke-linecap:round; stroke-linejoin:round;">
</g>
<g style="fill:#000000; fill-opacity:0.0; 
stroke:#000000; stroke-width:59.0551; stroke-opacity:1; 
stroke-linecap:round; stroke-linejoin:round;">
<text x="4330.71" y="14035.4"
textLength="497.75" font-size="682.415" lengthAdjust="spacingAndGlyphs"
text-anchor="middle" opacity="0">A</text>
<path d="M4208 13864
L4452 13864
" />
<path d="M4160 14011
L4330 13499
L4501 14011
" />
</g>
<g style="fill:#000000; fill-opacity:0.0; 
stroke:#000000; stroke-width:39.3701; stroke-opacity:1; 
stroke-linecap:round; stroke-linejoin:round;">
</g>
<g style="fill:#000000; fill-opacity:0.0; 
stroke:#000000; stroke-width:59.0551; stroke-opacity:1; 
stroke-linecap:round; stroke-linejoin:round;">
<text x="4330.71" y="33720.5"
textLength="570.866" font-size="682.415" lengthAdjust="spacingAndGlyphs"
text-anchor="middle" opacity="0">B</text>
<path d="M4367 33428
L4440 33452
L4464 33476
L4489 33525
L4489 33598
L4464 33647
L4440 33671
L4391 33696
L4196 33696
L4196 33184
L4367 33184
L4416 33208
L4440 33233
L4464 33281
L4464 33330
L4440 33379
L4416 33403
L4367 33428
L4196 33428
" />
</g>
<g style="fill:#000000; fill-opacity:0.0; 
stroke:#000000; stroke-width:39.3701; stroke-opacity:1; 
stroke-linecap:round; stroke-linejoin:round;">
</g>
<g style="fill:#000000; fill-opacity:0.0; 
stroke:#000000; stroke-width:59.0551; stroke-opacity:1; 
stroke-linecap:round; stroke-linejoin:round;">
<text x="4330.71" y="53405.5"
textLength="570.866" font-size="682.415" lengthAdjust="spacingAndGlyphs"
text-anchor="middle" opacity="0">C</text>
<path d="M4489 53332
L4464 53356
L4391 53381
L4342 53381
L4269 53356
L4221 53308
L4196 53259
L4172 53161
L4172 53088
L4196 52991
L4221 52942
L4269 52893
L4342 52869
L4391 52869
L4464 52893
L4489 52918
" />
</g>
<g style="fill:#000000; fill-opacity:0.0; 
stroke:#000000; stroke-width:39.3701; stroke-opacity:1; 
stroke-linecap:round; stroke-linejoin:round;">
</g>
<g style="fill:#000000; fill-opacity:0.0; 
stroke:#000000; stroke-width:59.0551; stroke-opacity:1; 
stroke-linecap:round; stroke-linejoin:round;">
<text x="4330.71" y="73090.6"
textLength="570.866" font-size="682.415" lengthAdjust="spacingAndGlyphs"
text-anchor="middle" opacity="0">D</text>
<path d="M4196 73066
L4196 72554
L4318 72554
L4391 72578
L4440 72627
L4464 72676
L4489 72773
L4489 72846
L4464 72944
L4440 72993
L4391 73041
L4318 73066
L4196 73066
" />
</g>
<g style="fill:#000000; fill-opacity:0.0; 
stroke:#000000; stroke-width:39.3701; stroke-opacity:1; 
stroke-linecap:round; stroke-linejoin:round;">
</g>
<g style="fill:#000000; fill-opacity:0.0; 
stroke:#000000; stroke-width:59.0551; stroke-opacity:1; 
stroke-linecap:round; stroke-linejoin:round;">
<path d="M112992 23622
L112205 23622
" />
</g>
<g style="fill:#000000; fill-opacity:0.0; 
stroke:#000000; stroke-width:39.3701; stroke-opacity:1; 
stroke-linecap:round; stroke-linejoin:round;">
</g>
<g style="fill:#000000; fill-opacity:0.0; 
stroke:#000000; stroke-width:59.0551; stroke-opacity:1; 
stroke-linecap:round; stroke-linejoin:round;">
<path d="M112992 43307
L112205 43307
" />
</g>
<g style="fill:#000000; fill-opacity:0.0; 
stroke:#000000; stroke-width:39.3701; stroke-opacity:1; 
stroke-linecap:round; stroke-linejoin:round;">
</g>
<g style="fill:#000000; fill-opacity:0.0; 
stroke:#000000; stroke-width:59.0551; stroke-opacity:1; 
stroke-linecap:round; stroke-linejoin:round;">
<path d="M112992 62992
L112205 62992
" />
</g>
<g style="fill:#000000; fill-opacity:0.0; 
stroke:#000000; stroke-width:39.3701; stroke-opacity:1; 
stroke-linecap:round; stroke-linejoin:round;">
</g>
<g style="fill:#000000; fill-opacity:0.0; 
stroke:#000000; stroke-width:59.0551; stroke-opacity:1; 
stroke-linecap:round; stroke-linejoin:round;">
<text x="112599" y="14035.4"
textLength="497.75" font-size="682.415" lengthAdjust="spacingAndGlyphs"
text-anchor="middle" opacity="0">A</text>
<path d="M112477 13864
L112721 13864
" />
<path d="M112428 14011
L112599 13499
L112769 14011
" />
</g>
<g style="fill:#000000; fill-opacity:0.0; 
stroke:#000000; stroke-width:39.3701; stroke-opacity:1; 
stroke-linecap:round; stroke-linejoin:round;">
</g>
<g style="fill:#000000; fill-opacity:0.0; 
stroke:#000000; stroke-width:59.0551; stroke-opacity:1; 
stroke-linecap:round; stroke-linejoin:round;">
<text x="112599" y="33720.5"
textLength="570.866" font-size="682.415" lengthAdjust="spacingAndGlyphs"
text-anchor="middle" opacity="0">B</text>
<path d="M112635 33428
L112708 33452
L112733 33476
L112757 33525
L112757 33598
L112733 33647
L112708 33671
L112660 33696
L112465 33696
L112465 33184
L112635 33184
L112684 33208
L112708 33233
L112733 33281
L112733 33330
L112708 33379
L112684 33403
L112635 33428
L112465 33428
" />
</g>
<g style="fill:#000000; fill-opacity:0.0; 
stroke:#000000; stroke-width:39.3701; stroke-opacity:1; 
stroke-linecap:round; stroke-linejoin:round;">
</g>
<g style="fill:#000000; fill-opacity:0.0; 
stroke:#000000; stroke-width:59.0551; stroke-opacity:1; 
stroke-linecap:round; stroke-linejoin:round;">
<text x="112599" y="53405.5"
textLength="570.866" font-size="682.415" lengthAdjust="spacingAndGlyphs"
text-anchor="middle" opacity="0">C</text>
<path d="M112757 53332
L112733 53356
L112660 53381
L112611 53381
L112538 53356
L112489 53308
L112465 53259
L112440 53161
L112440 53088
L112465 52991
L112489 52942
L112538 52893
L112611 52869
L112660 52869
L112733 52893
L112757 52918
" />
</g>
<g style="fill:#000000; fill-opacity:0.0; 
stroke:#000000; stroke-width:39.3701; stroke-opacity:1; 
stroke-linecap:round; stroke-linejoin:round;">
</g>
<g style="fill:#000000; fill-opacity:0.0; 
stroke:#000000; stroke-width:59.0551; stroke-opacity:1; 
stroke-linecap:round; stroke-linejoin:round;">
<text x="112599" y="73090.6"
textLength="570.866" font-size="682.415" lengthAdjust="spacingAndGlyphs"
text-anchor="middle" opacity="0">D</text>
<path d="M112465 73066
L112465 72554
L112587 72554
L112660 72578
L112708 72627
L112733 72676
L112757 72773
L112757 72846
L112733 72944
L112708 72993
L112660 73041
L112587 73066
L112465 73066
" />
</g>
<g style="fill:#000000; fill-opacity:0.0; 
stroke:#000000; stroke-width:39.3701; stroke-opacity:1; 
stroke-linecap:round; stroke-linejoin:round;">
</g>
<g style="fill:#000000; fill-opacity:0.0; 
stroke:#000000; stroke-width:59.0551; stroke-opacity:1; 
stroke-linecap:round; stroke-linejoin:round;">
<text x="78741" y="76321.7"
textLength="2758.72" font-size="787.402" lengthAdjust="spacingAndGlyphs"
text-anchor="start" opacity="0">Date: </text>
<path d="M78911 76293
L78911 75703
L79051 75703
L79136 75731
L79192 75787
L79220 75843
L79248 75956
L79248 76040
L79220 76153
L79192 76209
L79136 76265
L79051 76293
L78911 76293
" />
<path d="M79754 76293
L79754 75984
L79726 75928
L79670 75899
L79557 75899
L79501 75928
" />
<path d="M79754 76265
L79698 76293
L79557 76293
L79501 76265
L79473 76209
L79473 76153
L79501 76096
L79557 76068
L79698 76068
L79754 76040
" />
<path d="M79951 75899
L80176 75899
" />
<path d="M80036 75703
L80036 76209
L80064 76265
L80120 76293
L80176 76293
" />
<path d="M80598 76265
L80542 76293
L80429 76293
L80373 76265
L80345 76209
L80345 75984
L80373 75928
L80429 75899
L80542 75899
L80598 75928
L80626 75984
L80626 76040
L80345 76096
" />
<path d="M80879 76237
L80907 76265
L80879 76293
L80851 76265
L80879 76237
L80879 76293
" />
<path d="M80879 75928
L80907 75956
L80879 75984
L80851 75956
L80879 75928
L80879 75984
" />
</g>
<g style="fill:#000000; fill-opacity:0.0; 
stroke:#000000; stroke-width:39.3701; stroke-opacity:1; 
stroke-linecap:round; stroke-linejoin:round;">
</g>
<g style="fill:#000000; fill-opacity:0.0; 
stroke:#000000; stroke-width:59.0551; stroke-opacity:1; 
stroke-linecap:round; stroke-linejoin:round;">
<path d="M69685 76577
L112205 76577
" />
</g>
<g style="fill:#000000; fill-opacity:0.0; 
stroke:#000000; stroke-width:39.3701; stroke-opacity:1; 
stroke-linecap:round; stroke-linejoin:round;">
</g>
<g style="fill:#000000; fill-opacity:0.0; 
stroke:#000000; stroke-width:59.0551; stroke-opacity:1; 
stroke-linecap:round; stroke-linejoin:round;">
<text x="70079.6" y="77424.1"
textLength="26690.1" font-size="787.402" lengthAdjust="spacingAndGlyphs"
text-anchor="start" opacity="0">KiCad E.D.A.  pcbnew 5.1.10-88a1d61d58~90~ubuntu20.04.1</text>
<path d="M70249 77395
L70249 76805
" />
<path d="M70587 77395
L70334 77058
" />
<path d="M70587 76805
L70249 77142
" />
<path d="M70840 77395
L70840 77002
" />
<path d="M70840 76805
L70812 76833
L70840 76861
L70868 76833
L70840 76805
L70840 76861
" />
<path d="M71458 77339
L71430 77367
L71346 77395
L71290 77395
L71205 77367
L71149 77311
L71121 77255
L71093 77142
L71093 77058
L71121 76946
L71149 76889
L71205 76833
L71290 76805
L71346 76805
L71430 76833
L71458 76861
" />
<path d="M71965 77395
L71965 77086
L71937 77030
L71880 77002
L71768 77002
L71712 77030
" />
<path d="M71965 77367
L71908 77395
L71768 77395
L71712 77367
L71683 77311
L71683 77255
L71712 77199
L71768 77171
L71908 77171
L71965 77142
" />
<path d="M72499 77395
L72499 76805
" />
<path d="M72499 77367
L72443 77395
L72330 77395
L72274 77367
L72246 77339
L72218 77283
L72218 77114
L72246 77058
L72274 77030
L72330 77002
L72443 77002
L72499 77030
" />
<path d="M73230 77086
L73427 77086
" />
<path d="M73511 77395
L73230 77395
L73230 76805
L73511 76805
" />
<path d="M73764 77339
L73793 77367
L73764 77395
L73736 77367
L73764 77339
L73764 77395
" />
<path d="M74046 77395
L74046 76805
L74186 76805
L74271 76833
L74327 76889
L74355 76946
L74383 77058
L74383 77142
L74355 77255
L74327 77311
L74271 77367
L74186 77395
L74046 77395
" />
<path d="M74636 77339
L74664 77367
L74636 77395
L74608 77367
L74636 77339
L74636 77395
" />
<path d="M74889 77227
L75171 77227
" />
<path d="M74833 77395
L75030 76805
L75227 77395
" />
<path d="M75424 77339
L75452 77367
L75424 77395
L75395 77367
L75424 77339
L75424 77395
" />
<path d="M76605 77002
L76605 77592
" />
<path d="M76605 77030
L76661 77002
L76773 77002
L76830 77030
L76858 77058
L76886 77114
L76886 77283
L76858 77339
L76830 77367
L76773 77395
L76661 77395
L76605 77367
" />
<path d="M77392 77367
L77336 77395
L77223 77395
L77167 77367
L77139 77339
L77111 77283
L77111 77114
L77139 77058
L77167 77030
L77223 77002
L77336 77002
L77392 77030
" />
<path d="M77645 77395
L77645 76805
" />
<path d="M77645 77030
L77701 77002
L77814 77002
L77870 77030
L77898 77058
L77926 77114
L77926 77283
L77898 77339
L77870 77367
L77814 77395
L77701 77395
L77645 77367
" />
<path d="M78180 77002
L78180 77395
" />
<path d="M78180 77058
L78208 77030
L78264 77002
L78348 77002
L78404 77030
L78433 77086
L78433 77395
" />
<path d="M78939 77367
L78883 77395
L78770 77395
L78714 77367
L78686 77311
L78686 77086
L78714 77030
L78770 77002
L78883 77002
L78939 77030
L78967 77086
L78967 77142
L78686 77199
" />
<path d="M79164 77002
L79276 77395
L79389 77114
L79501 77395
L79614 77002
" />
<path d="M80570 76805
L80289 76805
L80260 77086
L80289 77058
L80345 77030
L80485 77030
L80542 77058
L80570 77086
L80598 77142
L80598 77283
L80570 77339
L80542 77367
L80485 77395
L80345 77395
L80289 77367
L80260 77339
" />
<path d="M80851 77339
L80879 77367
L80851 77395
L80823 77367
L80851 77339
L80851 77395
" />
<path d="M81442 77395
L81104 77395
" />
<path d="M81273 77395
L81273 76805
L81217 76889
L81160 76946
L81104 76974
" />
<path d="M81695 77339
L81723 77367
L81695 77395
L81667 77367
L81695 77339
L81695 77395
" />
<path d="M82285 77395
L81948 77395
" />
<path d="M82117 77395
L82117 76805
L82060 76889
L82004 76946
L81948 76974
" />
<path d="M82651 76805
L82707 76805
L82763 76833
L82791 76861
L82820 76917
L82848 77030
L82848 77171
L82820 77283
L82791 77339
L82763 77367
L82707 77395
L82651 77395
L82595 77367
L82566 77339
L82538 77283
L82510 77171
L82510 77030
L82538 76917
L82566 76861
L82595 76833
L82651 76805
" />
<path d="M83101 77171
L83551 77171
" />
<path d="M83916 77058
L83860 77030
L83832 77002
L83804 76946
L83804 76917
L83832 76861
L83860 76833
L83916 76805
L84029 76805
L84085 76833
L84113 76861
L84141 76917
L84141 76946
L84113 77002
L84085 77030
L84029 77058
L83916 77058
L83860 77086
L83832 77114
L83804 77171
L83804 77283
L83832 77339
L83860 77367
L83916 77395
L84029 77395
L84085 77367
L84113 77339
L84141 77283
L84141 77171
L84113 77114
L84085 77086
L84029 77058
" />
<path d="M84479 77058
L84422 77030
L84394 77002
L84366 76946
L84366 76917
L84394 76861
L84422 76833
L84479 76805
L84591 76805
L84647 76833
L84676 76861
L84704 76917
L84704 76946
L84676 77002
L84647 77030
L84591 77058
L84479 77058
L84422 77086
L84394 77114
L84366 77171
L84366 77283
L84394 77339
L84422 77367
L84479 77395
L84591 77395
L84647 77367
L84676 77339
L84704 77283
L84704 77171
L84676 77114
L84647 77086
L84591 77058
" />
<path d="M85210 77395
L85210 77086
L85182 77030
L85126 77002
L85013 77002
L84957 77030
" />
<path d="M85210 77367
L85154 77395
L85013 77395
L84957 77367
L84929 77311
L84929 77255
L84957 77199
L85013 77171
L85154 77171
L85210 77142
" />
<path d="M85800 77395
L85463 77395
" />
<path d="M85632 77395
L85632 76805
L85575 76889
L85519 76946
L85463 76974
" />
<path d="M86307 77395
L86307 76805
" />
<path d="M86307 77367
L86250 77395
L86138 77395
L86082 77367
L86054 77339
L86025 77283
L86025 77114
L86054 77058
L86082 77030
L86138 77002
L86250 77002
L86307 77030
" />
<path d="M86841 76805
L86728 76805
L86672 76833
L86644 76861
L86588 76946
L86560 77058
L86560 77283
L86588 77339
L86616 77367
L86672 77395
L86785 77395
L86841 77367
L86869 77339
L86897 77283
L86897 77142
L86869 77086
L86841 77058
L86785 77030
L86672 77030
L86616 77058
L86588 77086
L86560 77142
" />
<path d="M87460 77395
L87122 77395
" />
<path d="M87291 77395
L87291 76805
L87235 76889
L87178 76946
L87122 76974
" />
<path d="M87966 77395
L87966 76805
" />
<path d="M87966 77367
L87910 77395
L87797 77395
L87741 77367
L87713 77339
L87685 77283
L87685 77114
L87713 77058
L87741 77030
L87797 77002
L87910 77002
L87966 77030
" />
<path d="M88528 76805
L88247 76805
L88219 77086
L88247 77058
L88303 77030
L88444 77030
L88500 77058
L88528 77086
L88556 77142
L88556 77283
L88528 77339
L88500 77367
L88444 77395
L88303 77395
L88247 77367
L88219 77339
" />
<path d="M88894 77058
L88838 77030
L88809 77002
L88781 76946
L88781 76917
L88809 76861
L88838 76833
L88894 76805
L89006 76805
L89063 76833
L89091 76861
L89119 76917
L89119 76946
L89091 77002
L89063 77030
L89006 77058
L88894 77058
L88838 77086
L88809 77114
L88781 77171
L88781 77283
L88809 77339
L88838 77367
L88894 77395
L89006 77395
L89063 77367
L89091 77339
L89119 77283
L89119 77171
L89091 77114
L89063 77086
L89006 77058
" />
<path d="M89231 76644
L89794 76644
" />
<path d="M89400 77395
L89512 77395
L89569 77367
L89597 77339
L89653 77255
L89681 77142
L89681 76917
L89653 76861
L89625 76833
L89569 76805
L89456 76805
L89400 76833
L89372 76861
L89344 76917
L89344 77058
L89372 77114
L89400 77142
L89456 77171
L89569 77171
L89625 77142
L89653 77114
L89681 77058
" />
<path d="M89794 76644
L90356 76644
" />
<path d="M90047 76805
L90103 76805
L90159 76833
L90187 76861
L90215 76917
L90244 77030
L90244 77171
L90215 77283
L90187 77339
L90159 77367
L90103 77395
L90047 77395
L89991 77367
L89962 77339
L89934 77283
L89906 77171
L89906 77030
L89934 76917
L89962 76861
L89991 76833
L90047 76805
" />
<path d="M90750 77002
L90750 77395
" />
<path d="M90497 77002
L90497 77311
L90525 77367
L90581 77395
L90665 77395
L90722 77367
L90750 77339
" />
<path d="M91031 77395
L91031 76805
" />
<path d="M91031 77030
L91087 77002
L91200 77002
L91256 77030
L91284 77058
L91312 77114
L91312 77283
L91284 77339
L91256 77367
L91200 77395
L91087 77395
L91031 77367
" />
<path d="M91818 77002
L91818 77395
" />
<path d="M91565 77002
L91565 77311
L91593 77367
L91650 77395
L91734 77395
L91790 77367
L91818 77339
" />
<path d="M92100 77002
L92100 77395
" />
<path d="M92100 77058
L92128 77030
L92184 77002
L92268 77002
L92325 77030
L92353 77086
L92353 77395
" />
<path d="M92550 77002
L92775 77002
" />
<path d="M92634 76805
L92634 77311
L92662 77367
L92718 77395
L92775 77395
" />
<path d="M93224 77002
L93224 77395
" />
<path d="M92971 77002
L92971 77311
L93000 77367
L93056 77395
L93140 77395
L93196 77367
L93224 77339
" />
<path d="M93478 76861
L93506 76833
L93562 76805
L93703 76805
L93759 76833
L93787 76861
L93815 76917
L93815 76974
L93787 77058
L93449 77395
L93815 77395
" />
<path d="M94181 76805
L94237 76805
L94293 76833
L94321 76861
L94349 76917
L94377 77030
L94377 77171
L94349 77283
L94321 77339
L94293 77367
L94237 77395
L94181 77395
L94124 77367
L94096 77339
L94068 77283
L94040 77171
L94040 77030
L94068 76917
L94096 76861
L94124 76833
L94181 76805
" />
<path d="M94631 77339
L94659 77367
L94631 77395
L94602 77367
L94631 77339
L94631 77395
" />
<path d="M95024 76805
L95081 76805
L95137 76833
L95165 76861
L95193 76917
L95221 77030
L95221 77171
L95193 77283
L95165 77339
L95137 77367
L95081 77395
L95024 77395
L94968 77367
L94940 77339
L94912 77283
L94884 77171
L94884 77030
L94912 76917
L94940 76861
L94968 76833
L95024 76805
" />
<path d="M95727 77002
L95727 77395
" />
<path d="M95587 76777
L95446 77199
L95812 77199
" />
<path d="M96037 77339
L96065 77367
L96037 77395
L96009 77367
L96037 77339
L96037 77395
" />
<path d="M96627 77395
L96290 77395
" />
<path d="M96458 77395
L96458 76805
L96402 76889
L96346 76946
L96290 76974
" />
</g>
<g style="fill:#000000; fill-opacity:0.0; 
stroke:#000000; stroke-width:39.3701; stroke-opacity:1; 
stroke-linecap:round; stroke-linejoin:round;">
</g>
<g style="fill:#000000; fill-opacity:0.0; 
stroke:#000000; stroke-width:59.0551; stroke-opacity:1; 
stroke-linecap:round; stroke-linejoin:round;">
<path d="M69685 75396
L112205 75396
" />
</g>
<g style="fill:#000000; fill-opacity:0.0; 
stroke:#000000; stroke-width:39.3701; stroke-opacity:1; 
stroke-linecap:round; stroke-linejoin:round;">
</g>
<g style="fill:#000000; fill-opacity:0.0; 
stroke:#000000; stroke-width:118.11; stroke-opacity:1; 
stroke-linecap:round; stroke-linejoin:round;">
<text x="103544" y="76321.7"
textLength="2336.9" font-size="787.402" lengthAdjust="spacingAndGlyphs"
text-anchor="start" opacity="0">Rev: </text>
<path d="M104099 76293
L103902 76012
" />
<path d="M103761 76293
L103761 75703
L103986 75703
L104042 75731
L104070 75759
L104099 75815
L104099 75899
L104070 75956
L104042 75984
L103986 76012
L103761 76012
" />
<path d="M104577 76265
L104520 76293
L104408 76293
L104352 76265
L104323 76209
L104323 75984
L104352 75928
L104408 75899
L104520 75899
L104577 75928
L104605 75984
L104605 76040
L104323 76096
" />
<path d="M104802 75899
L104942 76293
L105083 75899
" />
<path d="M105308 76237
L105336 76265
L105308 76293
L105280 76265
L105308 76237
L105308 76293
" />
<path d="M105308 75928
L105336 75956
L105308 75984
L105280 75956
L105308 75928
L105308 75984
" />
</g>
<g style="fill:#000000; fill-opacity:0.0; 
stroke:#000000; stroke-width:39.3701; stroke-opacity:1; 
stroke-linecap:round; stroke-linejoin:round;">
</g>
<g style="fill:#000000; fill-opacity:0.0; 
stroke:#000000; stroke-width:59.0551; stroke-opacity:1; 
stroke-linecap:round; stroke-linejoin:round;">
<text x="70079.6" y="76321.7"
textLength="3781.21" font-size="787.402" lengthAdjust="spacingAndGlyphs"
text-anchor="start" opacity="0">Size: A4</text>
<path d="M70221 76265
L70305 76293
L70446 76293
L70502 76265
L70530 76237
L70559 76181
L70559 76124
L70530 76068
L70502 76040
L70446 76012
L70334 75984
L70277 75956
L70249 75928
L70221 75871
L70221 75815
L70249 75759
L70277 75731
L70334 75703
L70474 75703
L70559 75731
" />
<path d="M70812 76293
L70812 75899
" />
<path d="M70812 75703
L70784 75731
L70812 75759
L70840 75731
L70812 75703
L70812 75759
" />
<path d="M71037 75899
L71346 75899
L71037 76293
L71346 76293
" />
<path d="M71796 76265
L71740 76293
L71627 76293
L71571 76265
L71543 76209
L71543 75984
L71571 75928
L71627 75899
L71740 75899
L71796 75928
L71824 75984
L71824 76040
L71543 76096
" />
<path d="M72077 76237
L72105 76265
L72077 76293
L72049 76265
L72077 76237
L72077 76293
" />
<path d="M72077 75928
L72105 75956
L72077 75984
L72049 75956
L72077 75928
L72077 75984
" />
<path d="M72780 76124
L73061 76124
" />
<path d="M72724 76293
L72921 75703
L73118 76293
" />
<path d="M73568 75899
L73568 76293
" />
<path d="M73427 75674
L73286 76096
L73652 76096
" />
</g>
<g style="fill:#000000; fill-opacity:0.0; 
stroke:#000000; stroke-width:39.3701; stroke-opacity:1; 
stroke-linecap:round; stroke-linejoin:round;">
</g>
<g style="fill:#000000; fill-opacity:0.0; 
stroke:#000000; stroke-width:59.0551; stroke-opacity:1; 
stroke-linecap:round; stroke-linejoin:round;">
<text x="103544" y="77424.1"
textLength="3349.27" font-size="787.402" lengthAdjust="spacingAndGlyphs"
text-anchor="start" opacity="0">Id: 1/1</text>
<path d="M103714 77395
L103714 76805
" />
<path d="M104248 77395
L104248 76805
" />
<path d="M104248 77367
L104192 77395
L104079 77395
L104023 77367
L103995 77339
L103967 77283
L103967 77114
L103995 77058
L104023 77030
L104079 77002
L104192 77002
L104248 77030
" />
<path d="M104529 77339
L104557 77367
L104529 77395
L104501 77367
L104529 77339
L104529 77395
" />
<path d="M104529 77030
L104557 77058
L104529 77086
L104501 77058
L104529 77030
L104529 77086
" />
<path d="M105570 77395
L105232 77395
" />
<path d="M105401 77395
L105401 76805
L105345 76889
L105289 76946
L105232 76974
" />
<path d="M106245 76777
L105739 77536
" />
<path d="M106751 77395
L106413 77395
" />
<path d="M106582 77395
L106582 76805
L106526 76889
L106470 76946
L106413 76974
" />
</g>
<g style="fill:#000000; fill-opacity:0.0; 
stroke:#000000; stroke-width:39.3701; stroke-opacity:1; 
stroke-linecap:round; stroke-linejoin:round;">
</g>
<g style="fill:#000000; fill-opacity:0.0; 
stroke:#000000; stroke-width:59.0551; stroke-opacity:1; 
stroke-linecap:round; stroke-linejoin:round;">
<path d="M69685 73821
L112205 73821
" />
</g>
<g style="fill:#000000; fill-opacity:0.0; 
stroke:#000000; stroke-width:39.3701; stroke-opacity:1; 
stroke-linecap:round; stroke-linejoin:round;">
</g>
<g style="fill:#000000; fill-opacity:0.0; 
stroke:#000000; stroke-width:157.48; stroke-opacity:1; 
stroke-linecap:round; stroke-linejoin:round;">
<text x="70079.6" y="74924.1"
textLength="3701.14" font-size="1049.87" lengthAdjust="spacingAndGlyphs"
text-anchor="start" opacity="0">Title: </text>
<path d="M70360 74099
L70810 74099
" />
<path d="M70486 74886
L70585 74099
" />
<path d="M70974 74886
L71039 74361
" />
<path d="M71072 74099
L71030 74136
L71063 74174
L71105 74136
L71072 74099
L71063 74174
" />
<path d="M71302 74361
L71602 74361
" />
<path d="M71447 74099
L71363 74774
L71391 74849
L71461 74886
L71536 74886
" />
<path d="M71911 74886
L71841 74849
L71813 74774
L71897 74099
" />
<path d="M72516 74849
L72436 74886
L72286 74886
L72216 74849
L72187 74774
L72225 74474
L72272 74399
L72352 74361
L72501 74361
L72572 74399
L72600 74474
L72591 74549
L72206 74624
" />
<path d="M72895 74811
L72928 74849
L72886 74886
L72853 74849
L72895 74811
L72886 74886
" />
<path d="M72947 74399
L72980 74436
L72937 74474
L72905 74436
L72947 74399
L72937 74474
" />
</g>
<g style="fill:#000000; fill-opacity:0.0; 
stroke:#000000; stroke-width:39.3701; stroke-opacity:1; 
stroke-linecap:round; stroke-linejoin:round;">
</g>
<g style="fill:#000000; fill-opacity:0.0; 
stroke:#000000; stroke-width:59.0551; stroke-opacity:1; 
stroke-linecap:round; stroke-linejoin:round;">
<text x="70079.6" y="73408.3"
textLength="10244.1" font-size="787.402" lengthAdjust="spacingAndGlyphs"
text-anchor="start" opacity="0">File: Peepsy.kicad_pcb</text>
<path d="M70446 73070
L70249 73070
" />
<path d="M70249 73380
L70249 72789
L70530 72789
" />
<path d="M70755 73380
L70755 72986
" />
<path d="M70755 72789
L70727 72817
L70755 72845
L70784 72817
L70755 72789
L70755 72845
" />
<path d="M71121 73380
L71065 73352
L71037 73295
L71037 72789
" />
<path d="M71571 73352
L71515 73380
L71402 73380
L71346 73352
L71318 73295
L71318 73070
L71346 73014
L71402 72986
L71515 72986
L71571 73014
L71599 73070
L71599 73127
L71318 73183
" />
<path d="M71852 73323
L71880 73352
L71852 73380
L71824 73352
L71852 73323
L71852 73380
" />
<path d="M71852 73014
L71880 73042
L71852 73070
L71824 73042
L71852 73014
L71852 73070
" />
<path d="M72583 73380
L72583 72789
L72808 72789
L72865 72817
L72893 72845
L72921 72902
L72921 72986
L72893 73042
L72865 73070
L72808 73099
L72583 73099
" />
<path d="M73399 73352
L73343 73380
L73230 73380
L73174 73352
L73146 73295
L73146 73070
L73174 73014
L73230 72986
L73343 72986
L73399 73014
L73427 73070
L73427 73127
L73146 73183
" />
<path d="M73905 73352
L73849 73380
L73736 73380
L73680 73352
L73652 73295
L73652 73070
L73680 73014
L73736 72986
L73849 72986
L73905 73014
L73933 73070
L73933 73127
L73652 73183
" />
<path d="M74186 72986
L74186 73577
" />
<path d="M74186 73014
L74242 72986
L74355 72986
L74411 73014
L74439 73042
L74467 73099
L74467 73267
L74439 73323
L74411 73352
L74355 73380
L74242 73380
L74186 73352
" />
<path d="M74692 73352
L74749 73380
L74861 73380
L74917 73352
L74946 73295
L74946 73267
L74917 73211
L74861 73183
L74777 73183
L74721 73155
L74692 73099
L74692 73070
L74721 73014
L74777 72986
L74861 72986
L74917 73014
" />
<path d="M75142 72986
L75283 73380
" />
<path d="M75424 72986
L75283 73380
L75227 73520
L75199 73548
L75142 73577
" />
<path d="M75649 73323
L75677 73352
L75649 73380
L75620 73352
L75649 73323
L75649 73380
" />
<path d="M75930 73380
L75930 72789
" />
<path d="M75986 73155
L76155 73380
" />
<path d="M76155 72986
L75930 73211
" />
<path d="M76408 73380
L76408 72986
" />
<path d="M76408 72789
L76380 72817
L76408 72845
L76436 72817
L76408 72789
L76408 72845
" />
<path d="M76942 73352
L76886 73380
L76773 73380
L76717 73352
L76689 73323
L76661 73267
L76661 73099
L76689 73042
L76717 73014
L76773 72986
L76886 72986
L76942 73014
" />
<path d="M77448 73380
L77448 73070
L77420 73014
L77364 72986
L77251 72986
L77195 73014
" />
<path d="M77448 73352
L77392 73380
L77251 73380
L77195 73352
L77167 73295
L77167 73239
L77195 73183
L77251 73155
L77392 73155
L77448 73127
" />
<path d="M77983 73380
L77983 72789
" />
<path d="M77983 73352
L77926 73380
L77814 73380
L77758 73352
L77730 73323
L77701 73267
L77701 73099
L77730 73042
L77758 73014
L77814 72986
L77926 72986
L77983 73014
" />
<path d="M78123 73436
L78573 73436
" />
<path d="M78714 72986
L78714 73577
" />
<path d="M78714 73014
L78770 72986
L78883 72986
L78939 73014
L78967 73042
L78995 73099
L78995 73267
L78967 73323
L78939 73352
L78883 73380
L78770 73380
L78714 73352
" />
<path d="M79501 73352
L79445 73380
L79332 73380
L79276 73352
L79248 73323
L79220 73267
L79220 73099
L79248 73042
L79276 73014
L79332 72986
L79445 72986
L79501 73014
" />
<path d="M79754 73380
L79754 72789
" />
<path d="M79754 73014
L79811 72986
L79923 72986
L79979 73014
L80007 73042
L80036 73099
L80036 73267
L80007 73323
L79979 73352
L79923 73380
L79811 73380
L79754 73352
" />
</g>
<g style="fill:#000000; fill-opacity:0.0; 
stroke:#000000; stroke-width:39.3701; stroke-opacity:1; 
stroke-linecap:round; stroke-linejoin:round;">
</g>
<g style="fill:#000000; fill-opacity:0.0; 
stroke:#000000; stroke-width:59.0551; stroke-opacity:1; 
stroke-linecap:round; stroke-linejoin:round;">
<path d="M69685 71459
L112205 71459
" />
</g>
<g style="fill:#000000; fill-opacity:0.0; 
stroke:#000000; stroke-width:39.3701; stroke-opacity:1; 
stroke-linecap:round; stroke-linejoin:round;">
</g>
<g style="fill:#000000; fill-opacity:0.0; 
stroke:#000000; stroke-width:59.0551; stroke-opacity:1; 
stroke-linecap:round; stroke-linejoin:round;">
<text x="70079.6" y="72345.4"
textLength="3236.78" font-size="787.402" lengthAdjust="spacingAndGlyphs"
text-anchor="start" opacity="0">Sheet: </text>
<path d="M70221 72289
L70305 72317
L70446 72317
L70502 72289
L70530 72260
L70559 72204
L70559 72148
L70530 72092
L70502 72064
L70446 72036
L70334 72007
L70277 71979
L70249 71951
L70221 71895
L70221 71839
L70249 71782
L70277 71754
L70334 71726
L70474 71726
L70559 71754
" />
<path d="M70812 72317
L70812 71726
" />
<path d="M71065 72317
L71065 72007
L71037 71951
L70980 71923
L70896 71923
L70840 71951
L70812 71979
" />
<path d="M71571 72289
L71515 72317
L71402 72317
L71346 72289
L71318 72232
L71318 72007
L71346 71951
L71402 71923
L71515 71923
L71571 71951
L71599 72007
L71599 72064
L71318 72120
" />
<path d="M72077 72289
L72021 72317
L71908 72317
L71852 72289
L71824 72232
L71824 72007
L71852 71951
L71908 71923
L72021 71923
L72077 71951
L72105 72007
L72105 72064
L71824 72120
" />
<path d="M72274 71923
L72499 71923
" />
<path d="M72358 71726
L72358 72232
L72386 72289
L72443 72317
L72499 72317
" />
<path d="M72696 72260
L72724 72289
L72696 72317
L72668 72289
L72696 72260
L72696 72317
" />
<path d="M72696 71951
L72724 71979
L72696 72007
L72668 71979
L72696 71951
L72696 72007
" />
</g>
<g style="fill:#000000; fill-opacity:0.0; 
stroke:#000000; stroke-width:39.3701; stroke-opacity:1; 
stroke-linecap:round; stroke-linejoin:round;">
</g>
<g style="fill:#000000; fill-opacity:0.0; 
stroke:#000000; stroke-width:59.0551; stroke-opacity:1; 
stroke-linecap:round; stroke-linejoin:round;">
<path d="M77559 75396
L77559 76577
" />
</g>
<g style="fill:#000000; fill-opacity:0.0; 
stroke:#000000; stroke-width:39.3701; stroke-opacity:1; 
stroke-linecap:round; stroke-linejoin:round;">
</g>
<g style="fill:#000000; fill-opacity:0.0; 
stroke:#000000; stroke-width:59.0551; stroke-opacity:1; 
stroke-linecap:round; stroke-linejoin:round;">
<path d="M102756 75396
L102756 77955
" />
<g >
</g>
<g style="fill:#840000; fill-opacity:0.0; 
stroke:#840000; stroke-width:59.0551; stroke-opacity:1; 
stroke-linecap:round; stroke-linejoin:round;">
</g>
<g style="fill:#840000; fill-opacity:0.0; 
stroke:#840000; stroke-width:0; stroke-opacity:1; 
stroke-linecap:round; stroke-linejoin:round;">
</g>
<g style="fill:#840000; fill-opacity:1.0; 
stroke:#840000; stroke-width:0; stroke-opacity:1; 
stroke-linecap:round; stroke-linejoin:round;">
<path style="fill:#840000; fill-opacity:1.0; 
stroke:#840000; stroke-width:0; stroke-opacity:1; 
stroke-linecap:round; stroke-linejoin:round;fill-rule:evenodd;"
d="M 48756.1,45956
48765.7,45957.4
48775,45959.8
48784.1,45963
48792.9,45967.1
48801.1,45972.1
48808.9,45977.9
48816.1,45984.3
48822.5,45991.5
48828.3,45999.3
48833.3,46007.5
48837.4,46016.3
48840.6,46025.4
48843,46034.7
48844.4,46044.3
48844.9,46053.9
48844.9,46546.1
48844.4,46555.7
48843,46565.3
48840.6,46574.6
48837.4,46583.7
48833.3,46592.5
48828.3,46600.7
48822.5,46608.5
48816.1,46615.7
48808.9,46622.1
48801.1,46627.9
48792.9,46632.9
48784.1,46637
48775,46640.2
48765.7,46642.6
48756.1,46644
48746.5,46644.5
48382.3,46644.5
48372.6,46644
48363.1,46642.6
48353.7,46640.2
48344.6,46637
48335.9,46632.9
48327.6,46627.9
48319.8,46622.1
48312.7,46615.7
48306.2,46608.5
48300.4,46600.7
48295.5,46592.5
48291.4,46583.7
48288.1,46574.6
48285.7,46565.3
48284.3,46555.7
48283.9,46546.1
48283.9,46053.9
48284.3,46044.3
48285.7,46034.7
48288.1,46025.4
48291.4,46016.3
48295.5,46007.5
48300.4,45999.3
48306.2,45991.5
48312.7,45984.3
48319.8,45977.9
48327.6,45972.1
48335.9,45967.1
48344.6,45963
48353.7,45959.8
48363.1,45957.4
48372.6,45956
48382.3,45955.5
48746.5,45955.5
Z" /> 
<path style="fill:#840000; fill-opacity:1.0; 
stroke:#840000; stroke-width:0; stroke-opacity:1; 
stroke-linecap:round; stroke-linejoin:round;fill-rule:evenodd;"
d="M 49927.4,45956
49936.9,45957.4
49946.3,45959.8
49955.4,45963
49964.1,45967.1
49972.4,45972.1
49980.2,45977.9
49987.3,45984.3
49993.8,45991.5
49999.6,45999.3
50004.5,46007.5
50008.6,46016.3
50011.9,46025.4
50014.3,46034.7
50015.7,46044.3
50016.1,46053.9
50016.1,46546.1
50015.7,46555.7
50014.3,46565.3
50011.9,46574.6
50008.6,46583.7
50004.5,46592.5
49999.6,46600.7
49993.8,46608.5
49987.3,46615.7
49980.2,46622.1
49972.4,46627.9
49964.1,46632.9
49955.4,46637
49946.3,46640.2
49936.9,46642.6
49927.4,46644
49917.7,46644.5
49553.5,46644.5
49543.9,46644
49534.3,46642.6
49525,46640.2
49515.9,46637
49507.1,46632.9
49498.9,46627.9
49491.1,46622.1
49483.9,46615.7
49477.5,46608.5
49471.7,46600.7
49466.7,46592.5
49462.6,46583.7
49459.4,46574.6
49457,46565.3
49455.6,46555.7
49455.1,46546.1
49455.1,46053.9
49455.6,46044.3
49457,46034.7
49459.4,46025.4
49462.6,46016.3
49466.7,46007.5
49471.7,45999.3
49477.5,45991.5
49483.9,45984.3
49491.1,45977.9
49498.9,45972.1
49507.1,45967.1
49515.9,45963
49525,45959.8
49534.3,45957.4
49543.9,45956
49553.5,45955.5
49917.7,45955.5
Z" /> 
</g>
<g >
</g>
<g style="fill:#840000; fill-opacity:1.0; 
stroke:#840000; stroke-width:0; stroke-opacity:1; 
stroke-linecap:round; stroke-linejoin:round;">
<path style="fill:#840000; fill-opacity:1.0; 
stroke:#840000; stroke-width:0; stroke-opacity:1; 
stroke-linecap:round; stroke-linejoin:round;fill-rule:evenodd;"
d="M 48761.6,43656
48771.2,43657.4
48780.5,43659.8
48789.6,43663
48798.4,43667.1
48806.7,43672.1
48814.4,43677.9
48821.6,43684.3
48828.1,43691.5
48833.8,43699.3
48838.8,43707.5
48842.9,43716.3
48846.2,43725.4
48848.5,43734.7
48849.9,43744.3
48850.4,43753.9
48850.4,44246.1
48849.9,44255.7
48848.5,44265.3
48846.2,44274.6
48842.9,44283.7
48838.8,44292.5
48833.8,44300.7
48828.1,44308.5
48821.6,44315.7
48814.4,44322.1
48806.7,44327.9
48798.4,44332.9
48789.6,44337
48780.5,44340.2
48771.2,44342.6
48761.6,44344
48752,44344.5
48387.8,44344.5
48378.1,44344
48368.6,44342.6
48359.2,44340.2
48350.1,44337
48341.4,44332.9
48333.1,44327.9
48325.4,44322.1
48318.2,44315.7
48311.7,44308.5
48306,44300.7
48301,44292.5
48296.9,44283.7
48293.6,44274.6
48291.3,44265.3
48289.8,44255.7
48289.4,44246.1
48289.4,43753.9
48289.8,43744.3
48291.3,43734.7
48293.6,43725.4
48296.9,43716.3
48301,43707.5
48306,43699.3
48311.7,43691.5
48318.2,43684.3
48325.4,43677.9
48333.1,43672.1
48341.4,43667.1
48350.1,43663
48359.2,43659.8
48368.6,43657.4
48378.1,43656
48387.8,43655.5
48752,43655.5
Z" /> 
<path style="fill:#840000; fill-opacity:1.0; 
stroke:#840000; stroke-width:0; stroke-opacity:1; 
stroke-linecap:round; stroke-linejoin:round;fill-rule:evenodd;"
d="M 49932.9,43656
49942.4,43657.4
49951.8,43659.8
49960.9,43663
49969.6,43667.1
49977.9,43672.1
49985.7,43677.9
49992.8,43684.3
49999.3,43691.5
50005.1,43699.3
50010,43707.5
50014.2,43716.3
50017.4,43725.4
50019.8,43734.7
50021.2,43744.3
50021.7,43753.9
50021.7,44246.1
50021.2,44255.7
50019.8,44265.3
50017.4,44274.6
50014.2,44283.7
50010,44292.5
50005.1,44300.7
49999.3,44308.5
49992.8,44315.7
49985.7,44322.1
49977.9,44327.9
49969.6,44332.9
49960.9,44337
49951.8,44340.2
49942.4,44342.6
49932.9,44344
49923.2,44344.5
49559.1,44344.5
49549.4,44344
49539.9,44342.6
49530.5,44340.2
49521.4,44337
49512.7,44332.9
49504.4,44327.9
49496.6,44322.1
49489.5,44315.7
49483,44308.5
49477.2,44300.7
49472.3,44292.5
49468.1,44283.7
49464.9,44274.6
49462.5,44265.3
49461.1,44255.7
49460.6,44246.1
49460.6,43753.9
49461.1,43744.3
49462.5,43734.7
49464.9,43725.4
49468.1,43716.3
49472.3,43707.5
49477.2,43699.3
49483,43691.5
49489.5,43684.3
49496.6,43677.9
49504.4,43672.1
49512.7,43667.1
49521.4,43663
49530.5,43659.8
49539.9,43657.4
49549.4,43656
49559.1,43655.5
49923.2,43655.5
Z" /> 
</g>
<g >
</g>
<g style="fill:#840000; fill-opacity:1.0; 
stroke:#840000; stroke-width:0; stroke-opacity:1; 
stroke-linecap:round; stroke-linejoin:round;">
<path style="fill:#840000; fill-opacity:1.0; 
stroke:#840000; stroke-width:0; stroke-opacity:1; 
stroke-linecap:round; stroke-linejoin:round;fill-rule:evenodd;"
d="M 48761.6,44906
48771.2,44907.4
48780.5,44909.8
48789.6,44913
48798.4,44917.1
48806.7,44922.1
48814.4,44927.9
48821.6,44934.3
48828.1,44941.5
48833.8,44949.3
48838.8,44957.5
48842.9,44966.3
48846.2,44975.4
48848.5,44984.7
48849.9,44994.3
48850.4,45003.9
48850.4,45496.1
48849.9,45505.7
48848.5,45515.3
48846.2,45524.6
48842.9,45533.7
48838.8,45542.5
48833.8,45550.7
48828.1,45558.5
48821.6,45565.7
48814.4,45572.1
48806.7,45577.9
48798.4,45582.9
48789.6,45587
48780.5,45590.2
48771.2,45592.6
48761.6,45594
48752,45594.5
48387.8,45594.5
48378.1,45594
48368.6,45592.6
48359.2,45590.2
48350.1,45587
48341.4,45582.9
48333.1,45577.9
48325.4,45572.1
48318.2,45565.7
48311.7,45558.5
48306,45550.7
48301,45542.5
48296.9,45533.7
48293.6,45524.6
48291.3,45515.3
48289.8,45505.7
48289.4,45496.1
48289.4,45003.9
48289.8,44994.3
48291.3,44984.7
48293.6,44975.4
48296.9,44966.3
48301,44957.5
48306,44949.3
48311.7,44941.5
48318.2,44934.3
48325.4,44927.9
48333.1,44922.1
48341.4,44917.1
48350.1,44913
48359.2,44909.8
48368.6,44907.4
48378.1,44906
48387.8,44905.5
48752,44905.5
Z" /> 
<path style="fill:#840000; fill-opacity:1.0; 
stroke:#840000; stroke-width:0; stroke-opacity:1; 
stroke-linecap:round; stroke-linejoin:round;fill-rule:evenodd;"
d="M 49932.9,44906
49942.4,44907.4
49951.8,44909.8
49960.9,44913
49969.6,44917.1
49977.9,44922.1
49985.7,44927.9
49992.8,44934.3
49999.3,44941.5
50005.1,44949.3
50010,44957.5
50014.2,44966.3
50017.4,44975.4
50019.8,44984.7
50021.2,44994.3
50021.7,45003.9
50021.7,45496.1
50021.2,45505.7
50019.8,45515.3
50017.4,45524.6
50014.2,45533.7
50010,45542.5
50005.1,45550.7
49999.3,45558.5
49992.8,45565.7
49985.7,45572.1
49977.9,45577.9
49969.6,45582.9
49960.9,45587
49951.8,45590.2
49942.4,45592.6
49932.9,45594
49923.2,45594.5
49559.1,45594.5
49549.4,45594
49539.9,45592.6
49530.5,45590.2
49521.4,45587
49512.7,45582.9
49504.4,45577.9
49496.6,45572.1
49489.5,45565.7
49483,45558.5
49477.2,45550.7
49472.3,45542.5
49468.1,45533.7
49464.9,45524.6
49462.5,45515.3
49461.1,45505.7
49460.6,45496.1
49460.6,45003.9
49461.1,44994.3
49462.5,44984.7
49464.9,44975.4
49468.1,44966.3
49472.3,44957.5
49477.2,44949.3
49483,44941.5
49489.5,44934.3
49496.6,44927.9
49504.4,44922.1
49512.7,44917.1
49521.4,44913
49530.5,44909.8
49539.9,44907.4
49549.4,44906
49559.1,44905.5
49923.2,44905.5
Z" /> 
</g>
<g >
</g>
<g style="fill:#840000; fill-opacity:1.0; 
stroke:#840000; stroke-width:0; stroke-opacity:1; 
stroke-linecap:round; stroke-linejoin:round;">
<path style="fill:#840000; fill-opacity:1.0; 
stroke:#840000; stroke-width:0; stroke-opacity:1; 
stroke-linecap:round; stroke-linejoin:round;fill-rule:evenodd;"
d="M 50460.5,40882.2
50466.2,40883
50471.9,40884.4
50477.3,40886.4
50482.6,40888.9
50487.5,40891.8
50492.2,40895.3
50496.5,40899.2
50500.4,40903.5
50503.8,40908.1
50506.8,40913.1
50509.3,40918.3
50511.2,40923.8
50512.6,40929.4
50513.5,40935.2
50513.8,40940.9
50513.8,41059.1
50513.5,41064.8
50512.6,41070.6
50511.2,41076.2
50509.3,41081.7
50506.8,41086.9
50503.8,41091.9
50500.4,41096.5
50496.5,41100.8
50492.2,41104.7
50487.5,41108.2
50482.6,41111.1
50477.3,41113.6
50471.9,41115.6
50466.2,41117
50460.5,41117.8
50454.7,41118.1
49962.6,41118.1
49956.8,41117.8
49951.1,41117
49945.5,41115.6
49940,41113.6
49934.8,41111.1
49929.8,41108.2
49925.1,41104.7
49920.8,41100.8
49916.9,41096.5
49913.5,41091.9
49910.5,41086.9
49908,41081.7
49906.1,41076.2
49904.7,41070.6
49903.8,41064.8
49903.5,41059.1
49903.5,40940.9
49903.8,40935.2
49904.7,40929.4
49906.1,40923.8
49908,40918.3
49910.5,40913.1
49913.5,40908.1
49916.9,40903.5
49920.8,40899.2
49925.1,40895.3
49929.8,40891.8
49934.8,40888.9
49940,40886.4
49945.5,40884.4
49951.1,40883
49956.8,40882.2
49962.6,40881.9
50454.7,40881.9
Z" /> 
<path style="fill:#840000; fill-opacity:1.0; 
stroke:#840000; stroke-width:0; stroke-opacity:1; 
stroke-linecap:round; stroke-linejoin:round;fill-rule:evenodd;"
d="M 50460.5,41382.2
50466.2,41383
50471.9,41384.4
50477.3,41386.4
50482.6,41388.9
50487.5,41391.8
50492.2,41395.3
50496.5,41399.2
50500.4,41403.5
50503.8,41408.1
50506.8,41413.1
50509.3,41418.3
50511.2,41423.8
50512.6,41429.4
50513.5,41435.2
50513.8,41440.9
50513.8,41559.1
50513.5,41564.8
50512.6,41570.6
50511.2,41576.2
50509.3,41581.7
50506.8,41586.9
50503.8,41591.9
50500.4,41596.5
50496.5,41600.8
50492.2,41604.7
50487.5,41608.2
50482.6,41611.1
50477.3,41613.6
50471.9,41615.6
50466.2,41617
50460.5,41617.8
50454.7,41618.1
49962.6,41618.1
49956.8,41617.8
49951.1,41617
49945.5,41615.6
49940,41613.6
49934.8,41611.1
49929.8,41608.2
49925.1,41604.7
49920.8,41600.8
49916.9,41596.5
49913.5,41591.9
49910.5,41586.9
49908,41581.7
49906.1,41576.2
49904.7,41570.6
49903.8,41564.8
49903.5,41559.1
49903.5,41440.9
49903.8,41435.2
49904.7,41429.4
49906.1,41423.8
49908,41418.3
49910.5,41413.1
49913.5,41408.1
49916.9,41403.5
49920.8,41399.2
49925.1,41395.3
49929.8,41391.8
49934.8,41388.9
49940,41386.4
49945.5,41384.4
49951.1,41383
49956.8,41382.2
49962.6,41381.9
50454.7,41381.9
Z" /> 
<path style="fill:#840000; fill-opacity:1.0; 
stroke:#840000; stroke-width:0; stroke-opacity:1; 
stroke-linecap:round; stroke-linejoin:round;fill-rule:evenodd;"
d="M 50460.5,41882.2
50466.2,41883
50471.9,41884.4
50477.3,41886.4
50482.6,41888.9
50487.5,41891.8
50492.2,41895.3
50496.5,41899.2
50500.4,41903.5
50503.8,41908.1
50506.8,41913.1
50509.3,41918.3
50511.2,41923.8
50512.6,41929.4
50513.5,41935.2
50513.8,41940.9
50513.8,42059.1
50513.5,42064.8
50512.6,42070.6
50511.2,42076.2
50509.3,42081.7
50506.8,42086.9
50503.8,42091.9
50500.4,42096.5
50496.5,42100.8
50492.2,42104.7
50487.5,42108.2
50482.6,42111.1
50477.3,42113.6
50471.9,42115.6
50466.2,42117
50460.5,42117.8
50454.7,42118.1
49962.6,42118.1
49956.8,42117.8
49951.1,42117
49945.5,42115.6
49940,42113.6
49934.8,42111.1
49929.8,42108.2
49925.1,42104.7
49920.8,42100.8
49916.9,42096.5
49913.5,42091.9
49910.5,42086.9
49908,42081.7
49906.1,42076.2
49904.7,42070.6
49903.8,42064.8
49903.5,42059.1
49903.5,41940.9
49903.8,41935.2
49904.7,41929.4
49906.1,41923.8
49908,41918.3
49910.5,41913.1
49913.5,41908.1
49916.9,41903.5
49920.8,41899.2
49925.1,41895.3
49929.8,41891.8
49934.8,41888.9
49940,41886.4
49945.5,41884.4
49951.1,41883
49956.8,41882.2
49962.6,41881.9
50454.7,41881.9
Z" /> 
<path style="fill:#840000; fill-opacity:1.0; 
stroke:#840000; stroke-width:0; stroke-opacity:1; 
stroke-linecap:round; stroke-linejoin:round;fill-rule:evenodd;"
d="M 50460.5,42382.2
50466.2,42383
50471.9,42384.4
50477.3,42386.4
50482.6,42388.9
50487.5,42391.8
50492.2,42395.3
50496.5,42399.2
50500.4,42403.5
50503.8,42408.1
50506.8,42413.1
50509.3,42418.3
50511.2,42423.8
50512.6,42429.4
50513.5,42435.2
50513.8,42440.9
50513.8,42559.1
50513.5,42564.8
50512.6,42570.6
50511.2,42576.2
50509.3,42581.7
50506.8,42586.9
50503.8,42591.9
50500.4,42596.5
50496.5,42600.8
50492.2,42604.7
50487.5,42608.2
50482.6,42611.1
50477.3,42613.6
50471.9,42615.6
50466.2,42617
50460.5,42617.8
50454.7,42618.1
49962.6,42618.1
49956.8,42617.8
49951.1,42617
49945.5,42615.6
49940,42613.6
49934.8,42611.1
49929.8,42608.2
49925.1,42604.7
49920.8,42600.8
49916.9,42596.5
49913.5,42591.9
49910.5,42586.9
49908,42581.7
49906.1,42576.2
49904.7,42570.6
49903.8,42564.8
49903.5,42559.1
49903.5,42440.9
49903.8,42435.2
49904.7,42429.4
49906.1,42423.8
49908,42418.3
49910.5,42413.1
49913.5,42408.1
49916.9,42403.5
49920.8,42399.2
49925.1,42395.3
49929.8,42391.8
49934.8,42388.9
49940,42386.4
49945.5,42384.4
49951.1,42383
49956.8,42382.2
49962.6,42381.9
50454.7,42381.9
Z" /> 
<path style="fill:#840000; fill-opacity:1.0; 
stroke:#840000; stroke-width:0; stroke-opacity:1; 
stroke-linecap:round; stroke-linejoin:round;fill-rule:evenodd;"
d="M 48354.2,42382.2
48359.9,42383
48365.6,42384.4
48371,42386.4
48376.3,42388.9
48381.2,42391.8
48385.9,42395.3
48390.2,42399.2
48394.1,42403.5
48397.5,42408.1
48400.5,42413.1
48403,42418.3
48404.9,42423.8
48406.3,42429.4
48407.2,42435.2
48407.5,42440.9
48407.5,42559.1
48407.2,42564.8
48406.3,42570.6
48404.9,42576.2
48403,42581.7
48400.5,42586.9
48397.5,42591.9
48394.1,42596.5
48390.2,42600.8
48385.9,42604.7
48381.2,42608.2
48376.3,42611.1
48371,42613.6
48365.6,42615.6
48359.9,42617
48354.2,42617.8
48348.4,42618.1
47856.3,42618.1
47850.5,42617.8
47844.8,42617
47839.2,42615.6
47833.7,42613.6
47828.5,42611.1
47823.5,42608.2
47818.8,42604.7
47814.5,42600.8
47810.6,42596.5
47807.2,42591.9
47804.2,42586.9
47801.7,42581.7
47799.8,42576.2
47798.4,42570.6
47797.5,42564.8
47797.2,42559.1
47797.2,42440.9
47797.5,42435.2
47798.4,42429.4
47799.8,42423.8
47801.7,42418.3
47804.2,42413.1
47807.2,42408.1
47810.6,42403.5
47814.5,42399.2
47818.8,42395.3
47823.5,42391.8
47828.5,42388.9
47833.7,42386.4
47839.2,42384.4
47844.8,42383
47850.5,42382.2
47856.3,42381.9
48348.4,42381.9
Z" /> 
<path style="fill:#840000; fill-opacity:1.0; 
stroke:#840000; stroke-width:0; stroke-opacity:1; 
stroke-linecap:round; stroke-linejoin:round;fill-rule:evenodd;"
d="M 48354.2,41882.2
48359.9,41883
48365.6,41884.4
48371,41886.4
48376.3,41888.9
48381.2,41891.8
48385.9,41895.3
48390.2,41899.2
48394.1,41903.5
48397.5,41908.1
48400.5,41913.1
48403,41918.3
48404.9,41923.8
48406.3,41929.4
48407.2,41935.2
48407.5,41940.9
48407.5,42059.1
48407.2,42064.8
48406.3,42070.6
48404.9,42076.2
48403,42081.7
48400.5,42086.9
48397.5,42091.9
48394.1,42096.5
48390.2,42100.8
48385.9,42104.7
48381.2,42108.2
48376.3,42111.1
48371,42113.6
48365.6,42115.6
48359.9,42117
48354.2,42117.8
48348.4,42118.1
47856.3,42118.1
47850.5,42117.8
47844.8,42117
47839.2,42115.6
47833.7,42113.6
47828.5,42111.1
47823.5,42108.2
47818.8,42104.7
47814.5,42100.8
47810.6,42096.5
47807.2,42091.9
47804.2,42086.9
47801.7,42081.7
47799.8,42076.2
47798.4,42070.6
47797.5,42064.8
47797.2,42059.1
47797.2,41940.9
47797.5,41935.2
47798.4,41929.4
47799.8,41923.8
47801.7,41918.3
47804.2,41913.1
47807.2,41908.1
47810.6,41903.5
47814.5,41899.2
47818.8,41895.3
47823.5,41891.8
47828.5,41888.9
47833.7,41886.4
47839.2,41884.4
47844.8,41883
47850.5,41882.2
47856.3,41881.9
48348.4,41881.9
Z" /> 
<path style="fill:#840000; fill-opacity:1.0; 
stroke:#840000; stroke-width:0; stroke-opacity:1; 
stroke-linecap:round; stroke-linejoin:round;fill-rule:evenodd;"
d="M 48354.2,41382.2
48359.9,41383
48365.6,41384.4
48371,41386.4
48376.3,41388.9
48381.2,41391.8
48385.9,41395.3
48390.2,41399.2
48394.1,41403.5
48397.5,41408.1
48400.5,41413.1
48403,41418.3
48404.9,41423.8
48406.3,41429.4
48407.2,41435.2
48407.5,41440.9
48407.5,41559.1
48407.2,41564.8
48406.3,41570.6
48404.9,41576.2
48403,41581.7
48400.5,41586.9
48397.5,41591.9
48394.1,41596.5
48390.2,41600.8
48385.9,41604.7
48381.2,41608.2
48376.3,41611.1
48371,41613.6
48365.6,41615.6
48359.9,41617
48354.2,41617.8
48348.4,41618.1
47856.3,41618.1
47850.5,41617.8
47844.8,41617
47839.2,41615.6
47833.7,41613.6
47828.5,41611.1
47823.5,41608.2
47818.8,41604.7
47814.5,41600.8
47810.6,41596.5
47807.2,41591.9
47804.2,41586.9
47801.7,41581.7
47799.8,41576.2
47798.4,41570.6
47797.5,41564.8
47797.2,41559.1
47797.2,41440.9
47797.5,41435.2
47798.4,41429.4
47799.8,41423.8
47801.7,41418.3
47804.2,41413.1
47807.2,41408.1
47810.6,41403.5
47814.5,41399.2
47818.8,41395.3
47823.5,41391.8
47828.5,41388.9
47833.7,41386.4
47839.2,41384.4
47844.8,41383
47850.5,41382.2
47856.3,41381.9
48348.4,41381.9
Z" /> 
<path style="fill:#840000; fill-opacity:1.0; 
stroke:#840000; stroke-width:0; stroke-opacity:1; 
stroke-linecap:round; stroke-linejoin:round;fill-rule:evenodd;"
d="M 48354.2,40882.2
48359.9,40883
48365.6,40884.4
48371,40886.4
48376.3,40888.9
48381.2,40891.8
48385.9,40895.3
48390.2,40899.2
48394.1,40903.5
48397.5,40908.1
48400.5,40913.1
48403,40918.3
48404.9,40923.8
48406.3,40929.4
48407.2,40935.2
48407.5,40940.9
48407.5,41059.1
48407.2,41064.8
48406.3,41070.6
48404.9,41076.2
48403,41081.7
48400.5,41086.9
48397.5,41091.9
48394.1,41096.5
48390.2,41100.8
48385.9,41104.7
48381.2,41108.2
48376.3,41111.1
48371,41113.6
48365.6,41115.6
48359.9,41117
48354.2,41117.8
48348.4,41118.1
47856.3,41118.1
47850.5,41117.8
47844.8,41117
47839.2,41115.6
47833.7,41113.6
47828.5,41111.1
47823.5,41108.2
47818.8,41104.7
47814.5,41100.8
47810.6,41096.5
47807.2,41091.9
47804.2,41086.9
47801.7,41081.7
47799.8,41076.2
47798.4,41070.6
47797.5,41064.8
47797.2,41059.1
47797.2,40940.9
47797.5,40935.2
47798.4,40929.4
47799.8,40923.8
47801.7,40918.3
47804.2,40913.1
47807.2,40908.1
47810.6,40903.5
47814.5,40899.2
47818.8,40895.3
47823.5,40891.8
47828.5,40888.9
47833.7,40886.4
47839.2,40884.4
47844.8,40883
47850.5,40882.2
47856.3,40881.9
48348.4,40881.9
Z" /> 
</g>
<g >
</g>
<g style="fill:#840000; fill-opacity:1.0; 
stroke:#840000; stroke-width:0; stroke-opacity:1; 
stroke-linecap:round; stroke-linejoin:round;">
<path style="fill:#840000; fill-opacity:1.0; 
stroke:#840000; stroke-width:0; stroke-opacity:1; 
stroke-linecap:round; stroke-linejoin:round;fill-rule:evenodd;"
d="M 49932.9,39406
49942.4,39407.4
49951.8,39409.8
49960.9,39413
49969.6,39417.1
49977.9,39422.1
49985.7,39427.9
49992.8,39434.3
49999.3,39441.5
50005.1,39449.3
50010,39457.5
50014.2,39466.3
50017.4,39475.4
50019.8,39484.7
50021.2,39494.3
50021.7,39503.9
50021.7,39996.1
50021.2,40005.7
50019.8,40015.3
50017.4,40024.6
50014.2,40033.7
50010,40042.5
50005.1,40050.7
49999.3,40058.5
49992.8,40065.7
49985.7,40072.1
49977.9,40077.9
49969.6,40082.9
49960.9,40087
49951.8,40090.2
49942.4,40092.6
49932.9,40094
49923.2,40094.5
49559.1,40094.5
49549.4,40094
49539.9,40092.6
49530.5,40090.2
49521.4,40087
49512.7,40082.9
49504.4,40077.9
49496.6,40072.1
49489.5,40065.7
49483,40058.5
49477.2,40050.7
49472.3,40042.5
49468.1,40033.7
49464.9,40024.6
49462.5,40015.3
49461.1,40005.7
49460.6,39996.1
49460.6,39503.9
49461.1,39494.3
49462.5,39484.7
49464.9,39475.4
49468.1,39466.3
49472.3,39457.5
49477.2,39449.3
49483,39441.5
49489.5,39434.3
49496.6,39427.9
49504.4,39422.1
49512.7,39417.1
49521.4,39413
49530.5,39409.8
49539.9,39407.4
49549.4,39406
49559.1,39405.5
49923.2,39405.5
Z" /> 
<path style="fill:#840000; fill-opacity:1.0; 
stroke:#840000; stroke-width:0; stroke-opacity:1; 
stroke-linecap:round; stroke-linejoin:round;fill-rule:evenodd;"
d="M 48761.6,39406
48771.2,39407.4
48780.5,39409.8
48789.6,39413
48798.4,39417.1
48806.7,39422.1
48814.4,39427.9
48821.6,39434.3
48828.1,39441.5
48833.8,39449.3
48838.8,39457.5
48842.9,39466.3
48846.2,39475.4
48848.5,39484.7
48849.9,39494.3
48850.4,39503.9
48850.4,39996.1
48849.9,40005.7
48848.5,40015.3
48846.2,40024.6
48842.9,40033.7
48838.8,40042.5
48833.8,40050.7
48828.1,40058.5
48821.6,40065.7
48814.4,40072.1
48806.7,40077.9
48798.4,40082.9
48789.6,40087
48780.5,40090.2
48771.2,40092.6
48761.6,40094
48752,40094.5
48387.8,40094.5
48378.1,40094
48368.6,40092.6
48359.2,40090.2
48350.1,40087
48341.4,40082.9
48333.1,40077.9
48325.4,40072.1
48318.2,40065.7
48311.7,40058.5
48306,40050.7
48301,40042.5
48296.9,40033.7
48293.6,40024.6
48291.3,40015.3
48289.8,40005.7
48289.4,39996.1
48289.4,39503.9
48289.8,39494.3
48291.3,39484.7
48293.6,39475.4
48296.9,39466.3
48301,39457.5
48306,39449.3
48311.7,39441.5
48318.2,39434.3
48325.4,39427.9
48333.1,39422.1
48341.4,39417.1
48350.1,39413
48359.2,39409.8
48368.6,39407.4
48378.1,39406
48387.8,39405.5
48752,39405.5
Z" /> 
</g>
<g >
</g>
<g style="fill:#848400; fill-opacity:1.0; 
stroke:#848400; stroke-width:0; stroke-opacity:1; 
stroke-linecap:round; stroke-linejoin:round;">
<circle cx="58500" cy="32500" r="2000" /> 
</g>
<g style="fill:#848400; fill-opacity:1.0; 
stroke:#848400; stroke-width:39.3701; stroke-opacity:1; 
stroke-linecap:round; stroke-linejoin:round;">
</g>
<g >
</g>
<g style="fill:#848400; fill-opacity:1.0; 
stroke:#848400; stroke-width:39.3701; stroke-opacity:1; 
stroke-linecap:round; stroke-linejoin:round;">
</g>
<g style="fill:#848400; fill-opacity:1.0; 
stroke:#848400; stroke-width:0; stroke-opacity:1; 
stroke-linecap:round; stroke-linejoin:round;">
<circle cx="39000" cy="32500" r="2000" /> 
</g>
<g style="fill:#848400; fill-opacity:1.0; 
stroke:#848400; stroke-width:39.3701; stroke-opacity:1; 
stroke-linecap:round; stroke-linejoin:round;">
</g>
<g >
</g>
<g style="fill:#840000; fill-opacity:1.0; 
stroke:#840000; stroke-width:39.3701; stroke-opacity:1; 
stroke-linecap:round; stroke-linejoin:round;">
</g>
<g style="fill:#840000; fill-opacity:1.0; 
stroke:#840000; stroke-width:0; stroke-opacity:1; 
stroke-linecap:round; stroke-linejoin:round;">
<path style="fill:#840000; fill-opacity:1.0; 
stroke:#840000; stroke-width:0; stroke-opacity:1; 
stroke-linecap:round; stroke-linejoin:round;fill-rule:evenodd;"
d="M 49924.2,36246.9
49952.9,36251.1
49981,36258.2
50008.3,36267.9
50034.5,36280.3
50059.3,36295.2
50082.6,36312.5
50104.1,36332
50123.5,36353.4
50140.8,36376.7
50155.7,36401.6
50168.1,36427.8
50177.8,36455
50184.9,36483.1
50189.1,36511.8
50190.6,36540.7
50190.6,38312.4
50189.1,38341.3
50184.9,38370
50177.8,38398.1
50168.1,38425.4
50155.7,38451.6
50140.8,38476.4
50123.5,38499.7
50104.1,38521.2
50082.6,38540.7
50059.3,38557.9
50034.5,38572.8
50008.3,38585.2
49981,38595
49952.9,38602
49924.2,38606.3
49895.3,38607.7
49304.7,38607.7
49275.8,38606.3
49247.1,38602
49219,38595
49191.7,38585.2
49165.5,38572.8
49140.7,38557.9
49117.4,38540.7
49095.9,38521.2
49076.5,38499.7
49059.2,38476.4
49044.3,38451.6
49031.9,38425.4
49022.2,38398.1
49015.1,38370
49010.9,38341.3
49009.4,38312.4
49009.4,36540.7
49010.9,36511.8
49015.1,36483.1
49022.2,36455
49031.9,36427.8
49044.3,36401.6
49059.2,36376.7
49076.5,36353.4
49095.9,36332
49117.4,36312.5
49140.7,36295.2
49165.5,36280.3
49191.7,36267.9
49219,36258.2
49247.1,36251.1
49275.8,36246.9
49304.7,36245.5
49895.3,36245.5
Z" /> 
<circle cx="54000" cy="37353.1" r="3149.61" /> 
</g>
<g style="fill:#840000; fill-opacity:1.0; 
stroke:#840000; stroke-width:39.3701; stroke-opacity:1; 
stroke-linecap:round; stroke-linejoin:round;">
</g>
<g style="fill:#840000; fill-opacity:1.0; 
stroke:#840000; stroke-width:0; stroke-opacity:1; 
stroke-linecap:round; stroke-linejoin:round;">
<path style="fill:#840000; fill-opacity:1.0; 
stroke:#840000; stroke-width:0; stroke-opacity:1; 
stroke-linecap:round; stroke-linejoin:round;fill-rule:evenodd;"
d="M 58824.2,36246.9
58852.9,36251.1
58881,36258.2
58908.3,36267.9
58934.5,36280.3
58959.3,36295.2
58982.6,36312.5
59004.1,36332
59023.5,36353.4
59040.8,36376.7
59055.7,36401.6
59068.1,36427.8
59077.8,36455
59084.9,36483.1
59089.1,36511.8
59090.6,36540.7
59090.6,38312.4
59089.1,38341.3
59084.9,38370
59077.8,38398.1
59068.1,38425.4
59055.7,38451.6
59040.8,38476.4
59023.5,38499.7
59004.1,38521.2
58982.6,38540.7
58959.3,38557.9
58934.5,38572.8
58908.3,38585.2
58881,38595
58852.9,38602
58824.2,38606.3
58795.3,38607.7
58204.7,38607.7
58175.8,38606.3
58147.1,38602
58119,38595
58091.7,38585.2
58065.5,38572.8
58040.7,38557.9
58017.4,38540.7
57995.9,38521.2
57976.5,38499.7
57959.2,38476.4
57944.3,38451.6
57931.9,38425.4
57922.2,38398.1
57915.1,38370
57910.9,38341.3
57909.4,38312.4
57909.4,36540.7
57910.9,36511.8
57915.1,36483.1
57922.2,36455
57931.9,36427.8
57944.3,36401.6
57959.2,36376.7
57976.5,36353.4
57995.9,36332
58017.4,36312.5
58040.7,36295.2
58065.5,36280.3
58091.7,36267.9
58119,36258.2
58147.1,36251.1
58175.8,36246.9
58204.7,36245.5
58795.3,36245.5
Z" /> 
</g>
<g >
</g>
<g style="fill:#840000; fill-opacity:1.0; 
stroke:#840000; stroke-width:0; stroke-opacity:1; 
stroke-linecap:round; stroke-linejoin:round;">
<path style="fill:#840000; fill-opacity:1.0; 
stroke:#840000; stroke-width:0; stroke-opacity:1; 
stroke-linecap:round; stroke-linejoin:round;fill-rule:evenodd;"
d="M 45474.2,41620.3
45502.9,41624.6
45531,41631.6
45558.3,41641.4
45584.5,41653.8
45609.3,41668.7
45632.6,41685.9
45654.1,41705.4
45673.5,41726.9
45690.8,41750.1
45705.7,41775
45718.1,41801.2
45727.8,41828.5
45734.9,41856.6
45739.1,41885.2
45740.6,41914.2
45740.6,43685.8
45739.1,43714.8
45734.9,43743.4
45727.8,43771.5
45718.1,43798.8
45705.7,43825
45690.8,43849.9
45673.5,43873.1
45654.1,43894.6
45632.6,43914.1
45609.3,43931.3
45584.5,43946.2
45558.3,43958.6
45531,43968.4
45502.9,43975.4
45474.2,43979.7
45445.3,43981.1
44854.7,43981.1
44825.8,43979.7
44797.1,43975.4
44769,43968.4
44741.7,43958.6
44715.5,43946.2
44690.7,43931.3
44667.4,43914.1
44645.9,43894.6
44626.5,43873.1
44609.2,43849.9
44594.3,43825
44581.9,43798.8
44572.2,43771.5
44565.1,43743.4
44560.9,43714.8
44559.4,43685.8
44559.4,41914.2
44560.9,41885.2
44565.1,41856.6
44572.2,41828.5
44581.9,41801.2
44594.3,41775
44609.2,41750.1
44626.5,41726.9
44645.9,41705.4
44667.4,41685.9
44690.7,41668.7
44715.5,41653.8
44741.7,41641.4
44769,41631.6
44797.1,41624.6
44825.8,41620.3
44854.7,41618.9
45445.3,41618.9
Z" /> 
<path style="fill:#840000; fill-opacity:1.0; 
stroke:#840000; stroke-width:0; stroke-opacity:1; 
stroke-linecap:round; stroke-linejoin:round;fill-rule:evenodd;"
d="M 43674.2,41620.3
43702.9,41624.6
43731,41631.6
43758.3,41641.4
43784.5,41653.8
43809.3,41668.7
43832.6,41685.9
43854.1,41705.4
43873.5,41726.9
43890.8,41750.1
43905.7,41775
43918.1,41801.2
43927.8,41828.5
43934.9,41856.6
43939.1,41885.2
43940.6,41914.2
43940.6,43685.8
43939.1,43714.8
43934.9,43743.4
43927.8,43771.5
43918.1,43798.8
43905.7,43825
43890.8,43849.9
43873.5,43873.1
43854.1,43894.6
43832.6,43914.1
43809.3,43931.3
43784.5,43946.2
43758.3,43958.6
43731,43968.4
43702.9,43975.4
43674.2,43979.7
43645.3,43981.1
43054.7,43981.1
43025.8,43979.7
42997.1,43975.4
42969,43968.4
42941.7,43958.6
42915.5,43946.2
42890.7,43931.3
42867.4,43914.1
42845.9,43894.6
42826.5,43873.1
42809.2,43849.9
42794.3,43825
42781.9,43798.8
42772.2,43771.5
42765.1,43743.4
42760.9,43714.8
42759.4,43685.8
42759.4,41914.2
42760.9,41885.2
42765.1,41856.6
42772.2,41828.5
42781.9,41801.2
42794.3,41775
42809.2,41750.1
42826.5,41726.9
42845.9,41705.4
42867.4,41685.9
42890.7,41668.7
42915.5,41653.8
42941.7,41641.4
42969,41631.6
42997.1,41624.6
43025.8,41620.3
43054.7,41618.9
43645.3,41618.9
Z" /> 
</g>
<g >
</g>
<g >
</g>
<g >
</g>
<g >
</g>
<g >
</g>
<g style="fill:#840000; fill-opacity:1.0; 
stroke:#840000; stroke-width:0; stroke-opacity:1; 
stroke-linecap:round; stroke-linejoin:round;">
</g>
<g style="fill:#840000; fill-opacity:1.0; 
stroke:#840000; stroke-width:295.276; stroke-opacity:1; 
stroke-linecap:round; stroke-linejoin:round;">
</g>
<g style="fill:#840000; fill-opacity:0.0; 
stroke:#840000; stroke-width:295.276; stroke-opacity:1; 
stroke-linecap:round; stroke-linejoin:round;">
<path d="M49850 38711
L49850 38647
" />
<path d="M49850 38647
L49850 37426
" />
<path d="M49741 39750
L50061 39750
" />
<path d="M49741 39750
L49741 40541
" />
<path d="M49749 40541
L49750 40541
" />
<path d="M49741 40541
L49749 40541
" />
<path d="M49750 40541
L49750 40950
" />
<path d="M49800 41000
L50208 41000
" />
<path d="M49750 40950
L49800 41000
" />
</g>
<g style="fill:#840000; fill-opacity:0.0; 
stroke:#840000; stroke-width:275.591; stroke-opacity:1; 
stroke-linecap:round; stroke-linejoin:round;">
<path d="M49741 37567
L49600 37426
" />
<path d="M49741 39750
L49741 37567
" />
<path d="M58500 37426
L58500 36206
" />
</g>
<g style="fill:#840000; fill-opacity:0.0; 
stroke:#840000; stroke-width:295.276; stroke-opacity:1; 
stroke-linecap:round; stroke-linejoin:round;">
<path d="M48244 46300
L47850 45905
" />
<path d="M48564 46300
L48244 46300
" />
<path d="M48569 44000
L47850 44000
" />
<path d="M47850 45750
L47850 44000
" />
<path d="M47850 45905
L47850 45750
" />
<path d="M48569 43616
L48569 44000
" />
<path d="M48633 43552
L48569 43616
" />
<path d="M48248 42645
L48437 42645
" />
<path d="M48437 42645
L48633 42450
" />
<path d="M48102 42500
L48248 42645
" />
<path d="M48633 42450
L48633 43552
" />
<path d="M48800 42283
L48633 42450
" />
<path d="M48569 40569
L48800 40800
" />
<path d="M48800 40800
L48800 42283
" />
<path d="M48569 39750
L48569 40569
" />
</g>
<g style="fill:#840000; fill-opacity:0.0; 
stroke:#840000; stroke-width:275.591; stroke-opacity:1; 
stroke-linecap:round; stroke-linejoin:round;">
<path d="M39000 32500
L39000 32750
" />
</g>
<g style="fill:#840000; fill-opacity:0.0; 
stroke:#840000; stroke-width:1181.1; stroke-opacity:1; 
stroke-linecap:round; stroke-linejoin:round;">
<path d="M39404 33154
L39404 35664
" />
<path d="M39000 32750
L39404 33154
" />
<path d="M40024 42587
L40395 43256
" />
<path d="M39440 41175
L39706 41892
" />
<path d="M39231 40440
L39440 41175
" />
<path d="M39706 41892
L40024 42587
" />
<path d="M39077 39691
L39231 40440
" />
<path d="M38981 38932
L39077 39691
" />
<path d="M38963 37404
L38943 38169
" />
<path d="M39041 36644
L38963 37404
" />
<path d="M39404 35664
L39177 35891
" />
<path d="M39177 35891
L39041 36644
" />
<path d="M38943 38169
L38981 38932
" />
<path d="M40395 43256
L40550 43411
" />
<path d="M41796 45067
L42221 45472
" />
<path d="M41283 44500
L41796 45067
" />
<path d="M40550 43491
L40816 43895
" />
<path d="M40816 43895
L41283 44500
" />
<path d="M40550 43411
L40550 43491
" />
<path d="M42322 45472
L42864 46014
" />
<path d="M42221 45472
L42322 45472
" />
<path d="M42942 46078
L43404 46400
" />
<path d="M42864 46014
L42942 46078
" />
<path d="M43404 46400
L47600 46400
" />
</g>
<g style="fill:#840000; fill-opacity:0.0; 
stroke:#840000; stroke-width:275.591; stroke-opacity:1; 
stroke-linecap:round; stroke-linejoin:round;">
<path d="M47700 46300
L48564 46300
" />
<path d="M47600 46400
L47700 46300
" />
<path d="M54000 37353
L52803 37353
" />
<path d="M52803 37353
L51200 35750
" />
<path d="M48569 39366
L48569 39750
" />
<path d="M48569 36551
L48569 39366
" />
<path d="M49371 35750
L48569 36551
" />
<path d="M51200 35750
L49371 35750
" />
</g>
<g style="fill:#840000; fill-opacity:0.0; 
stroke:#840000; stroke-width:295.276; stroke-opacity:1; 
stroke-linecap:round; stroke-linejoin:round;">
<path d="M49741 46294
L49735 46300
" />
<path d="M49741 45250
L49741 46294
" />
<path d="M47757 41500
L48102 41500
" />
<path d="M45150 41579
L45229 41500
" />
<path d="M45229 41500
L47757 41500
" />
<path d="M45150 42800
L45150 41579
" />
<path d="M43350 44020
L43350 42800
" />
<path d="M43679 44350
L43350 44020
" />
<path d="M46100 44050
L45800 44350
" />
<path d="M46100 42050
L46100 44050
" />
<path d="M46150 42000
L46100 42050
" />
<path d="M45800 44350
L43679 44350
" />
<path d="M48102 42000
L46150 42000
" />
<path d="M50062 42645
L50054 42645
" />
<path d="M50208 42500
L50062 42645
" />
<path d="M50054 42645
L49741 42958
" />
<path d="M49741 43400
L49741 44000
" />
<path d="M49741 42958
L49741 43400
" />
<path d="M49741 43258
L49741 43400
" />
<path d="M50208 41500
L50550 41500
" />
<path d="M49450 41500
L50208 41500
" />
<path d="M49350 41600
L49450 41500
" />
<path d="M49350 42700
L49350 41600
" />
<path d="M49150 42900
L49350 42700
" />
<path d="M49150 44669
L49150 42900
" />
<path d="M48569 45250
L49150 44669
" />
</g>
<g style="fill:#840000; fill-opacity:0.0; 
stroke:#840000; stroke-width:275.591; stroke-opacity:1; 
stroke-linecap:round; stroke-linejoin:round;">
<path d="M59066 35028
L59033 34950
" />
<path d="M59265 35794
L59066 35028
" />
<path d="M59033 34950
L59033 31066
" />
<path d="M59406 39456
L59406 36580
" />
<path d="M59406 36580
L59265 35794
" />
<path d="M58857 40005
L59406 39456
" />
</g>
<g style="fill:#840000; fill-opacity:0.0; 
stroke:#840000; stroke-width:295.276; stroke-opacity:1; 
stroke-linecap:round; stroke-linejoin:round;">
<path d="M51250 42600
L51250 46190
" />
<path d="M51400 42450
L51250 42600
" />
<path d="M50950 42000
L51400 42450
" />
<path d="M50208 42000
L50950 42000
" />
</g>
<g style="fill:#840000; fill-opacity:0.0; 
stroke:#840000; stroke-width:1181.1; stroke-opacity:1; 
stroke-linecap:round; stroke-linejoin:round;">
<path d="M58768 40440
L58857 40005
" />
<path d="M58559 41175
L58768 40440
" />
<path d="M57183 43895
L57604 43256
" />
<path d="M57604 43256
L57975 42587
" />
<path d="M58293 41892
L58559 41175
" />
<path d="M56203 45067
L56716 44500
" />
<path d="M55057 46078
L55649 45594
" />
<path d="M55649 45594
L56203 45067
" />
<path d="M54430 46515
L55057 46078
" />
<path d="M51850 46732
L51882 46700
" />
<path d="M57975 42587
L58293 41892
" />
<path d="M56716 44500
L57183 43895
" />
<path d="M54116 46700
L54430 46515
" />
<path d="M51882 46700
L54116 46700
" />
</g>
<g style="fill:#840000; fill-opacity:0.0; 
stroke:#840000; stroke-width:275.591; stroke-opacity:1; 
stroke-linecap:round; stroke-linejoin:round;">
<path d="M51250 46190
L51250 46950
" />
<path d="M51500 46700
L51882 46700
" />
<path d="M51250 46950
L51500 46700
" />
</g>
<g >
</g>
</g>
<g style="fill:#FFFFFF; fill-opacity:0.0; 
stroke:#FFFFFF; stroke-width:275.591; stroke-opacity:1; 
stroke-linecap:round; stroke-linejoin:round;">
</g>
<g style="fill:#FFFFFF; fill-opacity:1.0; 
stroke:#FFFFFF; stroke-width:0; stroke-opacity:1; 
stroke-linecap:round; stroke-linejoin:round;">
<circle cx="58500" cy="32500" r="787.402" /> 
</g>
<g style="fill:#FFFFFF; fill-opacity:1.0; 
stroke:#FFFFFF; stroke-width:39.3701; stroke-opacity:1; 
stroke-linecap:round; stroke-linejoin:round;">
</g>
<g style="fill:#FFFFFF; fill-opacity:1.0; 
stroke:#FFFFFF; stroke-width:0; stroke-opacity:1; 
stroke-linecap:round; stroke-linejoin:round;">
<circle cx="39000" cy="32500" r="787.402" /> 
</g>
<g style="fill:#FFFFFF; fill-opacity:1.0; 
stroke:#FFFFFF; stroke-width:39.3701; stroke-opacity:1; 
stroke-linecap:round; stroke-linejoin:round;">
</g>
<g style="fill:#000000; fill-opacity:1.0; 
stroke:#000000; stroke-width:39.3701; stroke-opacity:1; 
stroke-linecap:round; stroke-linejoin:round;">
</g>
<g style="fill:#C2C200; fill-opacity:1.0; 
stroke:#C2C200; stroke-width:39.3701; stroke-opacity:1; 
stroke-linecap:round; stroke-linejoin:round;">
</g>
<g style="fill:#C2C200; fill-opacity:0.0; 
stroke:#C2C200; stroke-width:59.0551; stroke-opacity:1; 
stroke-linecap:round; stroke-linejoin:round;">
<path d="M38700 34950 A10756.4 10756.4 0.0 1 0 59300 34950" />
<path d="M56100 31550 A15835.4 15835.4 0.0 0 0 41300 31550" />
<path d="M41300 31550 A2488.47 2488.47 0.0 1 0 38700.9 34970.4" />
<path d="M59300 34950 A2577.3 2577.3 0.0 1 0 56107 31542.8" />
<g >
</g>
<g >
</g>
<g >
</g>
<g >
</g>
<g >
</g>
<g >
</g>
<g >
</g>
<g >
</g>
<g >
</g>
<g >
</g>
<g >
</g>
<g >
</g>
<g >
</g>
</g> 
</svg>
