<?xml version="1.0" standalone="no"?>
 <!DOCTYPE svg PUBLIC "-//W3C//DTD SVG 1.1//EN" 
 "http://www.w3.org/Graphics/SVG/1.1/DTD/svg11.dtd"> 
<svg
  xmlns:svg="http://www.w3.org/2000/svg"
  xmlns="http://www.w3.org/2000/svg"
  xmlns:xlink="http://www.w3.org/1999/xlink"
  version="1.1"
  width="297.0022mm" height="210.0072mm" viewBox="0.0000 0.0000 297.0022 210.0072">
<title>SVG Image created as peepsy_phycom-F_Cu.svg date 2026/05/23 14:50:45 </title>
  <desc>Image generated by PCBNEW </desc>
<g style="fill:#000000; fill-opacity:1.0000;stroke:#000000; stroke-opacity:1.0000;
stroke-linecap:round; stroke-linejoin:round;"
 transform="translate(0 0) scale(1 1)">
<path style="fill:#000000; fill-opacity:1.0000; stroke:none;fill-rule:evenodd;"
d="M 140.4550,98.1640
142.7550,98.1640
142.7550,99.9640
140.4550,99.9640
Z" /> 
<path style="fill:#000000; fill-opacity:1.0000; stroke:none;fill-rule:evenodd;"
d="M 140.5550,95.0120
142.6550,95.0120
142.6550,96.5120
140.5550,96.5120
Z" /> 
<path style="fill:#000000; fill-opacity:1.0000; stroke:none;fill-rule:evenodd;"
d="M 129.2545,111.3550
129.1270,111.3348
129.0120,111.2762
128.9208,111.1850
128.8622,111.0700
128.8420,110.9425
128.8420,108.7675
128.8622,108.6400
128.9208,108.5250
129.0120,108.4338
129.1270,108.3752
129.2545,108.3550
130.0795,108.3550
130.2070,108.3752
130.3220,108.4338
130.4132,108.5250
130.4718,108.6400
130.4920,108.7675
130.4920,110.9425
130.4718,111.0700
130.4132,111.1850
130.3220,111.2762
130.2070,111.3348
130.0795,111.3550
Z" /> 
<path style="fill:#000000; fill-opacity:1.0000; stroke:none;fill-rule:evenodd;"
d="M 131.7945,111.3550
131.6670,111.3348
131.5520,111.2762
131.4608,111.1850
131.4022,111.0700
131.3820,110.9425
131.3820,108.7675
131.4022,108.6400
131.4608,108.5250
131.5520,108.4338
131.6670,108.3752
131.7945,108.3550
132.6195,108.3550
132.7470,108.3752
132.8620,108.4338
132.9532,108.5250
133.0118,108.6400
133.0320,108.7675
133.0320,110.9425
133.0118,111.0700
132.9532,111.1850
132.8620,111.2762
132.7470,111.3348
132.6195,111.3550
Z" /> 
<path style="fill:#000000; fill-opacity:1.0000; stroke:none;fill-rule:evenodd;"
d="M 134.3345,111.3550
134.2070,111.3348
134.0920,111.2762
134.0008,111.1850
133.9422,111.0700
133.9220,110.9425
133.9220,108.7675
133.9422,108.6400
134.0008,108.5250
134.0920,108.4338
134.2070,108.3752
134.3345,108.3550
135.1595,108.3550
135.2870,108.3752
135.4020,108.4338
135.4932,108.5250
135.5518,108.6400
135.5720,108.7675
135.5720,110.9425
135.5518,111.0700
135.4932,111.1850
135.4020,111.2762
135.2870,111.3348
135.1595,111.3550
Z" /> 
<path style="fill:#000000; fill-opacity:1.0000; stroke:none;fill-rule:evenodd;"
d="M 132.3070,101.8540
132.2201,101.8367
132.1465,101.7875
132.0973,101.7139
132.0800,101.6270
132.0800,100.1570
132.0973,100.0701
132.1465,99.9965
132.2201,99.9473
132.3070,99.9300
132.7610,99.9300
132.8479,99.9473
132.9215,99.9965
132.9707,100.0701
132.9880,100.1570
132.9880,101.6270
132.9707,101.7139
132.9215,101.7875
132.8479,101.8367
132.7610,101.8540
Z" /> 
<path style="fill:#000000; fill-opacity:1.0000; stroke:none;fill-rule:evenodd;"
d="M 133.6955,101.8540
133.6333,101.8416
133.5806,101.8064
133.5454,101.7537
133.5330,101.6915
133.5330,100.0925
133.5454,100.0303
133.5806,99.9776
133.6333,99.9424
133.6955,99.9300
134.0205,99.9300
134.0827,99.9424
134.1354,99.9776
134.1706,100.0303
134.1830,100.0925
134.1830,101.6915
134.1706,101.7537
134.1354,101.8064
134.0827,101.8416
134.0205,101.8540
Z" /> 
<path style="fill:#000000; fill-opacity:1.0000; stroke:none;fill-rule:evenodd;"
d="M 134.9655,101.8540
134.9033,101.8416
134.8506,101.8064
134.8154,101.7537
134.8030,101.6915
134.8030,100.0925
134.8154,100.0303
134.8506,99.9776
134.9033,99.9424
134.9655,99.9300
135.2905,99.9300
135.3527,99.9424
135.4054,99.9776
135.4406,100.0303
135.4530,100.0925
135.4530,101.6915
135.4406,101.7537
135.4054,101.8064
135.3527,101.8416
135.2905,101.8540
Z" /> 
<path style="fill:#000000; fill-opacity:1.0000; stroke:none;fill-rule:evenodd;"
d="M 136.2355,101.8540
136.1733,101.8416
136.1206,101.8064
136.0854,101.7537
136.0730,101.6915
136.0730,100.0925
136.0854,100.0303
136.1206,99.9776
136.1733,99.9424
136.2355,99.9300
136.5605,99.9300
136.6227,99.9424
136.6754,99.9776
136.7106,100.0303
136.7230,100.0925
136.7230,101.6915
136.7106,101.7537
136.6754,101.8064
136.6227,101.8416
136.5605,101.8540
Z" /> 
<path style="fill:#000000; fill-opacity:1.0000; stroke:none;fill-rule:evenodd;"
d="M 136.2355,94.3800
136.1733,94.3676
136.1206,94.3324
136.0854,94.2797
136.0730,94.2175
136.0730,92.6185
136.0854,92.5563
136.1206,92.5036
136.1733,92.4684
136.2355,92.4560
136.5605,92.4560
136.6227,92.4684
136.6754,92.5036
136.7106,92.5563
136.7230,92.6185
136.7230,94.2175
136.7106,94.2797
136.6754,94.3324
136.6227,94.3676
136.5605,94.3800
Z" /> 
<path style="fill:#000000; fill-opacity:1.0000; stroke:none;fill-rule:evenodd;"
d="M 134.9655,94.3800
134.9033,94.3676
134.8506,94.3324
134.8154,94.2797
134.8030,94.2175
134.8030,92.6185
134.8154,92.5563
134.8506,92.5036
134.9033,92.4684
134.9655,92.4560
135.2905,92.4560
135.3527,92.4684
135.4054,92.5036
135.4406,92.5563
135.4530,92.6185
135.4530,94.2175
135.4406,94.2797
135.4054,94.3324
135.3527,94.3676
135.2905,94.3800
Z" /> 
<path style="fill:#000000; fill-opacity:1.0000; stroke:none;fill-rule:evenodd;"
d="M 133.6955,94.3800
133.6333,94.3676
133.5806,94.3324
133.5454,94.2797
133.5330,94.2175
133.5330,92.6185
133.5454,92.5563
133.5806,92.5036
133.6333,92.4684
133.6955,92.4560
134.0205,92.4560
134.0827,92.4684
134.1354,92.5036
134.1706,92.5563
134.1830,92.6185
134.1830,94.2175
134.1706,94.2797
134.1354,94.3324
134.0827,94.3676
134.0205,94.3800
Z" /> 
<path style="fill:#000000; fill-opacity:1.0000; stroke:none;fill-rule:evenodd;"
d="M 132.4255,94.3800
132.3633,94.3676
132.3106,94.3324
132.2754,94.2797
132.2630,94.2175
132.2630,92.6185
132.2754,92.5563
132.3106,92.5036
132.3633,92.4684
132.4255,92.4560
132.7505,92.4560
132.8127,92.4684
132.8654,92.5036
132.9006,92.5563
132.9130,92.6185
132.9130,94.2175
132.9006,94.2797
132.8654,94.3324
132.8127,94.3676
132.7505,94.3800
Z" /> 
<path style="fill:#000000; fill-opacity:1.0000; stroke:none;fill-rule:evenodd;"
d="M 137.9220,90.8566
137.9136,90.9288
137.8668,91.0349
137.7849,91.1168
137.6788,91.1636
137.6066,91.1720
136.5974,91.1720
136.5252,91.1636
136.4191,91.1168
136.3372,91.0349
136.2904,90.9288
136.2820,90.8566
136.2820,89.7374
136.2904,89.6652
136.3372,89.5591
136.4191,89.4772
136.5252,89.4304
136.5974,89.4220
137.6066,89.4220
137.6788,89.4304
137.7849,89.4772
137.8668,89.5591
137.9136,89.6652
137.9220,89.7374
Z" /> 
<path style="fill:#000000; fill-opacity:1.0000; stroke:none;fill-rule:evenodd;"
d="M 134.4820,90.8566
134.4736,90.9288
134.4268,91.0349
134.3449,91.1168
134.2388,91.1636
134.1666,91.1720
133.1574,91.1720
133.0852,91.1636
132.9791,91.1168
132.8972,91.0349
132.8504,90.9288
132.8420,90.8566
132.8420,89.7374
132.8504,89.6652
132.8972,89.5591
132.9791,89.4772
133.0852,89.4304
133.1574,89.4220
134.1666,89.4220
134.2388,89.4304
134.3449,89.4772
134.4268,89.5591
134.4736,89.6652
134.4820,89.7374
Z" /> 
<path style="fill:#000000; fill-opacity:1.0000; stroke:none;fill-rule:evenodd;"
d="M 137.8704,100.0070
137.7982,99.9986
137.6921,99.9518
137.6102,99.8699
137.5634,99.7638
137.5550,99.6916
137.5550,98.6824
137.5634,98.6102
137.6102,98.5041
137.6921,98.4222
137.7982,98.3754
137.8704,98.3670
138.9896,98.3670
139.0618,98.3754
139.1679,98.4222
139.2498,98.5041
139.2966,98.6102
139.3050,98.6824
139.3050,99.6916
139.2966,99.7638
139.2498,99.8699
139.1679,99.9518
139.0618,99.9986
138.9896,100.0070
Z" /> 
<path style="fill:#000000; fill-opacity:1.0000; stroke:none;fill-rule:evenodd;"
d="M 137.8704,96.5670
137.7982,96.5586
137.6921,96.5118
137.6102,96.4299
137.5634,96.3238
137.5550,96.2516
137.5550,95.2424
137.5634,95.1702
137.6102,95.0641
137.6921,94.9822
137.7982,94.9354
137.8704,94.9270
138.9896,94.9270
139.0618,94.9354
139.1679,94.9822
139.2498,95.0641
139.2966,95.1702
139.3050,95.2424
139.3050,96.2516
139.2966,96.3238
139.2498,96.4299
139.1679,96.5118
139.0618,96.5586
138.9896,96.5670
Z" /> 
<path style="fill:#000000; fill-opacity:1.0000; stroke:none;fill-rule:evenodd;"
d="M 128.5920,102.0280
124.3920,102.0280
124.3920,100.0280
128.5920,100.0280
Z" /> 
<path style="fill:#000000; fill-opacity:1.0000; stroke:none;fill-rule:evenodd;"
d="M 128.5920,94.0280
124.3920,94.0280
124.3920,92.0280
128.5920,92.0280
Z" /> 
</g>
<g style="fill:none; 
stroke:#000000; stroke-width:3.2000; stroke-opacity:1; 
stroke-linecap:round; stroke-linejoin:round;">
<path d="M145.7960 97.2820
L150.5960 97.2820
" />
</g>
<g style="fill:none; 
stroke:#000000; stroke-width:8.0000; stroke-opacity:1; 
stroke-linecap:round; stroke-linejoin:round;">
<path d="M153.4160 99.2820
L153.4160 95.2820
" />
</g>
<g style="fill:none; 
stroke:#000000; stroke-width:3.2000; stroke-opacity:1; 
stroke-linecap:round; stroke-linejoin:round;">
<path d="M120.1175 97.1550
L115.3175 97.1550
" />
</g>
<g style="fill:none; 
stroke:#000000; stroke-width:8.0000; stroke-opacity:1; 
stroke-linecap:round; stroke-linejoin:round;">
<path d="M112.4975 95.1550
L112.4975 99.1550
" />
<path style="fill:#000000; fill-opacity:1.0000; stroke:none;fill-rule:evenodd;"
d="M 124.2060,104.4384
124.2142,104.3676
124.2602,104.2636
124.3406,104.1832
124.4446,104.1372
124.5154,104.1290
125.5366,104.1290
125.6074,104.1372
125.7114,104.1832
125.7918,104.2636
125.8378,104.3676
125.8460,104.4384
125.8460,105.6196
125.8378,105.6904
125.7918,105.7944
125.7114,105.8748
125.6074,105.9208
125.5366,105.9290
124.5154,105.9290
124.4446,105.9208
124.3406,105.8748
124.2602,105.7944
124.2142,105.6904
124.2060,105.6196
Z" /> 
<path style="fill:#000000; fill-opacity:1.0000; stroke:none;fill-rule:evenodd;"
d="M 127.6460,104.4384
127.6542,104.3676
127.7002,104.2636
127.7806,104.1832
127.8846,104.1372
127.9554,104.1290
128.9766,104.1290
129.0474,104.1372
129.1514,104.1832
129.2318,104.2636
129.2778,104.3676
129.2860,104.4384
129.2860,105.6196
129.2778,105.6904
129.2318,105.7944
129.1514,105.8748
129.0474,105.9208
128.9766,105.9290
127.9554,105.9290
127.8846,105.9208
127.7806,105.8748
127.7002,105.7944
127.6542,105.6904
127.6460,105.6196
Z" /> 
</g>
<g style="fill:#000000; fill-opacity:1.0000; stroke:none;">
<circle cx="132.2070" cy="106.4260" r="0.4000" /> 
</g>
<g style="fill:none; 
stroke:#000000; stroke-width:0.6000; stroke-opacity:1; 
stroke-linecap:round; stroke-linejoin:round;">
<path d="M135.1280 93.5675
L135.1280 91.9480
" />
<path d="M135.1280 91.9480
L135.3820 91.6940
" />
<path d="M135.3820 91.6940
L135.3820 88.7730
" />
<path d="M135.3820 88.7730
L134.8740 88.2650
" />
<path d="M134.8740 88.2650
L124.5870 88.2650
" />
<path d="M124.5870 88.2650
L120.1175 92.7345
" />
<path d="M120.1175 92.7345
L120.1175 97.1550
" />
<path d="M132.2070 109.8550
L132.2070 105.1560
" />
<path d="M132.2070 105.1560
L130.3020 103.2510
" />
<path d="M130.3020 103.2510
L125.0260 103.2510
" />
<path d="M125.0260 103.2510
L125.0260 105.0290
" />
<path d="M134.7470 109.8550
L134.7470 104.7750
" />
<path d="M134.7470 104.7750
L132.5880 102.6160
" />
<path d="M132.5880 102.6160
L132.5880 100.7425
" />
<path d="M136.3980 93.4180
L138.3760 93.4180
" />
<path d="M138.3760 93.4180
L138.4300 93.4720
" />
<path d="M138.4300 93.4720
L138.4300 95.7470
" />
<path d="M132.5880 93.4720
L132.5880 92.3290
" />
<path d="M132.5880 92.3290
L130.9370 90.6780
" />
<path d="M130.9370 90.6780
L124.3330 90.6780
" />
<path d="M124.3330 90.6780
L123.0630 91.9480
" />
<path d="M123.0630 91.9480
L123.0630 102.8700
" />
<path d="M123.0630 102.8700
L125.0260 104.8330
" />
<path d="M125.0260 104.8330
L125.0260 105.0290
" />
<path d="M137.1020 90.2970
L139.8270 90.2970
" />
<path d="M139.8270 90.2970
L141.4780 91.9480
" />
<path d="M141.4780 91.9480
L141.4780 95.7620
" />
<path d="M133.6620 90.8740
L133.6620 90.2970
" />
<path d="M133.8580 91.0700
L133.6620 90.8740
" />
<path d="M133.8580 93.5675
L133.8580 91.0700
" />
<path d="M135.1280 100.7425
L135.1280 97.7900
" />
<path d="M126.4920 95.3770
L126.4920 93.0280
" />
<path d="M135.1280 97.7900
L133.8580 96.5200
" />
<path d="M127.6350 96.5200
L126.4920 95.3770
" />
<path d="M133.8580 96.5200
L127.6350 96.5200
" />
<path d="M133.8580 100.7425
L133.8580 98.1710
" />
<path d="M133.8580 98.1710
L133.6040 97.9170
" />
<path d="M133.6040 97.9170
L127.6350 97.9170
" />
<path d="M127.6350 97.9170
L126.4920 99.0600
" />
<path d="M126.4920 99.0600
L126.4920 101.0280
" />
<path style="fill:#000000; fill-opacity:1.0000; stroke:none;fill-rule:evenodd;"
d="M 133.7369,81.7576
134.0051,81.7650
134.0119,81.7654
134.2757,81.7873
134.2825,81.7881
134.5444,81.8245
134.5511,81.8256
134.8104,81.8763
134.8170,81.8778
135.0732,81.9427
135.0797,81.9445
135.3321,82.0235
135.3385,82.0257
135.5348,82.0992
135.5865,82.1185
135.5929,82.1211
135.8363,82.2280
135.8419,82.2306
135.9705,82.2949
135.9761,82.2977
135.9808,82.3006
135.9988,82.3091
136.0013,82.3103
136.0190,82.3192
136.0243,82.3211
153.5992,90.6161
153.6514,90.6625
153.6702,90.7298
153.6660,90.7435
153.6660,93.3029
153.5341,93.2820
153.2979,93.2820
153.1660,93.3029
153.1660,90.7867
152.8281,90.8162
152.4411,90.8845
152.4411,90.8845
152.0615,90.9862
151.6923,91.1206
151.6923,91.1206
151.3362,91.2866
151.3361,91.2867
150.9959,91.4831
150.9958,91.4831
150.6740,91.7085
150.3729,91.9611
150.0951,92.2389
149.8425,92.5400
149.6171,92.8618
149.6171,92.8619
149.4207,93.2021
149.4206,93.2022
149.2546,93.5583
149.2546,93.5583
149.1202,93.9275
149.0185,94.3071
149.0185,94.3071
148.9502,94.6941
148.9175,95.0688
148.8920,95.1339
148.8354,95.1749
148.7939,95.1820
148.4460,95.1820
148.4460,97.0320
151.9160,97.0320
151.9160,97.5320
148.4460,97.5320
148.4460,99.3820
148.7939,99.3820
148.8610,99.4017
148.9067,99.4545
148.9175,99.4952
148.9502,99.8699
149.0185,100.2569
149.0185,100.2569
149.1202,100.6365
149.2546,101.0057
149.2546,101.0057
149.4206,101.3618
149.4207,101.3619
149.6171,101.7021
149.6171,101.7022
149.8425,102.0240
150.0951,102.3251
150.3729,102.6029
150.6740,102.8555
150.9958,103.0809
150.9959,103.0809
151.3361,103.2773
151.3362,103.2774
151.6923,103.4434
151.6923,103.4434
152.0615,103.5778
152.4411,103.6795
152.4411,103.6795
152.8281,103.7478
152.8281,103.7478
153.1660,103.7773
153.1660,101.2611
153.2979,101.2820
153.5341,101.2820
153.6660,101.2611
153.6660,103.7888
153.6865,103.8228
153.6846,103.8927
153.6452,103.9504
153.6221,103.9654
135.8820,112.8353
135.8787,112.8369
135.6231,112.9556
135.6165,112.9585
135.3577,113.0608
135.3509,113.0633
135.0871,113.1502
135.0802,113.1523
134.8121,113.2238
134.8051,113.2255
134.5332,113.2814
134.5261,113.2827
134.2511,113.3228
134.2440,113.3236
133.9669,113.3479
133.9596,113.3483
133.6779,113.3565
133.6743,113.3565
130.4206,113.3565
130.4167,113.3565
130.1131,113.3470
130.1054,113.3465
129.8070,113.3185
129.7993,113.3175
129.5038,113.2709
129.4963,113.2695
129.2045,113.2047
129.1970,113.2028
128.9098,113.1199
128.9025,113.1176
128.6207,113.0169
128.6135,113.0141
128.3382,112.8959
128.3311,112.8926
128.2132,112.8330
128.0600,112.7556
128.0566,112.7538
124.8530,111.0064
128.3420,111.0064
128.3483,111.0860
128.3979,111.2713
128.4850,111.4422
128.6057,111.5913
128.6057,111.5913
128.7548,111.7120
128.9257,111.7991
129.1110,111.8487
129.1906,111.8550
129.4170,111.8550
129.4170,111.8550
129.4170,110.1050
128.3420,110.1050
128.3420,111.0064
124.8530,111.0064
120.6313,108.7036
128.3420,108.7036
128.3420,109.6050
129.4170,109.6050
129.4170,107.8550
129.1906,107.8550
129.1906,107.8550
129.1110,107.8613
128.9257,107.9109
128.7548,107.9980
128.6057,108.1187
128.6057,108.1187
128.4850,108.2678
128.3979,108.4387
128.3483,108.6240
128.3420,108.7036
120.6313,108.7036
120.4828,108.6226
111.7153,103.8404
111.6659,103.7910
111.6510,103.7227
111.6754,103.6572
111.7313,103.6154
111.7962,103.6094
111.9085,103.6292
112.3007,103.6635
112.3007,103.6635
112.3007,103.6635
112.6943,103.6635
112.6943,103.6635
113.0865,103.6292
113.4742,103.5608
113.8545,103.4589
114.2245,103.3243
114.5813,103.1579
114.9222,102.9611
115.2447,102.7352
115.5463,102.4822
115.8247,102.2038
116.0777,101.9022
116.3036,101.5797
116.5004,101.2388
116.6668,100.8820
116.8014,100.5120
116.9033,100.1317
116.9717,99.7440
117.0038,99.3767
117.0293,99.3116
117.0859,99.2706
117.1274,99.2635
120.2557,99.2635
120.2557,99.2635
120.5297,99.2274
120.7967,99.1559
121.0521,99.0501
121.2914,98.9119
121.5107,98.7437
121.7062,98.5482
121.8744,98.3289
122.0126,98.0896
122.0159,98.0815
122.0598,98.0271
122.1261,98.0051
122.1938,98.0223
122.2414,98.0735
122.2545,98.1290
122.2545,102.9496
122.2856,103.1058
122.2856,103.1058
122.3160,103.1794
122.3160,103.1794
122.3465,103.2530
122.3465,103.2530
122.4350,103.3854
122.4350,103.3854
123.6612,104.6116
123.6947,104.6729
123.6975,104.6993
123.6975,105.6655
123.7130,105.8027
123.7738,105.9767
123.7738,105.9767
123.8241,106.0567
123.8719,106.1328
124.0022,106.2631
124.1583,106.3612
124.1583,106.3612
124.3323,106.4220
124.4363,106.4338
124.4695,106.4375
124.4695,106.4375
124.4695,106.4375
125.5825,106.4375
125.5825,106.4375
125.6334,106.4318
125.7197,106.4220
125.7197,106.4220
125.7197,106.4220
125.8937,106.3612
126.0498,106.2631
126.1801,106.1328
126.1988,106.1030
126.2511,106.0567
126.3038,106.0450
127.1983,106.0450
127.2653,106.0647
127.3033,106.1030
127.3186,106.1274
127.3186,106.1274
127.4476,106.2564
127.6020,106.3535
127.7742,106.4137
127.7742,106.4137
127.9100,106.4290
127.9100,106.4290
128.2160,106.4290
128.7160,106.4290
129.0220,106.4290
129.0220,106.4290
129.1578,106.4137
129.1578,106.4137
129.3300,106.3535
129.4844,106.2564
129.6134,106.1274
129.7105,105.9730
129.7707,105.8008
129.7707,105.8008
129.7860,105.6650
129.7860,105.6650
129.7860,105.2790
128.7160,105.2790
128.7160,106.4290
128.2160,106.4290
128.2160,105.1530
128.2357,105.0860
128.2885,105.0402
128.3400,105.0290
128.4660,105.0290
128.4660,104.9030
128.4857,104.8360
128.5385,104.7902
128.5900,104.7790
129.7860,104.7790
129.7860,104.3930
129.7860,104.3930
129.7707,104.2572
129.7707,104.2572
129.7592,104.2245
129.7577,104.1950
129.7536,104.1659
129.7560,104.1605
129.7557,104.1547
129.7703,104.1291
129.7826,104.1023
129.7875,104.0991
129.7904,104.0940
129.8166,104.0805
129.8414,104.0645
129.8495,104.0634
129.8524,104.0618
129.8763,104.0595
129.9157,104.0595
129.9828,104.0792
130.0034,104.0958
131.3622,105.4546
131.3957,105.5159
131.3985,105.5423
131.3985,105.9792
131.3891,106.0267
131.3334,106.1610
131.3334,106.1610
131.2985,106.3365
131.2985,106.5155
131.3334,106.6910
131.3334,106.6910
131.3891,106.8253
131.3985,106.8728
131.3985,107.8596
131.3788,107.9267
131.3308,107.9701
131.2901,107.9908
131.1397,108.1127
131.0279,108.2507
130.9704,108.2904
130.9006,108.2927
130.8406,108.2569
130.8352,108.2507
130.7283,108.1187
130.5792,107.9980
130.4083,107.9109
130.2230,107.8613
130.1434,107.8550
129.9170,107.8550
129.9170,111.8550
130.1434,111.8550
130.1434,111.8550
130.2230,111.8487
130.4083,111.7991
130.5792,111.7120
130.7283,111.5913
130.8352,111.4593
130.8927,111.4196
130.9625,111.4173
131.0225,111.4531
131.0279,111.4593
131.0334,111.4661
131.1397,111.5973
131.2901,111.7192
131.2901,111.7192
131.2901,111.7192
131.4626,111.8071
131.6496,111.8572
131.7300,111.8635
132.6840,111.8635
132.7644,111.8572
132.9514,111.8071
133.1239,111.7192
133.2743,111.5973
133.3806,111.4661
133.4381,111.4263
133.5080,111.4240
133.5680,111.4598
133.5734,111.4661
133.6797,111.5973
133.8301,111.7192
133.8301,111.7192
133.8301,111.7192
134.0026,111.8071
134.1896,111.8572
134.2700,111.8635
135.2240,111.8635
135.3044,111.8572
135.4914,111.8071
135.6639,111.7192
135.8143,111.5973
135.9362,111.4469
136.0241,111.2744
136.0742,111.0874
136.0805,111.0070
136.0805,108.7030
136.0742,108.6226
136.0241,108.4356
135.9362,108.2631
135.9362,108.2631
135.9362,108.2631
135.8143,108.1127
135.6639,107.9908
135.6639,107.9908
135.6639,107.9908
135.6232,107.9701
135.5724,107.9221
135.5555,107.8596
135.5555,104.6954
135.5555,104.6954
135.5244,104.5392
135.5244,104.5392
135.4875,104.4500
135.4635,104.3920
135.4635,104.3920
135.4635,104.3920
135.3750,104.2596
135.3750,104.2596
133.6896,102.5742
133.6561,102.5129
133.6611,102.4432
133.7029,102.3872
133.7684,102.3628
133.7772,102.3625
134.0747,102.3625
134.0747,102.3625
134.1423,102.3564
134.1423,102.3564
134.1423,102.3564
134.2979,102.3079
134.4289,102.2287
134.4964,102.2109
134.5571,102.2287
134.6881,102.3079
134.8437,102.3564
134.9113,102.3625
135.3447,102.3625
135.3447,102.3625
135.4123,102.3564
135.4123,102.3564
135.4123,102.3564
135.5679,102.3079
135.7071,102.2238
135.7746,102.2059
135.8354,102.2238
135.9616,102.3001
135.9616,102.3001
136.1152,102.3479
136.1152,102.3479
136.1480,102.3509
136.1480,102.3509
136.6480,102.3509
136.6808,102.3479
136.6808,102.3479
136.8344,102.3001
136.9721,102.2168
137.0858,102.1031
137.1691,101.9654
137.2169,101.8118
137.2230,101.7450
137.2230,101.1420
136.6480,101.1420
136.6480,102.3509
136.1480,102.3509
136.1480,100.6420
136.6480,100.6420
137.2230,100.6420
137.2230,100.4722
137.2427,100.4051
137.2955,100.3594
137.3646,100.3494
137.4130,100.3672
137.5144,100.4309
137.6878,100.4916
137.6878,100.4916
137.8246,100.5070
137.8246,100.5070
138.1800,100.5070
138.1800,99.4370
138.6800,99.4370
138.6800,100.5070
139.0354,100.5070
139.0354,100.5070
139.1722,100.4916
139.1722,100.4916
139.3456,100.4309
139.5012,100.3331
139.6311,100.2032
139.7289,100.0476
139.7292,100.0470
139.7295,100.0467
139.7326,100.0417
139.7335,100.0423
139.7760,99.9951
139.8434,99.9768
139.9101,99.9978
139.9547,100.0516
139.9606,100.0693
140.0116,100.2061
140.0116,100.2061
140.0978,100.3212
140.0978,100.3212
140.2129,100.4073
140.2129,100.4074
140.3476,100.4576
140.3476,100.4576
140.4072,100.4640
140.4072,100.4640
141.3550,100.4640
141.8550,100.4640
142.8028,100.4640
142.8028,100.4640
142.8624,100.4576
142.8624,100.4576
142.9971,100.4074
142.9971,100.4073
143.1122,100.3212
143.1122,100.3212
143.1984,100.2061
143.1984,100.2061
143.2486,100.0714
143.2486,100.0714
143.2550,100.0118
143.2550,100.0118
143.2550,99.3140
141.8550,99.3140
141.8550,100.4640
141.3550,100.4640
141.3550,99.3140
139.9550,99.3140
139.9546,99.3144
139.9353,99.3800
139.8825,99.4258
139.8310,99.4370
138.6800,99.4370
138.1800,99.4370
137.0550,99.4370
137.0386,99.4534
137.0353,99.4645
136.9825,99.5102
136.9134,99.5202
136.8669,99.5035
136.8344,99.4839
136.6808,99.4361
136.6480,99.4331
136.6480,100.6420
136.1480,100.6420
136.1480,99.4742
136.0292,99.4432
136.0284,99.4428
136.0275,99.4428
135.9985,99.4248
135.9693,99.4072
135.9689,99.4064
135.9681,99.4060
135.9535,99.3752
135.9384,99.3446
135.9385,99.3437
135.9381,99.3429
135.9365,99.3232
135.9365,97.7104
135.9365,97.7104
135.9330,97.6926
135.9054,97.5542
135.8750,97.4806
135.8750,97.4806
135.8750,97.4806
135.8445,97.4070
135.8445,97.4070
135.8445,97.4070
135.8268,97.3805
135.7560,97.2746
134.3734,95.8920
134.3734,95.8920
134.2410,95.8035
134.2410,95.8035
134.2410,95.8035
134.1674,95.7730
134.1674,95.7730
134.1674,95.7730
134.0938,95.7426
134.0938,95.7426
133.9376,95.7115
133.9376,95.7115
128.0213,95.7115
127.9542,95.6918
127.9336,95.6752
127.3368,95.0784
127.3033,95.0171
127.3005,94.9907
127.3005,94.6605
127.3202,94.5935
127.3730,94.5477
127.4245,94.5365
128.6406,94.5365
128.6407,94.5365
128.6677,94.5336
128.7012,94.5300
128.8382,94.4789
128.9553,94.3913
129.0429,94.2742
129.0940,94.1372
129.0976,94.1037
129.1005,94.0767
129.1005,94.0766
129.1005,91.9794
129.1005,91.9793
129.0950,91.9278
129.0940,91.9188
129.0429,91.7818
128.9703,91.6848
128.9459,91.6193
128.9607,91.5511
129.0101,91.5017
129.0696,91.4865
130.5507,91.4865
130.6178,91.5062
130.6384,91.5228
131.7182,92.6026
131.7517,92.6639
131.7545,92.6903
131.7545,94.2717
131.7606,94.3393
131.8091,94.4949
131.8934,94.6344
132.0086,94.7496
132.0086,94.7496
132.0086,94.7496
132.1481,94.8339
132.3037,94.8824
132.3713,94.8885
132.8047,94.8885
132.8047,94.8885
132.8723,94.8824
132.8723,94.8824
132.8723,94.8824
133.0279,94.8339
133.1589,94.7547
133.2264,94.7369
133.2871,94.7547
133.4181,94.8339
133.5737,94.8824
133.6413,94.8885
134.0747,94.8885
134.0747,94.8885
134.1423,94.8824
134.1423,94.8824
134.1423,94.8824
134.2979,94.8339
134.4289,94.7547
134.4964,94.7369
134.5571,94.7547
134.6881,94.8339
134.8437,94.8824
134.9113,94.8885
135.3447,94.8885
135.3447,94.8885
135.4123,94.8824
135.4123,94.8824
135.4123,94.8824
135.5679,94.8339
135.6989,94.7547
135.7664,94.7369
135.8271,94.7547
135.9581,94.8339
136.1137,94.8824
136.1813,94.8885
136.6147,94.8885
136.6147,94.8885
136.6823,94.8824
136.6823,94.8824
136.6823,94.8824
136.8379,94.8339
136.9239,94.7819
136.9915,94.7640
137.0580,94.7856
137.1023,94.8396
137.1103,94.9090
137.0992,94.9431
137.0925,94.9566
137.0925,94.9566
137.0492,95.1305
137.0465,95.1707
137.0465,96.3232
137.0492,96.3635
137.0925,96.5374
137.1721,96.6979
137.1721,96.6980
137.2844,96.8376
137.2844,96.8376
137.2844,96.8376
137.3264,96.8714
137.3677,96.9046
137.4076,96.9619
137.4140,97.0012
137.4140,97.9376
137.3943,98.0047
137.3633,98.0354
137.3642,98.0365
137.3588,98.0409
137.2289,98.1708
137.1311,98.3264
137.0704,98.4998
137.0704,98.4998
137.0550,98.6366
137.0550,98.9370
139.8050,98.9370
139.8054,98.9366
139.8247,98.8710
139.8775,98.8252
139.9290,98.8140
143.2550,98.8140
143.2550,98.6084
143.2560,98.6050
143.2560,97.0320
143.7108,97.0320
144.8261,97.0320
144.7960,97.1835
144.7960,97.3805
144.8261,97.5320
143.7108,97.5320
143.7319,97.6926
143.8032,97.9585
143.9085,98.2128
143.9085,98.2128
144.0462,98.4512
144.2137,98.6696
144.2138,98.6696
144.4084,98.8642
144.4084,98.8642
144.6268,99.0318
144.8652,99.1695
144.8652,99.1695
145.1195,99.2748
145.3854,99.3461
145.6584,99.3820
147.9460,99.3820
147.9460,97.5320
146.7659,97.5320
146.7960,97.3805
146.7960,97.1835
146.7659,97.0320
147.9460,97.0320
147.9460,95.1820
145.6584,95.1820
145.3854,95.2179
145.1195,95.2892
144.8652,95.3945
144.8652,95.3945
144.6268,95.5322
144.4084,95.6997
144.2137,95.8944
144.0462,96.1128
143.9085,96.3512
143.9085,96.3512
143.8032,96.6055
143.7319,96.8714
143.7108,97.0320
143.2560,97.0320
143.2560,96.2700
143.2429,96.2569
143.2205,96.2503
143.1747,96.1975
143.1635,96.1460
143.1635,94.9634
143.1635,94.9633
143.1591,94.9225
143.1570,94.9028
143.1517,94.8885
143.1313,94.8339
143.1059,94.7658
143.0183,94.6487
142.9012,94.5611
142.8776,94.5523
142.7642,94.5100
142.7037,94.5035
142.7036,94.5035
142.4105,94.5035
142.3435,94.4838
142.2977,94.4310
142.2865,94.3795
142.2865,92.0338
142.2865,92.0337
142.2865,91.8684
142.2623,91.7468
142.2606,91.7381
142.2554,91.7122
142.2212,91.6296
142.2090,91.6001
142.1945,91.5650
142.1945,91.5650
142.1060,91.4326
142.1060,91.4326
140.3424,89.6690
140.3424,89.6690
140.2100,89.5805
140.2100,89.5805
140.2100,89.5805
140.1364,89.5500
140.1364,89.5500
140.1364,89.5500
140.0628,89.5196
140.0628,89.5196
139.9066,89.4885
139.9066,89.4885
138.4797,89.4885
138.4127,89.4688
138.3687,89.4196
138.3049,89.2911
138.3049,89.2910
138.1926,89.1514
138.1926,89.1514
138.0530,89.0391
138.0529,89.0391
137.8924,88.9595
137.7185,88.9162
137.7185,88.9162
137.6883,88.9142
137.6783,88.9135
136.5257,88.9135
136.5123,88.9144
136.4855,88.9162
136.4855,88.9162
136.4698,88.9201
136.4000,88.9172
136.3428,88.8770
136.3182,88.8240
136.2864,88.6642
136.2864,88.6642
136.2864,88.6642
136.2864,88.6642
136.2255,88.5170
136.2255,88.5170
136.1370,88.3846
136.1370,88.3846
135.3894,87.6370
135.3894,87.6370
135.2570,87.5485
135.2570,87.5485
135.2570,87.5485
135.1834,87.5180
135.1834,87.5180
135.1834,87.5180
135.1098,87.4876
135.1098,87.4876
134.9536,87.4565
134.9536,87.4565
124.6728,87.4565
124.6727,87.4565
124.6666,87.4565
124.5074,87.4565
124.5074,87.4565
124.3771,87.4824
124.3771,87.4824
124.3512,87.4876
124.3326,87.4953
124.3081,87.5054
124.3081,87.5054
124.2040,87.5485
124.2040,87.5485
124.0716,87.6370
124.0716,87.6370
119.4895,92.2191
119.4010,92.3515
119.4010,92.3515
119.4010,92.3515
119.3809,92.4000
119.3401,92.4987
119.3401,92.4987
119.3090,92.6549
119.3090,94.9225
119.2893,94.9895
119.2365,95.0353
119.1850,95.0465
117.1274,95.0465
117.0603,95.0268
117.0146,94.9740
117.0038,94.9333
117.0036,94.9309
116.9717,94.5660
116.9693,94.5523
116.9388,94.3795
116.9033,94.1783
116.8014,93.7980
116.6668,93.4280
116.5235,93.1208
116.5004,93.0712
116.5004,93.0712
116.4342,92.9566
116.3036,92.7303
116.3035,92.7303
116.3035,92.7303
116.0777,92.4078
115.8247,92.1062
115.5463,91.8278
115.5412,91.8235
115.4394,91.7381
115.2447,91.5748
114.9222,91.3490
114.9222,91.3490
114.9222,91.3489
114.7192,91.2317
114.5813,91.1521
114.5813,91.1521
114.2245,90.9857
114.2245,90.9857
114.2245,90.9857
113.8545,90.8511
113.6134,90.7865
113.4742,90.7492
113.4742,90.7492
113.0865,90.6808
112.6943,90.6465
112.6943,90.6465
112.4171,90.6465
112.3501,90.6268
112.3043,90.5740
112.2944,90.5049
112.3234,90.4413
112.3603,90.4123
115.2644,88.9162
128.0921,82.3080
128.0947,82.3067
128.0980,82.3051
128.1076,82.3012
128.1089,82.2998
128.1190,82.2949
128.1192,82.2949
128.1197,82.2946
128.3612,82.1792
128.3679,82.1763
128.6323,82.0687
128.6392,82.0661
128.9092,81.9746
128.9162,81.9725
129.1909,81.8972
129.1980,81.8955
129.4767,81.8366
129.4839,81.8353
129.7658,81.7930
129.7731,81.7921
130.0575,81.7667
130.0648,81.7662
130.3539,81.7576
130.3576,81.7575
130.9546,81.7575
133.3975,81.7575
133.7335,81.7575
Z" /> 
</g> 
</svg>
