<?xml version="1.0" standalone="no"?>
 <!DOCTYPE svg PUBLIC "-//W3C//DTD SVG 1.1//EN" 
 "http://www.w3.org/Graphics/SVG/1.1/DTD/svg11.dtd"> 
<svg
  xmlns:svg="http://www.w3.org/2000/svg"
  xmlns="http://www.w3.org/2000/svg"
  xmlns:xlink="http://www.w3.org/1999/xlink"
  version="1.1"
  width="297.0022mm" height="210.0072mm" viewBox="0.0000 0.0000 297.0022 210.0072">
<title>SVG Image created as peepsy_phycom-B_Cu.svg date 2026/05/23 14:50:46 </title>
  <desc>Image generated by PCBNEW </desc>
<g style="fill:#000000; fill-opacity:1.0000;stroke:#000000; stroke-opacity:1.0000;
stroke-linecap:round; stroke-linejoin:round;"
 transform="translate(0 0) scale(1 1)">
<path style="fill:#000000; fill-opacity:1.0000; stroke:none;fill-rule:evenodd;"
d="M 134.8840,112.8860
129.7840,112.8860
129.7840,107.7860
134.8840,107.7860
Z" /> 
<path style="fill:#000000; fill-opacity:1.0000; stroke:none;fill-rule:evenodd;"
d="M 134.8840,87.2860
129.7840,87.2860
129.7840,82.1860
134.8840,82.1860
Z" /> 
</g>
<g style="fill:none; 
stroke:#000000; stroke-width:3.2000; stroke-opacity:1; 
stroke-linecap:round; stroke-linejoin:round;">
<path d="M145.7960 97.2820
L150.5960 97.2820
" />
</g>
<g style="fill:none; 
stroke:#000000; stroke-width:8.0000; stroke-opacity:1; 
stroke-linecap:round; stroke-linejoin:round;">
<path d="M153.4160 99.2820
L153.4160 95.2820
" />
</g>
<g style="fill:none; 
stroke:#000000; stroke-width:3.2000; stroke-opacity:1; 
stroke-linecap:round; stroke-linejoin:round;">
<path d="M120.1175 97.1550
L115.3175 97.1550
" />
</g>
<g style="fill:none; 
stroke:#000000; stroke-width:8.0000; stroke-opacity:1; 
stroke-linecap:round; stroke-linejoin:round;">
<path d="M112.4975 95.1550
L112.4975 99.1550
" />
</g>
<g style="fill:#000000; fill-opacity:1.0000; stroke:none;">
<circle cx="132.2070" cy="106.4260" r="0.4000" /> 
</g>
<g style="fill:none; 
stroke:#000000; stroke-width:0.6000; stroke-opacity:1; 
stroke-linecap:round; stroke-linejoin:round;">
<path d="M132.3340 106.5530
L132.2070 106.4260
" />
<path d="M132.3340 110.3360
L132.3340 106.5530
" />
<path style="fill:#000000; fill-opacity:1.0000; stroke:none;fill-rule:evenodd;"
d="M 129.2134,81.9114
129.2715,81.9503
129.2993,82.0143
129.2925,82.0731
129.2904,82.0786
129.2904,82.0786
129.2840,82.1382
129.2840,84.4860
135.3840,84.4860
135.3840,82.2215
135.3927,82.1920
135.3992,82.1620
135.4024,82.1588
135.4037,82.1545
135.4269,82.1344
135.4487,82.1126
135.4531,82.1117
135.4565,82.1087
135.4869,82.1044
135.5170,82.0979
135.5230,82.0992
135.5256,82.0988
135.5515,82.1054
135.5865,82.1185
135.5929,82.1211
135.8363,82.2280
135.8419,82.2306
135.9705,82.2949
135.9761,82.2977
135.9808,82.3006
135.9988,82.3091
135.9988,82.3091
136.0000,82.3097
136.0127,82.3160
136.0136,82.3161
153.5992,90.6161
153.6514,90.6625
153.6702,90.7298
153.6660,90.7435
153.6660,93.3029
153.5341,93.2820
153.2979,93.2820
153.1660,93.3029
153.1660,90.7867
152.8281,90.8162
152.4411,90.8845
152.4411,90.8845
152.0615,90.9862
151.6923,91.1206
151.6923,91.1206
151.3362,91.2866
151.3361,91.2867
150.9959,91.4831
150.9958,91.4831
150.6740,91.7085
150.3729,91.9611
150.0951,92.2389
149.8425,92.5400
149.6171,92.8618
149.6171,92.8619
149.4207,93.2021
149.4206,93.2022
149.2546,93.5583
149.2546,93.5583
149.1202,93.9275
149.0185,94.3071
149.0185,94.3071
148.9502,94.6941
148.9175,95.0688
148.8920,95.1339
148.8354,95.1749
148.7939,95.1820
148.4460,95.1820
148.4460,97.0320
151.9160,97.0320
151.9160,97.5320
148.4460,97.5320
148.4460,99.3820
148.7939,99.3820
148.8610,99.4017
148.9067,99.4545
148.9175,99.4952
148.9502,99.8699
149.0185,100.2569
149.0185,100.2569
149.1202,100.6365
149.2546,101.0057
149.2546,101.0057
149.4206,101.3618
149.4207,101.3619
149.6171,101.7021
149.6171,101.7022
149.8425,102.0240
150.0951,102.3251
150.3729,102.6029
150.6740,102.8555
150.9958,103.0809
150.9959,103.0809
151.3361,103.2773
151.3362,103.2774
151.6923,103.4434
151.6923,103.4434
152.0615,103.5778
152.4411,103.6795
152.4411,103.6795
152.8281,103.7478
152.8281,103.7478
153.1660,103.7773
153.1660,101.2611
153.2979,101.2820
153.5341,101.2820
153.6660,101.2611
153.6660,103.7888
153.6865,103.8228
153.6846,103.8927
153.6452,103.9504
153.6221,103.9654
135.8820,112.8353
135.8787,112.8369
135.6231,112.9556
135.6165,112.9585
135.5621,112.9800
135.4925,112.9863
135.4305,112.9540
135.3959,112.8934
135.3925,112.8647
135.3925,107.7374
135.3925,107.7373
135.3892,107.7063
135.3860,107.6768
135.3349,107.5398
135.2473,107.4227
135.1302,107.3351
134.9932,107.2840
134.9327,107.2775
134.9326,107.2775
133.2665,107.2775
133.1995,107.2578
133.1537,107.2050
133.1425,107.1535
133.1425,106.4734
133.1425,106.4734
133.1169,106.3447
133.1163,106.3403
133.0806,106.1610
133.0806,106.1610
133.0121,105.9957
133.0121,105.9957
133.0121,105.9957
132.9127,105.8469
132.9127,105.8469
132.7861,105.7203
132.7861,105.7203
132.6373,105.6209
132.6373,105.6209
132.4720,105.5524
132.4720,105.5524
132.2965,105.5175
132.2965,105.5175
132.1175,105.5175
132.1175,105.5175
131.9420,105.5524
131.9420,105.5524
131.7767,105.6209
131.7767,105.6209
131.6279,105.7203
131.6279,105.7203
131.5013,105.8469
131.5013,105.8469
131.4019,105.9957
131.4019,105.9957
131.3334,106.1610
131.3334,106.1610
131.2985,106.3365
131.2985,106.5155
131.3334,106.6910
131.3334,106.6910
131.4019,106.8563
131.4019,106.8563
131.5046,107.0100
131.5103,107.0281
131.5205,107.0440
131.5249,107.0750
131.5255,107.0767
131.5255,107.0789
131.5255,107.1535
131.5058,107.2205
131.4530,107.2663
131.4015,107.2775
129.7353,107.2775
129.6748,107.2840
129.6748,107.2840
129.5378,107.3351
129.4207,107.4227
129.3331,107.5398
129.2820,107.6768
129.2820,107.6768
129.2755,107.7373
129.2755,112.9347
129.2820,112.9952
129.2820,112.9952
129.2930,113.0246
129.2939,113.0377
129.2994,113.0497
129.2963,113.0719
129.2979,113.0942
129.2916,113.1058
129.2898,113.1189
129.2752,113.1359
129.2645,113.1556
129.2529,113.1619
129.2443,113.1719
129.2228,113.1783
129.2031,113.1891
129.1885,113.1886
129.1774,113.1919
129.1424,113.1870
128.9098,113.1199
128.9025,113.1176
128.6207,113.0169
128.6135,113.0141
128.3382,112.8959
128.3311,112.8926
128.2132,112.8330
128.0600,112.7556
128.0566,112.7538
122.1817,109.5493
111.7153,103.8404
111.6659,103.7910
111.6510,103.7227
111.6754,103.6572
111.7313,103.6154
111.7962,103.6094
111.9085,103.6292
112.3007,103.6635
112.3007,103.6635
112.3007,103.6635
112.6943,103.6635
112.6943,103.6635
113.0865,103.6292
113.4742,103.5608
113.8545,103.4589
114.2245,103.3243
114.5813,103.1579
114.9222,102.9611
115.2447,102.7352
115.5463,102.4822
115.8247,102.2038
116.0777,101.9022
116.3036,101.5797
116.5004,101.2388
116.6668,100.8820
116.8014,100.5120
116.9033,100.1317
116.9717,99.7440
117.0038,99.3767
117.0293,99.3116
117.0859,99.2706
117.1274,99.2635
120.2557,99.2635
120.2557,99.2635
120.5297,99.2274
120.7967,99.1559
121.0521,99.0501
121.2914,98.9119
121.5107,98.7437
121.7062,98.5482
121.8744,98.3289
122.0126,98.0896
122.1184,97.8342
122.1899,97.5672
122.2260,97.2932
122.2260,97.0320
143.7108,97.0320
144.8261,97.0320
144.7960,97.1835
144.7960,97.3805
144.8261,97.5320
143.7108,97.5320
143.7319,97.6926
143.8032,97.9585
143.9085,98.2128
143.9085,98.2128
144.0462,98.4512
144.2137,98.6696
144.2138,98.6696
144.4084,98.8642
144.4084,98.8642
144.6268,99.0318
144.8652,99.1695
144.8652,99.1695
145.1195,99.2748
145.3854,99.3461
145.6584,99.3820
147.9460,99.3820
147.9460,97.5320
146.7659,97.5320
146.7960,97.3805
146.7960,97.1835
146.7659,97.0320
147.9460,97.0320
147.9460,95.1820
145.6584,95.1820
145.3854,95.2179
145.1195,95.2892
144.8652,95.3945
144.8652,95.3945
144.6268,95.5322
144.4084,95.6997
144.2137,95.8944
144.0462,96.1128
143.9085,96.3512
143.9085,96.3512
143.8032,96.6055
143.7319,96.8714
143.7108,97.0320
122.2260,97.0320
122.2260,97.0168
122.1899,96.7428
122.1184,96.4758
122.0853,96.3958
122.0126,96.2204
122.0126,96.2204
121.9505,96.1128
121.8744,95.9811
121.8744,95.9811
121.8744,95.9811
121.7062,95.7618
121.7062,95.7618
121.5107,95.5663
121.5107,95.5663
121.2914,95.3981
121.2914,95.3981
121.2914,95.3981
121.0521,95.2599
121.0521,95.2599
120.7967,95.1541
120.5297,95.0826
120.2557,95.0465
120.2557,95.0465
120.2557,95.0465
120.2557,95.0465
117.1274,95.0465
117.0603,95.0268
117.0146,94.9740
117.0038,94.9333
116.9829,94.6941
116.9717,94.5660
116.9693,94.5523
116.9260,94.3071
116.9033,94.1783
116.8014,93.7980
116.6668,93.4280
116.5004,93.0712
116.3036,92.7303
116.3035,92.7303
116.3035,92.7303
116.0777,92.4078
115.8247,92.1062
115.5463,91.8278
115.2447,91.5748
114.9222,91.3490
114.9222,91.3490
114.9222,91.3489
114.7192,91.2317
114.5813,91.1521
114.5813,91.1521
114.2245,90.9857
114.2245,90.9857
114.2245,90.9857
113.8545,90.8511
113.6134,90.7865
113.4742,90.7492
113.4742,90.7492
113.0865,90.6808
112.6943,90.6465
112.6943,90.6465
112.4171,90.6465
112.3501,90.6268
112.3043,90.5740
112.2944,90.5049
112.3234,90.4413
112.3603,90.4123
113.9215,89.6080
118.3361,87.3338
129.2840,87.3338
129.2904,87.3934
129.2904,87.3934
129.3406,87.5281
129.3406,87.5281
129.4268,87.6432
129.4268,87.6432
129.5419,87.7293
129.5419,87.7294
129.6766,87.7796
129.6766,87.7796
129.7362,87.7860
129.7362,87.7860
132.0840,87.7860
132.5840,87.7860
134.9318,87.7860
134.9318,87.7860
134.9914,87.7796
134.9914,87.7796
135.1261,87.7294
135.1261,87.7293
135.2412,87.6432
135.2412,87.6432
135.3273,87.5281
135.3274,87.5281
135.3776,87.3934
135.3776,87.3934
135.3840,87.3338
135.3840,87.3338
135.3840,84.9860
132.5840,84.9860
132.5840,87.7860
132.0840,87.7860
132.0840,84.9860
129.2840,84.9860
129.2840,87.3338
118.3361,87.3338
128.0921,82.3080
128.0947,82.3067
128.0980,82.3051
128.1076,82.3012
128.1089,82.2998
128.1190,82.2949
128.1192,82.2949
128.1197,82.2946
128.3612,82.1792
128.3679,82.1763
128.6323,82.0687
128.6392,82.0661
128.9092,81.9746
128.9162,81.9725
129.1435,81.9102
Z" /> 
</g> 
</svg>
