%TF.GenerationSoftware,KiCad,Pcbnew,9.0.9-9.0.9~ubuntu22.04.1*%
%TF.CreationDate,2026-05-23T16:30:54+07:00*%
%TF.ProjectId,peepsy_phycom,70656570-7379-45f7-9068-79636f6d2e6b,rev?*%
%TF.SameCoordinates,Original*%
%TF.FileFunction,Copper,L1,Top*%
%TF.FilePolarity,Positive*%
%FSLAX46Y46*%
G04 Gerber Fmt 4.6, Leading zero omitted, Abs format (unit mm)*
G04 Created by KiCad (PCBNEW 9.0.9-9.0.9~ubuntu22.04.1) date 2026-05-23 16:30:54*
%MOMM*%
%LPD*%
G01*
G04 APERTURE LIST*
G04 Aperture macros list*
%AMRoundRect*
0 Rectangle with rounded corners*
0 $1 Rounding radius*
0 $2 $3 $4 $5 $6 $7 $8 $9 X,Y pos of 4 corners*
0 Add a 4 corners polygon primitive as box body*
4,1,4,$2,$3,$4,$5,$6,$7,$8,$9,$2,$3,0*
0 Add four circle primitives for the rounded corners*
1,1,$1+$1,$2,$3*
1,1,$1+$1,$4,$5*
1,1,$1+$1,$6,$7*
1,1,$1+$1,$8,$9*
0 Add four rect primitives between the rounded corners*
20,1,$1+$1,$2,$3,$4,$5,0*
20,1,$1+$1,$4,$5,$6,$7,0*
20,1,$1+$1,$6,$7,$8,$9,0*
20,1,$1+$1,$8,$9,$2,$3,0*%
G04 Aperture macros list end*
%TA.AperFunction,SMDPad,CuDef*%
%ADD10R,4.200000X2.000000*%
%TD*%
%TA.AperFunction,SMDPad,CuDef*%
%ADD11RoundRect,0.412500X0.412500X-1.087500X0.412500X1.087500X-0.412500X1.087500X-0.412500X-1.087500X0*%
%TD*%
%TA.AperFunction,SMDPad,CuDef*%
%ADD12RoundRect,0.315385X0.559615X-0.504615X0.559615X0.504615X-0.559615X0.504615X-0.559615X-0.504615X0*%
%TD*%
%TA.AperFunction,ComponentPad*%
%ADD13O,8.000000X3.200000*%
%TD*%
%TA.AperFunction,ComponentPad*%
%ADD14O,8.000000X12.000000*%
%TD*%
%TA.AperFunction,SMDPad,CuDef*%
%ADD15RoundRect,0.227000X0.227000X-0.735000X0.227000X0.735000X-0.227000X0.735000X-0.227000X-0.735000X0*%
%TD*%
%TA.AperFunction,SMDPad,CuDef*%
%ADD16RoundRect,0.162500X0.162500X-0.799500X0.162500X0.799500X-0.162500X0.799500X-0.162500X-0.799500X0*%
%TD*%
%TA.AperFunction,SMDPad,CuDef*%
%ADD17RoundRect,0.315385X0.504615X0.559615X-0.504615X0.559615X-0.504615X-0.559615X0.504615X-0.559615X0*%
%TD*%
%TA.AperFunction,SMDPad,CuDef*%
%ADD18R,2.300000X1.800000*%
%TD*%
%TA.AperFunction,SMDPad,CuDef*%
%ADD19R,2.100000X1.500000*%
%TD*%
%TA.AperFunction,SMDPad,CuDef*%
%ADD20RoundRect,0.309434X-0.510566X-0.590566X0.510566X-0.590566X0.510566X0.590566X-0.510566X0.590566X0*%
%TD*%
%TA.AperFunction,ViaPad*%
%ADD21C,0.800000*%
%TD*%
%TA.AperFunction,Conductor*%
%ADD22C,0.600000*%
%TD*%
G04 APERTURE END LIST*
D10*
%TO.P,Piezo,1,1*%
%TO.N,Net-(U1-XTAL1{slash}PB3)*%
X141478000Y-105917500D03*
%TO.P,Piezo,2,2*%
%TO.N,Net-(U1-XTAL2{slash}PB4)*%
X141478000Y-97917500D03*
%TD*%
D11*
%TO.P,J3,1,Pin_1*%
%TO.N,GND*%
X144653000Y-114744500D03*
%TO.P,J3,2,Pin_2*%
%TO.N,VCC*%
X147193000Y-114744500D03*
%TO.P,J3,3,Pin_3*%
%TO.N,Net-(J3-Pin_3)*%
X149733000Y-114744500D03*
%TD*%
D12*
%TO.P,R1,1*%
%TO.N,GND*%
X153670000Y-104076500D03*
%TO.P,R1,2*%
%TO.N,Net-(U1-AREF{slash}PB0)*%
X153670000Y-100636500D03*
%TD*%
D13*
%TO.P,J1,1,Pin_1*%
%TO.N,/Probe*%
X132703500Y-102044500D03*
D14*
X127483500Y-102044500D03*
%TD*%
D15*
%TO.P,U1,1,~{RESET}/PB5*%
%TO.N,Net-(J3-Pin_3)*%
X147520000Y-105781500D03*
D16*
%TO.P,U1,2,XTAL1/PB3*%
%TO.N,Net-(U1-XTAL1{slash}PB3)*%
X148844000Y-105781500D03*
%TO.P,U1,3,XTAL2/PB4*%
%TO.N,Net-(U1-XTAL2{slash}PB4)*%
X150114000Y-105781500D03*
%TO.P,U1,4,GND*%
%TO.N,GND*%
X151384000Y-105781500D03*
%TO.P,U1,5,AREF/PB0*%
%TO.N,Net-(U1-AREF{slash}PB0)*%
X151384000Y-98307500D03*
%TO.P,U1,6,PB1*%
%TO.N,/Probe*%
X150114000Y-98307500D03*
%TO.P,U1,7,PB2*%
%TO.N,Net-(U1-PB2)*%
X148844000Y-98307500D03*
%TO.P,U1,8,VCC*%
%TO.N,VCC*%
X147574000Y-98307500D03*
%TD*%
D17*
%TO.P,R2,1*%
%TO.N,Net-(D1-A)*%
X152088000Y-95186500D03*
%TO.P,R2,2*%
%TO.N,Net-(U1-PB2)*%
X148648000Y-95186500D03*
%TD*%
D13*
%TO.P,J2,1,Pin_1*%
%TO.N,GND*%
X163182000Y-102171500D03*
D14*
X168402000Y-102171500D03*
%TD*%
D18*
%TO.P,D1,1,K*%
%TO.N,GND*%
X156972000Y-103953500D03*
D19*
%TO.P,D1,2,A*%
%TO.N,Net-(D1-A)*%
X156972000Y-100651500D03*
%TD*%
D20*
%TO.P,C1,1*%
%TO.N,VCC*%
X139504000Y-109918500D03*
%TO.P,C1,2*%
%TO.N,GND*%
X142944000Y-109918500D03*
%TD*%
D21*
%TO.N,VCC*%
X147320000Y-115225500D03*
%TD*%
D22*
%TO.N,VCC*%
X147193000Y-114744500D02*
X147193000Y-110045500D01*
X147574000Y-97218500D02*
X147574000Y-98361500D01*
X138049000Y-107759500D02*
X138049000Y-96837500D01*
X145288000Y-108140500D02*
X139827000Y-108140500D01*
X138430000Y-108140500D02*
X139827000Y-108140500D01*
X139319000Y-95567500D02*
X145923000Y-95567500D01*
X145923000Y-95567500D02*
X147574000Y-97218500D01*
X138049000Y-96837500D02*
X139319000Y-95567500D01*
X138049000Y-107759500D02*
X138430000Y-108140500D01*
X147193000Y-110045500D02*
X145288000Y-108140500D01*
X139827000Y-108140500D02*
X139504000Y-108463500D01*
X140012000Y-109341500D02*
X140012000Y-109918500D01*
X139504000Y-108463500D02*
X139504000Y-109918500D01*
%TO.N,Net-(D1-A)*%
X156464000Y-97345500D02*
X156464000Y-100651500D01*
X154305000Y-95186500D02*
X156464000Y-97345500D01*
X152088000Y-95186500D02*
X154305000Y-95186500D01*
%TO.N,/Probe*%
X139573000Y-93154500D02*
X135103500Y-97624000D01*
X150368000Y-96583500D02*
X150368000Y-93662500D01*
X150114000Y-96837500D02*
X150368000Y-96583500D01*
X150114000Y-98457000D02*
X150114000Y-96837500D01*
X149860000Y-93154500D02*
X139573000Y-93154500D01*
X135103500Y-97624000D02*
X135103500Y-102044500D01*
X150368000Y-93662500D02*
X149860000Y-93154500D01*
%TO.N,Net-(U1-XTAL1{slash}PB3)*%
X148844000Y-103060500D02*
X148590000Y-102806500D01*
X148844000Y-105632000D02*
X148844000Y-103060500D01*
X141478000Y-103949500D02*
X141478000Y-105917500D01*
X148590000Y-102806500D02*
X142621000Y-102806500D01*
X142621000Y-102806500D02*
X141478000Y-103949500D01*
%TO.N,Net-(U1-XTAL2{slash}PB4)*%
X141478000Y-100266500D02*
X141478000Y-97917500D01*
X142621000Y-101409500D02*
X141478000Y-100266500D01*
X150114000Y-105632000D02*
X150114000Y-102679500D01*
X150114000Y-102679500D02*
X148844000Y-101409500D01*
X148844000Y-101409500D02*
X142621000Y-101409500D01*
%TO.N,Net-(U1-AREF{slash}PB0)*%
X151384000Y-98307500D02*
X152600000Y-98307500D01*
X153670000Y-100382500D02*
X153416000Y-100636500D01*
X153670000Y-99377500D02*
X153670000Y-100382500D01*
X152600000Y-98307500D02*
X153670000Y-99377500D01*
%TO.N,Net-(U1-PB2)*%
X148844000Y-95959500D02*
X148648000Y-95763500D01*
X148648000Y-95763500D02*
X148648000Y-95186500D01*
X148844000Y-98457000D02*
X148844000Y-95959500D01*
%TO.N,Net-(J3-Pin_3)*%
X147574000Y-107505500D02*
X147574000Y-105632000D01*
X149733000Y-109664500D02*
X147574000Y-107505500D01*
X149733000Y-114744500D02*
X149733000Y-109664500D01*
%TD*%
%TA.AperFunction,Conductor*%
%TO.N,GND*%
G36*
X148722889Y-86647097D02*
G01*
X148991067Y-86654518D01*
X148997883Y-86654896D01*
X149261735Y-86676826D01*
X149268512Y-86677578D01*
X149530439Y-86713958D01*
X149537128Y-86715075D01*
X149796403Y-86765779D01*
X149803007Y-86767260D01*
X150059196Y-86832151D01*
X150065740Y-86834002D01*
X150318086Y-86912962D01*
X150324500Y-86915164D01*
X150520796Y-86988667D01*
X150572504Y-87008029D01*
X150578857Y-87010611D01*
X150822332Y-87117476D01*
X150827950Y-87120111D01*
X150956530Y-87184418D01*
X150962089Y-87187198D01*
X150966848Y-87190120D01*
X150984786Y-87198586D01*
X150987328Y-87199821D01*
X151005042Y-87208681D01*
X151010273Y-87210614D01*
X168076929Y-95265734D01*
X168089681Y-95277067D01*
X168105203Y-95284156D01*
X168115253Y-95299795D01*
X168129151Y-95312147D01*
X168133953Y-95328893D01*
X168142977Y-95342934D01*
X168148000Y-95377869D01*
X168148000Y-95562907D01*
X168128315Y-95629946D01*
X168075511Y-95675701D01*
X168034808Y-95686435D01*
X167814069Y-95705748D01*
X167427099Y-95773982D01*
X167427086Y-95773985D01*
X167047541Y-95875682D01*
X166678281Y-96010082D01*
X166678266Y-96010088D01*
X166322161Y-96176144D01*
X166322145Y-96176152D01*
X165981856Y-96372618D01*
X165981841Y-96372627D01*
X165659957Y-96598013D01*
X165358945Y-96850593D01*
X165081093Y-97128445D01*
X164828513Y-97429457D01*
X164603127Y-97751341D01*
X164603118Y-97751356D01*
X164406652Y-98091645D01*
X164406644Y-98091661D01*
X164240588Y-98447766D01*
X164240582Y-98447781D01*
X164106182Y-98817041D01*
X164004485Y-99196586D01*
X164004482Y-99196599D01*
X163936248Y-99583570D01*
X163903463Y-99958307D01*
X163878011Y-100023376D01*
X163821420Y-100064355D01*
X163779935Y-100071500D01*
X163432000Y-100071500D01*
X163432000Y-101921500D01*
X166902000Y-101921500D01*
X166902000Y-102421500D01*
X163432000Y-102421500D01*
X163432000Y-104271500D01*
X163779935Y-104271500D01*
X163846974Y-104291185D01*
X163892729Y-104343989D01*
X163903463Y-104384693D01*
X163936248Y-104759429D01*
X164004482Y-105146400D01*
X164004485Y-105146413D01*
X164106182Y-105525958D01*
X164240582Y-105895218D01*
X164240588Y-105895233D01*
X164406644Y-106251338D01*
X164406652Y-106251354D01*
X164603118Y-106591643D01*
X164603127Y-106591658D01*
X164828513Y-106913542D01*
X165081093Y-107214554D01*
X165358945Y-107492406D01*
X165659957Y-107744986D01*
X165981841Y-107970372D01*
X165981856Y-107970381D01*
X166322145Y-108166847D01*
X166322161Y-108166855D01*
X166678266Y-108332911D01*
X166678281Y-108332917D01*
X167047541Y-108467317D01*
X167427086Y-108569014D01*
X167427099Y-108569017D01*
X167814070Y-108637251D01*
X168034807Y-108656563D01*
X168038122Y-108657859D01*
X168041647Y-108657353D01*
X168070420Y-108670493D01*
X168099876Y-108682015D01*
X168101964Y-108684898D01*
X168105203Y-108686378D01*
X168122301Y-108712984D01*
X168140855Y-108738606D01*
X168141619Y-108743043D01*
X168142977Y-108745156D01*
X168148000Y-108780091D01*
X168148000Y-109008267D01*
X168128315Y-109075306D01*
X168079454Y-109119176D01*
X150867960Y-117724832D01*
X150864745Y-117726382D01*
X150609127Y-117845121D01*
X150602483Y-117847975D01*
X150343676Y-117950308D01*
X150336907Y-117952760D01*
X150073084Y-118039741D01*
X150066216Y-118041787D01*
X149798052Y-118113316D01*
X149791097Y-118114958D01*
X149519201Y-118170932D01*
X149512105Y-118172179D01*
X149237129Y-118212310D01*
X149230047Y-118213137D01*
X148952865Y-118237428D01*
X148945625Y-118237849D01*
X148663868Y-118245998D01*
X148660283Y-118246050D01*
X145406570Y-118246050D01*
X145402688Y-118245989D01*
X145099131Y-118236481D01*
X145091414Y-118235998D01*
X144793032Y-118207964D01*
X144785330Y-118206997D01*
X144489848Y-118160438D01*
X144482262Y-118158999D01*
X144190495Y-118094194D01*
X144183007Y-118092284D01*
X143895835Y-118009427D01*
X143888512Y-118007066D01*
X143606708Y-117906442D01*
X143599498Y-117903610D01*
X143324164Y-117785432D01*
X143317127Y-117782147D01*
X143199153Y-117722505D01*
X143045981Y-117645069D01*
X143042582Y-117643284D01*
X139838993Y-115895871D01*
X143328001Y-115895871D01*
X143334269Y-115975529D01*
X143383916Y-116160811D01*
X143470998Y-116331721D01*
X143591709Y-116480788D01*
X143591711Y-116480790D01*
X143740778Y-116601501D01*
X143911688Y-116688583D01*
X144096969Y-116738230D01*
X144176637Y-116744499D01*
X144402999Y-116744499D01*
X144403000Y-116744498D01*
X144403000Y-114994500D01*
X143328001Y-114994500D01*
X143328001Y-115895871D01*
X139838993Y-115895871D01*
X135617304Y-113593131D01*
X143328000Y-113593131D01*
X143328000Y-114494500D01*
X144403000Y-114494500D01*
X144403000Y-112744500D01*
X144176647Y-112744500D01*
X144176628Y-112744501D01*
X144096970Y-112750769D01*
X143911688Y-112800416D01*
X143740778Y-112887498D01*
X143591711Y-113008209D01*
X143591709Y-113008211D01*
X143470998Y-113157278D01*
X143383916Y-113328188D01*
X143334269Y-113513469D01*
X143328000Y-113593131D01*
X135617304Y-113593131D01*
X132950991Y-112138778D01*
X127802122Y-109330303D01*
X127752695Y-109280920D01*
X127737500Y-109221444D01*
X127737500Y-108661623D01*
X127757185Y-108594584D01*
X127809989Y-108548829D01*
X127850687Y-108538096D01*
X128072538Y-108518687D01*
X128460248Y-108450324D01*
X128840524Y-108348429D01*
X129210472Y-108213779D01*
X129567277Y-108047398D01*
X129908223Y-107850553D01*
X130230716Y-107624741D01*
X130532300Y-107371681D01*
X130810681Y-107093300D01*
X131063741Y-106791716D01*
X131289553Y-106469223D01*
X131486398Y-106128277D01*
X131652779Y-105771472D01*
X131787429Y-105401524D01*
X131889324Y-105021248D01*
X131957687Y-104633538D01*
X131989826Y-104266191D01*
X132015279Y-104201124D01*
X132071869Y-104160145D01*
X132113354Y-104153000D01*
X135241691Y-104153000D01*
X135241698Y-104153000D01*
X135515731Y-104116923D01*
X135782709Y-104045386D01*
X136038067Y-103939614D01*
X136277433Y-103801415D01*
X136496714Y-103633156D01*
X136692156Y-103437714D01*
X136860415Y-103218433D01*
X136998614Y-102979067D01*
X137001938Y-102971041D01*
X137045779Y-102916638D01*
X137112072Y-102894572D01*
X137179772Y-102911850D01*
X137227383Y-102962987D01*
X137240500Y-103018493D01*
X137240500Y-107839134D01*
X137271568Y-107995323D01*
X137271570Y-107995331D01*
X137302043Y-108068899D01*
X137302043Y-108068900D01*
X137332512Y-108142461D01*
X137332519Y-108142474D01*
X137420996Y-108274888D01*
X137420999Y-108274892D01*
X138647181Y-109501073D01*
X138680666Y-109562396D01*
X138683500Y-109588754D01*
X138683500Y-110555010D01*
X138698959Y-110692221D01*
X138759837Y-110866199D01*
X138759839Y-110866202D01*
X138810128Y-110946237D01*
X138857901Y-111022267D01*
X138988233Y-111152599D01*
X139144297Y-111250660D01*
X139144300Y-111250662D01*
X139318278Y-111311540D01*
X139422290Y-111323258D01*
X139455490Y-111326999D01*
X139455493Y-111327000D01*
X139455496Y-111327000D01*
X140568507Y-111327000D01*
X140568508Y-111326999D01*
X140619412Y-111321264D01*
X140705721Y-111311540D01*
X140705723Y-111311539D01*
X140705725Y-111311539D01*
X140879700Y-111250662D01*
X141035767Y-111152599D01*
X141166099Y-111022267D01*
X141184785Y-110992527D01*
X141237120Y-110946237D01*
X141289779Y-110934500D01*
X142184260Y-110934500D01*
X142251299Y-110954185D01*
X142289254Y-110992529D01*
X142304586Y-111016930D01*
X142304588Y-111016933D01*
X142433566Y-111145911D01*
X142588009Y-111242955D01*
X142760178Y-111303199D01*
X142760182Y-111303200D01*
X142895971Y-111318499D01*
X142895972Y-111318500D01*
X143202000Y-111318500D01*
X143702000Y-111318500D01*
X144008028Y-111318500D01*
X144008028Y-111318499D01*
X144143817Y-111303200D01*
X144143821Y-111303199D01*
X144315990Y-111242955D01*
X144470433Y-111145911D01*
X144599411Y-111016933D01*
X144696455Y-110862490D01*
X144756699Y-110690321D01*
X144756700Y-110690317D01*
X144771999Y-110554528D01*
X144772000Y-110554528D01*
X144772000Y-110168500D01*
X143702000Y-110168500D01*
X143702000Y-111318500D01*
X143202000Y-111318500D01*
X143202000Y-110042500D01*
X143221685Y-109975461D01*
X143274489Y-109929706D01*
X143326000Y-109918500D01*
X143452000Y-109918500D01*
X143452000Y-109792500D01*
X143471685Y-109725461D01*
X143524489Y-109679706D01*
X143576000Y-109668500D01*
X144772000Y-109668500D01*
X144772000Y-109282472D01*
X144771999Y-109282471D01*
X144756700Y-109146682D01*
X144756698Y-109146675D01*
X144745249Y-109113953D01*
X144743747Y-109084521D01*
X144739553Y-109055353D01*
X144741986Y-109050024D01*
X144741688Y-109044174D01*
X144756335Y-109018604D01*
X144768578Y-108991797D01*
X144773506Y-108988629D01*
X144776418Y-108983547D01*
X144802564Y-108969955D01*
X144827356Y-108954023D01*
X144835453Y-108952858D01*
X144838412Y-108951321D01*
X144862291Y-108949000D01*
X144901746Y-108949000D01*
X144968785Y-108968685D01*
X144989427Y-108985319D01*
X146348181Y-110344073D01*
X146381666Y-110405396D01*
X146384500Y-110431754D01*
X146384500Y-112749122D01*
X146364815Y-112816161D01*
X146316796Y-112859606D01*
X146276126Y-112880328D01*
X146125667Y-113002168D01*
X146013896Y-113140193D01*
X145956409Y-113179904D01*
X145886578Y-113182231D01*
X145826575Y-113146435D01*
X145821165Y-113140192D01*
X145714287Y-113008208D01*
X145565221Y-112887498D01*
X145394311Y-112800416D01*
X145209030Y-112750769D01*
X145129368Y-112744500D01*
X144903000Y-112744500D01*
X144903000Y-116744499D01*
X145129353Y-116744499D01*
X145129371Y-116744498D01*
X145209029Y-116738230D01*
X145394311Y-116688583D01*
X145565221Y-116601501D01*
X145714286Y-116480792D01*
X145821164Y-116348808D01*
X145878651Y-116309096D01*
X145948482Y-116306768D01*
X146008486Y-116342563D01*
X146013889Y-116348798D01*
X146019366Y-116355561D01*
X146125668Y-116486832D01*
X146276118Y-116608666D01*
X146276120Y-116608667D01*
X146276124Y-116608670D01*
X146448625Y-116696564D01*
X146635630Y-116746672D01*
X146716039Y-116753000D01*
X147669960Y-116752999D01*
X147750370Y-116746672D01*
X147937375Y-116696564D01*
X148109876Y-116608670D01*
X148260332Y-116486832D01*
X148366634Y-116355560D01*
X148424122Y-116315849D01*
X148493953Y-116313522D01*
X148553956Y-116349318D01*
X148559366Y-116355561D01*
X148665668Y-116486832D01*
X148816118Y-116608666D01*
X148816120Y-116608667D01*
X148816124Y-116608670D01*
X148988625Y-116696564D01*
X149175630Y-116746672D01*
X149256039Y-116753000D01*
X150209960Y-116752999D01*
X150290370Y-116746672D01*
X150477375Y-116696564D01*
X150649876Y-116608670D01*
X150800332Y-116486832D01*
X150922170Y-116336376D01*
X151010064Y-116163875D01*
X151060172Y-115976870D01*
X151066500Y-115896461D01*
X151066499Y-113592540D01*
X151060172Y-113512130D01*
X151010064Y-113325125D01*
X150922170Y-113152624D01*
X150922167Y-113152620D01*
X150922166Y-113152618D01*
X150800332Y-113002168D01*
X150649876Y-112880330D01*
X150649874Y-112880329D01*
X150649873Y-112880328D01*
X150609204Y-112859606D01*
X150558409Y-112811632D01*
X150541500Y-112749122D01*
X150541500Y-109584869D01*
X150541499Y-109584865D01*
X150510431Y-109428676D01*
X150510430Y-109428669D01*
X150473508Y-109339532D01*
X150469685Y-109330303D01*
X150449873Y-109282472D01*
X150449484Y-109281532D01*
X150449482Y-109281530D01*
X150449482Y-109281528D01*
X150361003Y-109149111D01*
X150361000Y-109149107D01*
X148675572Y-107463680D01*
X148642087Y-107402357D01*
X148647071Y-107332665D01*
X148688943Y-107276732D01*
X148754407Y-107252315D01*
X148763233Y-107251999D01*
X149060728Y-107251999D01*
X149060736Y-107251999D01*
X149128334Y-107245857D01*
X149128336Y-107245856D01*
X149128339Y-107245856D01*
X149283910Y-107197379D01*
X149414851Y-107118221D01*
X149482404Y-107100385D01*
X149543148Y-107118221D01*
X149674090Y-107197379D01*
X149829661Y-107245856D01*
X149897271Y-107252000D01*
X150330728Y-107251999D01*
X150330736Y-107251999D01*
X150398334Y-107245857D01*
X150398336Y-107245856D01*
X150398339Y-107245856D01*
X150553910Y-107197379D01*
X150693066Y-107113255D01*
X150760619Y-107095419D01*
X150821366Y-107113256D01*
X150947604Y-107189571D01*
X150947606Y-107189572D01*
X151101197Y-107237432D01*
X151101207Y-107237435D01*
X151133999Y-107240414D01*
X151134000Y-107240414D01*
X151634000Y-107240414D01*
X151666792Y-107237435D01*
X151666802Y-107237432D01*
X151820392Y-107189572D01*
X151958080Y-107106336D01*
X152071836Y-106992580D01*
X152155070Y-106854896D01*
X152202934Y-106701292D01*
X152209000Y-106634543D01*
X152209000Y-106031500D01*
X151634000Y-106031500D01*
X151634000Y-107240414D01*
X151134000Y-107240414D01*
X151134000Y-105905500D01*
X151153685Y-105838461D01*
X151206489Y-105792706D01*
X151258000Y-105781500D01*
X151384000Y-105781500D01*
X151384000Y-105655500D01*
X151403685Y-105588461D01*
X151456489Y-105542706D01*
X151508000Y-105531500D01*
X152209000Y-105531500D01*
X152209000Y-105109569D01*
X152228685Y-105042530D01*
X152281489Y-104996775D01*
X152350647Y-104986831D01*
X152414203Y-105015856D01*
X152437994Y-105043597D01*
X152468857Y-105092715D01*
X152598784Y-105222642D01*
X152754362Y-105320399D01*
X152927797Y-105381086D01*
X152927801Y-105381087D01*
X153064593Y-105396499D01*
X153064594Y-105396500D01*
X153420000Y-105396500D01*
X153920000Y-105396500D01*
X154275406Y-105396500D01*
X154275406Y-105396499D01*
X154412198Y-105381087D01*
X154412202Y-105381086D01*
X154585637Y-105320399D01*
X154741215Y-105222642D01*
X154871142Y-105092715D01*
X154968899Y-104937137D01*
X154981423Y-104901344D01*
X155322000Y-104901344D01*
X155328401Y-104960872D01*
X155328403Y-104960879D01*
X155378645Y-105095586D01*
X155378649Y-105095593D01*
X155464809Y-105210687D01*
X155464812Y-105210690D01*
X155579906Y-105296850D01*
X155579913Y-105296854D01*
X155714620Y-105347096D01*
X155714627Y-105347098D01*
X155774155Y-105353499D01*
X155774172Y-105353500D01*
X156722000Y-105353500D01*
X157222000Y-105353500D01*
X158169828Y-105353500D01*
X158169844Y-105353499D01*
X158229372Y-105347098D01*
X158229379Y-105347096D01*
X158364086Y-105296854D01*
X158364093Y-105296850D01*
X158479187Y-105210690D01*
X158479190Y-105210687D01*
X158565350Y-105095593D01*
X158565354Y-105095586D01*
X158615596Y-104960879D01*
X158615598Y-104960872D01*
X158621999Y-104901344D01*
X158622000Y-104901327D01*
X158622000Y-104203500D01*
X157222000Y-104203500D01*
X157222000Y-105353500D01*
X156722000Y-105353500D01*
X156722000Y-104203500D01*
X155322000Y-104203500D01*
X155322000Y-104901344D01*
X154981423Y-104901344D01*
X155029586Y-104763702D01*
X155029587Y-104763698D01*
X155044999Y-104626906D01*
X155045000Y-104626906D01*
X155045000Y-104326500D01*
X153920000Y-104326500D01*
X153920000Y-105396500D01*
X153420000Y-105396500D01*
X153420000Y-104200500D01*
X153439685Y-104133461D01*
X153492489Y-104087706D01*
X153544000Y-104076500D01*
X153670000Y-104076500D01*
X153670000Y-103950500D01*
X153689685Y-103883461D01*
X153742489Y-103837706D01*
X153794000Y-103826500D01*
X155045000Y-103826500D01*
X155045000Y-103526095D01*
X155038933Y-103472256D01*
X155040831Y-103461414D01*
X155038392Y-103450682D01*
X155046753Y-103427607D01*
X155050987Y-103403434D01*
X155058445Y-103395340D01*
X155062195Y-103384992D01*
X155081704Y-103370100D01*
X155098335Y-103352054D01*
X155110439Y-103348167D01*
X155117735Y-103342599D01*
X155152147Y-103334775D01*
X155186999Y-103331955D01*
X155255407Y-103346168D01*
X155305272Y-103395109D01*
X155321000Y-103455551D01*
X155321000Y-103488561D01*
X155322000Y-103497862D01*
X155322000Y-103703500D01*
X158622000Y-103703500D01*
X158622000Y-103497862D01*
X158623000Y-103494456D01*
X158623000Y-103070167D01*
X158642685Y-103003128D01*
X158695489Y-102957373D01*
X158764647Y-102947429D01*
X158828203Y-102976454D01*
X158861561Y-103022715D01*
X158894520Y-103102287D01*
X158894527Y-103102302D01*
X159032166Y-103340701D01*
X159199749Y-103559097D01*
X159199757Y-103559106D01*
X159394394Y-103753743D01*
X159394402Y-103753750D01*
X159612798Y-103921333D01*
X159851197Y-104058972D01*
X159851212Y-104058979D01*
X160105528Y-104164319D01*
X160371434Y-104235569D01*
X160644358Y-104271500D01*
X162932000Y-104271500D01*
X162932000Y-100071500D01*
X160644358Y-100071500D01*
X160371434Y-100107430D01*
X160105528Y-100178680D01*
X159851212Y-100284020D01*
X159851197Y-100284027D01*
X159612798Y-100421666D01*
X159394402Y-100589249D01*
X159199749Y-100783902D01*
X159032166Y-101002298D01*
X158894527Y-101240697D01*
X158894523Y-101240707D01*
X158861561Y-101320285D01*
X158817720Y-101374688D01*
X158751426Y-101396753D01*
X158683727Y-101379474D01*
X158636116Y-101328337D01*
X158623000Y-101272832D01*
X158623000Y-101159500D01*
X158609905Y-101146405D01*
X158587461Y-101139815D01*
X158541706Y-101087011D01*
X158530500Y-101035500D01*
X158530500Y-99852862D01*
X158530499Y-99852845D01*
X158526107Y-99812000D01*
X158523989Y-99792299D01*
X158472889Y-99655296D01*
X158385261Y-99538239D01*
X158268204Y-99450611D01*
X158244632Y-99441819D01*
X158131203Y-99399511D01*
X158070654Y-99393000D01*
X158070638Y-99393000D01*
X157396500Y-99393000D01*
X157329461Y-99373315D01*
X157283706Y-99320511D01*
X157272500Y-99269000D01*
X157272500Y-97265869D01*
X157272499Y-97265865D01*
X157251519Y-97160392D01*
X157241430Y-97109669D01*
X157205044Y-97021826D01*
X157180484Y-96962532D01*
X157180483Y-96962530D01*
X157180482Y-96962528D01*
X157092003Y-96830111D01*
X157092000Y-96830107D01*
X154820392Y-94558499D01*
X154820388Y-94558496D01*
X154687974Y-94470019D01*
X154687970Y-94470017D01*
X154687968Y-94470016D01*
X154614399Y-94439543D01*
X154614397Y-94439542D01*
X154614396Y-94439541D01*
X154540831Y-94409070D01*
X154540823Y-94409068D01*
X154384634Y-94378000D01*
X154384630Y-94378000D01*
X153465739Y-94378000D01*
X153398700Y-94358315D01*
X153354651Y-94309095D01*
X153290899Y-94180551D01*
X153290895Y-94180545D01*
X153178625Y-94040875D01*
X153178624Y-94040874D01*
X153038954Y-93928604D01*
X153038948Y-93928600D01*
X152878405Y-93848978D01*
X152704497Y-93805729D01*
X152704501Y-93805729D01*
X152674312Y-93803682D01*
X152664252Y-93803000D01*
X151511748Y-93803000D01*
X151501687Y-93803682D01*
X151471499Y-93805729D01*
X151330425Y-93840813D01*
X151260617Y-93837889D01*
X151203471Y-93797688D01*
X151177131Y-93732973D01*
X151176500Y-93720478D01*
X151176500Y-93582869D01*
X151176499Y-93582865D01*
X151145431Y-93426676D01*
X151145430Y-93426669D01*
X151084483Y-93279532D01*
X151084483Y-93279531D01*
X151049042Y-93226491D01*
X150996003Y-93147111D01*
X150996001Y-93147108D01*
X150879069Y-93030176D01*
X150879048Y-93030156D01*
X150375392Y-92526499D01*
X150375388Y-92526496D01*
X150242974Y-92438019D01*
X150242970Y-92438017D01*
X150242968Y-92438016D01*
X150169399Y-92407543D01*
X150169397Y-92407542D01*
X150169396Y-92407541D01*
X150095831Y-92377070D01*
X150095823Y-92377068D01*
X149939634Y-92346000D01*
X149939630Y-92346000D01*
X139658764Y-92346000D01*
X139658744Y-92345999D01*
X139652630Y-92345999D01*
X139493370Y-92345999D01*
X139493368Y-92345999D01*
X139363085Y-92371915D01*
X139363084Y-92371915D01*
X139337172Y-92377068D01*
X139318596Y-92384762D01*
X139294073Y-92394920D01*
X139294072Y-92394920D01*
X139190033Y-92438015D01*
X139190029Y-92438017D01*
X139057615Y-92526493D01*
X139057607Y-92526499D01*
X134475496Y-97108610D01*
X134387019Y-97241026D01*
X134387017Y-97241030D01*
X134387016Y-97241032D01*
X134366942Y-97289497D01*
X134326070Y-97388168D01*
X134326068Y-97388176D01*
X134295000Y-97544365D01*
X134295000Y-99812000D01*
X134275315Y-99879039D01*
X134222511Y-99924794D01*
X134171000Y-99936000D01*
X132113354Y-99936000D01*
X132046315Y-99916315D01*
X132000560Y-99863511D01*
X131989826Y-99822808D01*
X131989613Y-99820374D01*
X131957687Y-99455462D01*
X131955281Y-99441819D01*
X131912043Y-99196599D01*
X131889324Y-99067752D01*
X131787429Y-98687476D01*
X131652779Y-98317528D01*
X131486398Y-97960723D01*
X131289553Y-97619777D01*
X131289545Y-97619766D01*
X131289541Y-97619759D01*
X131063740Y-97297282D01*
X130810678Y-96995697D01*
X130532302Y-96717321D01*
X130230717Y-96464259D01*
X129908240Y-96238458D01*
X129908229Y-96238451D01*
X129908223Y-96238447D01*
X129800311Y-96176144D01*
X129567283Y-96041605D01*
X129567268Y-96041597D01*
X129210481Y-95875225D01*
X129210479Y-95875224D01*
X129210472Y-95875221D01*
X128840524Y-95740571D01*
X128598427Y-95675701D01*
X128460249Y-95638676D01*
X128460238Y-95638674D01*
X128072543Y-95570313D01*
X127850692Y-95550903D01*
X127785623Y-95525450D01*
X127744645Y-95468859D01*
X127737500Y-95427375D01*
X127737500Y-95175859D01*
X127757185Y-95108820D01*
X127804712Y-95065627D01*
X143078115Y-87197532D01*
X143080720Y-87196230D01*
X143083997Y-87194640D01*
X143093617Y-87190656D01*
X143094940Y-87189331D01*
X143105018Y-87184443D01*
X143105163Y-87184418D01*
X143105669Y-87184130D01*
X143347173Y-87068727D01*
X143353857Y-87065773D01*
X143618324Y-86958172D01*
X143625185Y-86955616D01*
X143895186Y-86864102D01*
X143902207Y-86861952D01*
X144176911Y-86786674D01*
X144184014Y-86784952D01*
X144462670Y-86726081D01*
X144469885Y-86724779D01*
X144751809Y-86682519D01*
X144759084Y-86681649D01*
X145043463Y-86656168D01*
X145050826Y-86655729D01*
X145339944Y-86647104D01*
X145343641Y-86647050D01*
X145940632Y-86647050D01*
X148383532Y-86647050D01*
X148719459Y-86647050D01*
X148722889Y-86647097D01*
G37*
%TD.AperFunction*%
%TD*%
M02*
