%TF.GenerationSoftware,KiCad,Pcbnew,9.0.9-9.0.9~ubuntu22.04.1*%
%TF.CreationDate,2026-05-23T16:30:55+07:00*%
%TF.ProjectId,peepsy_phycom,70656570-7379-45f7-9068-79636f6d2e6b,rev?*%
%TF.SameCoordinates,Original*%
%TF.FileFunction,Soldermask,Bot*%
%TF.FilePolarity,Negative*%
%FSLAX46Y46*%
G04 Gerber Fmt 4.6, Leading zero omitted, Abs format (unit mm)*
G04 Created by KiCad (PCBNEW 9.0.9-9.0.9~ubuntu22.04.1) date 2026-05-23 16:30:55*
%MOMM*%
%LPD*%
G01*
G04 APERTURE LIST*
G04 Aperture macros list*
%AMRoundRect*
0 Rectangle with rounded corners*
0 $1 Rounding radius*
0 $2 $3 $4 $5 $6 $7 $8 $9 X,Y pos of 4 corners*
0 Add a 4 corners polygon primitive as box body*
4,1,4,$2,$3,$4,$5,$6,$7,$8,$9,$2,$3,0*
0 Add four circle primitives for the rounded corners*
1,1,$1+$1,$2,$3*
1,1,$1+$1,$4,$5*
1,1,$1+$1,$6,$7*
1,1,$1+$1,$8,$9*
0 Add four rect primitives between the rounded corners*
20,1,$1+$1,$2,$3,$4,$5,0*
20,1,$1+$1,$4,$5,$6,$7,0*
20,1,$1+$1,$6,$7,$8,$9,0*
20,1,$1+$1,$8,$9,$2,$3,0*%
G04 Aperture macros list end*
%ADD10C,0.010000*%
%ADD11O,8.000000X3.200000*%
%ADD12O,8.000000X12.000000*%
%ADD13RoundRect,0.250000X-0.250000X-0.475000X0.250000X-0.475000X0.250000X0.475000X-0.250000X0.475000X0*%
%ADD14RoundRect,0.315385X-0.504615X-0.559615X0.504615X-0.559615X0.504615X0.559615X-0.504615X0.559615X0*%
%ADD15RoundRect,0.200000X0.759053X-0.162292X-0.577457X0.518694X-0.759053X0.162292X0.577457X-0.518694X0*%
%ADD16RoundRect,0.250000X-0.325000X-0.650000X0.325000X-0.650000X0.325000X0.650000X-0.325000X0.650000X0*%
%ADD17RoundRect,0.243750X-0.243750X-0.456250X0.243750X-0.456250X0.243750X0.456250X-0.243750X0.456250X0*%
%ADD18R,5.100000X5.100000*%
G04 APERTURE END LIST*
D10*
%TO.C,Ref\u002A\u002A*%
X148267927Y-102924422D02*
X148273079Y-102934200D01*
X148279659Y-102958531D01*
X148278335Y-102967795D01*
X148265496Y-102972467D01*
X148238438Y-102956624D01*
X148230504Y-102950313D01*
X148223041Y-102937566D01*
X148236231Y-102922919D01*
X148237988Y-102921479D01*
X148255262Y-102912801D01*
X148267927Y-102924422D01*
G36*
X148267927Y-102924422D02*
G01*
X148273079Y-102934200D01*
X148279659Y-102958531D01*
X148278335Y-102967795D01*
X148265496Y-102972467D01*
X148238438Y-102956624D01*
X148230504Y-102950313D01*
X148223041Y-102937566D01*
X148236231Y-102922919D01*
X148237988Y-102921479D01*
X148255262Y-102912801D01*
X148267927Y-102924422D01*
G37*
X151591876Y-104648722D02*
X151584552Y-104714793D01*
X151564448Y-104784524D01*
X151528897Y-104844655D01*
X151474207Y-104903170D01*
X151452832Y-104922037D01*
X151394512Y-104962952D01*
X151331541Y-104989035D01*
X151253851Y-105004937D01*
X151176182Y-105011175D01*
X151073696Y-105002033D01*
X150983552Y-104971080D01*
X150905076Y-104918148D01*
X150899753Y-104913214D01*
X150863420Y-104864498D01*
X150834018Y-104799327D01*
X150814334Y-104725327D01*
X150807153Y-104650123D01*
X150807158Y-104649891D01*
X151138190Y-104649891D01*
X151142110Y-104696952D01*
X151150500Y-104727840D01*
X151162749Y-104742197D01*
X151187693Y-104752406D01*
X151198683Y-104751354D01*
X151230048Y-104733552D01*
X151251465Y-104696934D01*
X151261213Y-104645651D01*
X151257571Y-104583855D01*
X151247913Y-104540693D01*
X151229999Y-104495462D01*
X151208883Y-104467838D01*
X151187005Y-104459552D01*
X151166805Y-104472338D01*
X151150721Y-104507931D01*
X151143724Y-104542562D01*
X151138731Y-104595484D01*
X151138190Y-104649891D01*
X150807158Y-104649891D01*
X150807286Y-104643395D01*
X150814218Y-104588507D01*
X150829669Y-104522051D01*
X150850855Y-104453236D01*
X150874992Y-104391268D01*
X150899297Y-104345358D01*
X150925373Y-104311994D01*
X150992393Y-104254063D01*
X151073254Y-104211708D01*
X151162084Y-104187599D01*
X151253008Y-104184410D01*
X151316102Y-104195912D01*
X151398283Y-104230936D01*
X151468419Y-104285485D01*
X151524678Y-104357047D01*
X151565228Y-104443114D01*
X151588238Y-104541175D01*
X151591773Y-104645651D01*
X151591876Y-104648722D01*
G36*
X151591876Y-104648722D02*
G01*
X151584552Y-104714793D01*
X151564448Y-104784524D01*
X151528897Y-104844655D01*
X151474207Y-104903170D01*
X151452832Y-104922037D01*
X151394512Y-104962952D01*
X151331541Y-104989035D01*
X151253851Y-105004937D01*
X151176182Y-105011175D01*
X151073696Y-105002033D01*
X150983552Y-104971080D01*
X150905076Y-104918148D01*
X150899753Y-104913214D01*
X150863420Y-104864498D01*
X150834018Y-104799327D01*
X150814334Y-104725327D01*
X150807153Y-104650123D01*
X150807158Y-104649891D01*
X151138190Y-104649891D01*
X151142110Y-104696952D01*
X151150500Y-104727840D01*
X151162749Y-104742197D01*
X151187693Y-104752406D01*
X151198683Y-104751354D01*
X151230048Y-104733552D01*
X151251465Y-104696934D01*
X151261213Y-104645651D01*
X151257571Y-104583855D01*
X151247913Y-104540693D01*
X151229999Y-104495462D01*
X151208883Y-104467838D01*
X151187005Y-104459552D01*
X151166805Y-104472338D01*
X151150721Y-104507931D01*
X151143724Y-104542562D01*
X151138731Y-104595484D01*
X151138190Y-104649891D01*
X150807158Y-104649891D01*
X150807286Y-104643395D01*
X150814218Y-104588507D01*
X150829669Y-104522051D01*
X150850855Y-104453236D01*
X150874992Y-104391268D01*
X150899297Y-104345358D01*
X150925373Y-104311994D01*
X150992393Y-104254063D01*
X151073254Y-104211708D01*
X151162084Y-104187599D01*
X151253008Y-104184410D01*
X151316102Y-104195912D01*
X151398283Y-104230936D01*
X151468419Y-104285485D01*
X151524678Y-104357047D01*
X151565228Y-104443114D01*
X151588238Y-104541175D01*
X151591773Y-104645651D01*
X151591876Y-104648722D01*
G37*
X147230282Y-104673928D02*
X147225494Y-104715642D01*
X147214907Y-104752042D01*
X147196669Y-104792812D01*
X147149991Y-104866464D01*
X147081001Y-104932586D01*
X146996489Y-104979306D01*
X146898213Y-105005372D01*
X146855039Y-105009930D01*
X146757693Y-105007381D01*
X146667303Y-104987752D01*
X146588831Y-104952416D01*
X146527241Y-104902745D01*
X146525827Y-104901180D01*
X146486382Y-104839684D01*
X146460884Y-104762239D01*
X146450038Y-104674413D01*
X146450814Y-104658456D01*
X146774855Y-104658456D01*
X146780395Y-104698431D01*
X146790230Y-104728582D01*
X146803939Y-104747485D01*
X146824225Y-104752406D01*
X146839947Y-104750894D01*
X146871149Y-104732925D01*
X146889530Y-104694059D01*
X146895553Y-104633523D01*
X146893944Y-104599022D01*
X146884701Y-104545559D01*
X146869089Y-104502011D01*
X146849228Y-104472228D01*
X146827235Y-104460058D01*
X146805227Y-104469352D01*
X146800093Y-104476454D01*
X146788437Y-104509006D01*
X146779758Y-104555612D01*
X146774937Y-104608139D01*
X146774855Y-104658456D01*
X146450814Y-104658456D01*
X146454544Y-104581773D01*
X146475108Y-104489889D01*
X146477846Y-104481459D01*
X146507413Y-104402289D01*
X146538886Y-104342594D01*
X146575680Y-104297010D01*
X146621206Y-104260170D01*
X146669871Y-104231736D01*
X146759147Y-104197845D01*
X146850538Y-104183726D01*
X146938815Y-104189943D01*
X147018751Y-104217066D01*
X147080467Y-104257974D01*
X147142961Y-104325389D01*
X147190058Y-104409148D01*
X147220013Y-104506004D01*
X147231082Y-104612706D01*
X147231121Y-104617215D01*
X147230879Y-104633523D01*
X147230282Y-104673928D01*
G36*
X147230282Y-104673928D02*
G01*
X147225494Y-104715642D01*
X147214907Y-104752042D01*
X147196669Y-104792812D01*
X147149991Y-104866464D01*
X147081001Y-104932586D01*
X146996489Y-104979306D01*
X146898213Y-105005372D01*
X146855039Y-105009930D01*
X146757693Y-105007381D01*
X146667303Y-104987752D01*
X146588831Y-104952416D01*
X146527241Y-104902745D01*
X146525827Y-104901180D01*
X146486382Y-104839684D01*
X146460884Y-104762239D01*
X146450038Y-104674413D01*
X146450814Y-104658456D01*
X146774855Y-104658456D01*
X146780395Y-104698431D01*
X146790230Y-104728582D01*
X146803939Y-104747485D01*
X146824225Y-104752406D01*
X146839947Y-104750894D01*
X146871149Y-104732925D01*
X146889530Y-104694059D01*
X146895553Y-104633523D01*
X146893944Y-104599022D01*
X146884701Y-104545559D01*
X146869089Y-104502011D01*
X146849228Y-104472228D01*
X146827235Y-104460058D01*
X146805227Y-104469352D01*
X146800093Y-104476454D01*
X146788437Y-104509006D01*
X146779758Y-104555612D01*
X146774937Y-104608139D01*
X146774855Y-104658456D01*
X146450814Y-104658456D01*
X146454544Y-104581773D01*
X146475108Y-104489889D01*
X146477846Y-104481459D01*
X146507413Y-104402289D01*
X146538886Y-104342594D01*
X146575680Y-104297010D01*
X146621206Y-104260170D01*
X146669871Y-104231736D01*
X146759147Y-104197845D01*
X146850538Y-104183726D01*
X146938815Y-104189943D01*
X147018751Y-104217066D01*
X147080467Y-104257974D01*
X147142961Y-104325389D01*
X147190058Y-104409148D01*
X147220013Y-104506004D01*
X147231082Y-104612706D01*
X147231121Y-104617215D01*
X147230879Y-104633523D01*
X147230282Y-104673928D01*
G37*
X143416178Y-104178436D02*
X143473454Y-104180725D01*
X143537202Y-104184673D01*
X143601049Y-104189793D01*
X143658624Y-104195599D01*
X143703555Y-104201604D01*
X143729470Y-104207321D01*
X143744792Y-104215982D01*
X143772766Y-104251780D01*
X143794443Y-104311372D01*
X143809869Y-104394972D01*
X143819090Y-104502796D01*
X143822153Y-104635058D01*
X143822127Y-104646105D01*
X143818260Y-104752519D01*
X143807133Y-104836971D01*
X143787732Y-104901917D01*
X143759044Y-104949810D01*
X143720056Y-104983107D01*
X143669753Y-105004260D01*
X143613799Y-105015154D01*
X143532128Y-105015926D01*
X143452769Y-105001000D01*
X143381105Y-104972110D01*
X143322518Y-104930991D01*
X143282390Y-104879380D01*
X143277389Y-104869557D01*
X143265642Y-104840540D01*
X143266913Y-104819792D01*
X143281027Y-104796590D01*
X143284457Y-104792497D01*
X143314656Y-104775363D01*
X143366752Y-104765588D01*
X143434803Y-104758756D01*
X143434803Y-104657156D01*
X143366647Y-104650313D01*
X143321271Y-104642939D01*
X143289994Y-104628682D01*
X143261872Y-104602488D01*
X143254093Y-104593067D01*
X143233509Y-104559202D01*
X143225253Y-104530248D01*
X143233434Y-104501271D01*
X143261791Y-104475178D01*
X143306179Y-104459410D01*
X143362156Y-104455423D01*
X143425278Y-104464673D01*
X143466553Y-104475024D01*
X143466553Y-104361590D01*
X143406396Y-104352568D01*
X143396155Y-104350912D01*
X143336672Y-104335582D01*
X143293539Y-104313995D01*
X143271243Y-104288287D01*
X143263742Y-104253139D01*
X143274212Y-104216397D01*
X143306270Y-104191129D01*
X143358603Y-104178979D01*
X143371746Y-104178294D01*
X143416178Y-104178436D01*
G36*
X143416178Y-104178436D02*
G01*
X143473454Y-104180725D01*
X143537202Y-104184673D01*
X143601049Y-104189793D01*
X143658624Y-104195599D01*
X143703555Y-104201604D01*
X143729470Y-104207321D01*
X143744792Y-104215982D01*
X143772766Y-104251780D01*
X143794443Y-104311372D01*
X143809869Y-104394972D01*
X143819090Y-104502796D01*
X143822153Y-104635058D01*
X143822127Y-104646105D01*
X143818260Y-104752519D01*
X143807133Y-104836971D01*
X143787732Y-104901917D01*
X143759044Y-104949810D01*
X143720056Y-104983107D01*
X143669753Y-105004260D01*
X143613799Y-105015154D01*
X143532128Y-105015926D01*
X143452769Y-105001000D01*
X143381105Y-104972110D01*
X143322518Y-104930991D01*
X143282390Y-104879380D01*
X143277389Y-104869557D01*
X143265642Y-104840540D01*
X143266913Y-104819792D01*
X143281027Y-104796590D01*
X143284457Y-104792497D01*
X143314656Y-104775363D01*
X143366752Y-104765588D01*
X143434803Y-104758756D01*
X143434803Y-104657156D01*
X143366647Y-104650313D01*
X143321271Y-104642939D01*
X143289994Y-104628682D01*
X143261872Y-104602488D01*
X143254093Y-104593067D01*
X143233509Y-104559202D01*
X143225253Y-104530248D01*
X143233434Y-104501271D01*
X143261791Y-104475178D01*
X143306179Y-104459410D01*
X143362156Y-104455423D01*
X143425278Y-104464673D01*
X143466553Y-104475024D01*
X143466553Y-104361590D01*
X143406396Y-104352568D01*
X143396155Y-104350912D01*
X143336672Y-104335582D01*
X143293539Y-104313995D01*
X143271243Y-104288287D01*
X143263742Y-104253139D01*
X143274212Y-104216397D01*
X143306270Y-104191129D01*
X143358603Y-104178979D01*
X143371746Y-104178294D01*
X143416178Y-104178436D01*
G37*
X144280456Y-104168637D02*
X144372074Y-104183182D01*
X144448854Y-104218331D01*
X144510725Y-104274024D01*
X144557616Y-104350202D01*
X144589455Y-104446803D01*
X144599154Y-104496656D01*
X144608985Y-104602210D01*
X144603727Y-104699759D01*
X144583491Y-104783010D01*
X144563057Y-104823980D01*
X144523666Y-104878231D01*
X144475222Y-104928866D01*
X144424157Y-104969342D01*
X144376905Y-104993119D01*
X144365387Y-104995706D01*
X144325840Y-105000102D01*
X144272917Y-105002495D01*
X144214808Y-105002417D01*
X144162529Y-104999733D01*
X144081651Y-104987357D01*
X144019701Y-104964165D01*
X143973439Y-104928710D01*
X143939628Y-104879546D01*
X143923090Y-104840121D01*
X143911055Y-104778279D01*
X143917456Y-104723868D01*
X143942226Y-104681978D01*
X143950988Y-104673901D01*
X143986027Y-104654639D01*
X144027370Y-104652951D01*
X144078626Y-104669231D01*
X144143403Y-104703871D01*
X144181808Y-104726446D01*
X144219005Y-104744436D01*
X144244374Y-104747946D01*
X144260030Y-104734799D01*
X144268088Y-104702816D01*
X144270662Y-104649820D01*
X144269867Y-104573633D01*
X144268779Y-104532314D01*
X144265222Y-104466699D01*
X144259576Y-104424725D01*
X144251496Y-104405248D01*
X144240642Y-104407120D01*
X144226670Y-104429197D01*
X144215699Y-104447316D01*
X144175877Y-104483382D01*
X144124742Y-104503681D01*
X144069127Y-104507350D01*
X144015866Y-104493529D01*
X143971790Y-104461354D01*
X143965345Y-104453590D01*
X143944755Y-104419355D01*
X143936453Y-104388999D01*
X143936496Y-104385846D01*
X143949382Y-104330610D01*
X143982139Y-104277208D01*
X144030247Y-104233147D01*
X144065338Y-104211091D01*
X144121982Y-104185426D01*
X144183590Y-104172051D01*
X144259921Y-104168206D01*
X144280456Y-104168637D01*
G36*
X144280456Y-104168637D02*
G01*
X144372074Y-104183182D01*
X144448854Y-104218331D01*
X144510725Y-104274024D01*
X144557616Y-104350202D01*
X144589455Y-104446803D01*
X144599154Y-104496656D01*
X144608985Y-104602210D01*
X144603727Y-104699759D01*
X144583491Y-104783010D01*
X144563057Y-104823980D01*
X144523666Y-104878231D01*
X144475222Y-104928866D01*
X144424157Y-104969342D01*
X144376905Y-104993119D01*
X144365387Y-104995706D01*
X144325840Y-105000102D01*
X144272917Y-105002495D01*
X144214808Y-105002417D01*
X144162529Y-104999733D01*
X144081651Y-104987357D01*
X144019701Y-104964165D01*
X143973439Y-104928710D01*
X143939628Y-104879546D01*
X143923090Y-104840121D01*
X143911055Y-104778279D01*
X143917456Y-104723868D01*
X143942226Y-104681978D01*
X143950988Y-104673901D01*
X143986027Y-104654639D01*
X144027370Y-104652951D01*
X144078626Y-104669231D01*
X144143403Y-104703871D01*
X144181808Y-104726446D01*
X144219005Y-104744436D01*
X144244374Y-104747946D01*
X144260030Y-104734799D01*
X144268088Y-104702816D01*
X144270662Y-104649820D01*
X144269867Y-104573633D01*
X144268779Y-104532314D01*
X144265222Y-104466699D01*
X144259576Y-104424725D01*
X144251496Y-104405248D01*
X144240642Y-104407120D01*
X144226670Y-104429197D01*
X144215699Y-104447316D01*
X144175877Y-104483382D01*
X144124742Y-104503681D01*
X144069127Y-104507350D01*
X144015866Y-104493529D01*
X143971790Y-104461354D01*
X143965345Y-104453590D01*
X143944755Y-104419355D01*
X143936453Y-104388999D01*
X143936496Y-104385846D01*
X143949382Y-104330610D01*
X143982139Y-104277208D01*
X144030247Y-104233147D01*
X144065338Y-104211091D01*
X144121982Y-104185426D01*
X144183590Y-104172051D01*
X144259921Y-104168206D01*
X144280456Y-104168637D01*
G37*
X145755255Y-104182290D02*
X145795057Y-104193778D01*
X145826463Y-104219513D01*
X145850492Y-104261681D01*
X145868162Y-104322470D01*
X145880491Y-104404068D01*
X145888497Y-104508663D01*
X145888586Y-104510327D01*
X145895223Y-104590965D01*
X145905868Y-104649029D01*
X145921591Y-104687133D01*
X145943462Y-104707886D01*
X145972550Y-104713902D01*
X145975518Y-104713819D01*
X146011634Y-104703491D01*
X146034459Y-104675344D01*
X146044235Y-104628278D01*
X146041202Y-104561198D01*
X146025603Y-104473006D01*
X146011307Y-104391340D01*
X146007077Y-104322186D01*
X146013393Y-104270705D01*
X146030204Y-104239639D01*
X146068886Y-104215349D01*
X146126719Y-104201568D01*
X146187325Y-104207106D01*
X146196657Y-104209811D01*
X146248078Y-104233982D01*
X146288320Y-104272201D01*
X146318256Y-104326552D01*
X146338758Y-104399120D01*
X146350701Y-104491988D01*
X146354956Y-104607241D01*
X146355084Y-104653850D01*
X146354188Y-104706276D01*
X146351035Y-104744182D01*
X146344557Y-104774075D01*
X146333683Y-104802459D01*
X146317341Y-104835841D01*
X146315974Y-104838505D01*
X146287252Y-104886795D01*
X146255240Y-104921242D01*
X146210530Y-104952086D01*
X146178725Y-104969492D01*
X146130380Y-104991390D01*
X146090242Y-105004701D01*
X146086586Y-105005500D01*
X146029060Y-105013831D01*
X145963341Y-105017380D01*
X145897735Y-105016266D01*
X145840548Y-105010608D01*
X145800088Y-105000526D01*
X145745197Y-104969784D01*
X145682768Y-104909525D01*
X145632182Y-104827369D01*
X145593631Y-104723745D01*
X145567308Y-104599078D01*
X145553405Y-104453796D01*
X145545919Y-104301236D01*
X145580899Y-104259665D01*
X145613478Y-104226591D01*
X145671139Y-104192167D01*
X145736048Y-104181188D01*
X145755255Y-104182290D01*
G36*
X145755255Y-104182290D02*
G01*
X145795057Y-104193778D01*
X145826463Y-104219513D01*
X145850492Y-104261681D01*
X145868162Y-104322470D01*
X145880491Y-104404068D01*
X145888497Y-104508663D01*
X145888586Y-104510327D01*
X145895223Y-104590965D01*
X145905868Y-104649029D01*
X145921591Y-104687133D01*
X145943462Y-104707886D01*
X145972550Y-104713902D01*
X145975518Y-104713819D01*
X146011634Y-104703491D01*
X146034459Y-104675344D01*
X146044235Y-104628278D01*
X146041202Y-104561198D01*
X146025603Y-104473006D01*
X146011307Y-104391340D01*
X146007077Y-104322186D01*
X146013393Y-104270705D01*
X146030204Y-104239639D01*
X146068886Y-104215349D01*
X146126719Y-104201568D01*
X146187325Y-104207106D01*
X146196657Y-104209811D01*
X146248078Y-104233982D01*
X146288320Y-104272201D01*
X146318256Y-104326552D01*
X146338758Y-104399120D01*
X146350701Y-104491988D01*
X146354956Y-104607241D01*
X146355084Y-104653850D01*
X146354188Y-104706276D01*
X146351035Y-104744182D01*
X146344557Y-104774075D01*
X146333683Y-104802459D01*
X146317341Y-104835841D01*
X146315974Y-104838505D01*
X146287252Y-104886795D01*
X146255240Y-104921242D01*
X146210530Y-104952086D01*
X146178725Y-104969492D01*
X146130380Y-104991390D01*
X146090242Y-105004701D01*
X146086586Y-105005500D01*
X146029060Y-105013831D01*
X145963341Y-105017380D01*
X145897735Y-105016266D01*
X145840548Y-105010608D01*
X145800088Y-105000526D01*
X145745197Y-104969784D01*
X145682768Y-104909525D01*
X145632182Y-104827369D01*
X145593631Y-104723745D01*
X145567308Y-104599078D01*
X145553405Y-104453796D01*
X145545919Y-104301236D01*
X145580899Y-104259665D01*
X145613478Y-104226591D01*
X145671139Y-104192167D01*
X145736048Y-104181188D01*
X145755255Y-104182290D01*
G37*
X150723686Y-104480637D02*
X150723485Y-104568256D01*
X150723123Y-104618764D01*
X150721115Y-104717150D01*
X150716966Y-104794648D01*
X150710059Y-104854372D01*
X150699778Y-104899438D01*
X150685509Y-104932959D01*
X150666635Y-104958052D01*
X150642540Y-104977831D01*
X150632276Y-104984286D01*
X150588368Y-105001351D01*
X150531817Y-105006406D01*
X150458864Y-105000305D01*
X150406474Y-104980779D01*
X150373396Y-104946139D01*
X150358020Y-104894698D01*
X150358739Y-104824767D01*
X150365806Y-104756290D01*
X150310255Y-104748473D01*
X150291937Y-104745715D01*
X150196527Y-104723666D01*
X150121077Y-104690867D01*
X150062412Y-104646007D01*
X150016354Y-104586090D01*
X149990568Y-104518726D01*
X149986604Y-104449694D01*
X149990613Y-104433369D01*
X150300502Y-104433369D01*
X150307302Y-104471773D01*
X150336277Y-104512082D01*
X150344692Y-104520168D01*
X150370171Y-104540898D01*
X150387077Y-104549206D01*
X150393660Y-104540717D01*
X150398894Y-104510085D01*
X150400753Y-104460306D01*
X150400209Y-104431310D01*
X150394965Y-104390007D01*
X150382459Y-104370850D01*
X150360620Y-104371889D01*
X150327379Y-104391176D01*
X150316162Y-104400763D01*
X150300502Y-104433369D01*
X149990613Y-104433369D01*
X150003220Y-104382025D01*
X150039179Y-104318748D01*
X150093242Y-104262892D01*
X150164170Y-104217486D01*
X150250724Y-104185560D01*
X150252924Y-104184998D01*
X150310813Y-104173893D01*
X150373739Y-104169844D01*
X150451553Y-104172198D01*
X150476841Y-104173850D01*
X150552606Y-104181351D01*
X150608406Y-104192504D01*
X150648446Y-104208868D01*
X150676935Y-104232000D01*
X150698076Y-104263456D01*
X150698586Y-104264434D01*
X150707567Y-104283607D01*
X150714185Y-104304195D01*
X150718773Y-104330195D01*
X150721663Y-104365604D01*
X150723190Y-104414419D01*
X150723534Y-104460306D01*
X150723686Y-104480637D01*
G36*
X150723686Y-104480637D02*
G01*
X150723485Y-104568256D01*
X150723123Y-104618764D01*
X150721115Y-104717150D01*
X150716966Y-104794648D01*
X150710059Y-104854372D01*
X150699778Y-104899438D01*
X150685509Y-104932959D01*
X150666635Y-104958052D01*
X150642540Y-104977831D01*
X150632276Y-104984286D01*
X150588368Y-105001351D01*
X150531817Y-105006406D01*
X150458864Y-105000305D01*
X150406474Y-104980779D01*
X150373396Y-104946139D01*
X150358020Y-104894698D01*
X150358739Y-104824767D01*
X150365806Y-104756290D01*
X150310255Y-104748473D01*
X150291937Y-104745715D01*
X150196527Y-104723666D01*
X150121077Y-104690867D01*
X150062412Y-104646007D01*
X150016354Y-104586090D01*
X149990568Y-104518726D01*
X149986604Y-104449694D01*
X149990613Y-104433369D01*
X150300502Y-104433369D01*
X150307302Y-104471773D01*
X150336277Y-104512082D01*
X150344692Y-104520168D01*
X150370171Y-104540898D01*
X150387077Y-104549206D01*
X150393660Y-104540717D01*
X150398894Y-104510085D01*
X150400753Y-104460306D01*
X150400209Y-104431310D01*
X150394965Y-104390007D01*
X150382459Y-104370850D01*
X150360620Y-104371889D01*
X150327379Y-104391176D01*
X150316162Y-104400763D01*
X150300502Y-104433369D01*
X149990613Y-104433369D01*
X150003220Y-104382025D01*
X150039179Y-104318748D01*
X150093242Y-104262892D01*
X150164170Y-104217486D01*
X150250724Y-104185560D01*
X150252924Y-104184998D01*
X150310813Y-104173893D01*
X150373739Y-104169844D01*
X150451553Y-104172198D01*
X150476841Y-104173850D01*
X150552606Y-104181351D01*
X150608406Y-104192504D01*
X150648446Y-104208868D01*
X150676935Y-104232000D01*
X150698076Y-104263456D01*
X150698586Y-104264434D01*
X150707567Y-104283607D01*
X150714185Y-104304195D01*
X150718773Y-104330195D01*
X150721663Y-104365604D01*
X150723190Y-104414419D01*
X150723534Y-104460306D01*
X150723686Y-104480637D01*
G37*
X144821084Y-105461588D02*
X144920739Y-105478649D01*
X144999881Y-105504507D01*
X145057574Y-105538839D01*
X145092877Y-105581322D01*
X145104853Y-105631634D01*
X145101689Y-105661961D01*
X145078275Y-105713982D01*
X145033721Y-105755728D01*
X144970006Y-105785636D01*
X144889110Y-105802143D01*
X144854186Y-105806660D01*
X144824435Y-105812579D01*
X144813146Y-105817840D01*
X144813204Y-105818620D01*
X144815305Y-105837013D01*
X144819744Y-105872765D01*
X144825668Y-105918989D01*
X144825799Y-105920005D01*
X144830643Y-105970116D01*
X144834932Y-106036821D01*
X144838204Y-106111539D01*
X144839998Y-106185689D01*
X144840380Y-106222086D01*
X144840229Y-106284156D01*
X144838284Y-106328639D01*
X144833975Y-106360855D01*
X144826732Y-106386120D01*
X144815984Y-106409756D01*
X144779903Y-106458927D01*
X144724625Y-106495852D01*
X144650081Y-106517751D01*
X144633912Y-106520338D01*
X144558991Y-106523701D01*
X144499843Y-106508876D01*
X144453722Y-106474707D01*
X144417884Y-106420039D01*
X144411844Y-106406602D01*
X144392464Y-106339639D01*
X144384051Y-106256742D01*
X144386492Y-106155532D01*
X144399675Y-106033632D01*
X144400013Y-106031201D01*
X144408555Y-105968958D01*
X144415821Y-105914486D01*
X144421050Y-105873579D01*
X144423485Y-105852028D01*
X144422858Y-105843735D01*
X144414959Y-105833801D01*
X144394884Y-105825198D01*
X144358310Y-105816282D01*
X144300916Y-105805408D01*
X144267262Y-105798957D01*
X144216536Y-105787508D01*
X144178062Y-105776640D01*
X144158258Y-105768036D01*
X144147489Y-105755883D01*
X144130521Y-105717485D01*
X144123099Y-105670666D01*
X144127607Y-105626428D01*
X144151698Y-105577674D01*
X144196025Y-105536064D01*
X144260949Y-105503258D01*
X144347394Y-105478911D01*
X144456284Y-105462678D01*
X144588541Y-105454214D01*
X144701855Y-105453645D01*
X144821084Y-105461588D01*
G36*
X144821084Y-105461588D02*
G01*
X144920739Y-105478649D01*
X144999881Y-105504507D01*
X145057574Y-105538839D01*
X145092877Y-105581322D01*
X145104853Y-105631634D01*
X145101689Y-105661961D01*
X145078275Y-105713982D01*
X145033721Y-105755728D01*
X144970006Y-105785636D01*
X144889110Y-105802143D01*
X144854186Y-105806660D01*
X144824435Y-105812579D01*
X144813146Y-105817840D01*
X144813204Y-105818620D01*
X144815305Y-105837013D01*
X144819744Y-105872765D01*
X144825668Y-105918989D01*
X144825799Y-105920005D01*
X144830643Y-105970116D01*
X144834932Y-106036821D01*
X144838204Y-106111539D01*
X144839998Y-106185689D01*
X144840380Y-106222086D01*
X144840229Y-106284156D01*
X144838284Y-106328639D01*
X144833975Y-106360855D01*
X144826732Y-106386120D01*
X144815984Y-106409756D01*
X144779903Y-106458927D01*
X144724625Y-106495852D01*
X144650081Y-106517751D01*
X144633912Y-106520338D01*
X144558991Y-106523701D01*
X144499843Y-106508876D01*
X144453722Y-106474707D01*
X144417884Y-106420039D01*
X144411844Y-106406602D01*
X144392464Y-106339639D01*
X144384051Y-106256742D01*
X144386492Y-106155532D01*
X144399675Y-106033632D01*
X144400013Y-106031201D01*
X144408555Y-105968958D01*
X144415821Y-105914486D01*
X144421050Y-105873579D01*
X144423485Y-105852028D01*
X144422858Y-105843735D01*
X144414959Y-105833801D01*
X144394884Y-105825198D01*
X144358310Y-105816282D01*
X144300916Y-105805408D01*
X144267262Y-105798957D01*
X144216536Y-105787508D01*
X144178062Y-105776640D01*
X144158258Y-105768036D01*
X144147489Y-105755883D01*
X144130521Y-105717485D01*
X144123099Y-105670666D01*
X144127607Y-105626428D01*
X144151698Y-105577674D01*
X144196025Y-105536064D01*
X144260949Y-105503258D01*
X144347394Y-105478911D01*
X144456284Y-105462678D01*
X144588541Y-105454214D01*
X144701855Y-105453645D01*
X144821084Y-105461588D01*
G37*
X148505023Y-106067668D02*
X148491439Y-106154839D01*
X148467558Y-106227830D01*
X148413028Y-106319114D01*
X148338375Y-106396832D01*
X148246471Y-106456743D01*
X148138825Y-106497608D01*
X148068423Y-106511026D01*
X147968450Y-106516774D01*
X147867535Y-106510066D01*
X147777333Y-106491113D01*
X147747592Y-106481244D01*
X147703128Y-106461344D01*
X147663906Y-106433961D01*
X147619667Y-106392688D01*
X147588099Y-106358082D01*
X147546300Y-106295917D01*
X147518900Y-106225980D01*
X147504084Y-106142937D01*
X147500034Y-106041456D01*
X147500168Y-106031400D01*
X147915879Y-106031400D01*
X147919421Y-106090765D01*
X147929369Y-106138689D01*
X147945125Y-106168463D01*
X147955517Y-106176883D01*
X147988665Y-106185697D01*
X148022866Y-106174588D01*
X148052421Y-106146453D01*
X148071632Y-106104186D01*
X148077376Y-106063870D01*
X148076068Y-106008356D01*
X148067241Y-105950491D01*
X148052454Y-105895822D01*
X148033269Y-105849902D01*
X148011244Y-105818280D01*
X147987942Y-105806506D01*
X147984188Y-105806637D01*
X147964875Y-105813847D01*
X147949733Y-105834844D01*
X147936829Y-105873483D01*
X147924233Y-105933617D01*
X147919339Y-105967303D01*
X147915879Y-106031400D01*
X147500168Y-106031400D01*
X147500373Y-106015967D01*
X147503274Y-105962704D01*
X147510656Y-105915973D01*
X147524451Y-105865856D01*
X147546593Y-105802431D01*
X147575601Y-105729000D01*
X147606693Y-105666642D01*
X147640870Y-105618200D01*
X147682282Y-105577894D01*
X147735078Y-105539945D01*
X147769864Y-105519211D01*
X147869932Y-105476647D01*
X147973186Y-105455308D01*
X148075872Y-105454962D01*
X148174240Y-105475378D01*
X148264536Y-105516321D01*
X148343010Y-105577562D01*
X148356579Y-105592203D01*
X148400238Y-105652356D01*
X148441079Y-105726292D01*
X148474688Y-105805301D01*
X148496650Y-105880672D01*
X148498158Y-105888269D01*
X148507525Y-105975687D01*
X148505126Y-106063870D01*
X148505023Y-106067668D01*
G36*
X148505023Y-106067668D02*
G01*
X148491439Y-106154839D01*
X148467558Y-106227830D01*
X148413028Y-106319114D01*
X148338375Y-106396832D01*
X148246471Y-106456743D01*
X148138825Y-106497608D01*
X148068423Y-106511026D01*
X147968450Y-106516774D01*
X147867535Y-106510066D01*
X147777333Y-106491113D01*
X147747592Y-106481244D01*
X147703128Y-106461344D01*
X147663906Y-106433961D01*
X147619667Y-106392688D01*
X147588099Y-106358082D01*
X147546300Y-106295917D01*
X147518900Y-106225980D01*
X147504084Y-106142937D01*
X147500034Y-106041456D01*
X147500168Y-106031400D01*
X147915879Y-106031400D01*
X147919421Y-106090765D01*
X147929369Y-106138689D01*
X147945125Y-106168463D01*
X147955517Y-106176883D01*
X147988665Y-106185697D01*
X148022866Y-106174588D01*
X148052421Y-106146453D01*
X148071632Y-106104186D01*
X148077376Y-106063870D01*
X148076068Y-106008356D01*
X148067241Y-105950491D01*
X148052454Y-105895822D01*
X148033269Y-105849902D01*
X148011244Y-105818280D01*
X147987942Y-105806506D01*
X147984188Y-105806637D01*
X147964875Y-105813847D01*
X147949733Y-105834844D01*
X147936829Y-105873483D01*
X147924233Y-105933617D01*
X147919339Y-105967303D01*
X147915879Y-106031400D01*
X147500168Y-106031400D01*
X147500373Y-106015967D01*
X147503274Y-105962704D01*
X147510656Y-105915973D01*
X147524451Y-105865856D01*
X147546593Y-105802431D01*
X147575601Y-105729000D01*
X147606693Y-105666642D01*
X147640870Y-105618200D01*
X147682282Y-105577894D01*
X147735078Y-105539945D01*
X147769864Y-105519211D01*
X147869932Y-105476647D01*
X147973186Y-105455308D01*
X148075872Y-105454962D01*
X148174240Y-105475378D01*
X148264536Y-105516321D01*
X148343010Y-105577562D01*
X148356579Y-105592203D01*
X148400238Y-105652356D01*
X148441079Y-105726292D01*
X148474688Y-105805301D01*
X148496650Y-105880672D01*
X148498158Y-105888269D01*
X148507525Y-105975687D01*
X148505126Y-106063870D01*
X148505023Y-106067668D01*
G37*
X149136507Y-105435059D02*
X149224128Y-105454838D01*
X149295286Y-105487336D01*
X149354544Y-105534328D01*
X149377401Y-105559158D01*
X149435497Y-105646566D01*
X149477558Y-105752303D01*
X149503129Y-105874982D01*
X149511753Y-106013215D01*
X149511060Y-106049945D01*
X149498930Y-106155721D01*
X149470329Y-106246183D01*
X149423484Y-106325740D01*
X149356620Y-106398803D01*
X149329953Y-106422610D01*
X149285472Y-106456727D01*
X149241530Y-106480487D01*
X149187903Y-106500023D01*
X149156524Y-106507491D01*
X149089512Y-106514883D01*
X149013079Y-106515765D01*
X148936711Y-106510194D01*
X148869897Y-106498221D01*
X148815089Y-106481234D01*
X148733368Y-106440424D01*
X148672918Y-106386078D01*
X148633358Y-106317803D01*
X148614305Y-106235206D01*
X148612867Y-106215753D01*
X148618235Y-106149646D01*
X148641806Y-106100932D01*
X148684213Y-106068729D01*
X148746095Y-106052152D01*
X148756352Y-106051126D01*
X148781730Y-106052253D01*
X148809213Y-106060899D01*
X148844989Y-106079483D01*
X148895242Y-106110420D01*
X148900651Y-106113860D01*
X148965242Y-106153554D01*
X149012386Y-106177304D01*
X149044756Y-106183540D01*
X149065026Y-106170693D01*
X149075867Y-106137193D01*
X149079953Y-106081472D01*
X149079956Y-106001958D01*
X149078216Y-105924801D01*
X149073923Y-105843584D01*
X149067444Y-105784752D01*
X149058895Y-105749289D01*
X149048394Y-105738176D01*
X149047696Y-105738310D01*
X149033044Y-105750679D01*
X149015685Y-105776276D01*
X148983826Y-105816551D01*
X148933542Y-105849213D01*
X148874577Y-105866416D01*
X148812655Y-105868107D01*
X148753503Y-105854230D01*
X148702845Y-105824734D01*
X148666406Y-105779563D01*
X148650080Y-105730880D01*
X148651497Y-105672004D01*
X148673334Y-105614742D01*
X148712940Y-105561313D01*
X148767663Y-105513936D01*
X148834853Y-105474831D01*
X148911856Y-105446219D01*
X148996022Y-105430320D01*
X149084700Y-105429352D01*
X149136507Y-105435059D01*
G36*
X149136507Y-105435059D02*
G01*
X149224128Y-105454838D01*
X149295286Y-105487336D01*
X149354544Y-105534328D01*
X149377401Y-105559158D01*
X149435497Y-105646566D01*
X149477558Y-105752303D01*
X149503129Y-105874982D01*
X149511753Y-106013215D01*
X149511060Y-106049945D01*
X149498930Y-106155721D01*
X149470329Y-106246183D01*
X149423484Y-106325740D01*
X149356620Y-106398803D01*
X149329953Y-106422610D01*
X149285472Y-106456727D01*
X149241530Y-106480487D01*
X149187903Y-106500023D01*
X149156524Y-106507491D01*
X149089512Y-106514883D01*
X149013079Y-106515765D01*
X148936711Y-106510194D01*
X148869897Y-106498221D01*
X148815089Y-106481234D01*
X148733368Y-106440424D01*
X148672918Y-106386078D01*
X148633358Y-106317803D01*
X148614305Y-106235206D01*
X148612867Y-106215753D01*
X148618235Y-106149646D01*
X148641806Y-106100932D01*
X148684213Y-106068729D01*
X148746095Y-106052152D01*
X148756352Y-106051126D01*
X148781730Y-106052253D01*
X148809213Y-106060899D01*
X148844989Y-106079483D01*
X148895242Y-106110420D01*
X148900651Y-106113860D01*
X148965242Y-106153554D01*
X149012386Y-106177304D01*
X149044756Y-106183540D01*
X149065026Y-106170693D01*
X149075867Y-106137193D01*
X149079953Y-106081472D01*
X149079956Y-106001958D01*
X149078216Y-105924801D01*
X149073923Y-105843584D01*
X149067444Y-105784752D01*
X149058895Y-105749289D01*
X149048394Y-105738176D01*
X149047696Y-105738310D01*
X149033044Y-105750679D01*
X149015685Y-105776276D01*
X148983826Y-105816551D01*
X148933542Y-105849213D01*
X148874577Y-105866416D01*
X148812655Y-105868107D01*
X148753503Y-105854230D01*
X148702845Y-105824734D01*
X148666406Y-105779563D01*
X148650080Y-105730880D01*
X148651497Y-105672004D01*
X148673334Y-105614742D01*
X148712940Y-105561313D01*
X148767663Y-105513936D01*
X148834853Y-105474831D01*
X148911856Y-105446219D01*
X148996022Y-105430320D01*
X149084700Y-105429352D01*
X149136507Y-105435059D01*
G37*
X147670155Y-104168785D02*
X147743084Y-104178815D01*
X147803603Y-104198109D01*
X147816498Y-104204286D01*
X147893414Y-104250341D01*
X147946710Y-104301943D01*
X147977714Y-104360753D01*
X147987753Y-104428431D01*
X147987346Y-104443269D01*
X147971443Y-104517354D01*
X147932100Y-104583941D01*
X147868891Y-104643588D01*
X147781386Y-104696850D01*
X147760082Y-104707974D01*
X147717657Y-104734845D01*
X147698778Y-104757124D01*
X147702695Y-104776181D01*
X147728660Y-104793389D01*
X147741146Y-104798158D01*
X147764598Y-104800752D01*
X147795829Y-104794822D01*
X147842533Y-104779425D01*
X147897948Y-104763278D01*
X147944707Y-104760537D01*
X147973815Y-104775296D01*
X147986116Y-104808035D01*
X147982452Y-104859235D01*
X147976716Y-104880140D01*
X147951401Y-104921111D01*
X147907033Y-104955731D01*
X147841528Y-104985379D01*
X147752803Y-105011438D01*
X147731480Y-105013891D01*
X147691555Y-105014945D01*
X147644286Y-105013912D01*
X147599857Y-105009401D01*
X147522126Y-104990060D01*
X147450385Y-104958696D01*
X147389486Y-104918188D01*
X147344280Y-104871415D01*
X147319618Y-104821255D01*
X147318867Y-104818089D01*
X147316115Y-104760070D01*
X147329387Y-104696970D01*
X147356332Y-104640372D01*
X147377871Y-104615097D01*
X147426639Y-104574625D01*
X147493943Y-104530884D01*
X147553387Y-104494779D01*
X147607218Y-104458285D01*
X147641235Y-104428733D01*
X147657228Y-104404074D01*
X147656991Y-104382261D01*
X147642313Y-104361245D01*
X147616250Y-104346961D01*
X147587328Y-104353904D01*
X147562850Y-104383048D01*
X147561669Y-104385255D01*
X147530694Y-104417424D01*
X147487492Y-104430967D01*
X147439003Y-104423612D01*
X147415069Y-104409091D01*
X147385372Y-104379863D01*
X147362139Y-104346503D01*
X147352753Y-104318047D01*
X147361897Y-104297190D01*
X147386800Y-104267833D01*
X147421383Y-104236117D01*
X147459554Y-104207609D01*
X147495221Y-104187876D01*
X147526884Y-104177841D01*
X147594770Y-104168350D01*
X147670155Y-104168785D01*
G36*
X147670155Y-104168785D02*
G01*
X147743084Y-104178815D01*
X147803603Y-104198109D01*
X147816498Y-104204286D01*
X147893414Y-104250341D01*
X147946710Y-104301943D01*
X147977714Y-104360753D01*
X147987753Y-104428431D01*
X147987346Y-104443269D01*
X147971443Y-104517354D01*
X147932100Y-104583941D01*
X147868891Y-104643588D01*
X147781386Y-104696850D01*
X147760082Y-104707974D01*
X147717657Y-104734845D01*
X147698778Y-104757124D01*
X147702695Y-104776181D01*
X147728660Y-104793389D01*
X147741146Y-104798158D01*
X147764598Y-104800752D01*
X147795829Y-104794822D01*
X147842533Y-104779425D01*
X147897948Y-104763278D01*
X147944707Y-104760537D01*
X147973815Y-104775296D01*
X147986116Y-104808035D01*
X147982452Y-104859235D01*
X147976716Y-104880140D01*
X147951401Y-104921111D01*
X147907033Y-104955731D01*
X147841528Y-104985379D01*
X147752803Y-105011438D01*
X147731480Y-105013891D01*
X147691555Y-105014945D01*
X147644286Y-105013912D01*
X147599857Y-105009401D01*
X147522126Y-104990060D01*
X147450385Y-104958696D01*
X147389486Y-104918188D01*
X147344280Y-104871415D01*
X147319618Y-104821255D01*
X147318867Y-104818089D01*
X147316115Y-104760070D01*
X147329387Y-104696970D01*
X147356332Y-104640372D01*
X147377871Y-104615097D01*
X147426639Y-104574625D01*
X147493943Y-104530884D01*
X147553387Y-104494779D01*
X147607218Y-104458285D01*
X147641235Y-104428733D01*
X147657228Y-104404074D01*
X147656991Y-104382261D01*
X147642313Y-104361245D01*
X147616250Y-104346961D01*
X147587328Y-104353904D01*
X147562850Y-104383048D01*
X147561669Y-104385255D01*
X147530694Y-104417424D01*
X147487492Y-104430967D01*
X147439003Y-104423612D01*
X147415069Y-104409091D01*
X147385372Y-104379863D01*
X147362139Y-104346503D01*
X147352753Y-104318047D01*
X147361897Y-104297190D01*
X147386800Y-104267833D01*
X147421383Y-104236117D01*
X147459554Y-104207609D01*
X147495221Y-104187876D01*
X147526884Y-104177841D01*
X147594770Y-104168350D01*
X147670155Y-104168785D01*
G37*
X150633566Y-106022406D02*
X150627161Y-106117076D01*
X150605690Y-106201564D01*
X150566444Y-106277705D01*
X150506712Y-106352555D01*
X150452669Y-106403511D01*
X150357951Y-106465236D01*
X150252183Y-106504453D01*
X150234007Y-106507620D01*
X150188983Y-106511592D01*
X150131647Y-106513792D01*
X150070063Y-106513806D01*
X150008647Y-106511973D01*
X149963030Y-106508225D01*
X149926979Y-106500971D01*
X149892480Y-106488584D01*
X149851521Y-106469437D01*
X149820607Y-106453148D01*
X149758046Y-106410133D01*
X149709723Y-106358252D01*
X149673088Y-106293454D01*
X149645591Y-106211685D01*
X149624682Y-106108891D01*
X149620786Y-106062405D01*
X150045774Y-106062405D01*
X150047210Y-106105205D01*
X150052738Y-106134286D01*
X150062985Y-106155678D01*
X150063003Y-106155705D01*
X150091398Y-106182810D01*
X150122944Y-106187401D01*
X150153899Y-106171409D01*
X150180525Y-106136764D01*
X150199081Y-106085399D01*
X150202198Y-106067860D01*
X150204075Y-106013342D01*
X150197027Y-105956143D01*
X150182798Y-105901879D01*
X150163132Y-105856166D01*
X150139772Y-105824619D01*
X150114463Y-105812856D01*
X150089064Y-105824357D01*
X150068945Y-105860455D01*
X150055088Y-105921156D01*
X150047495Y-106006453D01*
X150045774Y-106062405D01*
X149620786Y-106062405D01*
X149620257Y-106056095D01*
X149627054Y-105971539D01*
X149649735Y-105873642D01*
X149688817Y-105759600D01*
X149691318Y-105753192D01*
X149731404Y-105670166D01*
X149781205Y-105604472D01*
X149845947Y-105550570D01*
X149930853Y-105502919D01*
X149933465Y-105501668D01*
X149978562Y-105480941D01*
X150014415Y-105467940D01*
X150049685Y-105460900D01*
X150093028Y-105458058D01*
X150153103Y-105457650D01*
X150191714Y-105458012D01*
X150242719Y-105460301D01*
X150281041Y-105465922D01*
X150314714Y-105476298D01*
X150351768Y-105492854D01*
X150415857Y-105531877D01*
X150490055Y-105601411D01*
X150550618Y-105688412D01*
X150595852Y-105789700D01*
X150624066Y-105902091D01*
X150632851Y-106013342D01*
X150633566Y-106022406D01*
G36*
X150633566Y-106022406D02*
G01*
X150627161Y-106117076D01*
X150605690Y-106201564D01*
X150566444Y-106277705D01*
X150506712Y-106352555D01*
X150452669Y-106403511D01*
X150357951Y-106465236D01*
X150252183Y-106504453D01*
X150234007Y-106507620D01*
X150188983Y-106511592D01*
X150131647Y-106513792D01*
X150070063Y-106513806D01*
X150008647Y-106511973D01*
X149963030Y-106508225D01*
X149926979Y-106500971D01*
X149892480Y-106488584D01*
X149851521Y-106469437D01*
X149820607Y-106453148D01*
X149758046Y-106410133D01*
X149709723Y-106358252D01*
X149673088Y-106293454D01*
X149645591Y-106211685D01*
X149624682Y-106108891D01*
X149620786Y-106062405D01*
X150045774Y-106062405D01*
X150047210Y-106105205D01*
X150052738Y-106134286D01*
X150062985Y-106155678D01*
X150063003Y-106155705D01*
X150091398Y-106182810D01*
X150122944Y-106187401D01*
X150153899Y-106171409D01*
X150180525Y-106136764D01*
X150199081Y-106085399D01*
X150202198Y-106067860D01*
X150204075Y-106013342D01*
X150197027Y-105956143D01*
X150182798Y-105901879D01*
X150163132Y-105856166D01*
X150139772Y-105824619D01*
X150114463Y-105812856D01*
X150089064Y-105824357D01*
X150068945Y-105860455D01*
X150055088Y-105921156D01*
X150047495Y-106006453D01*
X150045774Y-106062405D01*
X149620786Y-106062405D01*
X149620257Y-106056095D01*
X149627054Y-105971539D01*
X149649735Y-105873642D01*
X149688817Y-105759600D01*
X149691318Y-105753192D01*
X149731404Y-105670166D01*
X149781205Y-105604472D01*
X149845947Y-105550570D01*
X149930853Y-105502919D01*
X149933465Y-105501668D01*
X149978562Y-105480941D01*
X150014415Y-105467940D01*
X150049685Y-105460900D01*
X150093028Y-105458058D01*
X150153103Y-105457650D01*
X150191714Y-105458012D01*
X150242719Y-105460301D01*
X150281041Y-105465922D01*
X150314714Y-105476298D01*
X150351768Y-105492854D01*
X150415857Y-105531877D01*
X150490055Y-105601411D01*
X150550618Y-105688412D01*
X150595852Y-105789700D01*
X150624066Y-105902091D01*
X150632851Y-106013342D01*
X150633566Y-106022406D01*
G37*
X149598173Y-104180533D02*
X149686770Y-104186029D01*
X149759172Y-104192100D01*
X149816906Y-104200523D01*
X149857218Y-104212731D01*
X149884258Y-104230635D01*
X149902171Y-104256144D01*
X149915106Y-104291168D01*
X149919008Y-104305393D01*
X149933565Y-104378390D01*
X149943982Y-104464442D01*
X149950111Y-104557222D01*
X149951801Y-104650406D01*
X149948904Y-104737669D01*
X149941270Y-104812686D01*
X149928750Y-104869132D01*
X149916226Y-104897021D01*
X149882723Y-104943828D01*
X149840591Y-104983077D01*
X149797822Y-105006390D01*
X149768260Y-105011641D01*
X149721769Y-105014679D01*
X149670503Y-105014346D01*
X149638445Y-105011764D01*
X149561283Y-104995441D01*
X149495005Y-104967092D01*
X149443208Y-104929096D01*
X149409492Y-104883836D01*
X149397453Y-104833690D01*
X149398758Y-104816106D01*
X149412712Y-104786399D01*
X149444354Y-104770086D01*
X149496664Y-104765106D01*
X149512294Y-104764572D01*
X149550444Y-104754562D01*
X149568241Y-104730534D01*
X149567362Y-104690724D01*
X149565416Y-104681578D01*
X149557124Y-104660925D01*
X149539965Y-104652446D01*
X149505694Y-104650806D01*
X149472218Y-104647317D01*
X149420895Y-104628393D01*
X149380384Y-104596998D01*
X149357862Y-104557656D01*
X149355199Y-104546659D01*
X149353827Y-104512636D01*
X149369841Y-104488098D01*
X149407033Y-104465974D01*
X149410330Y-104464427D01*
X149442386Y-104452752D01*
X149473555Y-104451189D01*
X149516246Y-104458938D01*
X149539856Y-104463578D01*
X149572150Y-104466741D01*
X149588539Y-104463775D01*
X149589812Y-104461717D01*
X149593087Y-104439922D01*
X149591284Y-104406588D01*
X149587305Y-104382001D01*
X149578424Y-104365258D01*
X149558357Y-104356624D01*
X149520081Y-104350577D01*
X149510514Y-104349180D01*
X149458525Y-104334331D01*
X149419841Y-104306847D01*
X149413554Y-104300390D01*
X149389961Y-104267821D01*
X149388047Y-104239279D01*
X149406978Y-104208395D01*
X149407775Y-104207473D01*
X149424159Y-104193871D01*
X149447796Y-104184663D01*
X149482281Y-104179563D01*
X149531208Y-104178282D01*
X149598173Y-104180533D01*
G36*
X149598173Y-104180533D02*
G01*
X149686770Y-104186029D01*
X149759172Y-104192100D01*
X149816906Y-104200523D01*
X149857218Y-104212731D01*
X149884258Y-104230635D01*
X149902171Y-104256144D01*
X149915106Y-104291168D01*
X149919008Y-104305393D01*
X149933565Y-104378390D01*
X149943982Y-104464442D01*
X149950111Y-104557222D01*
X149951801Y-104650406D01*
X149948904Y-104737669D01*
X149941270Y-104812686D01*
X149928750Y-104869132D01*
X149916226Y-104897021D01*
X149882723Y-104943828D01*
X149840591Y-104983077D01*
X149797822Y-105006390D01*
X149768260Y-105011641D01*
X149721769Y-105014679D01*
X149670503Y-105014346D01*
X149638445Y-105011764D01*
X149561283Y-104995441D01*
X149495005Y-104967092D01*
X149443208Y-104929096D01*
X149409492Y-104883836D01*
X149397453Y-104833690D01*
X149398758Y-104816106D01*
X149412712Y-104786399D01*
X149444354Y-104770086D01*
X149496664Y-104765106D01*
X149512294Y-104764572D01*
X149550444Y-104754562D01*
X149568241Y-104730534D01*
X149567362Y-104690724D01*
X149565416Y-104681578D01*
X149557124Y-104660925D01*
X149539965Y-104652446D01*
X149505694Y-104650806D01*
X149472218Y-104647317D01*
X149420895Y-104628393D01*
X149380384Y-104596998D01*
X149357862Y-104557656D01*
X149355199Y-104546659D01*
X149353827Y-104512636D01*
X149369841Y-104488098D01*
X149407033Y-104465974D01*
X149410330Y-104464427D01*
X149442386Y-104452752D01*
X149473555Y-104451189D01*
X149516246Y-104458938D01*
X149539856Y-104463578D01*
X149572150Y-104466741D01*
X149588539Y-104463775D01*
X149589812Y-104461717D01*
X149593087Y-104439922D01*
X149591284Y-104406588D01*
X149587305Y-104382001D01*
X149578424Y-104365258D01*
X149558357Y-104356624D01*
X149520081Y-104350577D01*
X149510514Y-104349180D01*
X149458525Y-104334331D01*
X149419841Y-104306847D01*
X149413554Y-104300390D01*
X149389961Y-104267821D01*
X149388047Y-104239279D01*
X149406978Y-104208395D01*
X149407775Y-104207473D01*
X149424159Y-104193871D01*
X149447796Y-104184663D01*
X149482281Y-104179563D01*
X149531208Y-104178282D01*
X149598173Y-104180533D01*
G37*
X151254759Y-105431468D02*
X151345889Y-105453439D01*
X151427934Y-105493275D01*
X151496445Y-105551014D01*
X151524205Y-105584607D01*
X151568173Y-105655772D01*
X151601150Y-105739214D01*
X151624566Y-105839007D01*
X151639854Y-105959226D01*
X151641111Y-105975488D01*
X151638177Y-106094540D01*
X151613833Y-106203046D01*
X151569165Y-106299169D01*
X151505255Y-106381070D01*
X151423188Y-106446913D01*
X151324046Y-106494859D01*
X151297935Y-106502189D01*
X151233623Y-106511346D01*
X151157756Y-106514219D01*
X151078865Y-106510987D01*
X151005483Y-106501827D01*
X150946142Y-106486921D01*
X150914614Y-106474138D01*
X150840877Y-106428161D01*
X150787546Y-106367184D01*
X150755079Y-106291851D01*
X150743932Y-106202803D01*
X150744106Y-106179897D01*
X150747324Y-106140607D01*
X150756320Y-106114509D01*
X150773366Y-106093139D01*
X150778067Y-106088865D01*
X150813411Y-106067807D01*
X150854764Y-106054694D01*
X150856439Y-106054416D01*
X150887226Y-106051815D01*
X150917115Y-106056144D01*
X150951440Y-106069442D01*
X150995535Y-106093747D01*
X151054733Y-106131096D01*
X151066444Y-106138632D01*
X151114905Y-106166976D01*
X151149406Y-106180299D01*
X151174484Y-106179748D01*
X151194675Y-106166470D01*
X151202698Y-106156314D01*
X151208390Y-106141252D01*
X151211476Y-106117615D01*
X151212212Y-106081209D01*
X151210853Y-106027840D01*
X151207654Y-105953314D01*
X151206450Y-105928709D01*
X151201553Y-105851164D01*
X151195872Y-105796043D01*
X151189106Y-105760996D01*
X151180958Y-105743673D01*
X151170958Y-105735218D01*
X151160669Y-105738379D01*
X151150073Y-105762723D01*
X151137167Y-105788438D01*
X151097065Y-105827716D01*
X151038899Y-105854836D01*
X150966381Y-105867678D01*
X150922885Y-105869471D01*
X150892856Y-105866131D01*
X150869029Y-105854761D01*
X150841662Y-105832624D01*
X150804201Y-105791583D01*
X150778129Y-105735181D01*
X150776784Y-105676075D01*
X150800129Y-105615851D01*
X150848126Y-105556091D01*
X150888394Y-105521553D01*
X150971362Y-105472406D01*
X151063045Y-105440987D01*
X151158994Y-105427329D01*
X151254759Y-105431468D01*
G36*
X151254759Y-105431468D02*
G01*
X151345889Y-105453439D01*
X151427934Y-105493275D01*
X151496445Y-105551014D01*
X151524205Y-105584607D01*
X151568173Y-105655772D01*
X151601150Y-105739214D01*
X151624566Y-105839007D01*
X151639854Y-105959226D01*
X151641111Y-105975488D01*
X151638177Y-106094540D01*
X151613833Y-106203046D01*
X151569165Y-106299169D01*
X151505255Y-106381070D01*
X151423188Y-106446913D01*
X151324046Y-106494859D01*
X151297935Y-106502189D01*
X151233623Y-106511346D01*
X151157756Y-106514219D01*
X151078865Y-106510987D01*
X151005483Y-106501827D01*
X150946142Y-106486921D01*
X150914614Y-106474138D01*
X150840877Y-106428161D01*
X150787546Y-106367184D01*
X150755079Y-106291851D01*
X150743932Y-106202803D01*
X150744106Y-106179897D01*
X150747324Y-106140607D01*
X150756320Y-106114509D01*
X150773366Y-106093139D01*
X150778067Y-106088865D01*
X150813411Y-106067807D01*
X150854764Y-106054694D01*
X150856439Y-106054416D01*
X150887226Y-106051815D01*
X150917115Y-106056144D01*
X150951440Y-106069442D01*
X150995535Y-106093747D01*
X151054733Y-106131096D01*
X151066444Y-106138632D01*
X151114905Y-106166976D01*
X151149406Y-106180299D01*
X151174484Y-106179748D01*
X151194675Y-106166470D01*
X151202698Y-106156314D01*
X151208390Y-106141252D01*
X151211476Y-106117615D01*
X151212212Y-106081209D01*
X151210853Y-106027840D01*
X151207654Y-105953314D01*
X151206450Y-105928709D01*
X151201553Y-105851164D01*
X151195872Y-105796043D01*
X151189106Y-105760996D01*
X151180958Y-105743673D01*
X151170958Y-105735218D01*
X151160669Y-105738379D01*
X151150073Y-105762723D01*
X151137167Y-105788438D01*
X151097065Y-105827716D01*
X151038899Y-105854836D01*
X150966381Y-105867678D01*
X150922885Y-105869471D01*
X150892856Y-105866131D01*
X150869029Y-105854761D01*
X150841662Y-105832624D01*
X150804201Y-105791583D01*
X150778129Y-105735181D01*
X150776784Y-105676075D01*
X150800129Y-105615851D01*
X150848126Y-105556091D01*
X150888394Y-105521553D01*
X150971362Y-105472406D01*
X151063045Y-105440987D01*
X151158994Y-105427329D01*
X151254759Y-105431468D01*
G37*
X145481890Y-105451372D02*
X145531148Y-105479179D01*
X145568239Y-105526787D01*
X145579714Y-105556546D01*
X145593574Y-105611413D01*
X145606062Y-105680048D01*
X145616201Y-105756005D01*
X145623010Y-105832839D01*
X145625513Y-105904104D01*
X145625920Y-105942961D01*
X145629601Y-106004579D01*
X145638240Y-106049360D01*
X145653201Y-106082901D01*
X145675846Y-106110798D01*
X145708711Y-106131788D01*
X145750981Y-106133161D01*
X145795291Y-106110384D01*
X145811248Y-106094737D01*
X145821942Y-106074692D01*
X145827241Y-106046926D01*
X145827135Y-106008021D01*
X145821613Y-105954560D01*
X145810664Y-105883125D01*
X145794277Y-105790298D01*
X145793850Y-105787960D01*
X145780820Y-105714995D01*
X145772404Y-105662415D01*
X145768295Y-105625811D01*
X145768185Y-105600772D01*
X145771766Y-105582888D01*
X145778729Y-105567749D01*
X145814616Y-105523222D01*
X145868345Y-105490636D01*
X145932086Y-105476960D01*
X146001263Y-105483099D01*
X146071295Y-105509957D01*
X146071357Y-105509991D01*
X146116212Y-105537921D01*
X146146999Y-105568205D01*
X146169470Y-105608458D01*
X146189375Y-105666295D01*
X146203962Y-105723507D01*
X146220801Y-105826169D01*
X146228782Y-105934116D01*
X146228040Y-106041484D01*
X146218708Y-106142405D01*
X146200922Y-106231013D01*
X146174815Y-106301443D01*
X146163220Y-106322109D01*
X146107062Y-106390569D01*
X146030693Y-106447988D01*
X145936971Y-106492541D01*
X145828753Y-106522403D01*
X145816439Y-106523843D01*
X145779071Y-106525512D01*
X145727821Y-106525995D01*
X145670003Y-106525163D01*
X145624984Y-106523229D01*
X145553834Y-106514727D01*
X145496165Y-106497697D01*
X145444407Y-106469486D01*
X145390993Y-106427443D01*
X145370575Y-106406596D01*
X145329067Y-106346060D01*
X145290717Y-106266878D01*
X145256696Y-106173608D01*
X145228176Y-106070807D01*
X145206329Y-105963031D01*
X145192325Y-105854837D01*
X145187336Y-105750783D01*
X145192534Y-105655425D01*
X145198665Y-105613205D01*
X145208841Y-105580056D01*
X145227457Y-105552452D01*
X145259733Y-105519863D01*
X145299590Y-105487619D01*
X145362263Y-105455505D01*
X145424313Y-105443451D01*
X145481890Y-105451372D01*
G36*
X145481890Y-105451372D02*
G01*
X145531148Y-105479179D01*
X145568239Y-105526787D01*
X145579714Y-105556546D01*
X145593574Y-105611413D01*
X145606062Y-105680048D01*
X145616201Y-105756005D01*
X145623010Y-105832839D01*
X145625513Y-105904104D01*
X145625920Y-105942961D01*
X145629601Y-106004579D01*
X145638240Y-106049360D01*
X145653201Y-106082901D01*
X145675846Y-106110798D01*
X145708711Y-106131788D01*
X145750981Y-106133161D01*
X145795291Y-106110384D01*
X145811248Y-106094737D01*
X145821942Y-106074692D01*
X145827241Y-106046926D01*
X145827135Y-106008021D01*
X145821613Y-105954560D01*
X145810664Y-105883125D01*
X145794277Y-105790298D01*
X145793850Y-105787960D01*
X145780820Y-105714995D01*
X145772404Y-105662415D01*
X145768295Y-105625811D01*
X145768185Y-105600772D01*
X145771766Y-105582888D01*
X145778729Y-105567749D01*
X145814616Y-105523222D01*
X145868345Y-105490636D01*
X145932086Y-105476960D01*
X146001263Y-105483099D01*
X146071295Y-105509957D01*
X146071357Y-105509991D01*
X146116212Y-105537921D01*
X146146999Y-105568205D01*
X146169470Y-105608458D01*
X146189375Y-105666295D01*
X146203962Y-105723507D01*
X146220801Y-105826169D01*
X146228782Y-105934116D01*
X146228040Y-106041484D01*
X146218708Y-106142405D01*
X146200922Y-106231013D01*
X146174815Y-106301443D01*
X146163220Y-106322109D01*
X146107062Y-106390569D01*
X146030693Y-106447988D01*
X145936971Y-106492541D01*
X145828753Y-106522403D01*
X145816439Y-106523843D01*
X145779071Y-106525512D01*
X145727821Y-106525995D01*
X145670003Y-106525163D01*
X145624984Y-106523229D01*
X145553834Y-106514727D01*
X145496165Y-106497697D01*
X145444407Y-106469486D01*
X145390993Y-106427443D01*
X145370575Y-106406596D01*
X145329067Y-106346060D01*
X145290717Y-106266878D01*
X145256696Y-106173608D01*
X145228176Y-106070807D01*
X145206329Y-105963031D01*
X145192325Y-105854837D01*
X145187336Y-105750783D01*
X145192534Y-105655425D01*
X145198665Y-105613205D01*
X145208841Y-105580056D01*
X145227457Y-105552452D01*
X145259733Y-105519863D01*
X145299590Y-105487619D01*
X145362263Y-105455505D01*
X145424313Y-105443451D01*
X145481890Y-105451372D01*
G37*
X149250775Y-104520375D02*
X149255262Y-104607783D01*
X149255170Y-104695288D01*
X149250284Y-104777351D01*
X149240389Y-104848430D01*
X149225271Y-104902985D01*
X149198925Y-104949172D01*
X149163757Y-104982313D01*
X149116770Y-105002048D01*
X149060633Y-105006813D01*
X149008322Y-104993786D01*
X148965866Y-104964613D01*
X148939293Y-104920944D01*
X148938046Y-104916955D01*
X148928803Y-104867810D01*
X148924671Y-104807250D01*
X148925988Y-104747296D01*
X148933091Y-104699972D01*
X148931751Y-104697276D01*
X148920965Y-104712917D01*
X148902294Y-104745061D01*
X148877696Y-104790506D01*
X148858664Y-104825613D01*
X148827720Y-104879231D01*
X148799446Y-104924452D01*
X148778195Y-104954121D01*
X148758643Y-104975719D01*
X148737541Y-104990094D01*
X148709333Y-104996516D01*
X148664878Y-104998571D01*
X148662659Y-104998611D01*
X148614366Y-104997237D01*
X148582643Y-104989870D01*
X148559296Y-104974656D01*
X148546548Y-104961839D01*
X148508555Y-104902402D01*
X148481462Y-104821783D01*
X148465538Y-104721475D01*
X148461051Y-104602974D01*
X148465617Y-104517456D01*
X148762453Y-104517456D01*
X148768803Y-104523806D01*
X148775153Y-104517456D01*
X148768803Y-104511106D01*
X148762453Y-104517456D01*
X148465617Y-104517456D01*
X148468269Y-104467776D01*
X148473298Y-104417468D01*
X148483459Y-104341867D01*
X148495751Y-104286047D01*
X148511395Y-104246361D01*
X148531612Y-104219161D01*
X148557622Y-104200799D01*
X148568500Y-104195813D01*
X148624077Y-104182891D01*
X148684121Y-104184038D01*
X148735895Y-104199357D01*
X148766208Y-104221275D01*
X148788855Y-104259218D01*
X148796347Y-104312361D01*
X148789623Y-104383930D01*
X148782610Y-104427305D01*
X148777671Y-104465125D01*
X148778956Y-104479868D01*
X148787706Y-104471599D01*
X148805162Y-104440390D01*
X148832562Y-104386308D01*
X148870924Y-104315315D01*
X148906989Y-104263143D01*
X148942566Y-104229575D01*
X148980850Y-104211625D01*
X149025034Y-104206306D01*
X149092279Y-104215407D01*
X149154496Y-104245324D01*
X149201696Y-104294578D01*
X149211988Y-104314146D01*
X149228924Y-104368016D01*
X149241924Y-104438606D01*
X149250460Y-104517456D01*
X149250775Y-104520375D01*
G36*
X149250775Y-104520375D02*
G01*
X149255262Y-104607783D01*
X149255170Y-104695288D01*
X149250284Y-104777351D01*
X149240389Y-104848430D01*
X149225271Y-104902985D01*
X149198925Y-104949172D01*
X149163757Y-104982313D01*
X149116770Y-105002048D01*
X149060633Y-105006813D01*
X149008322Y-104993786D01*
X148965866Y-104964613D01*
X148939293Y-104920944D01*
X148938046Y-104916955D01*
X148928803Y-104867810D01*
X148924671Y-104807250D01*
X148925988Y-104747296D01*
X148933091Y-104699972D01*
X148931751Y-104697276D01*
X148920965Y-104712917D01*
X148902294Y-104745061D01*
X148877696Y-104790506D01*
X148858664Y-104825613D01*
X148827720Y-104879231D01*
X148799446Y-104924452D01*
X148778195Y-104954121D01*
X148758643Y-104975719D01*
X148737541Y-104990094D01*
X148709333Y-104996516D01*
X148664878Y-104998571D01*
X148662659Y-104998611D01*
X148614366Y-104997237D01*
X148582643Y-104989870D01*
X148559296Y-104974656D01*
X148546548Y-104961839D01*
X148508555Y-104902402D01*
X148481462Y-104821783D01*
X148465538Y-104721475D01*
X148461051Y-104602974D01*
X148465617Y-104517456D01*
X148762453Y-104517456D01*
X148768803Y-104523806D01*
X148775153Y-104517456D01*
X148768803Y-104511106D01*
X148762453Y-104517456D01*
X148465617Y-104517456D01*
X148468269Y-104467776D01*
X148473298Y-104417468D01*
X148483459Y-104341867D01*
X148495751Y-104286047D01*
X148511395Y-104246361D01*
X148531612Y-104219161D01*
X148557622Y-104200799D01*
X148568500Y-104195813D01*
X148624077Y-104182891D01*
X148684121Y-104184038D01*
X148735895Y-104199357D01*
X148766208Y-104221275D01*
X148788855Y-104259218D01*
X148796347Y-104312361D01*
X148789623Y-104383930D01*
X148782610Y-104427305D01*
X148777671Y-104465125D01*
X148778956Y-104479868D01*
X148787706Y-104471599D01*
X148805162Y-104440390D01*
X148832562Y-104386308D01*
X148870924Y-104315315D01*
X148906989Y-104263143D01*
X148942566Y-104229575D01*
X148980850Y-104211625D01*
X149025034Y-104206306D01*
X149092279Y-104215407D01*
X149154496Y-104245324D01*
X149201696Y-104294578D01*
X149211988Y-104314146D01*
X149228924Y-104368016D01*
X149241924Y-104438606D01*
X149250460Y-104517456D01*
X149250775Y-104520375D01*
G37*
X145450381Y-104555004D02*
X145455643Y-104637255D01*
X145459142Y-104716632D01*
X145460423Y-104787738D01*
X145460188Y-104813066D01*
X145455133Y-104883959D01*
X145441680Y-104935173D01*
X145417446Y-104970692D01*
X145380048Y-104994496D01*
X145327103Y-105010570D01*
X145293480Y-105016301D01*
X145258597Y-105015412D01*
X145215154Y-105005510D01*
X145203007Y-105001856D01*
X145153997Y-104977353D01*
X145126280Y-104941445D01*
X145117553Y-104891440D01*
X145117553Y-104839974D01*
X145037941Y-104923190D01*
X145035193Y-104926062D01*
X144997657Y-104964502D01*
X144970924Y-104988188D01*
X144948805Y-105000688D01*
X144925114Y-105005571D01*
X144893664Y-105006406D01*
X144842644Y-104999718D01*
X144788763Y-104979161D01*
X144743025Y-104948582D01*
X144711161Y-104911905D01*
X144698905Y-104873056D01*
X144700298Y-104860154D01*
X144717065Y-104818935D01*
X144750453Y-104769605D01*
X144797494Y-104716865D01*
X144846687Y-104667672D01*
X144796511Y-104625546D01*
X144768743Y-104598938D01*
X144729272Y-104538108D01*
X144721065Y-104501355D01*
X145021043Y-104501355D01*
X145039348Y-104527645D01*
X145079348Y-104558731D01*
X145087728Y-104564289D01*
X145115745Y-104580702D01*
X145132712Y-104587306D01*
X145132853Y-104587299D01*
X145138002Y-104575219D01*
X145140698Y-104544473D01*
X145140359Y-104501581D01*
X145139241Y-104477225D01*
X145136382Y-104441921D01*
X145130643Y-104423682D01*
X145119361Y-104416873D01*
X145099874Y-104415856D01*
X145069252Y-104422485D01*
X145036728Y-104451238D01*
X145022570Y-104475161D01*
X145021043Y-104501355D01*
X144721065Y-104501355D01*
X144713920Y-104469360D01*
X144722681Y-104392667D01*
X144755554Y-104308002D01*
X144757099Y-104304972D01*
X144782222Y-104263384D01*
X144811133Y-104235803D01*
X144853979Y-104212369D01*
X144914121Y-104189502D01*
X144986515Y-104175048D01*
X145069500Y-104172144D01*
X145169397Y-104180145D01*
X145219952Y-104187227D01*
X145299746Y-104204871D01*
X145358007Y-104228659D01*
X145397017Y-104259679D01*
X145419059Y-104299017D01*
X145420849Y-104305160D01*
X145428592Y-104344955D01*
X145436399Y-104403458D01*
X145443815Y-104475273D01*
X145449514Y-104544473D01*
X145450381Y-104555004D01*
G36*
X145450381Y-104555004D02*
G01*
X145455643Y-104637255D01*
X145459142Y-104716632D01*
X145460423Y-104787738D01*
X145460188Y-104813066D01*
X145455133Y-104883959D01*
X145441680Y-104935173D01*
X145417446Y-104970692D01*
X145380048Y-104994496D01*
X145327103Y-105010570D01*
X145293480Y-105016301D01*
X145258597Y-105015412D01*
X145215154Y-105005510D01*
X145203007Y-105001856D01*
X145153997Y-104977353D01*
X145126280Y-104941445D01*
X145117553Y-104891440D01*
X145117553Y-104839974D01*
X145037941Y-104923190D01*
X145035193Y-104926062D01*
X144997657Y-104964502D01*
X144970924Y-104988188D01*
X144948805Y-105000688D01*
X144925114Y-105005571D01*
X144893664Y-105006406D01*
X144842644Y-104999718D01*
X144788763Y-104979161D01*
X144743025Y-104948582D01*
X144711161Y-104911905D01*
X144698905Y-104873056D01*
X144700298Y-104860154D01*
X144717065Y-104818935D01*
X144750453Y-104769605D01*
X144797494Y-104716865D01*
X144846687Y-104667672D01*
X144796511Y-104625546D01*
X144768743Y-104598938D01*
X144729272Y-104538108D01*
X144721065Y-104501355D01*
X145021043Y-104501355D01*
X145039348Y-104527645D01*
X145079348Y-104558731D01*
X145087728Y-104564289D01*
X145115745Y-104580702D01*
X145132712Y-104587306D01*
X145132853Y-104587299D01*
X145138002Y-104575219D01*
X145140698Y-104544473D01*
X145140359Y-104501581D01*
X145139241Y-104477225D01*
X145136382Y-104441921D01*
X145130643Y-104423682D01*
X145119361Y-104416873D01*
X145099874Y-104415856D01*
X145069252Y-104422485D01*
X145036728Y-104451238D01*
X145022570Y-104475161D01*
X145021043Y-104501355D01*
X144721065Y-104501355D01*
X144713920Y-104469360D01*
X144722681Y-104392667D01*
X144755554Y-104308002D01*
X144757099Y-104304972D01*
X144782222Y-104263384D01*
X144811133Y-104235803D01*
X144853979Y-104212369D01*
X144914121Y-104189502D01*
X144986515Y-104175048D01*
X145069500Y-104172144D01*
X145169397Y-104180145D01*
X145219952Y-104187227D01*
X145299746Y-104204871D01*
X145358007Y-104228659D01*
X145397017Y-104259679D01*
X145419059Y-104299017D01*
X145420849Y-104305160D01*
X145428592Y-104344955D01*
X145436399Y-104403458D01*
X145443815Y-104475273D01*
X145449514Y-104544473D01*
X145450381Y-104555004D01*
G37*
X146657696Y-105456288D02*
X146718885Y-105478335D01*
X146761433Y-105517159D01*
X146768681Y-105531329D01*
X146778467Y-105577073D01*
X146780658Y-105640459D01*
X146775241Y-105717001D01*
X146762206Y-105802213D01*
X146759743Y-105815166D01*
X146751408Y-105860378D01*
X146745714Y-105893497D01*
X146743776Y-105908106D01*
X146747959Y-105901185D01*
X146758764Y-105876044D01*
X146773781Y-105838172D01*
X146811246Y-105748315D01*
X146863025Y-105647103D01*
X146915808Y-105569491D01*
X146969169Y-105516079D01*
X147022684Y-105487466D01*
X147082166Y-105478475D01*
X147154170Y-105488433D01*
X147222063Y-105518631D01*
X147280590Y-105566591D01*
X147324495Y-105629835D01*
X147330486Y-105642683D01*
X147340740Y-105671126D01*
X147348879Y-105706238D01*
X147355667Y-105752698D01*
X147361866Y-105815185D01*
X147368236Y-105898376D01*
X147374163Y-106011345D01*
X147374693Y-106139951D01*
X147367334Y-106248414D01*
X147352193Y-106335366D01*
X147329376Y-106399440D01*
X147322747Y-106412069D01*
X147295916Y-106452522D01*
X147263634Y-106478862D01*
X147216349Y-106499553D01*
X147159218Y-106514421D01*
X147108126Y-106512540D01*
X147051971Y-106493025D01*
X147011300Y-106467820D01*
X146976801Y-106426629D01*
X146975443Y-106423901D01*
X146961986Y-106380921D01*
X146952755Y-106322292D01*
X146948367Y-106256751D01*
X146949438Y-106193035D01*
X146956583Y-106139881D01*
X146959937Y-106124709D01*
X146965026Y-106096921D01*
X146965313Y-106085906D01*
X146961411Y-106091569D01*
X146948285Y-106115774D01*
X146928446Y-106154640D01*
X146904375Y-106203381D01*
X146875089Y-106261621D01*
X146824525Y-106352270D01*
X146778499Y-106421412D01*
X146737713Y-106468044D01*
X146702870Y-106491164D01*
X146659675Y-106501375D01*
X146598326Y-106504728D01*
X146539670Y-106497720D01*
X146494173Y-106480866D01*
X146450287Y-106444556D01*
X146415555Y-106393524D01*
X146389557Y-106325874D01*
X146371727Y-106239620D01*
X146361501Y-106132775D01*
X146358314Y-106003356D01*
X146360098Y-105874702D01*
X146366141Y-105759853D01*
X146377261Y-105666484D01*
X146394278Y-105592694D01*
X146418009Y-105536582D01*
X146449276Y-105496248D01*
X146488897Y-105469791D01*
X146537691Y-105455310D01*
X146596479Y-105450906D01*
X146657696Y-105456288D01*
G36*
X146657696Y-105456288D02*
G01*
X146718885Y-105478335D01*
X146761433Y-105517159D01*
X146768681Y-105531329D01*
X146778467Y-105577073D01*
X146780658Y-105640459D01*
X146775241Y-105717001D01*
X146762206Y-105802213D01*
X146759743Y-105815166D01*
X146751408Y-105860378D01*
X146745714Y-105893497D01*
X146743776Y-105908106D01*
X146747959Y-105901185D01*
X146758764Y-105876044D01*
X146773781Y-105838172D01*
X146811246Y-105748315D01*
X146863025Y-105647103D01*
X146915808Y-105569491D01*
X146969169Y-105516079D01*
X147022684Y-105487466D01*
X147082166Y-105478475D01*
X147154170Y-105488433D01*
X147222063Y-105518631D01*
X147280590Y-105566591D01*
X147324495Y-105629835D01*
X147330486Y-105642683D01*
X147340740Y-105671126D01*
X147348879Y-105706238D01*
X147355667Y-105752698D01*
X147361866Y-105815185D01*
X147368236Y-105898376D01*
X147374163Y-106011345D01*
X147374693Y-106139951D01*
X147367334Y-106248414D01*
X147352193Y-106335366D01*
X147329376Y-106399440D01*
X147322747Y-106412069D01*
X147295916Y-106452522D01*
X147263634Y-106478862D01*
X147216349Y-106499553D01*
X147159218Y-106514421D01*
X147108126Y-106512540D01*
X147051971Y-106493025D01*
X147011300Y-106467820D01*
X146976801Y-106426629D01*
X146975443Y-106423901D01*
X146961986Y-106380921D01*
X146952755Y-106322292D01*
X146948367Y-106256751D01*
X146949438Y-106193035D01*
X146956583Y-106139881D01*
X146959937Y-106124709D01*
X146965026Y-106096921D01*
X146965313Y-106085906D01*
X146961411Y-106091569D01*
X146948285Y-106115774D01*
X146928446Y-106154640D01*
X146904375Y-106203381D01*
X146875089Y-106261621D01*
X146824525Y-106352270D01*
X146778499Y-106421412D01*
X146737713Y-106468044D01*
X146702870Y-106491164D01*
X146659675Y-106501375D01*
X146598326Y-106504728D01*
X146539670Y-106497720D01*
X146494173Y-106480866D01*
X146450287Y-106444556D01*
X146415555Y-106393524D01*
X146389557Y-106325874D01*
X146371727Y-106239620D01*
X146361501Y-106132775D01*
X146358314Y-106003356D01*
X146360098Y-105874702D01*
X146366141Y-105759853D01*
X146377261Y-105666484D01*
X146394278Y-105592694D01*
X146418009Y-105536582D01*
X146449276Y-105496248D01*
X146488897Y-105469791D01*
X146537691Y-105455310D01*
X146596479Y-105450906D01*
X146657696Y-105456288D01*
G37*
X143721314Y-105444465D02*
X143815796Y-105477129D01*
X143900167Y-105524778D01*
X143969795Y-105585188D01*
X144020051Y-105656132D01*
X144035341Y-105701007D01*
X144040861Y-105767745D01*
X144031887Y-105838105D01*
X144008839Y-105902846D01*
X143976787Y-105956182D01*
X143927776Y-106012155D01*
X143863107Y-106062764D01*
X143778015Y-106112333D01*
X143737847Y-106134008D01*
X143689383Y-106164278D01*
X143663718Y-106188311D01*
X143660148Y-106207540D01*
X143677968Y-106223396D01*
X143716471Y-106237311D01*
X143719096Y-106238020D01*
X143752039Y-106243069D01*
X143786723Y-106238628D01*
X143833487Y-106223472D01*
X143842720Y-106220088D01*
X143916406Y-106197896D01*
X143971520Y-106191733D01*
X144009325Y-106201899D01*
X144031082Y-106228698D01*
X144038053Y-106272432D01*
X144037961Y-106279531D01*
X144026181Y-106346010D01*
X143993983Y-106401625D01*
X143940404Y-106447221D01*
X143864479Y-106483645D01*
X143765246Y-106511742D01*
X143702183Y-106522661D01*
X143587151Y-106525940D01*
X143476325Y-106505473D01*
X143365209Y-106460685D01*
X143306568Y-106426536D01*
X143238346Y-106368974D01*
X143194001Y-106304414D01*
X143173830Y-106233578D01*
X143178132Y-106157191D01*
X143207202Y-106075976D01*
X143222821Y-106047545D01*
X143246707Y-106014481D01*
X143278073Y-105983016D01*
X143320733Y-105949918D01*
X143378501Y-105911957D01*
X143455191Y-105865902D01*
X143496681Y-105841065D01*
X143542021Y-105812524D01*
X143575732Y-105789669D01*
X143592582Y-105775926D01*
X143592936Y-105775487D01*
X143602360Y-105749986D01*
X143603945Y-105715260D01*
X143598637Y-105687056D01*
X143584542Y-105674234D01*
X143553357Y-105669278D01*
X143527987Y-105668460D01*
X143508100Y-105675193D01*
X143497880Y-105694678D01*
X143494048Y-105706122D01*
X143472369Y-105743116D01*
X143438301Y-105762681D01*
X143386419Y-105768406D01*
X143362042Y-105767891D01*
X143330867Y-105762500D01*
X143305123Y-105747194D01*
X143274087Y-105717071D01*
X143248115Y-105687094D01*
X143228355Y-105650706D01*
X143228736Y-105616498D01*
X143249760Y-105579314D01*
X143291928Y-105533999D01*
X143308342Y-105518656D01*
X143357138Y-105480815D01*
X143408504Y-105455421D01*
X143469980Y-105439419D01*
X143549103Y-105429752D01*
X143621351Y-105429013D01*
X143721314Y-105444465D01*
G36*
X143721314Y-105444465D02*
G01*
X143815796Y-105477129D01*
X143900167Y-105524778D01*
X143969795Y-105585188D01*
X144020051Y-105656132D01*
X144035341Y-105701007D01*
X144040861Y-105767745D01*
X144031887Y-105838105D01*
X144008839Y-105902846D01*
X143976787Y-105956182D01*
X143927776Y-106012155D01*
X143863107Y-106062764D01*
X143778015Y-106112333D01*
X143737847Y-106134008D01*
X143689383Y-106164278D01*
X143663718Y-106188311D01*
X143660148Y-106207540D01*
X143677968Y-106223396D01*
X143716471Y-106237311D01*
X143719096Y-106238020D01*
X143752039Y-106243069D01*
X143786723Y-106238628D01*
X143833487Y-106223472D01*
X143842720Y-106220088D01*
X143916406Y-106197896D01*
X143971520Y-106191733D01*
X144009325Y-106201899D01*
X144031082Y-106228698D01*
X144038053Y-106272432D01*
X144037961Y-106279531D01*
X144026181Y-106346010D01*
X143993983Y-106401625D01*
X143940404Y-106447221D01*
X143864479Y-106483645D01*
X143765246Y-106511742D01*
X143702183Y-106522661D01*
X143587151Y-106525940D01*
X143476325Y-106505473D01*
X143365209Y-106460685D01*
X143306568Y-106426536D01*
X143238346Y-106368974D01*
X143194001Y-106304414D01*
X143173830Y-106233578D01*
X143178132Y-106157191D01*
X143207202Y-106075976D01*
X143222821Y-106047545D01*
X143246707Y-106014481D01*
X143278073Y-105983016D01*
X143320733Y-105949918D01*
X143378501Y-105911957D01*
X143455191Y-105865902D01*
X143496681Y-105841065D01*
X143542021Y-105812524D01*
X143575732Y-105789669D01*
X143592582Y-105775926D01*
X143592936Y-105775487D01*
X143602360Y-105749986D01*
X143603945Y-105715260D01*
X143598637Y-105687056D01*
X143584542Y-105674234D01*
X143553357Y-105669278D01*
X143527987Y-105668460D01*
X143508100Y-105675193D01*
X143497880Y-105694678D01*
X143494048Y-105706122D01*
X143472369Y-105743116D01*
X143438301Y-105762681D01*
X143386419Y-105768406D01*
X143362042Y-105767891D01*
X143330867Y-105762500D01*
X143305123Y-105747194D01*
X143274087Y-105717071D01*
X143248115Y-105687094D01*
X143228355Y-105650706D01*
X143228736Y-105616498D01*
X143249760Y-105579314D01*
X143291928Y-105533999D01*
X143308342Y-105518656D01*
X143357138Y-105480815D01*
X143408504Y-105455421D01*
X143469980Y-105439419D01*
X143549103Y-105429752D01*
X143621351Y-105429013D01*
X143721314Y-105444465D01*
G37*
X150661470Y-98244740D02*
X150614360Y-98314599D01*
X150559494Y-98394986D01*
X150498375Y-98483667D01*
X150432503Y-98578404D01*
X150394395Y-98633158D01*
X150330991Y-98725087D01*
X150273210Y-98809904D01*
X150222558Y-98885337D01*
X150180540Y-98949115D01*
X150148663Y-98998964D01*
X150128432Y-99032615D01*
X150121353Y-99047793D01*
X150121358Y-99047939D01*
X150126486Y-99064261D01*
X150140306Y-99100333D01*
X150161367Y-99152741D01*
X150188216Y-99218066D01*
X150219404Y-99292894D01*
X150253478Y-99373807D01*
X150288987Y-99457389D01*
X150324480Y-99540223D01*
X150358506Y-99618893D01*
X150389613Y-99689983D01*
X150416350Y-99750075D01*
X150437266Y-99795754D01*
X150450910Y-99823602D01*
X150453056Y-99827425D01*
X150459075Y-99835563D01*
X150468287Y-99843043D01*
X150482873Y-99850376D01*
X150505015Y-99858075D01*
X150536895Y-99866650D01*
X150580692Y-99876612D01*
X150638590Y-99888472D01*
X150712768Y-99902742D01*
X150805409Y-99919932D01*
X150918694Y-99940555D01*
X151054803Y-99965120D01*
X151138431Y-99980275D01*
X151258053Y-100002388D01*
X151355325Y-100021046D01*
X151431948Y-100036617D01*
X151489624Y-100049466D01*
X151530054Y-100059961D01*
X151554938Y-100068468D01*
X151565978Y-100075355D01*
X151566387Y-100075945D01*
X151570438Y-100088561D01*
X151573779Y-100113781D01*
X151576463Y-100153432D01*
X151578543Y-100209343D01*
X151580069Y-100283339D01*
X151581095Y-100377251D01*
X151581673Y-100492904D01*
X151581853Y-100632128D01*
X151581822Y-100712026D01*
X151581590Y-100831058D01*
X151581063Y-100928221D01*
X151580165Y-101005753D01*
X151578817Y-101065889D01*
X151576942Y-101110864D01*
X151574461Y-101142914D01*
X151571296Y-101164275D01*
X151567370Y-101177182D01*
X151562604Y-101183871D01*
X151559455Y-101185440D01*
X151534774Y-101192585D01*
X151488843Y-101203372D01*
X151424428Y-101217231D01*
X151344298Y-101233593D01*
X151251219Y-101251889D01*
X151147960Y-101271548D01*
X151037287Y-101292002D01*
X150997722Y-101299234D01*
X150888968Y-101319398D01*
X150788365Y-101338461D01*
X150698722Y-101355863D01*
X150622849Y-101371045D01*
X150563554Y-101383449D01*
X150523647Y-101392516D01*
X150505937Y-101397688D01*
X150495356Y-101409778D01*
X150476872Y-101442519D01*
X150451079Y-101496238D01*
X150417644Y-101571663D01*
X150376235Y-101669519D01*
X150326520Y-101790534D01*
X150309894Y-101831442D01*
X150266090Y-101939221D01*
X150230717Y-102026553D01*
X150202979Y-102095773D01*
X150182079Y-102149216D01*
X150167221Y-102189214D01*
X150157609Y-102218104D01*
X150152447Y-102238218D01*
X150150938Y-102251892D01*
X150152285Y-102261459D01*
X150155694Y-102269254D01*
X150160366Y-102277611D01*
X150161045Y-102278810D01*
X150173621Y-102298308D01*
X150198839Y-102335773D01*
X150235003Y-102388738D01*
X150280416Y-102454736D01*
X150333382Y-102531302D01*
X150392205Y-102615969D01*
X150455188Y-102706270D01*
X150465458Y-102720977D01*
X150527477Y-102810249D01*
X150584675Y-102893343D01*
X150635415Y-102967828D01*
X150678063Y-103031274D01*
X150710981Y-103081251D01*
X150732536Y-103115329D01*
X150741091Y-103131077D01*
X150740826Y-103136345D01*
X150733934Y-103150186D01*
X150717875Y-103171720D01*
X150691330Y-103202351D01*
X150652979Y-103243480D01*
X150601503Y-103296508D01*
X150535581Y-103362837D01*
X150453894Y-103443868D01*
X150355123Y-103541003D01*
X150303077Y-103591856D01*
X150222830Y-103669540D01*
X150148828Y-103740309D01*
X150083035Y-103802331D01*
X150027416Y-103853780D01*
X149983935Y-103892826D01*
X149954555Y-103917639D01*
X149941242Y-103926390D01*
X149939066Y-103925913D01*
X149918400Y-103915462D01*
X149879624Y-103892430D01*
X149824949Y-103858268D01*
X149756584Y-103814423D01*
X149676741Y-103762344D01*
X149587630Y-103703482D01*
X149491460Y-103639283D01*
X149390443Y-103571198D01*
X149286789Y-103500676D01*
X149182708Y-103429165D01*
X149151572Y-103408363D01*
X149106990Y-103381067D01*
X149071547Y-103362352D01*
X149050939Y-103355406D01*
X149036994Y-103359208D01*
X149002888Y-103373277D01*
X148954018Y-103395878D01*
X148894573Y-103425060D01*
X148828742Y-103458874D01*
X148779582Y-103484364D01*
X148710775Y-103518456D01*
X148661186Y-103540451D01*
X148629227Y-103551026D01*
X148613312Y-103550859D01*
X148612396Y-103550050D01*
X148601613Y-103532170D01*
X148582982Y-103494324D01*
X148557899Y-103439615D01*
X148527759Y-103371142D01*
X148493955Y-103292007D01*
X148457883Y-103205310D01*
X148320659Y-102871243D01*
X148481231Y-102751082D01*
X148544155Y-102702157D01*
X148718719Y-102545760D01*
X148880396Y-102369384D01*
X149027323Y-102175412D01*
X149157634Y-101966226D01*
X149269463Y-101744209D01*
X149337919Y-101580396D01*
X149403690Y-101388923D01*
X149450931Y-101202209D01*
X149480945Y-101014928D01*
X149495034Y-100821756D01*
X149496130Y-100786289D01*
X149497532Y-100708562D01*
X149496482Y-100645502D01*
X149492526Y-100589406D01*
X149485207Y-100532571D01*
X149474071Y-100467295D01*
X149469524Y-100443519D01*
X149421426Y-100263311D01*
X149351351Y-100095490D01*
X149258911Y-99939106D01*
X149217011Y-99880409D01*
X149169588Y-99818853D01*
X149124701Y-99765262D01*
X149085253Y-99722919D01*
X149054147Y-99695106D01*
X149034285Y-99685106D01*
X149033163Y-99685315D01*
X149017356Y-99697296D01*
X148989959Y-99724993D01*
X148954504Y-99764652D01*
X148914522Y-99812515D01*
X148811342Y-99939925D01*
X148850823Y-99984892D01*
X148900370Y-100047658D01*
X148942159Y-100121872D01*
X148960689Y-100190787D01*
X148962565Y-100223614D01*
X148958013Y-100252294D01*
X148943988Y-100283611D01*
X148917670Y-100326456D01*
X148915226Y-100330223D01*
X148891483Y-100364921D01*
X148869754Y-100389530D01*
X148843626Y-100408896D01*
X148806687Y-100427866D01*
X148752525Y-100451289D01*
X148751921Y-100451542D01*
X148659831Y-100484863D01*
X148560812Y-100509793D01*
X148451334Y-100526733D01*
X148327865Y-100536081D01*
X148186876Y-100538236D01*
X148024835Y-100533599D01*
X147757974Y-100521464D01*
X147560036Y-100726024D01*
X147530793Y-100756152D01*
X147476359Y-100811703D01*
X147429302Y-100859029D01*
X147392173Y-100895603D01*
X147367521Y-100918896D01*
X147357897Y-100926382D01*
X147359011Y-100914243D01*
X147364902Y-100881102D01*
X147374842Y-100830969D01*
X147388042Y-100767819D01*
X147403713Y-100695627D01*
X147418487Y-100626760D01*
X147431509Y-100561907D01*
X147441093Y-100509426D01*
X147446488Y-100473445D01*
X147446943Y-100458090D01*
X147439295Y-100448941D01*
X147429450Y-100445924D01*
X147416742Y-100451606D01*
X147399966Y-100467664D01*
X147377916Y-100495773D01*
X147349385Y-100537608D01*
X147313168Y-100594846D01*
X147268059Y-100669162D01*
X147212850Y-100762231D01*
X147146337Y-100875731D01*
X147102813Y-100950251D01*
X147037997Y-101061118D01*
X146984362Y-101152622D01*
X146940898Y-101226396D01*
X146906597Y-101284072D01*
X146880451Y-101327283D01*
X146861450Y-101357662D01*
X146848585Y-101376840D01*
X146840849Y-101386451D01*
X146837231Y-101388128D01*
X146836724Y-101383501D01*
X146838318Y-101374206D01*
X146842499Y-101354822D01*
X146851491Y-101313626D01*
X146864636Y-101253612D01*
X146881277Y-101177774D01*
X146900758Y-101089107D01*
X146922421Y-100990602D01*
X146945609Y-100885256D01*
X146968378Y-100781649D01*
X146990270Y-100681609D01*
X147010048Y-100590816D01*
X147027036Y-100512382D01*
X147040561Y-100449416D01*
X147049949Y-100405030D01*
X147054528Y-100382334D01*
X147062766Y-100336613D01*
X146988685Y-100307170D01*
X146925433Y-100280941D01*
X146793547Y-100218729D01*
X146673219Y-100151608D01*
X146566323Y-100081138D01*
X146474734Y-100008880D01*
X146461686Y-99996169D01*
X147774117Y-99996169D01*
X147794944Y-100031425D01*
X147801443Y-100040956D01*
X147830141Y-100072135D01*
X147865380Y-100101062D01*
X147886258Y-100114490D01*
X147911241Y-100125924D01*
X147941631Y-100133063D01*
X147984093Y-100137359D01*
X148045290Y-100140264D01*
X148175591Y-100145088D01*
X148220390Y-100102422D01*
X148221923Y-100100944D01*
X148242318Y-100080311D01*
X148277694Y-100043629D01*
X148326642Y-99992397D01*
X148387753Y-99928118D01*
X148459616Y-99852291D01*
X148540823Y-99766418D01*
X148629965Y-99672000D01*
X148725631Y-99570538D01*
X148826413Y-99463532D01*
X148930901Y-99352484D01*
X149037686Y-99238895D01*
X149145358Y-99124265D01*
X149252509Y-99010096D01*
X149357728Y-98897888D01*
X149459607Y-98789143D01*
X149556736Y-98685361D01*
X149647706Y-98588044D01*
X149731108Y-98498691D01*
X149805531Y-98418806D01*
X149869567Y-98349887D01*
X149921807Y-98293436D01*
X149960840Y-98250955D01*
X149985258Y-98223943D01*
X149993652Y-98213903D01*
X149989828Y-98207208D01*
X149969663Y-98187306D01*
X149936911Y-98160087D01*
X149896931Y-98129472D01*
X149855078Y-98099385D01*
X149816707Y-98073745D01*
X149787176Y-98056476D01*
X149771841Y-98051499D01*
X149771432Y-98051731D01*
X149758092Y-98063378D01*
X149727950Y-98091527D01*
X149682196Y-98135025D01*
X149622019Y-98192722D01*
X149548609Y-98263465D01*
X149463154Y-98346104D01*
X149366844Y-98439486D01*
X149260869Y-98542459D01*
X149146418Y-98653873D01*
X149024680Y-98772576D01*
X148896845Y-98897415D01*
X148764101Y-99027240D01*
X147774117Y-99996169D01*
X146461686Y-99996169D01*
X146400326Y-99936392D01*
X146344973Y-99865235D01*
X146310551Y-99796968D01*
X146298932Y-99733153D01*
X146299839Y-99714367D01*
X146318445Y-99645181D01*
X146360643Y-99583924D01*
X146425917Y-99530876D01*
X146513748Y-99486314D01*
X146623618Y-99450517D01*
X146755010Y-99423763D01*
X146907405Y-99406330D01*
X146940625Y-99404159D01*
X147066245Y-99401661D01*
X147207473Y-99406186D01*
X147357691Y-99417161D01*
X147510282Y-99434017D01*
X147658627Y-99456181D01*
X147796110Y-99483081D01*
X147812391Y-99486223D01*
X147844652Y-99489086D01*
X147861996Y-99485589D01*
X147866369Y-99480907D01*
X147886645Y-99457265D01*
X147915743Y-99421860D01*
X147950109Y-99379186D01*
X147986193Y-99333736D01*
X148020441Y-99290004D01*
X148049302Y-99252482D01*
X148069224Y-99225665D01*
X148076653Y-99214047D01*
X148073334Y-99209969D01*
X148048714Y-99199322D01*
X148001459Y-99185381D01*
X147933192Y-99168561D01*
X147845532Y-99149276D01*
X147740103Y-99127942D01*
X147669654Y-99114336D01*
X147565845Y-99095253D01*
X147477459Y-99080815D01*
X147398602Y-99070402D01*
X147323385Y-99063396D01*
X147245915Y-99059179D01*
X147160302Y-99057134D01*
X147060653Y-99056641D01*
X146996428Y-99056737D01*
X146922359Y-99057325D01*
X146863782Y-99058993D01*
X146814870Y-99062349D01*
X146769798Y-99068001D01*
X146722738Y-99076557D01*
X146667864Y-99088627D01*
X146599350Y-99104819D01*
X146579091Y-99109692D01*
X146497334Y-99130507D01*
X146431083Y-99150150D01*
X146372528Y-99171392D01*
X146313857Y-99197006D01*
X146247257Y-99229763D01*
X146213346Y-99247529D01*
X146071821Y-99334751D01*
X145946713Y-99435936D01*
X145833897Y-99554788D01*
X145729249Y-99695012D01*
X145693934Y-99748950D01*
X145635310Y-99846872D01*
X145586516Y-99942815D01*
X145543151Y-100045832D01*
X145500816Y-100164972D01*
X145499455Y-100169074D01*
X145474423Y-100248939D01*
X145454192Y-100324446D01*
X145437632Y-100401543D01*
X145423609Y-100486179D01*
X145410992Y-100584302D01*
X145398648Y-100701863D01*
X145396543Y-100723664D01*
X145388808Y-100809848D01*
X145384020Y-100880667D01*
X145382065Y-100944195D01*
X145382830Y-101008505D01*
X145386202Y-101081670D01*
X145392068Y-101171763D01*
X145406401Y-101326335D01*
X145434221Y-101506082D01*
X145474660Y-101675849D01*
X145529606Y-101843271D01*
X145600949Y-102015981D01*
X145664704Y-102148510D01*
X145765591Y-102325371D01*
X145876692Y-102482479D01*
X146000382Y-102622740D01*
X146139039Y-102749057D01*
X146295039Y-102864336D01*
X146335571Y-102892078D01*
X146375311Y-102920774D01*
X146402399Y-102942140D01*
X146412514Y-102952918D01*
X146410246Y-102962419D01*
X146399488Y-102992994D01*
X146381390Y-103040032D01*
X146357626Y-103099542D01*
X146329866Y-103167534D01*
X146299783Y-103240019D01*
X146269047Y-103313007D01*
X146239331Y-103382508D01*
X146212306Y-103444532D01*
X146189644Y-103495088D01*
X146173017Y-103530188D01*
X146164095Y-103545841D01*
X146160504Y-103548919D01*
X146150003Y-103552455D01*
X146133477Y-103550271D01*
X146107666Y-103541089D01*
X146069309Y-103523631D01*
X146015146Y-103496620D01*
X145941916Y-103458778D01*
X145928696Y-103451914D01*
X145844164Y-103409430D01*
X145779180Y-103379519D01*
X145734413Y-103362471D01*
X145710530Y-103358575D01*
X145708183Y-103359400D01*
X145686728Y-103371108D01*
X145647373Y-103395170D01*
X145592551Y-103430011D01*
X145524695Y-103474057D01*
X145446237Y-103525731D01*
X145359611Y-103583458D01*
X145267248Y-103645662D01*
X145241438Y-103663107D01*
X145150878Y-103723893D01*
X145067020Y-103779535D01*
X144992242Y-103828499D01*
X144928918Y-103869251D01*
X144879426Y-103900259D01*
X144846143Y-103919988D01*
X144831443Y-103926906D01*
X144825400Y-103923237D01*
X144802660Y-103904257D01*
X144765664Y-103871073D01*
X144716711Y-103825905D01*
X144658104Y-103770976D01*
X144592143Y-103708505D01*
X144521130Y-103640714D01*
X144447366Y-103569824D01*
X144373151Y-103498054D01*
X144300787Y-103427627D01*
X144232576Y-103360763D01*
X144170817Y-103299683D01*
X144117814Y-103246607D01*
X144075866Y-103203757D01*
X144047275Y-103173354D01*
X144034342Y-103157618D01*
X144033389Y-103155904D01*
X144030649Y-103149313D01*
X144030273Y-103141222D01*
X144033482Y-103129702D01*
X144041494Y-103112820D01*
X144055530Y-103088645D01*
X144076810Y-103055247D01*
X144106552Y-103010694D01*
X144145977Y-102953054D01*
X144196305Y-102880397D01*
X144258756Y-102790791D01*
X144334548Y-102682306D01*
X144344960Y-102667396D01*
X144406962Y-102578043D01*
X144464073Y-102494804D01*
X144514666Y-102420118D01*
X144557113Y-102356422D01*
X144589786Y-102306156D01*
X144611059Y-102271758D01*
X144619303Y-102255666D01*
X144616666Y-102240918D01*
X144605508Y-102205199D01*
X144586974Y-102152451D01*
X144562409Y-102086036D01*
X144533158Y-102009315D01*
X144500566Y-101925650D01*
X144465976Y-101838401D01*
X144430734Y-101750931D01*
X144396184Y-101666601D01*
X144363671Y-101588771D01*
X144334540Y-101520805D01*
X144310136Y-101466062D01*
X144291802Y-101427904D01*
X144280884Y-101409694D01*
X144275032Y-101405718D01*
X144253637Y-101397536D01*
X144216505Y-101387293D01*
X144162081Y-101374655D01*
X144088809Y-101359287D01*
X143995132Y-101340856D01*
X143879495Y-101319025D01*
X143740342Y-101293461D01*
X143671642Y-101280923D01*
X143549808Y-101258388D01*
X143450053Y-101239420D01*
X143370387Y-101223585D01*
X143308821Y-101210446D01*
X143263365Y-101199571D01*
X143232030Y-101190523D01*
X143212827Y-101182868D01*
X143203767Y-101176171D01*
X143202555Y-101174174D01*
X143198435Y-101160480D01*
X143195072Y-101135631D01*
X143192405Y-101097594D01*
X143190372Y-101044333D01*
X143188909Y-100973813D01*
X143187956Y-100883999D01*
X143187449Y-100772858D01*
X143187327Y-100638353D01*
X143187364Y-100597730D01*
X143187710Y-100486991D01*
X143188380Y-100384429D01*
X143189332Y-100292916D01*
X143190526Y-100215321D01*
X143191919Y-100154515D01*
X143193470Y-100113369D01*
X143195139Y-100094752D01*
X143197270Y-100087562D01*
X143201325Y-100079566D01*
X143208915Y-100072240D01*
X143222186Y-100065067D01*
X143243284Y-100057527D01*
X143274356Y-100049103D01*
X143317547Y-100039275D01*
X143375003Y-100027525D01*
X143448871Y-100013336D01*
X143541296Y-99996187D01*
X143654425Y-99975562D01*
X143790403Y-99950940D01*
X143823414Y-99944955D01*
X143954995Y-99920736D01*
X144063286Y-99900113D01*
X144149751Y-99882770D01*
X144215854Y-99868392D01*
X144263061Y-99856665D01*
X144292836Y-99847274D01*
X144306645Y-99839903D01*
X144310621Y-99834159D01*
X144325255Y-99806786D01*
X144347785Y-99760576D01*
X144376821Y-99698517D01*
X144410976Y-99623600D01*
X144448860Y-99538813D01*
X144489086Y-99447146D01*
X144505507Y-99409293D01*
X144552125Y-99300405D01*
X144588625Y-99212508D01*
X144615586Y-99144098D01*
X144633584Y-99093670D01*
X144643197Y-99059721D01*
X144645002Y-99040746D01*
X144643422Y-99036161D01*
X144629801Y-99010970D01*
X144603675Y-98968404D01*
X144566627Y-98910869D01*
X144520241Y-98840767D01*
X144466100Y-98760501D01*
X144405787Y-98672475D01*
X144340886Y-98579094D01*
X144314435Y-98541257D01*
X144251145Y-98450385D01*
X144192919Y-98366308D01*
X144141349Y-98291356D01*
X144098027Y-98227859D01*
X144064545Y-98178145D01*
X144042496Y-98144545D01*
X144033473Y-98129387D01*
X144033319Y-98121779D01*
X144040721Y-98105930D01*
X144058310Y-98081845D01*
X144087713Y-98047655D01*
X144130560Y-98001488D01*
X144188479Y-97941477D01*
X144263097Y-97865751D01*
X144280175Y-97848543D01*
X144407060Y-97721588D01*
X144517247Y-97613073D01*
X144611080Y-97522683D01*
X144688902Y-97450102D01*
X144751058Y-97395017D01*
X144797893Y-97357112D01*
X144829750Y-97336072D01*
X144846974Y-97331582D01*
X144852138Y-97334071D01*
X144872094Y-97345864D01*
X144906103Y-97367410D01*
X144955028Y-97399282D01*
X145019732Y-97442056D01*
X145101079Y-97496306D01*
X145199933Y-97562607D01*
X145317155Y-97641533D01*
X145453609Y-97733658D01*
X145610159Y-97839558D01*
X145622889Y-97848118D01*
X145683727Y-97887328D01*
X145735675Y-97918031D01*
X145774873Y-97938049D01*
X145797463Y-97945206D01*
X145800374Y-97944935D01*
X145825950Y-97938115D01*
X145870276Y-97923177D01*
X145929810Y-97901545D01*
X146001008Y-97874641D01*
X146080328Y-97843889D01*
X146164226Y-97810711D01*
X146249159Y-97776531D01*
X146331583Y-97742771D01*
X146407956Y-97710855D01*
X146474734Y-97682206D01*
X146528374Y-97658247D01*
X146565332Y-97640400D01*
X146582067Y-97630089D01*
X146588048Y-97616215D01*
X146598815Y-97577798D01*
X146613341Y-97516730D01*
X146631343Y-97434303D01*
X146652544Y-97331806D01*
X146676660Y-97210530D01*
X146703414Y-97071766D01*
X146716589Y-97002734D01*
X146737645Y-96893388D01*
X146757158Y-96793244D01*
X146774603Y-96704929D01*
X146789454Y-96631069D01*
X146801187Y-96574292D01*
X146809277Y-96537224D01*
X146813198Y-96522491D01*
X146813275Y-96522387D01*
X146828599Y-96519287D01*
X146868063Y-96516592D01*
X146930447Y-96514327D01*
X147014532Y-96512520D01*
X147119100Y-96511196D01*
X147242931Y-96510383D01*
X147384806Y-96510106D01*
X147480249Y-96510130D01*
X147598852Y-96510292D01*
X147695821Y-96510682D01*
X147773386Y-96511385D01*
X147833777Y-96512489D01*
X147879224Y-96514079D01*
X147911957Y-96516240D01*
X147934207Y-96519060D01*
X147948203Y-96522624D01*
X147956175Y-96527019D01*
X147960353Y-96532331D01*
X147962043Y-96537300D01*
X147968791Y-96564967D01*
X147979347Y-96613593D01*
X147993159Y-96680439D01*
X148009675Y-96762767D01*
X148028341Y-96857838D01*
X148048606Y-96962914D01*
X148069916Y-97075256D01*
X148079856Y-97127778D01*
X148100972Y-97237346D01*
X148120973Y-97338505D01*
X148139282Y-97428490D01*
X148155322Y-97504542D01*
X148168515Y-97563896D01*
X148178285Y-97603791D01*
X148184053Y-97621464D01*
X148186113Y-97623641D01*
X148207566Y-97636801D01*
X148248312Y-97657147D01*
X148304862Y-97683246D01*
X148373726Y-97713663D01*
X148451416Y-97746965D01*
X148534441Y-97781719D01*
X148619313Y-97816491D01*
X148702543Y-97849847D01*
X148780641Y-97880353D01*
X148850119Y-97906575D01*
X148907486Y-97927081D01*
X148949255Y-97940435D01*
X148971935Y-97945206D01*
X148979841Y-97943218D01*
X149010664Y-97928153D01*
X149061846Y-97898378D01*
X149133227Y-97853995D01*
X149224649Y-97795102D01*
X149335953Y-97721799D01*
X149466980Y-97634187D01*
X149532241Y-97590359D01*
X149638211Y-97519618D01*
X149725783Y-97461857D01*
X149796551Y-97416089D01*
X149852111Y-97381326D01*
X149894060Y-97356579D01*
X149923992Y-97340862D01*
X149943504Y-97333185D01*
X149954191Y-97332562D01*
X149963525Y-97338966D01*
X149989825Y-97361567D01*
X150029648Y-97398094D01*
X150080719Y-97446292D01*
X150140767Y-97503910D01*
X150207518Y-97568695D01*
X150278699Y-97638393D01*
X150352037Y-97710752D01*
X150425260Y-97783519D01*
X150496094Y-97854440D01*
X150562267Y-97921263D01*
X150621505Y-97981736D01*
X150671535Y-98033605D01*
X150710086Y-98074617D01*
X150734883Y-98102519D01*
X150743653Y-98115060D01*
X150741257Y-98120692D01*
X150726420Y-98145550D01*
X150699324Y-98187645D01*
X150681914Y-98213903D01*
X150661470Y-98244740D01*
G36*
X150661470Y-98244740D02*
G01*
X150614360Y-98314599D01*
X150559494Y-98394986D01*
X150498375Y-98483667D01*
X150432503Y-98578404D01*
X150394395Y-98633158D01*
X150330991Y-98725087D01*
X150273210Y-98809904D01*
X150222558Y-98885337D01*
X150180540Y-98949115D01*
X150148663Y-98998964D01*
X150128432Y-99032615D01*
X150121353Y-99047793D01*
X150121358Y-99047939D01*
X150126486Y-99064261D01*
X150140306Y-99100333D01*
X150161367Y-99152741D01*
X150188216Y-99218066D01*
X150219404Y-99292894D01*
X150253478Y-99373807D01*
X150288987Y-99457389D01*
X150324480Y-99540223D01*
X150358506Y-99618893D01*
X150389613Y-99689983D01*
X150416350Y-99750075D01*
X150437266Y-99795754D01*
X150450910Y-99823602D01*
X150453056Y-99827425D01*
X150459075Y-99835563D01*
X150468287Y-99843043D01*
X150482873Y-99850376D01*
X150505015Y-99858075D01*
X150536895Y-99866650D01*
X150580692Y-99876612D01*
X150638590Y-99888472D01*
X150712768Y-99902742D01*
X150805409Y-99919932D01*
X150918694Y-99940555D01*
X151054803Y-99965120D01*
X151138431Y-99980275D01*
X151258053Y-100002388D01*
X151355325Y-100021046D01*
X151431948Y-100036617D01*
X151489624Y-100049466D01*
X151530054Y-100059961D01*
X151554938Y-100068468D01*
X151565978Y-100075355D01*
X151566387Y-100075945D01*
X151570438Y-100088561D01*
X151573779Y-100113781D01*
X151576463Y-100153432D01*
X151578543Y-100209343D01*
X151580069Y-100283339D01*
X151581095Y-100377251D01*
X151581673Y-100492904D01*
X151581853Y-100632128D01*
X151581822Y-100712026D01*
X151581590Y-100831058D01*
X151581063Y-100928221D01*
X151580165Y-101005753D01*
X151578817Y-101065889D01*
X151576942Y-101110864D01*
X151574461Y-101142914D01*
X151571296Y-101164275D01*
X151567370Y-101177182D01*
X151562604Y-101183871D01*
X151559455Y-101185440D01*
X151534774Y-101192585D01*
X151488843Y-101203372D01*
X151424428Y-101217231D01*
X151344298Y-101233593D01*
X151251219Y-101251889D01*
X151147960Y-101271548D01*
X151037287Y-101292002D01*
X150997722Y-101299234D01*
X150888968Y-101319398D01*
X150788365Y-101338461D01*
X150698722Y-101355863D01*
X150622849Y-101371045D01*
X150563554Y-101383449D01*
X150523647Y-101392516D01*
X150505937Y-101397688D01*
X150495356Y-101409778D01*
X150476872Y-101442519D01*
X150451079Y-101496238D01*
X150417644Y-101571663D01*
X150376235Y-101669519D01*
X150326520Y-101790534D01*
X150309894Y-101831442D01*
X150266090Y-101939221D01*
X150230717Y-102026553D01*
X150202979Y-102095773D01*
X150182079Y-102149216D01*
X150167221Y-102189214D01*
X150157609Y-102218104D01*
X150152447Y-102238218D01*
X150150938Y-102251892D01*
X150152285Y-102261459D01*
X150155694Y-102269254D01*
X150160366Y-102277611D01*
X150161045Y-102278810D01*
X150173621Y-102298308D01*
X150198839Y-102335773D01*
X150235003Y-102388738D01*
X150280416Y-102454736D01*
X150333382Y-102531302D01*
X150392205Y-102615969D01*
X150455188Y-102706270D01*
X150465458Y-102720977D01*
X150527477Y-102810249D01*
X150584675Y-102893343D01*
X150635415Y-102967828D01*
X150678063Y-103031274D01*
X150710981Y-103081251D01*
X150732536Y-103115329D01*
X150741091Y-103131077D01*
X150740826Y-103136345D01*
X150733934Y-103150186D01*
X150717875Y-103171720D01*
X150691330Y-103202351D01*
X150652979Y-103243480D01*
X150601503Y-103296508D01*
X150535581Y-103362837D01*
X150453894Y-103443868D01*
X150355123Y-103541003D01*
X150303077Y-103591856D01*
X150222830Y-103669540D01*
X150148828Y-103740309D01*
X150083035Y-103802331D01*
X150027416Y-103853780D01*
X149983935Y-103892826D01*
X149954555Y-103917639D01*
X149941242Y-103926390D01*
X149939066Y-103925913D01*
X149918400Y-103915462D01*
X149879624Y-103892430D01*
X149824949Y-103858268D01*
X149756584Y-103814423D01*
X149676741Y-103762344D01*
X149587630Y-103703482D01*
X149491460Y-103639283D01*
X149390443Y-103571198D01*
X149286789Y-103500676D01*
X149182708Y-103429165D01*
X149151572Y-103408363D01*
X149106990Y-103381067D01*
X149071547Y-103362352D01*
X149050939Y-103355406D01*
X149036994Y-103359208D01*
X149002888Y-103373277D01*
X148954018Y-103395878D01*
X148894573Y-103425060D01*
X148828742Y-103458874D01*
X148779582Y-103484364D01*
X148710775Y-103518456D01*
X148661186Y-103540451D01*
X148629227Y-103551026D01*
X148613312Y-103550859D01*
X148612396Y-103550050D01*
X148601613Y-103532170D01*
X148582982Y-103494324D01*
X148557899Y-103439615D01*
X148527759Y-103371142D01*
X148493955Y-103292007D01*
X148457883Y-103205310D01*
X148320659Y-102871243D01*
X148481231Y-102751082D01*
X148544155Y-102702157D01*
X148718719Y-102545760D01*
X148880396Y-102369384D01*
X149027323Y-102175412D01*
X149157634Y-101966226D01*
X149269463Y-101744209D01*
X149337919Y-101580396D01*
X149403690Y-101388923D01*
X149450931Y-101202209D01*
X149480945Y-101014928D01*
X149495034Y-100821756D01*
X149496130Y-100786289D01*
X149497532Y-100708562D01*
X149496482Y-100645502D01*
X149492526Y-100589406D01*
X149485207Y-100532571D01*
X149474071Y-100467295D01*
X149469524Y-100443519D01*
X149421426Y-100263311D01*
X149351351Y-100095490D01*
X149258911Y-99939106D01*
X149217011Y-99880409D01*
X149169588Y-99818853D01*
X149124701Y-99765262D01*
X149085253Y-99722919D01*
X149054147Y-99695106D01*
X149034285Y-99685106D01*
X149033163Y-99685315D01*
X149017356Y-99697296D01*
X148989959Y-99724993D01*
X148954504Y-99764652D01*
X148914522Y-99812515D01*
X148811342Y-99939925D01*
X148850823Y-99984892D01*
X148900370Y-100047658D01*
X148942159Y-100121872D01*
X148960689Y-100190787D01*
X148962565Y-100223614D01*
X148958013Y-100252294D01*
X148943988Y-100283611D01*
X148917670Y-100326456D01*
X148915226Y-100330223D01*
X148891483Y-100364921D01*
X148869754Y-100389530D01*
X148843626Y-100408896D01*
X148806687Y-100427866D01*
X148752525Y-100451289D01*
X148751921Y-100451542D01*
X148659831Y-100484863D01*
X148560812Y-100509793D01*
X148451334Y-100526733D01*
X148327865Y-100536081D01*
X148186876Y-100538236D01*
X148024835Y-100533599D01*
X147757974Y-100521464D01*
X147560036Y-100726024D01*
X147530793Y-100756152D01*
X147476359Y-100811703D01*
X147429302Y-100859029D01*
X147392173Y-100895603D01*
X147367521Y-100918896D01*
X147357897Y-100926382D01*
X147359011Y-100914243D01*
X147364902Y-100881102D01*
X147374842Y-100830969D01*
X147388042Y-100767819D01*
X147403713Y-100695627D01*
X147418487Y-100626760D01*
X147431509Y-100561907D01*
X147441093Y-100509426D01*
X147446488Y-100473445D01*
X147446943Y-100458090D01*
X147439295Y-100448941D01*
X147429450Y-100445924D01*
X147416742Y-100451606D01*
X147399966Y-100467664D01*
X147377916Y-100495773D01*
X147349385Y-100537608D01*
X147313168Y-100594846D01*
X147268059Y-100669162D01*
X147212850Y-100762231D01*
X147146337Y-100875731D01*
X147102813Y-100950251D01*
X147037997Y-101061118D01*
X146984362Y-101152622D01*
X146940898Y-101226396D01*
X146906597Y-101284072D01*
X146880451Y-101327283D01*
X146861450Y-101357662D01*
X146848585Y-101376840D01*
X146840849Y-101386451D01*
X146837231Y-101388128D01*
X146836724Y-101383501D01*
X146838318Y-101374206D01*
X146842499Y-101354822D01*
X146851491Y-101313626D01*
X146864636Y-101253612D01*
X146881277Y-101177774D01*
X146900758Y-101089107D01*
X146922421Y-100990602D01*
X146945609Y-100885256D01*
X146968378Y-100781649D01*
X146990270Y-100681609D01*
X147010048Y-100590816D01*
X147027036Y-100512382D01*
X147040561Y-100449416D01*
X147049949Y-100405030D01*
X147054528Y-100382334D01*
X147062766Y-100336613D01*
X146988685Y-100307170D01*
X146925433Y-100280941D01*
X146793547Y-100218729D01*
X146673219Y-100151608D01*
X146566323Y-100081138D01*
X146474734Y-100008880D01*
X146461686Y-99996169D01*
X147774117Y-99996169D01*
X147794944Y-100031425D01*
X147801443Y-100040956D01*
X147830141Y-100072135D01*
X147865380Y-100101062D01*
X147886258Y-100114490D01*
X147911241Y-100125924D01*
X147941631Y-100133063D01*
X147984093Y-100137359D01*
X148045290Y-100140264D01*
X148175591Y-100145088D01*
X148220390Y-100102422D01*
X148221923Y-100100944D01*
X148242318Y-100080311D01*
X148277694Y-100043629D01*
X148326642Y-99992397D01*
X148387753Y-99928118D01*
X148459616Y-99852291D01*
X148540823Y-99766418D01*
X148629965Y-99672000D01*
X148725631Y-99570538D01*
X148826413Y-99463532D01*
X148930901Y-99352484D01*
X149037686Y-99238895D01*
X149145358Y-99124265D01*
X149252509Y-99010096D01*
X149357728Y-98897888D01*
X149459607Y-98789143D01*
X149556736Y-98685361D01*
X149647706Y-98588044D01*
X149731108Y-98498691D01*
X149805531Y-98418806D01*
X149869567Y-98349887D01*
X149921807Y-98293436D01*
X149960840Y-98250955D01*
X149985258Y-98223943D01*
X149993652Y-98213903D01*
X149989828Y-98207208D01*
X149969663Y-98187306D01*
X149936911Y-98160087D01*
X149896931Y-98129472D01*
X149855078Y-98099385D01*
X149816707Y-98073745D01*
X149787176Y-98056476D01*
X149771841Y-98051499D01*
X149771432Y-98051731D01*
X149758092Y-98063378D01*
X149727950Y-98091527D01*
X149682196Y-98135025D01*
X149622019Y-98192722D01*
X149548609Y-98263465D01*
X149463154Y-98346104D01*
X149366844Y-98439486D01*
X149260869Y-98542459D01*
X149146418Y-98653873D01*
X149024680Y-98772576D01*
X148896845Y-98897415D01*
X148764101Y-99027240D01*
X147774117Y-99996169D01*
X146461686Y-99996169D01*
X146400326Y-99936392D01*
X146344973Y-99865235D01*
X146310551Y-99796968D01*
X146298932Y-99733153D01*
X146299839Y-99714367D01*
X146318445Y-99645181D01*
X146360643Y-99583924D01*
X146425917Y-99530876D01*
X146513748Y-99486314D01*
X146623618Y-99450517D01*
X146755010Y-99423763D01*
X146907405Y-99406330D01*
X146940625Y-99404159D01*
X147066245Y-99401661D01*
X147207473Y-99406186D01*
X147357691Y-99417161D01*
X147510282Y-99434017D01*
X147658627Y-99456181D01*
X147796110Y-99483081D01*
X147812391Y-99486223D01*
X147844652Y-99489086D01*
X147861996Y-99485589D01*
X147866369Y-99480907D01*
X147886645Y-99457265D01*
X147915743Y-99421860D01*
X147950109Y-99379186D01*
X147986193Y-99333736D01*
X148020441Y-99290004D01*
X148049302Y-99252482D01*
X148069224Y-99225665D01*
X148076653Y-99214047D01*
X148073334Y-99209969D01*
X148048714Y-99199322D01*
X148001459Y-99185381D01*
X147933192Y-99168561D01*
X147845532Y-99149276D01*
X147740103Y-99127942D01*
X147669654Y-99114336D01*
X147565845Y-99095253D01*
X147477459Y-99080815D01*
X147398602Y-99070402D01*
X147323385Y-99063396D01*
X147245915Y-99059179D01*
X147160302Y-99057134D01*
X147060653Y-99056641D01*
X146996428Y-99056737D01*
X146922359Y-99057325D01*
X146863782Y-99058993D01*
X146814870Y-99062349D01*
X146769798Y-99068001D01*
X146722738Y-99076557D01*
X146667864Y-99088627D01*
X146599350Y-99104819D01*
X146579091Y-99109692D01*
X146497334Y-99130507D01*
X146431083Y-99150150D01*
X146372528Y-99171392D01*
X146313857Y-99197006D01*
X146247257Y-99229763D01*
X146213346Y-99247529D01*
X146071821Y-99334751D01*
X145946713Y-99435936D01*
X145833897Y-99554788D01*
X145729249Y-99695012D01*
X145693934Y-99748950D01*
X145635310Y-99846872D01*
X145586516Y-99942815D01*
X145543151Y-100045832D01*
X145500816Y-100164972D01*
X145499455Y-100169074D01*
X145474423Y-100248939D01*
X145454192Y-100324446D01*
X145437632Y-100401543D01*
X145423609Y-100486179D01*
X145410992Y-100584302D01*
X145398648Y-100701863D01*
X145396543Y-100723664D01*
X145388808Y-100809848D01*
X145384020Y-100880667D01*
X145382065Y-100944195D01*
X145382830Y-101008505D01*
X145386202Y-101081670D01*
X145392068Y-101171763D01*
X145406401Y-101326335D01*
X145434221Y-101506082D01*
X145474660Y-101675849D01*
X145529606Y-101843271D01*
X145600949Y-102015981D01*
X145664704Y-102148510D01*
X145765591Y-102325371D01*
X145876692Y-102482479D01*
X146000382Y-102622740D01*
X146139039Y-102749057D01*
X146295039Y-102864336D01*
X146335571Y-102892078D01*
X146375311Y-102920774D01*
X146402399Y-102942140D01*
X146412514Y-102952918D01*
X146410246Y-102962419D01*
X146399488Y-102992994D01*
X146381390Y-103040032D01*
X146357626Y-103099542D01*
X146329866Y-103167534D01*
X146299783Y-103240019D01*
X146269047Y-103313007D01*
X146239331Y-103382508D01*
X146212306Y-103444532D01*
X146189644Y-103495088D01*
X146173017Y-103530188D01*
X146164095Y-103545841D01*
X146160504Y-103548919D01*
X146150003Y-103552455D01*
X146133477Y-103550271D01*
X146107666Y-103541089D01*
X146069309Y-103523631D01*
X146015146Y-103496620D01*
X145941916Y-103458778D01*
X145928696Y-103451914D01*
X145844164Y-103409430D01*
X145779180Y-103379519D01*
X145734413Y-103362471D01*
X145710530Y-103358575D01*
X145708183Y-103359400D01*
X145686728Y-103371108D01*
X145647373Y-103395170D01*
X145592551Y-103430011D01*
X145524695Y-103474057D01*
X145446237Y-103525731D01*
X145359611Y-103583458D01*
X145267248Y-103645662D01*
X145241438Y-103663107D01*
X145150878Y-103723893D01*
X145067020Y-103779535D01*
X144992242Y-103828499D01*
X144928918Y-103869251D01*
X144879426Y-103900259D01*
X144846143Y-103919988D01*
X144831443Y-103926906D01*
X144825400Y-103923237D01*
X144802660Y-103904257D01*
X144765664Y-103871073D01*
X144716711Y-103825905D01*
X144658104Y-103770976D01*
X144592143Y-103708505D01*
X144521130Y-103640714D01*
X144447366Y-103569824D01*
X144373151Y-103498054D01*
X144300787Y-103427627D01*
X144232576Y-103360763D01*
X144170817Y-103299683D01*
X144117814Y-103246607D01*
X144075866Y-103203757D01*
X144047275Y-103173354D01*
X144034342Y-103157618D01*
X144033389Y-103155904D01*
X144030649Y-103149313D01*
X144030273Y-103141222D01*
X144033482Y-103129702D01*
X144041494Y-103112820D01*
X144055530Y-103088645D01*
X144076810Y-103055247D01*
X144106552Y-103010694D01*
X144145977Y-102953054D01*
X144196305Y-102880397D01*
X144258756Y-102790791D01*
X144334548Y-102682306D01*
X144344960Y-102667396D01*
X144406962Y-102578043D01*
X144464073Y-102494804D01*
X144514666Y-102420118D01*
X144557113Y-102356422D01*
X144589786Y-102306156D01*
X144611059Y-102271758D01*
X144619303Y-102255666D01*
X144616666Y-102240918D01*
X144605508Y-102205199D01*
X144586974Y-102152451D01*
X144562409Y-102086036D01*
X144533158Y-102009315D01*
X144500566Y-101925650D01*
X144465976Y-101838401D01*
X144430734Y-101750931D01*
X144396184Y-101666601D01*
X144363671Y-101588771D01*
X144334540Y-101520805D01*
X144310136Y-101466062D01*
X144291802Y-101427904D01*
X144280884Y-101409694D01*
X144275032Y-101405718D01*
X144253637Y-101397536D01*
X144216505Y-101387293D01*
X144162081Y-101374655D01*
X144088809Y-101359287D01*
X143995132Y-101340856D01*
X143879495Y-101319025D01*
X143740342Y-101293461D01*
X143671642Y-101280923D01*
X143549808Y-101258388D01*
X143450053Y-101239420D01*
X143370387Y-101223585D01*
X143308821Y-101210446D01*
X143263365Y-101199571D01*
X143232030Y-101190523D01*
X143212827Y-101182868D01*
X143203767Y-101176171D01*
X143202555Y-101174174D01*
X143198435Y-101160480D01*
X143195072Y-101135631D01*
X143192405Y-101097594D01*
X143190372Y-101044333D01*
X143188909Y-100973813D01*
X143187956Y-100883999D01*
X143187449Y-100772858D01*
X143187327Y-100638353D01*
X143187364Y-100597730D01*
X143187710Y-100486991D01*
X143188380Y-100384429D01*
X143189332Y-100292916D01*
X143190526Y-100215321D01*
X143191919Y-100154515D01*
X143193470Y-100113369D01*
X143195139Y-100094752D01*
X143197270Y-100087562D01*
X143201325Y-100079566D01*
X143208915Y-100072240D01*
X143222186Y-100065067D01*
X143243284Y-100057527D01*
X143274356Y-100049103D01*
X143317547Y-100039275D01*
X143375003Y-100027525D01*
X143448871Y-100013336D01*
X143541296Y-99996187D01*
X143654425Y-99975562D01*
X143790403Y-99950940D01*
X143823414Y-99944955D01*
X143954995Y-99920736D01*
X144063286Y-99900113D01*
X144149751Y-99882770D01*
X144215854Y-99868392D01*
X144263061Y-99856665D01*
X144292836Y-99847274D01*
X144306645Y-99839903D01*
X144310621Y-99834159D01*
X144325255Y-99806786D01*
X144347785Y-99760576D01*
X144376821Y-99698517D01*
X144410976Y-99623600D01*
X144448860Y-99538813D01*
X144489086Y-99447146D01*
X144505507Y-99409293D01*
X144552125Y-99300405D01*
X144588625Y-99212508D01*
X144615586Y-99144098D01*
X144633584Y-99093670D01*
X144643197Y-99059721D01*
X144645002Y-99040746D01*
X144643422Y-99036161D01*
X144629801Y-99010970D01*
X144603675Y-98968404D01*
X144566627Y-98910869D01*
X144520241Y-98840767D01*
X144466100Y-98760501D01*
X144405787Y-98672475D01*
X144340886Y-98579094D01*
X144314435Y-98541257D01*
X144251145Y-98450385D01*
X144192919Y-98366308D01*
X144141349Y-98291356D01*
X144098027Y-98227859D01*
X144064545Y-98178145D01*
X144042496Y-98144545D01*
X144033473Y-98129387D01*
X144033319Y-98121779D01*
X144040721Y-98105930D01*
X144058310Y-98081845D01*
X144087713Y-98047655D01*
X144130560Y-98001488D01*
X144188479Y-97941477D01*
X144263097Y-97865751D01*
X144280175Y-97848543D01*
X144407060Y-97721588D01*
X144517247Y-97613073D01*
X144611080Y-97522683D01*
X144688902Y-97450102D01*
X144751058Y-97395017D01*
X144797893Y-97357112D01*
X144829750Y-97336072D01*
X144846974Y-97331582D01*
X144852138Y-97334071D01*
X144872094Y-97345864D01*
X144906103Y-97367410D01*
X144955028Y-97399282D01*
X145019732Y-97442056D01*
X145101079Y-97496306D01*
X145199933Y-97562607D01*
X145317155Y-97641533D01*
X145453609Y-97733658D01*
X145610159Y-97839558D01*
X145622889Y-97848118D01*
X145683727Y-97887328D01*
X145735675Y-97918031D01*
X145774873Y-97938049D01*
X145797463Y-97945206D01*
X145800374Y-97944935D01*
X145825950Y-97938115D01*
X145870276Y-97923177D01*
X145929810Y-97901545D01*
X146001008Y-97874641D01*
X146080328Y-97843889D01*
X146164226Y-97810711D01*
X146249159Y-97776531D01*
X146331583Y-97742771D01*
X146407956Y-97710855D01*
X146474734Y-97682206D01*
X146528374Y-97658247D01*
X146565332Y-97640400D01*
X146582067Y-97630089D01*
X146588048Y-97616215D01*
X146598815Y-97577798D01*
X146613341Y-97516730D01*
X146631343Y-97434303D01*
X146652544Y-97331806D01*
X146676660Y-97210530D01*
X146703414Y-97071766D01*
X146716589Y-97002734D01*
X146737645Y-96893388D01*
X146757158Y-96793244D01*
X146774603Y-96704929D01*
X146789454Y-96631069D01*
X146801187Y-96574292D01*
X146809277Y-96537224D01*
X146813198Y-96522491D01*
X146813275Y-96522387D01*
X146828599Y-96519287D01*
X146868063Y-96516592D01*
X146930447Y-96514327D01*
X147014532Y-96512520D01*
X147119100Y-96511196D01*
X147242931Y-96510383D01*
X147384806Y-96510106D01*
X147480249Y-96510130D01*
X147598852Y-96510292D01*
X147695821Y-96510682D01*
X147773386Y-96511385D01*
X147833777Y-96512489D01*
X147879224Y-96514079D01*
X147911957Y-96516240D01*
X147934207Y-96519060D01*
X147948203Y-96522624D01*
X147956175Y-96527019D01*
X147960353Y-96532331D01*
X147962043Y-96537300D01*
X147968791Y-96564967D01*
X147979347Y-96613593D01*
X147993159Y-96680439D01*
X148009675Y-96762767D01*
X148028341Y-96857838D01*
X148048606Y-96962914D01*
X148069916Y-97075256D01*
X148079856Y-97127778D01*
X148100972Y-97237346D01*
X148120973Y-97338505D01*
X148139282Y-97428490D01*
X148155322Y-97504542D01*
X148168515Y-97563896D01*
X148178285Y-97603791D01*
X148184053Y-97621464D01*
X148186113Y-97623641D01*
X148207566Y-97636801D01*
X148248312Y-97657147D01*
X148304862Y-97683246D01*
X148373726Y-97713663D01*
X148451416Y-97746965D01*
X148534441Y-97781719D01*
X148619313Y-97816491D01*
X148702543Y-97849847D01*
X148780641Y-97880353D01*
X148850119Y-97906575D01*
X148907486Y-97927081D01*
X148949255Y-97940435D01*
X148971935Y-97945206D01*
X148979841Y-97943218D01*
X149010664Y-97928153D01*
X149061846Y-97898378D01*
X149133227Y-97853995D01*
X149224649Y-97795102D01*
X149335953Y-97721799D01*
X149466980Y-97634187D01*
X149532241Y-97590359D01*
X149638211Y-97519618D01*
X149725783Y-97461857D01*
X149796551Y-97416089D01*
X149852111Y-97381326D01*
X149894060Y-97356579D01*
X149923992Y-97340862D01*
X149943504Y-97333185D01*
X149954191Y-97332562D01*
X149963525Y-97338966D01*
X149989825Y-97361567D01*
X150029648Y-97398094D01*
X150080719Y-97446292D01*
X150140767Y-97503910D01*
X150207518Y-97568695D01*
X150278699Y-97638393D01*
X150352037Y-97710752D01*
X150425260Y-97783519D01*
X150496094Y-97854440D01*
X150562267Y-97921263D01*
X150621505Y-97981736D01*
X150671535Y-98033605D01*
X150710086Y-98074617D01*
X150734883Y-98102519D01*
X150743653Y-98115060D01*
X150741257Y-98120692D01*
X150726420Y-98145550D01*
X150699324Y-98187645D01*
X150681914Y-98213903D01*
X150661470Y-98244740D01*
G37*
%TD*%
D11*
%TO.C,J1*%
X132703500Y-102044500D03*
D12*
X127483500Y-102044500D03*
%TD*%
D11*
%TO.C,J2*%
X163182000Y-102171500D03*
D12*
X168402000Y-102171500D03*
%TD*%
D13*
%TO.C,C*%
X133228000Y-94297500D03*
X135128000Y-94297500D03*
%TD*%
D14*
%TO.C,R*%
X158612000Y-94297500D03*
X162052000Y-94297500D03*
%TD*%
D15*
%TO.C,REF\u002A\u002A*%
X135001000Y-109156500D03*
X134138418Y-110849412D03*
X131896689Y-108640984D03*
%TD*%
D16*
%TO.C,REF\u002A\u002A*%
X158799000Y-97091500D03*
X161749000Y-97091500D03*
%TD*%
D17*
%TO.C,D*%
X133174500Y-96964500D03*
X135049500Y-96964500D03*
%TD*%
D18*
%TO.C,BT1*%
X147320000Y-115225500D03*
X147320000Y-89625500D03*
%TD*%
M02*
