%TF.GenerationSoftware,KiCad,Pcbnew,9.0.9-9.0.9~ubuntu22.04.1*%
%TF.CreationDate,2026-05-23T16:30:55+07:00*%
%TF.ProjectId,peepsy_phycom,70656570-7379-45f7-9068-79636f6d2e6b,rev?*%
%TF.SameCoordinates,Original*%
%TF.FileFunction,Soldermask,Top*%
%TF.FilePolarity,Negative*%
%FSLAX46Y46*%
G04 Gerber Fmt 4.6, Leading zero omitted, Abs format (unit mm)*
G04 Created by KiCad (PCBNEW 9.0.9-9.0.9~ubuntu22.04.1) date 2026-05-23 16:30:55*
%MOMM*%
%LPD*%
G01*
G04 APERTURE LIST*
G04 Aperture macros list*
%AMRoundRect*
0 Rectangle with rounded corners*
0 $1 Rounding radius*
0 $2 $3 $4 $5 $6 $7 $8 $9 X,Y pos of 4 corners*
0 Add a 4 corners polygon primitive as box body*
4,1,4,$2,$3,$4,$5,$6,$7,$8,$9,$2,$3,0*
0 Add four circle primitives for the rounded corners*
1,1,$1+$1,$2,$3*
1,1,$1+$1,$4,$5*
1,1,$1+$1,$6,$7*
1,1,$1+$1,$8,$9*
0 Add four rect primitives between the rounded corners*
20,1,$1+$1,$2,$3,$4,$5,0*
20,1,$1+$1,$4,$5,$6,$7,0*
20,1,$1+$1,$6,$7,$8,$9,0*
20,1,$1+$1,$8,$9,$2,$3,0*%
G04 Aperture macros list end*
%ADD10C,0.150000*%
%ADD11C,0.180000*%
%ADD12C,0.600000*%
%ADD13C,0.010000*%
%ADD14C,0.000000*%
%ADD15R,4.200000X2.000000*%
%ADD16RoundRect,0.412500X0.412500X-1.087500X0.412500X1.087500X-0.412500X1.087500X-0.412500X-1.087500X0*%
%ADD17RoundRect,0.315385X0.559615X-0.504615X0.559615X0.504615X-0.559615X0.504615X-0.559615X-0.504615X0*%
%ADD18O,8.000000X3.200000*%
%ADD19O,8.000000X12.000000*%
%ADD20RoundRect,0.227000X0.227000X-0.735000X0.227000X0.735000X-0.227000X0.735000X-0.227000X-0.735000X0*%
%ADD21RoundRect,0.162500X0.162500X-0.799500X0.162500X0.799500X-0.162500X0.799500X-0.162500X-0.799500X0*%
%ADD22RoundRect,0.315385X0.504615X0.559615X-0.504615X0.559615X-0.504615X-0.559615X0.504615X-0.559615X0*%
%ADD23RoundRect,0.010000X-1.150000X0.900000X-1.150000X-0.900000X1.150000X-0.900000X1.150000X0.900000X0*%
%ADD24RoundRect,0.010000X-1.050000X0.750000X-1.050000X-0.750000X1.050000X-0.750000X1.050000X0.750000X0*%
%ADD25RoundRect,0.309434X-0.510566X-0.590566X0.510566X-0.590566X0.510566X0.590566X-0.510566X0.590566X0*%
G04 APERTURE END LIST*
D10*
X153978979Y-109423989D02*
X154068201Y-109409753D01*
X154068201Y-109409753D02*
X154106737Y-109421904D01*
X154106737Y-109421904D02*
X154158466Y-109459397D01*
X154158466Y-109459397D02*
X154198044Y-109535427D01*
X154198044Y-109535427D02*
X154199087Y-109599306D01*
X154199087Y-109599306D02*
X154186937Y-109637842D01*
X154186937Y-109637842D02*
X154149443Y-109689571D01*
X154149443Y-109689571D02*
X153946698Y-109795113D01*
X153946698Y-109795113D02*
X153669649Y-109262907D01*
X153669649Y-109262907D02*
X153847051Y-109170557D01*
X153847051Y-109170557D02*
X153910930Y-109169514D01*
X153910930Y-109169514D02*
X153949466Y-109181665D01*
X153949466Y-109181665D02*
X154001195Y-109219158D01*
X154001195Y-109219158D02*
X154027580Y-109269845D01*
X154027580Y-109269845D02*
X154028623Y-109333724D01*
X154028623Y-109333724D02*
X154016472Y-109372260D01*
X154016472Y-109372260D02*
X153978979Y-109423989D01*
X153978979Y-109423989D02*
X153801577Y-109516338D01*
X154706993Y-109399329D02*
X154561872Y-109120554D01*
X154561872Y-109120554D02*
X154510143Y-109083060D01*
X154510143Y-109083060D02*
X154446264Y-109084103D01*
X154446264Y-109084103D02*
X154344891Y-109136874D01*
X154344891Y-109136874D02*
X154307398Y-109188603D01*
X154693800Y-109373985D02*
X154656306Y-109425714D01*
X154656306Y-109425714D02*
X154529591Y-109491678D01*
X154529591Y-109491678D02*
X154465711Y-109492721D01*
X154465711Y-109492721D02*
X154413983Y-109455227D01*
X154413983Y-109455227D02*
X154387597Y-109404541D01*
X154387597Y-109404541D02*
X154386555Y-109340662D01*
X154386555Y-109340662D02*
X154424048Y-109288933D01*
X154424048Y-109288933D02*
X154550764Y-109222969D01*
X154550764Y-109222969D02*
X154588257Y-109171240D01*
X154921888Y-109255250D02*
X154985767Y-109254208D01*
X154985767Y-109254208D02*
X155087140Y-109201436D01*
X155087140Y-109201436D02*
X155124634Y-109149708D01*
X155124634Y-109149708D02*
X155123591Y-109085828D01*
X155123591Y-109085828D02*
X155110398Y-109060485D01*
X155110398Y-109060485D02*
X155058670Y-109022992D01*
X155058670Y-109022992D02*
X154994790Y-109024034D01*
X154994790Y-109024034D02*
X154918761Y-109063613D01*
X154918761Y-109063613D02*
X154854882Y-109064655D01*
X154854882Y-109064655D02*
X154803153Y-109027162D01*
X154803153Y-109027162D02*
X154789960Y-109001818D01*
X154789960Y-109001818D02*
X154788918Y-108937939D01*
X154788918Y-108937939D02*
X154826411Y-108886210D01*
X154826411Y-108886210D02*
X154902441Y-108846632D01*
X154902441Y-108846632D02*
X154966320Y-108845590D01*
X155580810Y-108912237D02*
X155543317Y-108963966D01*
X155543317Y-108963966D02*
X155441944Y-109016737D01*
X155441944Y-109016737D02*
X155378065Y-109017779D01*
X155378065Y-109017779D02*
X155326336Y-108980286D01*
X155326336Y-108980286D02*
X155220794Y-108777541D01*
X155220794Y-108777541D02*
X155219751Y-108713661D01*
X155219751Y-108713661D02*
X155257245Y-108661933D01*
X155257245Y-108661933D02*
X155358617Y-108609161D01*
X155358617Y-108609161D02*
X155422497Y-108608119D01*
X155422497Y-108608119D02*
X155474225Y-108645612D01*
X155474225Y-108645612D02*
X155500611Y-108696299D01*
X155500611Y-108696299D02*
X155273565Y-108878913D01*
X156075524Y-108686916D02*
X155798474Y-108154710D01*
X156062331Y-108661573D02*
X156024837Y-108713302D01*
X156024837Y-108713302D02*
X155923465Y-108766073D01*
X155923465Y-108766073D02*
X155859585Y-108767116D01*
X155859585Y-108767116D02*
X155821049Y-108754965D01*
X155821049Y-108754965D02*
X155769321Y-108717472D01*
X155769321Y-108717472D02*
X155690164Y-108565413D01*
X155690164Y-108565413D02*
X155689121Y-108501534D01*
X155689121Y-108501534D02*
X155701272Y-108462998D01*
X155701272Y-108462998D02*
X155738765Y-108411269D01*
X155738765Y-108411269D02*
X155840138Y-108358498D01*
X155840138Y-108358498D02*
X155904017Y-108357455D01*
X156810475Y-108304325D02*
X156746596Y-108305367D01*
X156746596Y-108305367D02*
X156708060Y-108293217D01*
X156708060Y-108293217D02*
X156656332Y-108255723D01*
X156656332Y-108255723D02*
X156577175Y-108103664D01*
X156577175Y-108103664D02*
X156576132Y-108039785D01*
X156576132Y-108039785D02*
X156588282Y-108001249D01*
X156588282Y-108001249D02*
X156625776Y-107949520D01*
X156625776Y-107949520D02*
X156701806Y-107909942D01*
X156701806Y-107909942D02*
X156765685Y-107908899D01*
X156765685Y-107908899D02*
X156804221Y-107921050D01*
X156804221Y-107921050D02*
X156855949Y-107958543D01*
X156855949Y-107958543D02*
X156935106Y-108110602D01*
X156935106Y-108110602D02*
X156936149Y-108174482D01*
X156936149Y-108174482D02*
X156923998Y-108213017D01*
X156923998Y-108213017D02*
X156886505Y-108264746D01*
X156886505Y-108264746D02*
X156810475Y-108304325D01*
X157031267Y-107738435D02*
X157215966Y-108093240D01*
X157057652Y-107789122D02*
X157069803Y-107750586D01*
X157069803Y-107750586D02*
X157107296Y-107698857D01*
X157107296Y-107698857D02*
X157183326Y-107659278D01*
X157183326Y-107659278D02*
X157247205Y-107658236D01*
X157247205Y-107658236D02*
X157298934Y-107695730D01*
X157298934Y-107695730D02*
X157444054Y-107974504D01*
X157867591Y-107303072D02*
X158153663Y-107605105D01*
X158153663Y-107605105D02*
X158123108Y-107298903D01*
X158123108Y-107298903D02*
X158356408Y-107499563D01*
X158356408Y-107499563D02*
X158273082Y-107091987D01*
X158736556Y-107301671D02*
X158672676Y-107302713D01*
X158672676Y-107302713D02*
X158634140Y-107290563D01*
X158634140Y-107290563D02*
X158582412Y-107253069D01*
X158582412Y-107253069D02*
X158503255Y-107101010D01*
X158503255Y-107101010D02*
X158502212Y-107037131D01*
X158502212Y-107037131D02*
X158514363Y-106998595D01*
X158514363Y-106998595D02*
X158551856Y-106946867D01*
X158551856Y-106946867D02*
X158627886Y-106907288D01*
X158627886Y-106907288D02*
X158691765Y-106906246D01*
X158691765Y-106906246D02*
X158730301Y-106918396D01*
X158730301Y-106918396D02*
X158782030Y-106955889D01*
X158782030Y-106955889D02*
X158861187Y-107107948D01*
X158861187Y-107107948D02*
X158862229Y-107171828D01*
X158862229Y-107171828D02*
X158850079Y-107210364D01*
X158850079Y-107210364D02*
X158812585Y-107262092D01*
X158812585Y-107262092D02*
X158736556Y-107301671D01*
X159142046Y-107090586D02*
X158957347Y-106735782D01*
X159010118Y-106837154D02*
X159009076Y-106773275D01*
X159009076Y-106773275D02*
X159021226Y-106734739D01*
X159021226Y-106734739D02*
X159058719Y-106683010D01*
X159058719Y-106683010D02*
X159109406Y-106656625D01*
X159471508Y-106919079D02*
X159194459Y-106386873D01*
X159416651Y-106689948D02*
X159674253Y-106813536D01*
X159489554Y-106458732D02*
X159392351Y-106767020D01*
X153493049Y-111120280D02*
X153216000Y-110588073D01*
X153321542Y-110790819D02*
X153359036Y-110739090D01*
X153359036Y-110739090D02*
X153460409Y-110686319D01*
X153460409Y-110686319D02*
X153524288Y-110685276D01*
X153524288Y-110685276D02*
X153562824Y-110697426D01*
X153562824Y-110697426D02*
X153614552Y-110734920D01*
X153614552Y-110734920D02*
X153693709Y-110886979D01*
X153693709Y-110886979D02*
X153694752Y-110950858D01*
X153694752Y-110950858D02*
X153682601Y-110989394D01*
X153682601Y-110989394D02*
X153645108Y-111041123D01*
X153645108Y-111041123D02*
X153543735Y-111093894D01*
X153543735Y-111093894D02*
X153479856Y-111094937D01*
X153739183Y-110541198D02*
X154050599Y-110830038D01*
X153992615Y-110409269D02*
X154050599Y-110830038D01*
X154050599Y-110830038D02*
X154065876Y-110983139D01*
X154065876Y-110983139D02*
X154053726Y-111021675D01*
X154053726Y-111021675D02*
X154016232Y-111073404D01*
X154660560Y-109836083D02*
X154858453Y-110216230D01*
X154858453Y-110216230D02*
X154872688Y-110305452D01*
X154872688Y-110305452D02*
X154848387Y-110382524D01*
X154848387Y-110382524D02*
X154785551Y-110447446D01*
X154785551Y-110447446D02*
X154734864Y-110473832D01*
X155267071Y-110196782D02*
X155203192Y-110197825D01*
X155203192Y-110197825D02*
X155164656Y-110185675D01*
X155164656Y-110185675D02*
X155112927Y-110148181D01*
X155112927Y-110148181D02*
X155033770Y-109996122D01*
X155033770Y-109996122D02*
X155032728Y-109932243D01*
X155032728Y-109932243D02*
X155044878Y-109893707D01*
X155044878Y-109893707D02*
X155082371Y-109841978D01*
X155082371Y-109841978D02*
X155158401Y-109802400D01*
X155158401Y-109802400D02*
X155222280Y-109801357D01*
X155222280Y-109801357D02*
X155260816Y-109813507D01*
X155260816Y-109813507D02*
X155312545Y-109851001D01*
X155312545Y-109851001D02*
X155391702Y-110003060D01*
X155391702Y-110003060D02*
X155392744Y-110066939D01*
X155392744Y-110066939D02*
X155380594Y-110105475D01*
X155380594Y-110105475D02*
X155343100Y-110157204D01*
X155343100Y-110157204D02*
X155267071Y-110196782D01*
X155672561Y-109985697D02*
X155395512Y-109453491D01*
X155900650Y-109866962D02*
X155755529Y-109588187D01*
X155755529Y-109588187D02*
X155703800Y-109550694D01*
X155703800Y-109550694D02*
X155639921Y-109551736D01*
X155639921Y-109551736D02*
X155563891Y-109591315D01*
X155563891Y-109591315D02*
X155526398Y-109643043D01*
X155526398Y-109643043D02*
X155514248Y-109681579D01*
X155969382Y-109380230D02*
X156154081Y-109735034D01*
X155995768Y-109430916D02*
X156007918Y-109392380D01*
X156007918Y-109392380D02*
X156045412Y-109340651D01*
X156045412Y-109340651D02*
X156121441Y-109301073D01*
X156121441Y-109301073D02*
X156185320Y-109300030D01*
X156185320Y-109300030D02*
X156237049Y-109337524D01*
X156237049Y-109337524D02*
X156382170Y-109616299D01*
X156597066Y-109472220D02*
X156660945Y-109471178D01*
X156660945Y-109471178D02*
X156762317Y-109418406D01*
X156762317Y-109418406D02*
X156799811Y-109366678D01*
X156799811Y-109366678D02*
X156798768Y-109302798D01*
X156798768Y-109302798D02*
X156785576Y-109277455D01*
X156785576Y-109277455D02*
X156733847Y-109239962D01*
X156733847Y-109239962D02*
X156669968Y-109241004D01*
X156669968Y-109241004D02*
X156593938Y-109280583D01*
X156593938Y-109280583D02*
X156530059Y-109281625D01*
X156530059Y-109281625D02*
X156478330Y-109244132D01*
X156478330Y-109244132D02*
X156465137Y-109218788D01*
X156465137Y-109218788D02*
X156464095Y-109154909D01*
X156464095Y-109154909D02*
X156501588Y-109103180D01*
X156501588Y-109103180D02*
X156577618Y-109063602D01*
X156577618Y-109063602D02*
X156641497Y-109062560D01*
X157142465Y-109220514D02*
X157078585Y-109221557D01*
X157078585Y-109221557D02*
X157040049Y-109209406D01*
X157040049Y-109209406D02*
X156988321Y-109171913D01*
X156988321Y-109171913D02*
X156909164Y-109019854D01*
X156909164Y-109019854D02*
X156908121Y-108955975D01*
X156908121Y-108955975D02*
X156920272Y-108917439D01*
X156920272Y-108917439D02*
X156957765Y-108865710D01*
X156957765Y-108865710D02*
X157033795Y-108826131D01*
X157033795Y-108826131D02*
X157097674Y-108825089D01*
X157097674Y-108825089D02*
X157136210Y-108837239D01*
X157136210Y-108837239D02*
X157187939Y-108874733D01*
X157187939Y-108874733D02*
X157267095Y-109026792D01*
X157267095Y-109026792D02*
X157268138Y-109090671D01*
X157268138Y-109090671D02*
X157255988Y-109129207D01*
X157255988Y-109129207D02*
X157218494Y-109180936D01*
X157218494Y-109180936D02*
X157142465Y-109220514D01*
X157363256Y-108654625D02*
X157547955Y-109009429D01*
X157389641Y-108705311D02*
X157401792Y-108666775D01*
X157401792Y-108666775D02*
X157439285Y-108615046D01*
X157439285Y-108615046D02*
X157515315Y-108575468D01*
X157515315Y-108575468D02*
X157579194Y-108574426D01*
X157579194Y-108574426D02*
X157630923Y-108611919D01*
X157630923Y-108611919D02*
X157776044Y-108890694D01*
X157923933Y-108556020D02*
X158329423Y-108344935D01*
X158688397Y-108415753D02*
X158411348Y-107883546D01*
X158411348Y-107883546D02*
X158538064Y-107817582D01*
X158538064Y-107817582D02*
X158627286Y-107803347D01*
X158627286Y-107803347D02*
X158704358Y-107827647D01*
X158704358Y-107827647D02*
X158756087Y-107865141D01*
X158756087Y-107865141D02*
X158834202Y-107953321D01*
X158834202Y-107953321D02*
X158873780Y-108029350D01*
X158873780Y-108029350D02*
X158901208Y-108143916D01*
X158901208Y-108143916D02*
X158902251Y-108207795D01*
X158902251Y-108207795D02*
X158877950Y-108284867D01*
X158877950Y-108284867D02*
X158815113Y-108349788D01*
X158815113Y-108349788D02*
X158688397Y-108415753D01*
X159448692Y-108019968D02*
X159303571Y-107741193D01*
X159303571Y-107741193D02*
X159251843Y-107703700D01*
X159251843Y-107703700D02*
X159187963Y-107704742D01*
X159187963Y-107704742D02*
X159086591Y-107757513D01*
X159086591Y-107757513D02*
X159049097Y-107809242D01*
X159435500Y-107994625D02*
X159398006Y-108046354D01*
X159398006Y-108046354D02*
X159271290Y-108112318D01*
X159271290Y-108112318D02*
X159207411Y-108113360D01*
X159207411Y-108113360D02*
X159155682Y-108075867D01*
X159155682Y-108075867D02*
X159129297Y-108025180D01*
X159129297Y-108025180D02*
X159128254Y-107961301D01*
X159128254Y-107961301D02*
X159165748Y-107909572D01*
X159165748Y-107909572D02*
X159292464Y-107843608D01*
X159292464Y-107843608D02*
X159329957Y-107791880D01*
X159466738Y-107559621D02*
X159778153Y-107848461D01*
X159778153Y-107848461D02*
X159720170Y-107427693D01*
X160107615Y-107676955D02*
X159922915Y-107322150D01*
X159830566Y-107144748D02*
X159818415Y-107183284D01*
X159818415Y-107183284D02*
X159856951Y-107195435D01*
X159856951Y-107195435D02*
X159869102Y-107156899D01*
X159869102Y-107156899D02*
X159830566Y-107144748D01*
X159830566Y-107144748D02*
X159856951Y-107195435D01*
X160550599Y-107414141D02*
X160513105Y-107465870D01*
X160513105Y-107465870D02*
X160411732Y-107518641D01*
X160411732Y-107518641D02*
X160347853Y-107519684D01*
X160347853Y-107519684D02*
X160296125Y-107482190D01*
X160296125Y-107482190D02*
X160190582Y-107279445D01*
X160190582Y-107279445D02*
X160189539Y-107215566D01*
X160189539Y-107215566D02*
X160227033Y-107163837D01*
X160227033Y-107163837D02*
X160328406Y-107111065D01*
X160328406Y-107111065D02*
X160392285Y-107110023D01*
X160392285Y-107110023D02*
X160444014Y-107147517D01*
X160444014Y-107147517D02*
X160470399Y-107198203D01*
X160470399Y-107198203D02*
X160243353Y-107380817D01*
X160778687Y-107295406D02*
X160842567Y-107294363D01*
X160842567Y-107294363D02*
X160943939Y-107241592D01*
X160943939Y-107241592D02*
X160981433Y-107189863D01*
X160981433Y-107189863D02*
X160980390Y-107125984D01*
X160980390Y-107125984D02*
X160967197Y-107100641D01*
X160967197Y-107100641D02*
X160915469Y-107063147D01*
X160915469Y-107063147D02*
X160851589Y-107064190D01*
X160851589Y-107064190D02*
X160775560Y-107103768D01*
X160775560Y-107103768D02*
X160711681Y-107104811D01*
X160711681Y-107104811D02*
X160659952Y-107067317D01*
X160659952Y-107067317D02*
X160646759Y-107041974D01*
X160646759Y-107041974D02*
X160645717Y-106978095D01*
X160645717Y-106978095D02*
X160683210Y-106926366D01*
X160683210Y-106926366D02*
X160759240Y-106886787D01*
X160759240Y-106886787D02*
X160823119Y-106885745D01*
D11*
X136407192Y-111726490D02*
X136708501Y-111890087D01*
X136663330Y-111524194D02*
X136295237Y-112202138D01*
X136295237Y-112202138D02*
X136292001Y-112297915D01*
X136292001Y-112297915D02*
X136346878Y-112376478D01*
X136346878Y-112376478D02*
X136422206Y-112417377D01*
X136685851Y-112560525D02*
X136972146Y-112033235D01*
X136931247Y-112108562D02*
X136989360Y-112091348D01*
X136989360Y-112091348D02*
X137085137Y-112094584D01*
X137085137Y-112094584D02*
X137198128Y-112155933D01*
X137198128Y-112155933D02*
X137253005Y-112234496D01*
X137253005Y-112234496D02*
X137249769Y-112330272D01*
X137249769Y-112330272D02*
X137024823Y-112744572D01*
X137249769Y-112330272D02*
X137328332Y-112275395D01*
X137328332Y-112275395D02*
X137424109Y-112278631D01*
X137424109Y-112278631D02*
X137537100Y-112339980D01*
X137537100Y-112339980D02*
X137591978Y-112418543D01*
X137591978Y-112418543D02*
X137588742Y-112514319D01*
X137588742Y-112514319D02*
X137363796Y-112928619D01*
X137740431Y-113133115D02*
X138169874Y-112342180D01*
X138006277Y-112643489D02*
X138102054Y-112646725D01*
X138102054Y-112646725D02*
X138252708Y-112728523D01*
X138252708Y-112728523D02*
X138307586Y-112807086D01*
X138307586Y-112807086D02*
X138324800Y-112865199D01*
X138324800Y-112865199D02*
X138321564Y-112960976D01*
X138321564Y-112960976D02*
X138198866Y-113186958D01*
X138198866Y-113186958D02*
X138120303Y-113241835D01*
X138120303Y-113241835D02*
X138062190Y-113259049D01*
X138062190Y-113259049D02*
X137966413Y-113255813D01*
X137966413Y-113255813D02*
X137815759Y-113174015D01*
X137815759Y-113174015D02*
X137760881Y-113095452D01*
X138496939Y-113446332D02*
X138514153Y-113504445D01*
X138514153Y-113504445D02*
X138456040Y-113521659D01*
X138456040Y-113521659D02*
X138438826Y-113463546D01*
X138438826Y-113463546D02*
X138496939Y-113446332D01*
X138496939Y-113446332D02*
X138456040Y-113521659D01*
X139457943Y-113382912D02*
X139110299Y-114023193D01*
X139110299Y-114023193D02*
X139031736Y-114078071D01*
X139031736Y-114078071D02*
X138973623Y-114095285D01*
X138973623Y-114095285D02*
X138877846Y-114092049D01*
X138877846Y-114092049D02*
X138764855Y-114030700D01*
X138764855Y-114030700D02*
X138709977Y-113952137D01*
X139192097Y-113872539D02*
X139096321Y-113869303D01*
X139096321Y-113869303D02*
X138945666Y-113787505D01*
X138945666Y-113787505D02*
X138890789Y-113708942D01*
X138890789Y-113708942D02*
X138873575Y-113650828D01*
X138873575Y-113650828D02*
X138876810Y-113555052D01*
X138876810Y-113555052D02*
X138999508Y-113329070D01*
X138999508Y-113329070D02*
X139078071Y-113274193D01*
X139078071Y-113274193D02*
X139136185Y-113256979D01*
X139136185Y-113256979D02*
X139231961Y-113260214D01*
X139231961Y-113260214D02*
X139382616Y-113342013D01*
X139382616Y-113342013D02*
X139437493Y-113420576D01*
X139548284Y-114114699D02*
X139834579Y-113587409D01*
X139752781Y-113738063D02*
X139831343Y-113683186D01*
X139831343Y-113683186D02*
X139889457Y-113665972D01*
X139889457Y-113665972D02*
X139985234Y-113669208D01*
X139985234Y-113669208D02*
X140060561Y-113710107D01*
X141052757Y-113858691D02*
X139822672Y-114507514D01*
X141152805Y-114303147D02*
X140723362Y-115094083D01*
X141132355Y-114340811D02*
X141228132Y-114344046D01*
X141228132Y-114344046D02*
X141378786Y-114425845D01*
X141378786Y-114425845D02*
X141433664Y-114504408D01*
X141433664Y-114504408D02*
X141450878Y-114562521D01*
X141450878Y-114562521D02*
X141447642Y-114658298D01*
X141447642Y-114658298D02*
X141324944Y-114884280D01*
X141324944Y-114884280D02*
X141246381Y-114939157D01*
X141246381Y-114939157D02*
X141188268Y-114956371D01*
X141188268Y-114956371D02*
X141092491Y-114953135D01*
X141092491Y-114953135D02*
X140941837Y-114871337D01*
X140941837Y-114871337D02*
X140886959Y-114792774D01*
X141582118Y-115218981D02*
X142011561Y-114428046D01*
X141921090Y-115403028D02*
X142146037Y-114988729D01*
X142146037Y-114988729D02*
X142149272Y-114892952D01*
X142149272Y-114892952D02*
X142094395Y-114814389D01*
X142094395Y-114814389D02*
X141981404Y-114753040D01*
X141981404Y-114753040D02*
X141885627Y-114749804D01*
X141885627Y-114749804D02*
X141827514Y-114767018D01*
X142508695Y-115039335D02*
X142410717Y-115668874D01*
X142885330Y-115243832D02*
X142410717Y-115668874D01*
X142410717Y-115668874D02*
X142233142Y-115816292D01*
X142233142Y-115816292D02*
X142175029Y-115833506D01*
X142175029Y-115833506D02*
X142079252Y-115830271D01*
D12*
X153313415Y-115409079D02*
X152159044Y-113191552D01*
X152159044Y-113191552D02*
X153003816Y-112751791D01*
X153003816Y-112751791D02*
X153269979Y-112747447D01*
X153269979Y-112747447D02*
X153430546Y-112798074D01*
X153430546Y-112798074D02*
X153646082Y-112954297D01*
X153646082Y-112954297D02*
X153810992Y-113271086D01*
X153810992Y-113271086D02*
X153815336Y-113537250D01*
X153815336Y-113537250D02*
X153764710Y-113697816D01*
X153764710Y-113697816D02*
X153608487Y-113913353D01*
X153608487Y-113913353D02*
X152763714Y-114353113D01*
X154926271Y-113093145D02*
X155665447Y-112708355D01*
X156586908Y-113705006D02*
X155530942Y-114254707D01*
X155530942Y-114254707D02*
X154376571Y-112037180D01*
X154376571Y-112037180D02*
X155432536Y-111487479D01*
X156932606Y-112048714D02*
X157671781Y-111663923D01*
X158593242Y-112660575D02*
X157537276Y-113210276D01*
X157537276Y-113210276D02*
X156382905Y-110992749D01*
X156382905Y-110992749D02*
X157438870Y-110443048D01*
X159543611Y-112165844D02*
X158389239Y-109948317D01*
X158389239Y-109948317D02*
X159234011Y-109508557D01*
X159234011Y-109508557D02*
X159500175Y-109504213D01*
X159500175Y-109504213D02*
X159660741Y-109554839D01*
X159660741Y-109554839D02*
X159876278Y-109711062D01*
X159876278Y-109711062D02*
X160041188Y-110027852D01*
X160041188Y-110027852D02*
X160045532Y-110294015D01*
X160045532Y-110294015D02*
X159994905Y-110454582D01*
X159994905Y-110454582D02*
X159838682Y-110670118D01*
X159838682Y-110670118D02*
X158993910Y-111109879D01*
X161600571Y-110960846D02*
X161972331Y-110901533D01*
X161972331Y-110901533D02*
X162500314Y-110626682D01*
X162500314Y-110626682D02*
X162656536Y-110411145D01*
X162656536Y-110411145D02*
X162707163Y-110250579D01*
X162707163Y-110250579D02*
X162702819Y-109984416D01*
X162702819Y-109984416D02*
X162592879Y-109773223D01*
X162592879Y-109773223D02*
X162377343Y-109617000D01*
X162377343Y-109617000D02*
X162216776Y-109566373D01*
X162216776Y-109566373D02*
X161950613Y-109570717D01*
X161950613Y-109570717D02*
X161473257Y-109685001D01*
X161473257Y-109685001D02*
X161207093Y-109689344D01*
X161207093Y-109689344D02*
X161046527Y-109638718D01*
X161046527Y-109638718D02*
X160830990Y-109482495D01*
X160830990Y-109482495D02*
X160721050Y-109271302D01*
X160721050Y-109271302D02*
X160716706Y-109005139D01*
X160716706Y-109005139D02*
X160767333Y-108844572D01*
X160767333Y-108844572D02*
X160923556Y-108629035D01*
X160923556Y-108629035D02*
X161451539Y-108354185D01*
X161451539Y-108354185D02*
X161823298Y-108294871D01*
X163745753Y-108636226D02*
X164295454Y-109692191D01*
X162401907Y-107859455D02*
X163745753Y-108636226D01*
X163745753Y-108636226D02*
X163880258Y-107089873D01*
D13*
%TO.C,REF\u002A\u002A*%
X149656868Y-91467790D02*
X149674216Y-91475372D01*
X149715624Y-91508166D01*
X149751033Y-91555585D01*
X149772932Y-91606189D01*
X149776497Y-91631136D01*
X149764547Y-91665965D01*
X149738335Y-91684395D01*
X149710232Y-91695554D01*
X149697363Y-91697610D01*
X149691097Y-91682687D01*
X149678724Y-91650213D01*
X149673296Y-91635540D01*
X149642858Y-91584782D01*
X149598788Y-91559465D01*
X149542278Y-91560244D01*
X149538093Y-91561241D01*
X149507923Y-91575545D01*
X149485744Y-91603431D01*
X149470595Y-91648325D01*
X149461518Y-91713653D01*
X149457554Y-91802842D01*
X149457182Y-91850299D01*
X149456998Y-91925109D01*
X149455790Y-91976107D01*
X149452577Y-92008509D01*
X149446377Y-92027533D01*
X149436208Y-92038394D01*
X149421087Y-92046310D01*
X149420214Y-92046708D01*
X149391096Y-92059019D01*
X149376671Y-92063552D01*
X149374454Y-92049847D01*
X149372557Y-92011963D01*
X149371115Y-91954753D01*
X149370266Y-91883065D01*
X149370097Y-91830603D01*
X149370960Y-91729085D01*
X149374338Y-91652070D01*
X149381410Y-91595061D01*
X149393356Y-91553564D01*
X149411358Y-91523081D01*
X149436595Y-91499118D01*
X149461515Y-91482393D01*
X149521439Y-91460135D01*
X149591179Y-91455114D01*
X149656868Y-91467790D01*
G36*
X149656868Y-91467790D02*
G01*
X149674216Y-91475372D01*
X149715624Y-91508166D01*
X149751033Y-91555585D01*
X149772932Y-91606189D01*
X149776497Y-91631136D01*
X149764547Y-91665965D01*
X149738335Y-91684395D01*
X149710232Y-91695554D01*
X149697363Y-91697610D01*
X149691097Y-91682687D01*
X149678724Y-91650213D01*
X149673296Y-91635540D01*
X149642858Y-91584782D01*
X149598788Y-91559465D01*
X149542278Y-91560244D01*
X149538093Y-91561241D01*
X149507923Y-91575545D01*
X149485744Y-91603431D01*
X149470595Y-91648325D01*
X149461518Y-91713653D01*
X149457554Y-91802842D01*
X149457182Y-91850299D01*
X149456998Y-91925109D01*
X149455790Y-91976107D01*
X149452577Y-92008509D01*
X149446377Y-92027533D01*
X149436208Y-92038394D01*
X149421087Y-92046310D01*
X149420214Y-92046708D01*
X149391096Y-92059019D01*
X149376671Y-92063552D01*
X149374454Y-92049847D01*
X149372557Y-92011963D01*
X149371115Y-91954753D01*
X149370266Y-91883065D01*
X149370097Y-91830603D01*
X149370960Y-91729085D01*
X149374338Y-91652070D01*
X149381410Y-91595061D01*
X149393356Y-91553564D01*
X149411358Y-91523081D01*
X149436595Y-91499118D01*
X149461515Y-91482393D01*
X149521439Y-91460135D01*
X149591179Y-91455114D01*
X149656868Y-91467790D01*
G37*
X145720361Y-91436818D02*
X145766940Y-91463761D01*
X145799325Y-91490504D01*
X145823010Y-91518522D01*
X145839327Y-91552786D01*
X145849607Y-91598265D01*
X145855182Y-91659930D01*
X145857384Y-91742749D01*
X145857639Y-91802284D01*
X145857639Y-92021429D01*
X145795954Y-92049082D01*
X145734268Y-92076735D01*
X145727011Y-91836708D01*
X145724012Y-91747066D01*
X145720866Y-91682000D01*
X145716969Y-91637064D01*
X145711715Y-91607808D01*
X145704499Y-91589786D01*
X145694718Y-91578549D01*
X145691580Y-91576117D01*
X145644029Y-91557121D01*
X145595965Y-91564638D01*
X145567354Y-91584581D01*
X145555715Y-91598713D01*
X145547659Y-91617258D01*
X145542539Y-91645372D01*
X145539709Y-91688211D01*
X145538524Y-91750933D01*
X145538325Y-91816299D01*
X145538286Y-91898306D01*
X145536882Y-91956354D01*
X145532182Y-91995503D01*
X145522255Y-92020818D01*
X145505171Y-92037361D01*
X145479000Y-92050194D01*
X145444043Y-92063529D01*
X145405864Y-92078045D01*
X145410409Y-91820427D01*
X145412239Y-91727557D01*
X145414380Y-91658927D01*
X145417449Y-91609749D01*
X145422062Y-91575236D01*
X145428836Y-91550600D01*
X145438387Y-91531054D01*
X145449902Y-91513808D01*
X145505458Y-91458718D01*
X145573248Y-91426860D01*
X145646981Y-91419229D01*
X145720361Y-91436818D01*
G36*
X145720361Y-91436818D02*
G01*
X145766940Y-91463761D01*
X145799325Y-91490504D01*
X145823010Y-91518522D01*
X145839327Y-91552786D01*
X145849607Y-91598265D01*
X145855182Y-91659930D01*
X145857384Y-91742749D01*
X145857639Y-91802284D01*
X145857639Y-92021429D01*
X145795954Y-92049082D01*
X145734268Y-92076735D01*
X145727011Y-91836708D01*
X145724012Y-91747066D01*
X145720866Y-91682000D01*
X145716969Y-91637064D01*
X145711715Y-91607808D01*
X145704499Y-91589786D01*
X145694718Y-91578549D01*
X145691580Y-91576117D01*
X145644029Y-91557121D01*
X145595965Y-91564638D01*
X145567354Y-91584581D01*
X145555715Y-91598713D01*
X145547659Y-91617258D01*
X145542539Y-91645372D01*
X145539709Y-91688211D01*
X145538524Y-91750933D01*
X145538325Y-91816299D01*
X145538286Y-91898306D01*
X145536882Y-91956354D01*
X145532182Y-91995503D01*
X145522255Y-92020818D01*
X145505171Y-92037361D01*
X145479000Y-92050194D01*
X145444043Y-92063529D01*
X145405864Y-92078045D01*
X145410409Y-91820427D01*
X145412239Y-91727557D01*
X145414380Y-91658927D01*
X145417449Y-91609749D01*
X145422062Y-91575236D01*
X145428836Y-91550600D01*
X145438387Y-91531054D01*
X145449902Y-91513808D01*
X145505458Y-91458718D01*
X145573248Y-91426860D01*
X145646981Y-91419229D01*
X145720361Y-91436818D01*
G37*
X147534194Y-91458793D02*
X147600126Y-91483122D01*
X147653541Y-91526155D01*
X147674432Y-91556447D01*
X147697207Y-91612032D01*
X147696734Y-91652224D01*
X147672830Y-91679255D01*
X147663985Y-91683851D01*
X147625798Y-91698182D01*
X147606296Y-91694510D01*
X147599690Y-91670445D01*
X147599354Y-91657152D01*
X147587260Y-91608248D01*
X147555739Y-91574037D01*
X147511927Y-91557514D01*
X147462963Y-91561672D01*
X147423162Y-91583265D01*
X147409718Y-91595582D01*
X147400189Y-91610525D01*
X147393753Y-91633113D01*
X147389585Y-91668366D01*
X147386865Y-91721304D01*
X147384770Y-91796945D01*
X147384228Y-91820895D01*
X147382249Y-91902828D01*
X147379999Y-91960493D01*
X147376625Y-91998646D01*
X147371274Y-92022042D01*
X147363092Y-92035436D01*
X147351227Y-92043583D01*
X147343630Y-92047182D01*
X147311370Y-92059490D01*
X147292379Y-92063552D01*
X147286104Y-92049986D01*
X147282274Y-92008972D01*
X147280868Y-91940037D01*
X147281866Y-91842707D01*
X147282176Y-91827695D01*
X147284369Y-91738897D01*
X147286961Y-91674057D01*
X147290650Y-91628105D01*
X147296132Y-91595973D01*
X147304103Y-91572591D01*
X147315261Y-91552890D01*
X147321098Y-91544448D01*
X147354564Y-91507095D01*
X147391995Y-91478041D01*
X147396577Y-91475505D01*
X147463694Y-91455481D01*
X147534194Y-91458793D01*
G36*
X147534194Y-91458793D02*
G01*
X147600126Y-91483122D01*
X147653541Y-91526155D01*
X147674432Y-91556447D01*
X147697207Y-91612032D01*
X147696734Y-91652224D01*
X147672830Y-91679255D01*
X147663985Y-91683851D01*
X147625798Y-91698182D01*
X147606296Y-91694510D01*
X147599690Y-91670445D01*
X147599354Y-91657152D01*
X147587260Y-91608248D01*
X147555739Y-91574037D01*
X147511927Y-91557514D01*
X147462963Y-91561672D01*
X147423162Y-91583265D01*
X147409718Y-91595582D01*
X147400189Y-91610525D01*
X147393753Y-91633113D01*
X147389585Y-91668366D01*
X147386865Y-91721304D01*
X147384770Y-91796945D01*
X147384228Y-91820895D01*
X147382249Y-91902828D01*
X147379999Y-91960493D01*
X147376625Y-91998646D01*
X147371274Y-92022042D01*
X147363092Y-92035436D01*
X147351227Y-92043583D01*
X147343630Y-92047182D01*
X147311370Y-92059490D01*
X147292379Y-92063552D01*
X147286104Y-92049986D01*
X147282274Y-92008972D01*
X147280868Y-91940037D01*
X147281866Y-91842707D01*
X147282176Y-91827695D01*
X147284369Y-91738897D01*
X147286961Y-91674057D01*
X147290650Y-91628105D01*
X147296132Y-91595973D01*
X147304103Y-91572591D01*
X147315261Y-91552890D01*
X147321098Y-91544448D01*
X147354564Y-91507095D01*
X147391995Y-91478041D01*
X147396577Y-91475505D01*
X147463694Y-91455481D01*
X147534194Y-91458793D01*
G37*
X146380154Y-91360327D02*
X146384407Y-91419651D01*
X146389293Y-91454610D01*
X146396063Y-91469858D01*
X146405970Y-91470053D01*
X146409182Y-91468233D01*
X146451912Y-91455053D01*
X146507495Y-91455823D01*
X146564005Y-91469371D01*
X146599350Y-91486899D01*
X146635589Y-91514899D01*
X146662081Y-91546587D01*
X146680267Y-91586851D01*
X146691590Y-91640581D01*
X146697490Y-91712664D01*
X146699411Y-91807989D01*
X146699445Y-91826275D01*
X146699468Y-92031684D01*
X146653759Y-92047618D01*
X146621295Y-92058458D01*
X146603483Y-92063506D01*
X146602959Y-92063552D01*
X146601205Y-92049866D01*
X146599712Y-92012114D01*
X146598594Y-91955262D01*
X146597965Y-91884272D01*
X146597868Y-91841111D01*
X146597666Y-91756011D01*
X146596626Y-91695019D01*
X146594099Y-91653215D01*
X146589432Y-91625680D01*
X146581975Y-91607494D01*
X146571079Y-91593736D01*
X146564275Y-91587111D01*
X146517540Y-91560413D01*
X146466540Y-91558413D01*
X146420269Y-91580993D01*
X146411712Y-91589145D01*
X146399161Y-91604474D01*
X146390456Y-91622656D01*
X146384899Y-91648947D01*
X146381794Y-91688600D01*
X146380444Y-91746870D01*
X146380154Y-91827211D01*
X146380154Y-92031684D01*
X146334445Y-92047618D01*
X146301981Y-92058458D01*
X146284169Y-92063506D01*
X146283645Y-92063552D01*
X146282305Y-92049661D01*
X146281096Y-92010477D01*
X146280069Y-91949738D01*
X146279270Y-91871179D01*
X146278749Y-91778536D01*
X146278554Y-91675547D01*
X146278554Y-91278380D01*
X146325725Y-91258482D01*
X146372897Y-91238585D01*
X146380154Y-91360327D01*
G36*
X146380154Y-91360327D02*
G01*
X146384407Y-91419651D01*
X146389293Y-91454610D01*
X146396063Y-91469858D01*
X146405970Y-91470053D01*
X146409182Y-91468233D01*
X146451912Y-91455053D01*
X146507495Y-91455823D01*
X146564005Y-91469371D01*
X146599350Y-91486899D01*
X146635589Y-91514899D01*
X146662081Y-91546587D01*
X146680267Y-91586851D01*
X146691590Y-91640581D01*
X146697490Y-91712664D01*
X146699411Y-91807989D01*
X146699445Y-91826275D01*
X146699468Y-92031684D01*
X146653759Y-92047618D01*
X146621295Y-92058458D01*
X146603483Y-92063506D01*
X146602959Y-92063552D01*
X146601205Y-92049866D01*
X146599712Y-92012114D01*
X146598594Y-91955262D01*
X146597965Y-91884272D01*
X146597868Y-91841111D01*
X146597666Y-91756011D01*
X146596626Y-91695019D01*
X146594099Y-91653215D01*
X146589432Y-91625680D01*
X146581975Y-91607494D01*
X146571079Y-91593736D01*
X146564275Y-91587111D01*
X146517540Y-91560413D01*
X146466540Y-91558413D01*
X146420269Y-91580993D01*
X146411712Y-91589145D01*
X146399161Y-91604474D01*
X146390456Y-91622656D01*
X146384899Y-91648947D01*
X146381794Y-91688600D01*
X146380444Y-91746870D01*
X146380154Y-91827211D01*
X146380154Y-92031684D01*
X146334445Y-92047618D01*
X146301981Y-92058458D01*
X146284169Y-92063506D01*
X146283645Y-92063552D01*
X146282305Y-92049661D01*
X146281096Y-92010477D01*
X146280069Y-91949738D01*
X146279270Y-91871179D01*
X146278749Y-91778536D01*
X146278554Y-91675547D01*
X146278554Y-91278380D01*
X146325725Y-91258482D01*
X146372897Y-91238585D01*
X146380154Y-91360327D01*
G37*
X148784101Y-91467701D02*
X148786316Y-91505888D01*
X148788052Y-91563924D01*
X148789167Y-91637218D01*
X148789525Y-91714093D01*
X148789525Y-91974234D01*
X148743594Y-92020165D01*
X148711943Y-92048467D01*
X148684158Y-92059931D01*
X148646183Y-92059206D01*
X148631108Y-92057359D01*
X148583994Y-92051986D01*
X148545024Y-92048907D01*
X148535525Y-92048623D01*
X148503501Y-92050483D01*
X148457700Y-92055152D01*
X148439942Y-92057359D01*
X148396325Y-92060773D01*
X148367013Y-92053358D01*
X148337948Y-92030465D01*
X148327456Y-92020165D01*
X148281525Y-91974234D01*
X148281525Y-91487640D01*
X148318494Y-91470796D01*
X148350327Y-91458320D01*
X148368951Y-91453952D01*
X148373726Y-91467756D01*
X148378189Y-91506324D01*
X148382043Y-91565394D01*
X148384990Y-91640701D01*
X148386411Y-91704324D01*
X148390382Y-91954695D01*
X148425027Y-91959594D01*
X148456536Y-91956169D01*
X148471976Y-91945079D01*
X148476291Y-91924346D01*
X148479976Y-91880183D01*
X148482737Y-91818184D01*
X148484280Y-91743947D01*
X148484503Y-91705744D01*
X148484725Y-91485821D01*
X148530434Y-91469887D01*
X148562786Y-91459053D01*
X148580383Y-91454000D01*
X148580891Y-91453952D01*
X148582656Y-91467686D01*
X148584597Y-91505768D01*
X148586550Y-91563520D01*
X148588352Y-91636265D01*
X148589611Y-91704324D01*
X148593582Y-91954695D01*
X148680668Y-91954695D01*
X148684664Y-91726278D01*
X148688660Y-91497860D01*
X148731115Y-91475906D01*
X148762460Y-91460831D01*
X148781012Y-91453989D01*
X148781547Y-91453952D01*
X148784101Y-91467701D01*
G36*
X148784101Y-91467701D02*
G01*
X148786316Y-91505888D01*
X148788052Y-91563924D01*
X148789167Y-91637218D01*
X148789525Y-91714093D01*
X148789525Y-91974234D01*
X148743594Y-92020165D01*
X148711943Y-92048467D01*
X148684158Y-92059931D01*
X148646183Y-92059206D01*
X148631108Y-92057359D01*
X148583994Y-92051986D01*
X148545024Y-92048907D01*
X148535525Y-92048623D01*
X148503501Y-92050483D01*
X148457700Y-92055152D01*
X148439942Y-92057359D01*
X148396325Y-92060773D01*
X148367013Y-92053358D01*
X148337948Y-92030465D01*
X148327456Y-92020165D01*
X148281525Y-91974234D01*
X148281525Y-91487640D01*
X148318494Y-91470796D01*
X148350327Y-91458320D01*
X148368951Y-91453952D01*
X148373726Y-91467756D01*
X148378189Y-91506324D01*
X148382043Y-91565394D01*
X148384990Y-91640701D01*
X148386411Y-91704324D01*
X148390382Y-91954695D01*
X148425027Y-91959594D01*
X148456536Y-91956169D01*
X148471976Y-91945079D01*
X148476291Y-91924346D01*
X148479976Y-91880183D01*
X148482737Y-91818184D01*
X148484280Y-91743947D01*
X148484503Y-91705744D01*
X148484725Y-91485821D01*
X148530434Y-91469887D01*
X148562786Y-91459053D01*
X148580383Y-91454000D01*
X148580891Y-91453952D01*
X148582656Y-91467686D01*
X148584597Y-91505768D01*
X148586550Y-91563520D01*
X148588352Y-91636265D01*
X148589611Y-91704324D01*
X148593582Y-91954695D01*
X148680668Y-91954695D01*
X148684664Y-91726278D01*
X148688660Y-91497860D01*
X148731115Y-91475906D01*
X148762460Y-91460831D01*
X148781012Y-91453989D01*
X148781547Y-91453952D01*
X148784101Y-91467701D01*
G37*
X144045383Y-91431000D02*
X144113413Y-91466771D01*
X144163619Y-91524339D01*
X144181453Y-91561350D01*
X144195331Y-91616920D01*
X144202435Y-91687134D01*
X144203108Y-91763765D01*
X144197695Y-91838590D01*
X144186538Y-91903380D01*
X144169982Y-91949911D01*
X144164894Y-91957925D01*
X144104623Y-92017745D01*
X144033037Y-92053573D01*
X143955360Y-92064058D01*
X143876816Y-92047848D01*
X143854957Y-92038130D01*
X143812390Y-92008181D01*
X143775031Y-91968471D01*
X143771500Y-91963435D01*
X143757149Y-91939162D01*
X143747662Y-91913216D01*
X143742058Y-91879060D01*
X143739354Y-91830157D01*
X143738567Y-91759973D01*
X143738554Y-91744238D01*
X143738590Y-91739230D01*
X143883697Y-91739230D01*
X143884541Y-91805468D01*
X143887864Y-91849424D01*
X143894851Y-91877817D01*
X143906684Y-91897363D01*
X143912725Y-91903895D01*
X143947454Y-91928718D01*
X143981171Y-91927586D01*
X144015263Y-91906054D01*
X144035597Y-91883067D01*
X144047639Y-91849516D01*
X144054402Y-91796607D01*
X144054866Y-91790437D01*
X144056020Y-91694551D01*
X144043956Y-91623337D01*
X144018838Y-91577232D01*
X143980828Y-91556673D01*
X143967260Y-91555552D01*
X143931632Y-91561190D01*
X143907262Y-91580724D01*
X143892361Y-91618080D01*
X143885143Y-91677188D01*
X143883697Y-91739230D01*
X143738590Y-91739230D01*
X143739094Y-91669451D01*
X143741364Y-91617197D01*
X143746336Y-91580987D01*
X143754981Y-91554337D01*
X143768273Y-91530760D01*
X143771211Y-91526376D01*
X143820581Y-91467287D01*
X143874377Y-91432985D01*
X143939870Y-91419369D01*
X143962110Y-91418703D01*
X144045383Y-91431000D01*
G36*
X144045383Y-91431000D02*
G01*
X144113413Y-91466771D01*
X144163619Y-91524339D01*
X144181453Y-91561350D01*
X144195331Y-91616920D01*
X144202435Y-91687134D01*
X144203108Y-91763765D01*
X144197695Y-91838590D01*
X144186538Y-91903380D01*
X144169982Y-91949911D01*
X144164894Y-91957925D01*
X144104623Y-92017745D01*
X144033037Y-92053573D01*
X143955360Y-92064058D01*
X143876816Y-92047848D01*
X143854957Y-92038130D01*
X143812390Y-92008181D01*
X143775031Y-91968471D01*
X143771500Y-91963435D01*
X143757149Y-91939162D01*
X143747662Y-91913216D01*
X143742058Y-91879060D01*
X143739354Y-91830157D01*
X143738567Y-91759973D01*
X143738554Y-91744238D01*
X143738590Y-91739230D01*
X143883697Y-91739230D01*
X143884541Y-91805468D01*
X143887864Y-91849424D01*
X143894851Y-91877817D01*
X143906684Y-91897363D01*
X143912725Y-91903895D01*
X143947454Y-91928718D01*
X143981171Y-91927586D01*
X144015263Y-91906054D01*
X144035597Y-91883067D01*
X144047639Y-91849516D01*
X144054402Y-91796607D01*
X144054866Y-91790437D01*
X144056020Y-91694551D01*
X144043956Y-91623337D01*
X144018838Y-91577232D01*
X143980828Y-91556673D01*
X143967260Y-91555552D01*
X143931632Y-91561190D01*
X143907262Y-91580724D01*
X143892361Y-91618080D01*
X143885143Y-91677188D01*
X143883697Y-91739230D01*
X143738590Y-91739230D01*
X143739094Y-91669451D01*
X143741364Y-91617197D01*
X143746336Y-91580987D01*
X143754981Y-91554337D01*
X143768273Y-91530760D01*
X143771211Y-91526376D01*
X143820581Y-91467287D01*
X143874377Y-91432985D01*
X143939870Y-91419369D01*
X143962110Y-91418703D01*
X144045383Y-91431000D01*
G37*
X150157863Y-91476004D02*
X150215289Y-91513535D01*
X150242987Y-91547134D01*
X150264930Y-91608102D01*
X150266673Y-91656346D01*
X150262725Y-91720854D01*
X150113954Y-91785972D01*
X150041617Y-91819240D01*
X149994352Y-91846002D01*
X149969775Y-91869182D01*
X149965505Y-91891705D01*
X149979157Y-91916493D01*
X149994211Y-91932924D01*
X150038014Y-91959273D01*
X150085657Y-91961119D01*
X150129413Y-91940584D01*
X150161557Y-91899790D01*
X150167306Y-91885385D01*
X150194844Y-91840394D01*
X150226526Y-91821220D01*
X150269982Y-91804817D01*
X150269982Y-91867004D01*
X150266140Y-91909321D01*
X150251091Y-91945007D01*
X150219548Y-91985981D01*
X150214860Y-91991305D01*
X150179774Y-92027758D01*
X150149615Y-92047321D01*
X150111883Y-92056321D01*
X150080603Y-92059268D01*
X150024653Y-92060003D01*
X149984823Y-92050698D01*
X149959976Y-92036884D01*
X149920924Y-92006505D01*
X149893893Y-91973651D01*
X149876785Y-91932332D01*
X149867506Y-91876559D01*
X149863961Y-91800343D01*
X149863678Y-91761660D01*
X149864640Y-91715285D01*
X149952275Y-91715285D01*
X149953291Y-91740164D01*
X149955824Y-91744238D01*
X149972542Y-91738703D01*
X150008517Y-91724055D01*
X150056599Y-91703228D01*
X150066654Y-91698752D01*
X150127420Y-91667852D01*
X150160900Y-91640695D01*
X150168258Y-91615258D01*
X150150659Y-91589519D01*
X150136124Y-91578147D01*
X150083678Y-91555402D01*
X150034590Y-91559160D01*
X149993495Y-91586922D01*
X149965026Y-91636190D01*
X149955899Y-91675295D01*
X149952275Y-91715285D01*
X149864640Y-91715285D01*
X149865553Y-91671287D01*
X149872464Y-91604422D01*
X149886152Y-91555733D01*
X149908364Y-91519887D01*
X149940842Y-91491551D01*
X149955001Y-91482393D01*
X150019321Y-91458545D01*
X150089741Y-91457044D01*
X150157863Y-91476004D01*
G36*
X150157863Y-91476004D02*
G01*
X150215289Y-91513535D01*
X150242987Y-91547134D01*
X150264930Y-91608102D01*
X150266673Y-91656346D01*
X150262725Y-91720854D01*
X150113954Y-91785972D01*
X150041617Y-91819240D01*
X149994352Y-91846002D01*
X149969775Y-91869182D01*
X149965505Y-91891705D01*
X149979157Y-91916493D01*
X149994211Y-91932924D01*
X150038014Y-91959273D01*
X150085657Y-91961119D01*
X150129413Y-91940584D01*
X150161557Y-91899790D01*
X150167306Y-91885385D01*
X150194844Y-91840394D01*
X150226526Y-91821220D01*
X150269982Y-91804817D01*
X150269982Y-91867004D01*
X150266140Y-91909321D01*
X150251091Y-91945007D01*
X150219548Y-91985981D01*
X150214860Y-91991305D01*
X150179774Y-92027758D01*
X150149615Y-92047321D01*
X150111883Y-92056321D01*
X150080603Y-92059268D01*
X150024653Y-92060003D01*
X149984823Y-92050698D01*
X149959976Y-92036884D01*
X149920924Y-92006505D01*
X149893893Y-91973651D01*
X149876785Y-91932332D01*
X149867506Y-91876559D01*
X149863961Y-91800343D01*
X149863678Y-91761660D01*
X149864640Y-91715285D01*
X149952275Y-91715285D01*
X149953291Y-91740164D01*
X149955824Y-91744238D01*
X149972542Y-91738703D01*
X150008517Y-91724055D01*
X150056599Y-91703228D01*
X150066654Y-91698752D01*
X150127420Y-91667852D01*
X150160900Y-91640695D01*
X150168258Y-91615258D01*
X150150659Y-91589519D01*
X150136124Y-91578147D01*
X150083678Y-91555402D01*
X150034590Y-91559160D01*
X149993495Y-91586922D01*
X149965026Y-91636190D01*
X149955899Y-91675295D01*
X149952275Y-91715285D01*
X149864640Y-91715285D01*
X149865553Y-91671287D01*
X149872464Y-91604422D01*
X149886152Y-91555733D01*
X149908364Y-91519887D01*
X149940842Y-91491551D01*
X149955001Y-91482393D01*
X150019321Y-91458545D01*
X150089741Y-91457044D01*
X150157863Y-91476004D01*
G37*
X148194385Y-91574396D02*
X148194201Y-91682875D01*
X148193487Y-91766325D01*
X148191943Y-91828742D01*
X148189269Y-91874123D01*
X148185162Y-91906467D01*
X148179323Y-91929771D01*
X148171450Y-91948033D01*
X148165489Y-91958456D01*
X148116123Y-92014983D01*
X148053532Y-92050415D01*
X147984281Y-92063128D01*
X147914936Y-92051501D01*
X147873643Y-92030606D01*
X147830293Y-91994460D01*
X147800749Y-91950314D01*
X147782923Y-91892500D01*
X147774731Y-91815351D01*
X147773570Y-91758752D01*
X147773726Y-91754685D01*
X147875125Y-91754685D01*
X147875744Y-91819588D01*
X147878582Y-91862552D01*
X147885108Y-91890660D01*
X147896791Y-91910991D01*
X147910751Y-91926326D01*
X147957633Y-91955928D01*
X148007969Y-91958457D01*
X148055544Y-91933743D01*
X148059247Y-91930394D01*
X148075051Y-91912973D01*
X148084961Y-91892247D01*
X148090326Y-91861400D01*
X148092496Y-91813615D01*
X148092839Y-91760786D01*
X148092095Y-91694419D01*
X148089016Y-91650144D01*
X148082329Y-91621047D01*
X148070764Y-91600211D01*
X148061281Y-91589145D01*
X148017228Y-91561236D01*
X147966492Y-91557881D01*
X147918064Y-91579197D01*
X147908718Y-91587111D01*
X147892808Y-91604685D01*
X147882878Y-91625625D01*
X147877546Y-91656820D01*
X147875431Y-91705160D01*
X147875125Y-91754685D01*
X147773726Y-91754685D01*
X147777078Y-91667606D01*
X147788994Y-91599124D01*
X147811403Y-91547638D01*
X147846392Y-91507481D01*
X147873643Y-91486899D01*
X147923175Y-91464663D01*
X147980584Y-91454342D01*
X148033950Y-91457105D01*
X148063811Y-91468250D01*
X148075529Y-91471421D01*
X148083305Y-91459595D01*
X148088733Y-91427904D01*
X148092839Y-91379631D01*
X148097335Y-91325867D01*
X148103581Y-91293520D01*
X148114944Y-91275023D01*
X148134796Y-91262808D01*
X148147268Y-91257400D01*
X148194439Y-91237639D01*
X148194385Y-91574396D01*
G36*
X148194385Y-91574396D02*
G01*
X148194201Y-91682875D01*
X148193487Y-91766325D01*
X148191943Y-91828742D01*
X148189269Y-91874123D01*
X148185162Y-91906467D01*
X148179323Y-91929771D01*
X148171450Y-91948033D01*
X148165489Y-91958456D01*
X148116123Y-92014983D01*
X148053532Y-92050415D01*
X147984281Y-92063128D01*
X147914936Y-92051501D01*
X147873643Y-92030606D01*
X147830293Y-91994460D01*
X147800749Y-91950314D01*
X147782923Y-91892500D01*
X147774731Y-91815351D01*
X147773570Y-91758752D01*
X147773726Y-91754685D01*
X147875125Y-91754685D01*
X147875744Y-91819588D01*
X147878582Y-91862552D01*
X147885108Y-91890660D01*
X147896791Y-91910991D01*
X147910751Y-91926326D01*
X147957633Y-91955928D01*
X148007969Y-91958457D01*
X148055544Y-91933743D01*
X148059247Y-91930394D01*
X148075051Y-91912973D01*
X148084961Y-91892247D01*
X148090326Y-91861400D01*
X148092496Y-91813615D01*
X148092839Y-91760786D01*
X148092095Y-91694419D01*
X148089016Y-91650144D01*
X148082329Y-91621047D01*
X148070764Y-91600211D01*
X148061281Y-91589145D01*
X148017228Y-91561236D01*
X147966492Y-91557881D01*
X147918064Y-91579197D01*
X147908718Y-91587111D01*
X147892808Y-91604685D01*
X147882878Y-91625625D01*
X147877546Y-91656820D01*
X147875431Y-91705160D01*
X147875125Y-91754685D01*
X147773726Y-91754685D01*
X147777078Y-91667606D01*
X147788994Y-91599124D01*
X147811403Y-91547638D01*
X147846392Y-91507481D01*
X147873643Y-91486899D01*
X147923175Y-91464663D01*
X147980584Y-91454342D01*
X148033950Y-91457105D01*
X148063811Y-91468250D01*
X148075529Y-91471421D01*
X148083305Y-91459595D01*
X148088733Y-91427904D01*
X148092839Y-91379631D01*
X148097335Y-91325867D01*
X148103581Y-91293520D01*
X148114944Y-91275023D01*
X148134796Y-91262808D01*
X148147268Y-91257400D01*
X148194439Y-91237639D01*
X148194385Y-91574396D01*
G37*
X145172571Y-91440277D02*
X145229795Y-91478773D01*
X145274017Y-91534373D01*
X145300435Y-91605124D01*
X145305778Y-91657200D01*
X145305171Y-91678931D01*
X145300090Y-91695569D01*
X145286123Y-91710475D01*
X145258857Y-91727011D01*
X145213880Y-91748536D01*
X145146779Y-91778412D01*
X145146439Y-91778562D01*
X145084675Y-91806851D01*
X145034027Y-91831971D01*
X144999672Y-91851217D01*
X144986786Y-91861886D01*
X144986782Y-91861972D01*
X144998140Y-91885204D01*
X145024699Y-91910812D01*
X145055191Y-91929259D01*
X145070638Y-91932924D01*
X145112783Y-91920250D01*
X145149076Y-91888509D01*
X145166785Y-91853610D01*
X145183820Y-91827883D01*
X145217190Y-91798584D01*
X145256417Y-91773273D01*
X145291024Y-91759509D01*
X145298261Y-91758752D01*
X145306407Y-91771198D01*
X145306898Y-91803010D01*
X145300911Y-91845904D01*
X145289625Y-91891596D01*
X145274218Y-91931799D01*
X145273439Y-91933360D01*
X145227072Y-91998100D01*
X145166979Y-92042135D01*
X145098733Y-92063749D01*
X145027906Y-92061223D01*
X144960072Y-92032842D01*
X144957056Y-92030846D01*
X144903695Y-91982486D01*
X144868608Y-91919390D01*
X144849190Y-91836425D01*
X144846584Y-91813116D01*
X144841969Y-91703093D01*
X144847501Y-91651786D01*
X144986782Y-91651786D01*
X144988592Y-91683791D01*
X144998490Y-91693131D01*
X145023166Y-91686143D01*
X145062063Y-91669625D01*
X145105543Y-91648919D01*
X145106624Y-91648371D01*
X145143477Y-91628987D01*
X145158268Y-91616051D01*
X145154621Y-91602489D01*
X145139263Y-91584670D01*
X145100191Y-91558883D01*
X145058114Y-91556988D01*
X145020371Y-91575755D01*
X144994302Y-91611953D01*
X144986782Y-91651786D01*
X144847501Y-91651786D01*
X144851462Y-91615065D01*
X144875818Y-91545250D01*
X144909724Y-91496340D01*
X144970921Y-91446916D01*
X145038331Y-91422397D01*
X145107148Y-91420835D01*
X145172571Y-91440277D01*
G36*
X145172571Y-91440277D02*
G01*
X145229795Y-91478773D01*
X145274017Y-91534373D01*
X145300435Y-91605124D01*
X145305778Y-91657200D01*
X145305171Y-91678931D01*
X145300090Y-91695569D01*
X145286123Y-91710475D01*
X145258857Y-91727011D01*
X145213880Y-91748536D01*
X145146779Y-91778412D01*
X145146439Y-91778562D01*
X145084675Y-91806851D01*
X145034027Y-91831971D01*
X144999672Y-91851217D01*
X144986786Y-91861886D01*
X144986782Y-91861972D01*
X144998140Y-91885204D01*
X145024699Y-91910812D01*
X145055191Y-91929259D01*
X145070638Y-91932924D01*
X145112783Y-91920250D01*
X145149076Y-91888509D01*
X145166785Y-91853610D01*
X145183820Y-91827883D01*
X145217190Y-91798584D01*
X145256417Y-91773273D01*
X145291024Y-91759509D01*
X145298261Y-91758752D01*
X145306407Y-91771198D01*
X145306898Y-91803010D01*
X145300911Y-91845904D01*
X145289625Y-91891596D01*
X145274218Y-91931799D01*
X145273439Y-91933360D01*
X145227072Y-91998100D01*
X145166979Y-92042135D01*
X145098733Y-92063749D01*
X145027906Y-92061223D01*
X144960072Y-92032842D01*
X144957056Y-92030846D01*
X144903695Y-91982486D01*
X144868608Y-91919390D01*
X144849190Y-91836425D01*
X144846584Y-91813116D01*
X144841969Y-91703093D01*
X144847501Y-91651786D01*
X144986782Y-91651786D01*
X144988592Y-91683791D01*
X144998490Y-91693131D01*
X145023166Y-91686143D01*
X145062063Y-91669625D01*
X145105543Y-91648919D01*
X145106624Y-91648371D01*
X145143477Y-91628987D01*
X145158268Y-91616051D01*
X145154621Y-91602489D01*
X145139263Y-91584670D01*
X145100191Y-91558883D01*
X145058114Y-91556988D01*
X145020371Y-91575755D01*
X144994302Y-91611953D01*
X144986782Y-91651786D01*
X144847501Y-91651786D01*
X144851462Y-91615065D01*
X144875818Y-91545250D01*
X144909724Y-91496340D01*
X144970921Y-91446916D01*
X145038331Y-91422397D01*
X145107148Y-91420835D01*
X145172571Y-91440277D01*
G37*
X147044012Y-91460006D02*
X147100884Y-91481125D01*
X147101535Y-91481531D01*
X147136708Y-91507418D01*
X147162675Y-91537671D01*
X147180938Y-91577096D01*
X147193000Y-91630500D01*
X147200364Y-91702689D01*
X147204532Y-91798470D01*
X147204897Y-91812116D01*
X147210144Y-92017880D01*
X147165984Y-92040716D01*
X147134031Y-92056148D01*
X147114738Y-92063461D01*
X147113846Y-92063552D01*
X147110507Y-92050060D01*
X147107855Y-92013664D01*
X147106224Y-91960490D01*
X147105868Y-91917431D01*
X147105860Y-91847679D01*
X147102671Y-91803875D01*
X147091556Y-91782982D01*
X147067769Y-91781963D01*
X147026564Y-91797779D01*
X146964354Y-91826853D01*
X146918609Y-91851001D01*
X146895081Y-91871951D01*
X146888164Y-91894785D01*
X146888154Y-91895915D01*
X146899567Y-91935250D01*
X146933360Y-91956500D01*
X146985077Y-91959577D01*
X147022329Y-91959044D01*
X147041971Y-91969773D01*
X147054220Y-91995543D01*
X147061270Y-92028375D01*
X147051110Y-92047004D01*
X147047285Y-92049670D01*
X147011269Y-92060378D01*
X146960834Y-92061894D01*
X146908894Y-92054797D01*
X146872090Y-92041826D01*
X146821206Y-91998623D01*
X146792282Y-91938484D01*
X146786554Y-91891500D01*
X146790925Y-91849120D01*
X146806743Y-91814526D01*
X146838065Y-91783801D01*
X146888946Y-91753028D01*
X146963444Y-91718290D01*
X146967982Y-91716326D01*
X147035089Y-91685325D01*
X147076500Y-91659900D01*
X147094249Y-91637052D01*
X147090375Y-91613783D01*
X147066911Y-91587094D01*
X147059895Y-91580952D01*
X147012898Y-91557138D01*
X146964201Y-91558141D01*
X146921790Y-91581489D01*
X146893652Y-91624713D01*
X146891037Y-91633198D01*
X146865576Y-91674346D01*
X146833269Y-91694166D01*
X146786554Y-91713808D01*
X146786554Y-91662988D01*
X146800764Y-91589120D01*
X146842943Y-91521365D01*
X146864892Y-91498699D01*
X146914785Y-91469607D01*
X146978235Y-91456438D01*
X147044012Y-91460006D01*
G36*
X147044012Y-91460006D02*
G01*
X147100884Y-91481125D01*
X147101535Y-91481531D01*
X147136708Y-91507418D01*
X147162675Y-91537671D01*
X147180938Y-91577096D01*
X147193000Y-91630500D01*
X147200364Y-91702689D01*
X147204532Y-91798470D01*
X147204897Y-91812116D01*
X147210144Y-92017880D01*
X147165984Y-92040716D01*
X147134031Y-92056148D01*
X147114738Y-92063461D01*
X147113846Y-92063552D01*
X147110507Y-92050060D01*
X147107855Y-92013664D01*
X147106224Y-91960490D01*
X147105868Y-91917431D01*
X147105860Y-91847679D01*
X147102671Y-91803875D01*
X147091556Y-91782982D01*
X147067769Y-91781963D01*
X147026564Y-91797779D01*
X146964354Y-91826853D01*
X146918609Y-91851001D01*
X146895081Y-91871951D01*
X146888164Y-91894785D01*
X146888154Y-91895915D01*
X146899567Y-91935250D01*
X146933360Y-91956500D01*
X146985077Y-91959577D01*
X147022329Y-91959044D01*
X147041971Y-91969773D01*
X147054220Y-91995543D01*
X147061270Y-92028375D01*
X147051110Y-92047004D01*
X147047285Y-92049670D01*
X147011269Y-92060378D01*
X146960834Y-92061894D01*
X146908894Y-92054797D01*
X146872090Y-92041826D01*
X146821206Y-91998623D01*
X146792282Y-91938484D01*
X146786554Y-91891500D01*
X146790925Y-91849120D01*
X146806743Y-91814526D01*
X146838065Y-91783801D01*
X146888946Y-91753028D01*
X146963444Y-91718290D01*
X146967982Y-91716326D01*
X147035089Y-91685325D01*
X147076500Y-91659900D01*
X147094249Y-91637052D01*
X147090375Y-91613783D01*
X147066911Y-91587094D01*
X147059895Y-91580952D01*
X147012898Y-91557138D01*
X146964201Y-91558141D01*
X146921790Y-91581489D01*
X146893652Y-91624713D01*
X146891037Y-91633198D01*
X146865576Y-91674346D01*
X146833269Y-91694166D01*
X146786554Y-91713808D01*
X146786554Y-91662988D01*
X146800764Y-91589120D01*
X146842943Y-91521365D01*
X146864892Y-91498699D01*
X146914785Y-91469607D01*
X146978235Y-91456438D01*
X147044012Y-91460006D01*
G37*
X144604012Y-91428956D02*
X144659469Y-91456606D01*
X144708416Y-91507518D01*
X144721897Y-91526376D01*
X144736582Y-91551053D01*
X144746110Y-91577854D01*
X144751561Y-91613625D01*
X144754015Y-91665207D01*
X144754554Y-91733305D01*
X144752120Y-91826626D01*
X144743662Y-91896695D01*
X144727442Y-91948969D01*
X144701722Y-91988907D01*
X144664765Y-92021967D01*
X144662050Y-92023924D01*
X144625628Y-92043946D01*
X144581770Y-92053853D01*
X144525992Y-92056295D01*
X144435316Y-92056295D01*
X144435278Y-92144321D01*
X144434434Y-92193346D01*
X144429292Y-92222103D01*
X144415855Y-92239349D01*
X144390126Y-92253846D01*
X144383947Y-92256807D01*
X144355032Y-92270686D01*
X144332644Y-92279452D01*
X144315997Y-92280209D01*
X144304304Y-92270061D01*
X144296778Y-92246111D01*
X144292634Y-92205464D01*
X144291083Y-92145224D01*
X144291339Y-92062493D01*
X144292617Y-91954377D01*
X144293016Y-91922038D01*
X144294453Y-91810562D01*
X144295740Y-91737641D01*
X144435239Y-91737641D01*
X144436023Y-91799537D01*
X144439508Y-91840035D01*
X144447392Y-91866746D01*
X144461373Y-91887282D01*
X144470865Y-91897298D01*
X144509672Y-91926605D01*
X144544031Y-91928990D01*
X144579484Y-91904788D01*
X144580382Y-91903895D01*
X144594807Y-91885191D01*
X144603581Y-91859770D01*
X144608007Y-91820622D01*
X144609386Y-91760735D01*
X144609411Y-91747468D01*
X144606080Y-91664939D01*
X144595237Y-91607729D01*
X144575608Y-91572804D01*
X144545918Y-91557132D01*
X144528759Y-91555552D01*
X144488034Y-91562964D01*
X144460100Y-91587368D01*
X144443285Y-91632018D01*
X144435918Y-91700168D01*
X144435239Y-91737641D01*
X144295740Y-91737641D01*
X144295976Y-91724283D01*
X144297945Y-91659371D01*
X144300718Y-91611996D01*
X144304656Y-91578328D01*
X144310117Y-91554536D01*
X144317460Y-91536791D01*
X144327045Y-91521262D01*
X144331155Y-91515419D01*
X144385673Y-91460223D01*
X144454604Y-91428928D01*
X144534340Y-91420203D01*
X144604012Y-91428956D01*
G36*
X144604012Y-91428956D02*
G01*
X144659469Y-91456606D01*
X144708416Y-91507518D01*
X144721897Y-91526376D01*
X144736582Y-91551053D01*
X144746110Y-91577854D01*
X144751561Y-91613625D01*
X144754015Y-91665207D01*
X144754554Y-91733305D01*
X144752120Y-91826626D01*
X144743662Y-91896695D01*
X144727442Y-91948969D01*
X144701722Y-91988907D01*
X144664765Y-92021967D01*
X144662050Y-92023924D01*
X144625628Y-92043946D01*
X144581770Y-92053853D01*
X144525992Y-92056295D01*
X144435316Y-92056295D01*
X144435278Y-92144321D01*
X144434434Y-92193346D01*
X144429292Y-92222103D01*
X144415855Y-92239349D01*
X144390126Y-92253846D01*
X144383947Y-92256807D01*
X144355032Y-92270686D01*
X144332644Y-92279452D01*
X144315997Y-92280209D01*
X144304304Y-92270061D01*
X144296778Y-92246111D01*
X144292634Y-92205464D01*
X144291083Y-92145224D01*
X144291339Y-92062493D01*
X144292617Y-91954377D01*
X144293016Y-91922038D01*
X144294453Y-91810562D01*
X144295740Y-91737641D01*
X144435239Y-91737641D01*
X144436023Y-91799537D01*
X144439508Y-91840035D01*
X144447392Y-91866746D01*
X144461373Y-91887282D01*
X144470865Y-91897298D01*
X144509672Y-91926605D01*
X144544031Y-91928990D01*
X144579484Y-91904788D01*
X144580382Y-91903895D01*
X144594807Y-91885191D01*
X144603581Y-91859770D01*
X144608007Y-91820622D01*
X144609386Y-91760735D01*
X144609411Y-91747468D01*
X144606080Y-91664939D01*
X144595237Y-91607729D01*
X144575608Y-91572804D01*
X144545918Y-91557132D01*
X144528759Y-91555552D01*
X144488034Y-91562964D01*
X144460100Y-91587368D01*
X144443285Y-91632018D01*
X144435918Y-91700168D01*
X144435239Y-91737641D01*
X144295740Y-91737641D01*
X144295976Y-91724283D01*
X144297945Y-91659371D01*
X144300718Y-91611996D01*
X144304656Y-91578328D01*
X144310117Y-91554536D01*
X144317460Y-91536791D01*
X144327045Y-91521262D01*
X144331155Y-91515419D01*
X144385673Y-91460223D01*
X144454604Y-91428928D01*
X144534340Y-91420203D01*
X144604012Y-91428956D01*
G37*
X149149144Y-91465373D02*
X149190935Y-91484382D01*
X149223737Y-91507416D01*
X149247771Y-91533171D01*
X149264365Y-91566396D01*
X149274845Y-91611838D01*
X149280539Y-91674245D01*
X149282775Y-91758365D01*
X149283011Y-91813759D01*
X149283011Y-92029864D01*
X149246042Y-92046708D01*
X149216924Y-92059019D01*
X149202499Y-92063552D01*
X149199740Y-92050063D01*
X149197550Y-92013691D01*
X149196210Y-91960580D01*
X149195925Y-91918410D01*
X149194702Y-91857485D01*
X149191404Y-91809153D01*
X149186589Y-91779556D01*
X149182764Y-91773267D01*
X149157051Y-91779690D01*
X149116686Y-91796163D01*
X149069947Y-91818496D01*
X149025113Y-91842495D01*
X148990461Y-91863968D01*
X148974270Y-91878723D01*
X148974206Y-91878883D01*
X148975598Y-91906190D01*
X148988086Y-91932257D01*
X149010011Y-91953430D01*
X149042011Y-91960512D01*
X149069360Y-91959687D01*
X149108094Y-91959080D01*
X149128426Y-91968154D01*
X149140637Y-91992130D01*
X149142177Y-91996651D01*
X149147471Y-92030844D01*
X149133315Y-92051606D01*
X149096416Y-92061500D01*
X149056557Y-92063330D01*
X148984830Y-92049765D01*
X148947700Y-92030393D01*
X148901844Y-91984883D01*
X148877524Y-91929021D01*
X148875341Y-91869995D01*
X148895897Y-91814991D01*
X148926817Y-91780524D01*
X148957688Y-91761227D01*
X149006210Y-91736797D01*
X149062753Y-91712023D01*
X149072178Y-91708237D01*
X149134287Y-91680829D01*
X149170090Y-91656672D01*
X149181605Y-91632657D01*
X149170848Y-91605673D01*
X149152382Y-91584581D01*
X149108737Y-91558610D01*
X149060714Y-91556662D01*
X149016674Y-91576675D01*
X148984977Y-91616589D01*
X148980817Y-91626886D01*
X148956595Y-91664762D01*
X148921233Y-91692880D01*
X148876611Y-91715955D01*
X148876611Y-91650523D01*
X148879237Y-91610544D01*
X148890498Y-91579035D01*
X148915467Y-91545416D01*
X148939437Y-91519522D01*
X148976709Y-91482855D01*
X149005669Y-91463159D01*
X149036773Y-91455258D01*
X149071981Y-91453952D01*
X149149144Y-91465373D01*
G36*
X149149144Y-91465373D02*
G01*
X149190935Y-91484382D01*
X149223737Y-91507416D01*
X149247771Y-91533171D01*
X149264365Y-91566396D01*
X149274845Y-91611838D01*
X149280539Y-91674245D01*
X149282775Y-91758365D01*
X149283011Y-91813759D01*
X149283011Y-92029864D01*
X149246042Y-92046708D01*
X149216924Y-92059019D01*
X149202499Y-92063552D01*
X149199740Y-92050063D01*
X149197550Y-92013691D01*
X149196210Y-91960580D01*
X149195925Y-91918410D01*
X149194702Y-91857485D01*
X149191404Y-91809153D01*
X149186589Y-91779556D01*
X149182764Y-91773267D01*
X149157051Y-91779690D01*
X149116686Y-91796163D01*
X149069947Y-91818496D01*
X149025113Y-91842495D01*
X148990461Y-91863968D01*
X148974270Y-91878723D01*
X148974206Y-91878883D01*
X148975598Y-91906190D01*
X148988086Y-91932257D01*
X149010011Y-91953430D01*
X149042011Y-91960512D01*
X149069360Y-91959687D01*
X149108094Y-91959080D01*
X149128426Y-91968154D01*
X149140637Y-91992130D01*
X149142177Y-91996651D01*
X149147471Y-92030844D01*
X149133315Y-92051606D01*
X149096416Y-92061500D01*
X149056557Y-92063330D01*
X148984830Y-92049765D01*
X148947700Y-92030393D01*
X148901844Y-91984883D01*
X148877524Y-91929021D01*
X148875341Y-91869995D01*
X148895897Y-91814991D01*
X148926817Y-91780524D01*
X148957688Y-91761227D01*
X149006210Y-91736797D01*
X149062753Y-91712023D01*
X149072178Y-91708237D01*
X149134287Y-91680829D01*
X149170090Y-91656672D01*
X149181605Y-91632657D01*
X149170848Y-91605673D01*
X149152382Y-91584581D01*
X149108737Y-91558610D01*
X149060714Y-91556662D01*
X149016674Y-91576675D01*
X148984977Y-91616589D01*
X148980817Y-91626886D01*
X148956595Y-91664762D01*
X148921233Y-91692880D01*
X148876611Y-91715955D01*
X148876611Y-91650523D01*
X148879237Y-91610544D01*
X148890498Y-91579035D01*
X148915467Y-91545416D01*
X148939437Y-91519522D01*
X148976709Y-91482855D01*
X149005669Y-91463159D01*
X149036773Y-91455258D01*
X149071981Y-91453952D01*
X149149144Y-91465373D01*
G37*
X147290875Y-86910753D02*
X147369419Y-86911183D01*
X147426263Y-86912347D01*
X147465070Y-86914612D01*
X147489503Y-86918345D01*
X147503227Y-86923911D01*
X147509905Y-86931678D01*
X147513201Y-86942010D01*
X147513521Y-86943348D01*
X147518527Y-86967484D01*
X147527794Y-87015106D01*
X147540357Y-87081146D01*
X147555252Y-87160533D01*
X147571516Y-87248201D01*
X147572084Y-87251280D01*
X147588375Y-87337194D01*
X147603617Y-87413101D01*
X147616826Y-87474450D01*
X147627019Y-87516687D01*
X147633213Y-87535260D01*
X147633508Y-87535589D01*
X147651753Y-87544658D01*
X147689370Y-87559772D01*
X147738236Y-87577667D01*
X147738508Y-87577763D01*
X147800058Y-87600898D01*
X147872622Y-87630370D01*
X147941022Y-87660002D01*
X147944259Y-87661467D01*
X148055667Y-87712031D01*
X148302364Y-87543565D01*
X148378042Y-87492208D01*
X148446596Y-87446294D01*
X148504053Y-87408435D01*
X148546441Y-87381242D01*
X148569790Y-87367326D01*
X148572007Y-87366294D01*
X148588975Y-87370889D01*
X148620666Y-87393060D01*
X148668317Y-87433852D01*
X148733163Y-87494310D01*
X148799362Y-87558632D01*
X148863179Y-87622017D01*
X148920294Y-87679856D01*
X148967270Y-87728580D01*
X149000668Y-87764615D01*
X149017050Y-87784389D01*
X149017659Y-87785407D01*
X149019470Y-87798977D01*
X149012648Y-87821138D01*
X148995505Y-87854883D01*
X148966358Y-87903205D01*
X148923520Y-87969097D01*
X148866413Y-88053922D01*
X148815731Y-88128582D01*
X148770426Y-88195545D01*
X148733115Y-88250921D01*
X148706417Y-88290825D01*
X148692950Y-88311367D01*
X148692102Y-88312761D01*
X148693746Y-88332443D01*
X148706210Y-88370698D01*
X148727013Y-88420294D01*
X148734427Y-88436133D01*
X148766779Y-88506695D01*
X148801293Y-88586758D01*
X148829330Y-88656034D01*
X148849533Y-88707450D01*
X148865580Y-88746524D01*
X148874853Y-88766946D01*
X148876006Y-88768519D01*
X148893061Y-88771126D01*
X148933263Y-88778268D01*
X148991267Y-88788928D01*
X149061728Y-88802090D01*
X149139300Y-88816738D01*
X149218637Y-88831854D01*
X149294396Y-88846423D01*
X149361229Y-88859427D01*
X149413793Y-88869850D01*
X149446741Y-88876675D01*
X149454822Y-88878604D01*
X149463170Y-88883367D01*
X149469471Y-88894123D01*
X149474010Y-88914503D01*
X149477069Y-88948139D01*
X149478932Y-88998660D01*
X149479883Y-89069697D01*
X149480205Y-89164881D01*
X149480222Y-89203897D01*
X149480222Y-89521204D01*
X149404022Y-89536244D01*
X149361628Y-89544400D01*
X149298365Y-89556304D01*
X149221927Y-89570521D01*
X149140008Y-89585615D01*
X149117365Y-89589760D01*
X149041771Y-89604458D01*
X148975918Y-89618910D01*
X148925331Y-89631780D01*
X148895539Y-89641727D01*
X148890577Y-89644692D01*
X148878391Y-89665688D01*
X148860918Y-89706372D01*
X148841542Y-89758727D01*
X148837699Y-89770005D01*
X148812304Y-89839928D01*
X148780782Y-89918823D01*
X148749934Y-89989671D01*
X148749782Y-89990000D01*
X148698412Y-90101138D01*
X148867364Y-90349658D01*
X149036317Y-90598177D01*
X148819394Y-90815463D01*
X148753784Y-90880131D01*
X148693944Y-90937138D01*
X148643232Y-90983438D01*
X148605011Y-91015989D01*
X148582640Y-91031748D01*
X148579431Y-91032748D01*
X148560591Y-91024874D01*
X148522145Y-91002983D01*
X148468295Y-90969672D01*
X148403241Y-90927536D01*
X148332905Y-90880348D01*
X148261520Y-90832215D01*
X148197873Y-90790333D01*
X148146006Y-90757276D01*
X148109960Y-90735623D01*
X148093832Y-90727948D01*
X148074154Y-90734442D01*
X148036840Y-90751555D01*
X147989586Y-90775731D01*
X147984577Y-90778418D01*
X147920942Y-90810332D01*
X147877306Y-90825984D01*
X147850167Y-90826150D01*
X147836022Y-90811609D01*
X147835940Y-90811405D01*
X147828870Y-90794184D01*
X147812007Y-90753304D01*
X147786660Y-90691930D01*
X147754136Y-90613224D01*
X147715743Y-90520352D01*
X147672787Y-90416477D01*
X147631187Y-90315907D01*
X147585469Y-90204921D01*
X147543491Y-90102108D01*
X147506513Y-90010620D01*
X147475792Y-89933606D01*
X147452587Y-89874220D01*
X147438155Y-89835614D01*
X147433708Y-89821205D01*
X147444861Y-89804677D01*
X147474034Y-89778335D01*
X147512936Y-89749292D01*
X147623722Y-89657444D01*
X147710316Y-89552164D01*
X147771681Y-89435671D01*
X147806780Y-89310181D01*
X147814573Y-89177912D01*
X147808908Y-89116862D01*
X147778043Y-88990200D01*
X147724885Y-88878346D01*
X147652732Y-88782406D01*
X147564882Y-88703481D01*
X147464630Y-88642675D01*
X147355275Y-88601092D01*
X147240112Y-88579833D01*
X147122440Y-88580004D01*
X147005555Y-88602706D01*
X146892754Y-88649043D01*
X146787334Y-88720118D01*
X146743333Y-88760316D01*
X146658944Y-88863534D01*
X146600187Y-88976330D01*
X146566669Y-89095415D01*
X146558000Y-89217500D01*
X146573788Y-89339298D01*
X146613643Y-89457521D01*
X146677172Y-89568880D01*
X146763986Y-89670089D01*
X146860994Y-89749292D01*
X146901402Y-89779567D01*
X146929947Y-89805624D01*
X146940222Y-89821230D01*
X146934842Y-89838248D01*
X146919540Y-89878905D01*
X146895577Y-89940047D01*
X146864209Y-90018524D01*
X146826697Y-90111185D01*
X146784298Y-90214877D01*
X146742628Y-90315931D01*
X146696655Y-90427012D01*
X146654072Y-90529946D01*
X146616186Y-90621570D01*
X146584305Y-90698721D01*
X146559736Y-90758236D01*
X146543785Y-90796949D01*
X146537875Y-90811405D01*
X146523913Y-90826090D01*
X146496905Y-90826047D01*
X146453378Y-90810504D01*
X146389855Y-90778689D01*
X146389353Y-90778418D01*
X146341525Y-90753728D01*
X146302862Y-90735743D01*
X146281060Y-90728019D01*
X146280098Y-90727948D01*
X146263686Y-90735783D01*
X146227452Y-90757570D01*
X146175439Y-90790733D01*
X146111690Y-90832696D01*
X146041025Y-90880348D01*
X145969081Y-90928596D01*
X145904239Y-90970556D01*
X145850700Y-91003632D01*
X145812662Y-91025226D01*
X145794498Y-91032748D01*
X145777773Y-91022862D01*
X145744145Y-90995231D01*
X145696975Y-90952900D01*
X145639623Y-90898910D01*
X145575449Y-90836304D01*
X145554462Y-90815388D01*
X145337464Y-90598028D01*
X145502633Y-90355625D01*
X145552829Y-90281186D01*
X145596884Y-90214377D01*
X145632327Y-90159070D01*
X145656684Y-90119134D01*
X145667487Y-90098441D01*
X145667803Y-90096968D01*
X145662108Y-90077463D01*
X145646791Y-90038227D01*
X145624502Y-89985835D01*
X145608858Y-89950760D01*
X145579606Y-89883606D01*
X145552059Y-89815763D01*
X145530702Y-89758439D01*
X145524900Y-89740977D01*
X145508417Y-89694343D01*
X145492305Y-89658310D01*
X145483455Y-89644692D01*
X145463925Y-89636357D01*
X145421299Y-89624542D01*
X145361110Y-89610586D01*
X145288887Y-89595827D01*
X145256565Y-89589760D01*
X145174487Y-89574678D01*
X145095760Y-89560074D01*
X145028074Y-89547385D01*
X144979125Y-89538047D01*
X144969908Y-89536244D01*
X144893708Y-89521204D01*
X144893708Y-89203897D01*
X144893879Y-89099559D01*
X144894581Y-89020618D01*
X144896099Y-88963443D01*
X144898714Y-88924404D01*
X144902711Y-88899870D01*
X144908374Y-88886210D01*
X144915985Y-88879794D01*
X144919108Y-88878604D01*
X144937943Y-88874385D01*
X144979553Y-88865967D01*
X145038595Y-88854366D01*
X145109722Y-88840600D01*
X145187590Y-88825685D01*
X145266852Y-88810637D01*
X145342163Y-88796474D01*
X145408178Y-88784211D01*
X145459552Y-88774866D01*
X145490940Y-88769455D01*
X145497924Y-88768519D01*
X145504250Y-88756001D01*
X145518255Y-88722651D01*
X145537320Y-88674782D01*
X145544599Y-88656034D01*
X145573961Y-88583600D01*
X145608536Y-88503575D01*
X145639502Y-88436133D01*
X145662288Y-88384564D01*
X145677447Y-88342190D01*
X145682507Y-88316239D01*
X145681701Y-88312761D01*
X145671006Y-88296341D01*
X145646585Y-88259822D01*
X145611060Y-88207092D01*
X145567052Y-88142040D01*
X145517182Y-88068556D01*
X145507321Y-88054050D01*
X145449457Y-87968109D01*
X145406921Y-87902666D01*
X145378019Y-87854709D01*
X145361055Y-87821225D01*
X145354332Y-87799200D01*
X145356155Y-87785622D01*
X145356201Y-87785536D01*
X145370551Y-87767702D01*
X145402288Y-87733222D01*
X145447975Y-87685673D01*
X145504169Y-87628627D01*
X145567433Y-87565660D01*
X145574567Y-87558632D01*
X145654295Y-87481425D01*
X145715822Y-87424735D01*
X145760386Y-87387515D01*
X145789222Y-87368720D01*
X145801923Y-87366294D01*
X145820459Y-87376876D01*
X145858926Y-87401321D01*
X145913351Y-87437017D01*
X145979763Y-87481352D01*
X146054190Y-87531716D01*
X146071566Y-87543565D01*
X146318262Y-87712031D01*
X146429671Y-87661467D01*
X146497422Y-87632000D01*
X146570148Y-87602364D01*
X146632668Y-87578735D01*
X146635422Y-87577763D01*
X146684325Y-87559862D01*
X146722022Y-87544725D01*
X146740390Y-87535615D01*
X146740421Y-87535589D01*
X146746250Y-87519122D01*
X146756157Y-87478624D01*
X146769160Y-87418647D01*
X146784274Y-87343745D01*
X146800517Y-87258469D01*
X146801846Y-87251280D01*
X146818140Y-87163419D01*
X146833098Y-87083665D01*
X146845756Y-87017086D01*
X146855151Y-86968752D01*
X146860319Y-86943730D01*
X146860409Y-86943348D01*
X146863554Y-86932704D01*
X146869669Y-86924667D01*
X146882418Y-86918872D01*
X146905465Y-86914952D01*
X146942474Y-86912540D01*
X146997109Y-86911270D01*
X147073032Y-86910776D01*
X147173909Y-86910691D01*
X147186965Y-86910691D01*
X147290875Y-86910753D01*
G36*
X147290875Y-86910753D02*
G01*
X147369419Y-86911183D01*
X147426263Y-86912347D01*
X147465070Y-86914612D01*
X147489503Y-86918345D01*
X147503227Y-86923911D01*
X147509905Y-86931678D01*
X147513201Y-86942010D01*
X147513521Y-86943348D01*
X147518527Y-86967484D01*
X147527794Y-87015106D01*
X147540357Y-87081146D01*
X147555252Y-87160533D01*
X147571516Y-87248201D01*
X147572084Y-87251280D01*
X147588375Y-87337194D01*
X147603617Y-87413101D01*
X147616826Y-87474450D01*
X147627019Y-87516687D01*
X147633213Y-87535260D01*
X147633508Y-87535589D01*
X147651753Y-87544658D01*
X147689370Y-87559772D01*
X147738236Y-87577667D01*
X147738508Y-87577763D01*
X147800058Y-87600898D01*
X147872622Y-87630370D01*
X147941022Y-87660002D01*
X147944259Y-87661467D01*
X148055667Y-87712031D01*
X148302364Y-87543565D01*
X148378042Y-87492208D01*
X148446596Y-87446294D01*
X148504053Y-87408435D01*
X148546441Y-87381242D01*
X148569790Y-87367326D01*
X148572007Y-87366294D01*
X148588975Y-87370889D01*
X148620666Y-87393060D01*
X148668317Y-87433852D01*
X148733163Y-87494310D01*
X148799362Y-87558632D01*
X148863179Y-87622017D01*
X148920294Y-87679856D01*
X148967270Y-87728580D01*
X149000668Y-87764615D01*
X149017050Y-87784389D01*
X149017659Y-87785407D01*
X149019470Y-87798977D01*
X149012648Y-87821138D01*
X148995505Y-87854883D01*
X148966358Y-87903205D01*
X148923520Y-87969097D01*
X148866413Y-88053922D01*
X148815731Y-88128582D01*
X148770426Y-88195545D01*
X148733115Y-88250921D01*
X148706417Y-88290825D01*
X148692950Y-88311367D01*
X148692102Y-88312761D01*
X148693746Y-88332443D01*
X148706210Y-88370698D01*
X148727013Y-88420294D01*
X148734427Y-88436133D01*
X148766779Y-88506695D01*
X148801293Y-88586758D01*
X148829330Y-88656034D01*
X148849533Y-88707450D01*
X148865580Y-88746524D01*
X148874853Y-88766946D01*
X148876006Y-88768519D01*
X148893061Y-88771126D01*
X148933263Y-88778268D01*
X148991267Y-88788928D01*
X149061728Y-88802090D01*
X149139300Y-88816738D01*
X149218637Y-88831854D01*
X149294396Y-88846423D01*
X149361229Y-88859427D01*
X149413793Y-88869850D01*
X149446741Y-88876675D01*
X149454822Y-88878604D01*
X149463170Y-88883367D01*
X149469471Y-88894123D01*
X149474010Y-88914503D01*
X149477069Y-88948139D01*
X149478932Y-88998660D01*
X149479883Y-89069697D01*
X149480205Y-89164881D01*
X149480222Y-89203897D01*
X149480222Y-89521204D01*
X149404022Y-89536244D01*
X149361628Y-89544400D01*
X149298365Y-89556304D01*
X149221927Y-89570521D01*
X149140008Y-89585615D01*
X149117365Y-89589760D01*
X149041771Y-89604458D01*
X148975918Y-89618910D01*
X148925331Y-89631780D01*
X148895539Y-89641727D01*
X148890577Y-89644692D01*
X148878391Y-89665688D01*
X148860918Y-89706372D01*
X148841542Y-89758727D01*
X148837699Y-89770005D01*
X148812304Y-89839928D01*
X148780782Y-89918823D01*
X148749934Y-89989671D01*
X148749782Y-89990000D01*
X148698412Y-90101138D01*
X148867364Y-90349658D01*
X149036317Y-90598177D01*
X148819394Y-90815463D01*
X148753784Y-90880131D01*
X148693944Y-90937138D01*
X148643232Y-90983438D01*
X148605011Y-91015989D01*
X148582640Y-91031748D01*
X148579431Y-91032748D01*
X148560591Y-91024874D01*
X148522145Y-91002983D01*
X148468295Y-90969672D01*
X148403241Y-90927536D01*
X148332905Y-90880348D01*
X148261520Y-90832215D01*
X148197873Y-90790333D01*
X148146006Y-90757276D01*
X148109960Y-90735623D01*
X148093832Y-90727948D01*
X148074154Y-90734442D01*
X148036840Y-90751555D01*
X147989586Y-90775731D01*
X147984577Y-90778418D01*
X147920942Y-90810332D01*
X147877306Y-90825984D01*
X147850167Y-90826150D01*
X147836022Y-90811609D01*
X147835940Y-90811405D01*
X147828870Y-90794184D01*
X147812007Y-90753304D01*
X147786660Y-90691930D01*
X147754136Y-90613224D01*
X147715743Y-90520352D01*
X147672787Y-90416477D01*
X147631187Y-90315907D01*
X147585469Y-90204921D01*
X147543491Y-90102108D01*
X147506513Y-90010620D01*
X147475792Y-89933606D01*
X147452587Y-89874220D01*
X147438155Y-89835614D01*
X147433708Y-89821205D01*
X147444861Y-89804677D01*
X147474034Y-89778335D01*
X147512936Y-89749292D01*
X147623722Y-89657444D01*
X147710316Y-89552164D01*
X147771681Y-89435671D01*
X147806780Y-89310181D01*
X147814573Y-89177912D01*
X147808908Y-89116862D01*
X147778043Y-88990200D01*
X147724885Y-88878346D01*
X147652732Y-88782406D01*
X147564882Y-88703481D01*
X147464630Y-88642675D01*
X147355275Y-88601092D01*
X147240112Y-88579833D01*
X147122440Y-88580004D01*
X147005555Y-88602706D01*
X146892754Y-88649043D01*
X146787334Y-88720118D01*
X146743333Y-88760316D01*
X146658944Y-88863534D01*
X146600187Y-88976330D01*
X146566669Y-89095415D01*
X146558000Y-89217500D01*
X146573788Y-89339298D01*
X146613643Y-89457521D01*
X146677172Y-89568880D01*
X146763986Y-89670089D01*
X146860994Y-89749292D01*
X146901402Y-89779567D01*
X146929947Y-89805624D01*
X146940222Y-89821230D01*
X146934842Y-89838248D01*
X146919540Y-89878905D01*
X146895577Y-89940047D01*
X146864209Y-90018524D01*
X146826697Y-90111185D01*
X146784298Y-90214877D01*
X146742628Y-90315931D01*
X146696655Y-90427012D01*
X146654072Y-90529946D01*
X146616186Y-90621570D01*
X146584305Y-90698721D01*
X146559736Y-90758236D01*
X146543785Y-90796949D01*
X146537875Y-90811405D01*
X146523913Y-90826090D01*
X146496905Y-90826047D01*
X146453378Y-90810504D01*
X146389855Y-90778689D01*
X146389353Y-90778418D01*
X146341525Y-90753728D01*
X146302862Y-90735743D01*
X146281060Y-90728019D01*
X146280098Y-90727948D01*
X146263686Y-90735783D01*
X146227452Y-90757570D01*
X146175439Y-90790733D01*
X146111690Y-90832696D01*
X146041025Y-90880348D01*
X145969081Y-90928596D01*
X145904239Y-90970556D01*
X145850700Y-91003632D01*
X145812662Y-91025226D01*
X145794498Y-91032748D01*
X145777773Y-91022862D01*
X145744145Y-90995231D01*
X145696975Y-90952900D01*
X145639623Y-90898910D01*
X145575449Y-90836304D01*
X145554462Y-90815388D01*
X145337464Y-90598028D01*
X145502633Y-90355625D01*
X145552829Y-90281186D01*
X145596884Y-90214377D01*
X145632327Y-90159070D01*
X145656684Y-90119134D01*
X145667487Y-90098441D01*
X145667803Y-90096968D01*
X145662108Y-90077463D01*
X145646791Y-90038227D01*
X145624502Y-89985835D01*
X145608858Y-89950760D01*
X145579606Y-89883606D01*
X145552059Y-89815763D01*
X145530702Y-89758439D01*
X145524900Y-89740977D01*
X145508417Y-89694343D01*
X145492305Y-89658310D01*
X145483455Y-89644692D01*
X145463925Y-89636357D01*
X145421299Y-89624542D01*
X145361110Y-89610586D01*
X145288887Y-89595827D01*
X145256565Y-89589760D01*
X145174487Y-89574678D01*
X145095760Y-89560074D01*
X145028074Y-89547385D01*
X144979125Y-89538047D01*
X144969908Y-89536244D01*
X144893708Y-89521204D01*
X144893708Y-89203897D01*
X144893879Y-89099559D01*
X144894581Y-89020618D01*
X144896099Y-88963443D01*
X144898714Y-88924404D01*
X144902711Y-88899870D01*
X144908374Y-88886210D01*
X144915985Y-88879794D01*
X144919108Y-88878604D01*
X144937943Y-88874385D01*
X144979553Y-88865967D01*
X145038595Y-88854366D01*
X145109722Y-88840600D01*
X145187590Y-88825685D01*
X145266852Y-88810637D01*
X145342163Y-88796474D01*
X145408178Y-88784211D01*
X145459552Y-88774866D01*
X145490940Y-88769455D01*
X145497924Y-88768519D01*
X145504250Y-88756001D01*
X145518255Y-88722651D01*
X145537320Y-88674782D01*
X145544599Y-88656034D01*
X145573961Y-88583600D01*
X145608536Y-88503575D01*
X145639502Y-88436133D01*
X145662288Y-88384564D01*
X145677447Y-88342190D01*
X145682507Y-88316239D01*
X145681701Y-88312761D01*
X145671006Y-88296341D01*
X145646585Y-88259822D01*
X145611060Y-88207092D01*
X145567052Y-88142040D01*
X145517182Y-88068556D01*
X145507321Y-88054050D01*
X145449457Y-87968109D01*
X145406921Y-87902666D01*
X145378019Y-87854709D01*
X145361055Y-87821225D01*
X145354332Y-87799200D01*
X145356155Y-87785622D01*
X145356201Y-87785536D01*
X145370551Y-87767702D01*
X145402288Y-87733222D01*
X145447975Y-87685673D01*
X145504169Y-87628627D01*
X145567433Y-87565660D01*
X145574567Y-87558632D01*
X145654295Y-87481425D01*
X145715822Y-87424735D01*
X145760386Y-87387515D01*
X145789222Y-87368720D01*
X145801923Y-87366294D01*
X145820459Y-87376876D01*
X145858926Y-87401321D01*
X145913351Y-87437017D01*
X145979763Y-87481352D01*
X146054190Y-87531716D01*
X146071566Y-87543565D01*
X146318262Y-87712031D01*
X146429671Y-87661467D01*
X146497422Y-87632000D01*
X146570148Y-87602364D01*
X146632668Y-87578735D01*
X146635422Y-87577763D01*
X146684325Y-87559862D01*
X146722022Y-87544725D01*
X146740390Y-87535615D01*
X146740421Y-87535589D01*
X146746250Y-87519122D01*
X146756157Y-87478624D01*
X146769160Y-87418647D01*
X146784274Y-87343745D01*
X146800517Y-87258469D01*
X146801846Y-87251280D01*
X146818140Y-87163419D01*
X146833098Y-87083665D01*
X146845756Y-87017086D01*
X146855151Y-86968752D01*
X146860319Y-86943730D01*
X146860409Y-86943348D01*
X146863554Y-86932704D01*
X146869669Y-86924667D01*
X146882418Y-86918872D01*
X146905465Y-86914952D01*
X146942474Y-86912540D01*
X146997109Y-86911270D01*
X147073032Y-86910776D01*
X147173909Y-86910691D01*
X147186965Y-86910691D01*
X147290875Y-86910753D01*
G37*
D14*
%TO.C,G\u002A\u002A\u002A*%
G36*
X137696928Y-91233285D02*
G01*
X137720983Y-91243649D01*
X137741641Y-91256709D01*
X137756164Y-91272704D01*
X137767870Y-91298595D01*
X137780078Y-91341347D01*
X137793015Y-91394824D01*
X137807999Y-91451967D01*
X137826224Y-91506751D01*
X137850548Y-91566047D01*
X137883830Y-91636718D01*
X137928928Y-91725630D01*
X137938073Y-91743240D01*
X137977303Y-91820417D01*
X138011362Y-91890862D01*
X138037715Y-91949058D01*
X138053828Y-91989493D01*
X138057576Y-92003317D01*
X138050010Y-92044275D01*
X138026711Y-92080371D01*
X137999289Y-92108360D01*
X137979535Y-92121398D01*
X137954293Y-92126616D01*
X137938451Y-92128236D01*
X137916408Y-92126960D01*
X137894269Y-92117014D01*
X137870273Y-92095813D01*
X137842656Y-92060778D01*
X137809658Y-92009324D01*
X137769516Y-91938870D01*
X137720469Y-91846833D01*
X137660755Y-91730631D01*
X137642142Y-91693922D01*
X137464584Y-91343013D01*
X137513180Y-91292815D01*
X137571741Y-91248678D01*
X137635352Y-91228275D01*
X137696928Y-91233285D01*
G37*
G36*
X142372663Y-89272717D02*
G01*
X142447112Y-89413848D01*
X142517855Y-89547529D01*
X142583541Y-89671236D01*
X142642818Y-89782443D01*
X142694335Y-89878624D01*
X142736740Y-89957253D01*
X142768681Y-90015806D01*
X142788807Y-90051756D01*
X142795101Y-90062066D01*
X142818030Y-90092894D01*
X142627908Y-90196614D01*
X142550652Y-90238187D01*
X142495532Y-90266206D01*
X142458468Y-90282401D01*
X142435380Y-90288497D01*
X142422186Y-90286227D01*
X142420077Y-90284665D01*
X142400904Y-90258192D01*
X142390527Y-90235429D01*
X142386454Y-90216866D01*
X142392835Y-90201109D01*
X142414597Y-90182960D01*
X142456664Y-90157219D01*
X142474200Y-90147112D01*
X142569718Y-90092363D01*
X142206008Y-89393683D01*
X141842299Y-88695004D01*
X141742664Y-88741845D01*
X141643028Y-88788685D01*
X141618507Y-88741580D01*
X141593985Y-88694474D01*
X141666039Y-88652157D01*
X141716277Y-88625369D01*
X141781630Y-88594149D01*
X141848835Y-88564801D01*
X141855625Y-88562017D01*
X141973155Y-88514196D01*
X142372663Y-89272717D01*
G37*
G36*
X130703398Y-94423625D02*
G01*
X130727920Y-94470731D01*
X130632402Y-94525481D01*
X130536884Y-94580231D01*
X130900901Y-95279499D01*
X131264917Y-95978769D01*
X131343585Y-95937817D01*
X131395345Y-95913929D01*
X131431753Y-95905896D01*
X131459910Y-95910837D01*
X131493448Y-95932369D01*
X131498140Y-95959068D01*
X131474265Y-95987580D01*
X131452413Y-96001095D01*
X131403759Y-96028272D01*
X131357429Y-96056583D01*
X131356917Y-96056917D01*
X131316308Y-96080171D01*
X131263215Y-96106534D01*
X131235310Y-96119054D01*
X131189589Y-96136458D01*
X131154062Y-96146064D01*
X131140997Y-96146610D01*
X131130894Y-96132535D01*
X131108087Y-96093987D01*
X131073904Y-96033401D01*
X131029673Y-95953215D01*
X130976720Y-95855862D01*
X130916375Y-95743781D01*
X130849962Y-95619405D01*
X130778811Y-95485170D01*
X130729268Y-95391155D01*
X130655349Y-95250794D01*
X130585122Y-95117894D01*
X130519945Y-94994996D01*
X130461178Y-94884646D01*
X130410181Y-94789382D01*
X130368311Y-94711748D01*
X130336932Y-94654287D01*
X130317400Y-94619541D01*
X130311748Y-94610400D01*
X130288571Y-94579700D01*
X130483724Y-94478110D01*
X130678877Y-94376520D01*
X130703398Y-94423625D01*
G37*
G36*
X134417950Y-92957692D02*
G01*
X134497355Y-92982340D01*
X134547654Y-93015842D01*
X134564945Y-93038198D01*
X134592407Y-93081911D01*
X134627647Y-93142439D01*
X134668278Y-93215232D01*
X134711912Y-93295745D01*
X134756158Y-93379434D01*
X134798629Y-93461749D01*
X134836935Y-93538148D01*
X134868687Y-93604082D01*
X134891495Y-93655004D01*
X134902971Y-93686370D01*
X134903694Y-93693364D01*
X134886268Y-93715506D01*
X134851909Y-93742966D01*
X134811328Y-93768556D01*
X134775240Y-93785083D01*
X134763202Y-93787656D01*
X134737556Y-93781678D01*
X134709329Y-93758666D01*
X134676487Y-93715909D01*
X134636996Y-93650696D01*
X134588822Y-93560318D01*
X134580863Y-93544701D01*
X134525112Y-93439799D01*
X134475944Y-93359582D01*
X134430004Y-93300061D01*
X134383942Y-93257245D01*
X134334406Y-93227144D01*
X134303040Y-93214043D01*
X134243122Y-93199225D01*
X134188666Y-93204261D01*
X134167934Y-93210563D01*
X134116534Y-93232292D01*
X134080335Y-93258823D01*
X134059515Y-93293084D01*
X134054248Y-93338004D01*
X134064714Y-93396507D01*
X134091089Y-93471523D01*
X134133549Y-93565977D01*
X134192273Y-93682797D01*
X134197045Y-93691979D01*
X134241021Y-93777006D01*
X134272505Y-93839873D01*
X134293310Y-93885181D01*
X134305253Y-93917533D01*
X134310147Y-93941528D01*
X134309811Y-93961770D01*
X134308003Y-93973234D01*
X134295910Y-94009459D01*
X134270442Y-94035695D01*
X134238295Y-94054594D01*
X134209969Y-94067778D01*
X134185018Y-94073806D01*
X134161457Y-94070291D01*
X134137303Y-94054849D01*
X134110570Y-94025091D01*
X134079276Y-93978636D01*
X134041433Y-93913095D01*
X133995060Y-93826083D01*
X133938172Y-93715215D01*
X133910322Y-93660282D01*
X133852566Y-93545273D01*
X133808086Y-93454543D01*
X133775784Y-93385647D01*
X133754562Y-93336137D01*
X133743323Y-93303567D01*
X133740968Y-93285491D01*
X133741377Y-93283671D01*
X133761033Y-93260965D01*
X133808840Y-93227748D01*
X133884545Y-93184196D01*
X133885923Y-93183448D01*
X133949575Y-93147213D01*
X134008094Y-93110881D01*
X134052894Y-93079920D01*
X134068528Y-93067206D01*
X134148314Y-93009935D01*
X134237259Y-92972151D01*
X134329195Y-92954516D01*
X134417950Y-92957692D01*
G37*
G36*
X132475813Y-93979123D02*
G01*
X132527123Y-93995639D01*
X132571000Y-94022328D01*
X132599645Y-94044182D01*
X132624407Y-94068189D01*
X132649189Y-94099681D01*
X132677897Y-94143992D01*
X132714438Y-94206452D01*
X132743091Y-94257259D01*
X132784951Y-94331518D01*
X132816365Y-94384656D01*
X132841613Y-94422089D01*
X132864973Y-94449232D01*
X132890724Y-94471499D01*
X132923145Y-94494305D01*
X132938435Y-94504458D01*
X132990739Y-94541663D01*
X133021996Y-94571708D01*
X133038357Y-94600895D01*
X133041052Y-94609569D01*
X133040470Y-94660184D01*
X133016032Y-94706949D01*
X132973694Y-94740349D01*
X132954751Y-94747396D01*
X132890898Y-94761299D01*
X132839697Y-94762016D01*
X132795782Y-94746637D01*
X132753779Y-94712255D01*
X132708319Y-94655960D01*
X132663603Y-94589723D01*
X132627070Y-94535873D01*
X132594409Y-94492413D01*
X132570308Y-94465360D01*
X132562223Y-94459596D01*
X132536896Y-94462193D01*
X132496973Y-94476485D01*
X132474538Y-94487199D01*
X132413995Y-94530674D01*
X132375951Y-94583722D01*
X132362835Y-94641137D01*
X132376733Y-94697063D01*
X132393131Y-94724011D01*
X132413222Y-94741203D01*
X132445125Y-94752641D01*
X132496956Y-94762319D01*
X132514760Y-94765051D01*
X132587328Y-94780555D01*
X132631450Y-94801739D01*
X132648730Y-94830061D01*
X132640773Y-94866976D01*
X132636356Y-94875409D01*
X132597880Y-94920763D01*
X132539191Y-94963071D01*
X132479680Y-94991599D01*
X132415008Y-95002828D01*
X132340930Y-94996237D01*
X132270702Y-94974196D01*
X132225100Y-94946099D01*
X132160823Y-94874258D01*
X132125450Y-94796282D01*
X132119029Y-94715432D01*
X132141609Y-94634970D01*
X132193239Y-94558158D01*
X132218915Y-94532056D01*
X132306827Y-94448203D01*
X132372178Y-94380553D01*
X132416589Y-94326973D01*
X132441680Y-94285337D01*
X132449076Y-94253513D01*
X132444535Y-94235826D01*
X132416375Y-94210999D01*
X132370190Y-94197275D01*
X132316706Y-94196063D01*
X132266655Y-94208773D01*
X132260695Y-94211659D01*
X132197678Y-94238602D01*
X132151639Y-94243403D01*
X132118532Y-94225801D01*
X132101608Y-94201417D01*
X132088985Y-94169189D01*
X132090646Y-94141379D01*
X132109739Y-94113439D01*
X132149414Y-94080821D01*
X132212820Y-94038980D01*
X132215087Y-94037558D01*
X132268600Y-94005111D01*
X132307770Y-93986104D01*
X132343426Y-93977028D01*
X132386400Y-93974378D01*
X132410292Y-93974341D01*
X132475813Y-93979123D01*
G37*
G36*
X136390724Y-91891294D02*
G01*
X136417739Y-91905498D01*
X136438183Y-91931327D01*
X136453015Y-91972572D01*
X136463197Y-92033027D01*
X136469687Y-92116481D01*
X136473231Y-92217165D01*
X136475509Y-92293520D01*
X136478409Y-92359115D01*
X136481591Y-92407891D01*
X136484721Y-92433790D01*
X136485403Y-92435889D01*
X136489746Y-92457082D01*
X136494379Y-92499908D01*
X136498388Y-92555677D01*
X136498850Y-92564044D01*
X136502385Y-92628485D01*
X136507074Y-92710811D01*
X136512205Y-92798619D01*
X136515484Y-92853514D01*
X136519209Y-92939698D01*
X136517648Y-93006486D01*
X136509712Y-93064539D01*
X136494315Y-93124517D01*
X136484746Y-93154720D01*
X136461434Y-93218648D01*
X136436250Y-93276810D01*
X136413753Y-93318916D01*
X136408712Y-93326222D01*
X136356616Y-93379871D01*
X136293184Y-93423043D01*
X136228834Y-93449384D01*
X136198744Y-93454305D01*
X136155814Y-93450356D01*
X136130642Y-93429582D01*
X136126841Y-93422978D01*
X136115713Y-93382423D01*
X136126955Y-93341633D01*
X136162530Y-93297083D01*
X136224398Y-93245252D01*
X136226773Y-93243480D01*
X136277050Y-93204120D01*
X136307770Y-93173602D01*
X136325055Y-93144592D01*
X136333854Y-93115201D01*
X136338661Y-93070905D01*
X136329197Y-93028016D01*
X136309330Y-92984885D01*
X136290597Y-92952904D01*
X136267320Y-92923331D01*
X136234732Y-92891700D01*
X136188065Y-92853544D01*
X136122551Y-92804394D01*
X136096042Y-92785044D01*
X135979000Y-92698667D01*
X135873073Y-92617929D01*
X135780752Y-92544876D01*
X135704523Y-92481552D01*
X135646877Y-92430003D01*
X135610303Y-92392275D01*
X135599457Y-92377021D01*
X135584934Y-92322978D01*
X135596744Y-92275767D01*
X135630916Y-92240568D01*
X135683480Y-92222564D01*
X135718336Y-92221834D01*
X135745035Y-92227396D01*
X135778474Y-92241803D01*
X135822459Y-92267356D01*
X135880793Y-92306355D01*
X135957280Y-92361100D01*
X135997411Y-92390581D01*
X136070354Y-92443650D01*
X136136545Y-92490296D01*
X136191513Y-92527485D01*
X136230782Y-92552184D01*
X136249075Y-92561243D01*
X136266902Y-92560356D01*
X136278558Y-92543934D01*
X136287591Y-92505652D01*
X136290600Y-92487132D01*
X136298171Y-92409646D01*
X136296597Y-92327044D01*
X136285345Y-92231225D01*
X136267134Y-92130123D01*
X136252030Y-92051635D01*
X136244187Y-91997066D01*
X136244334Y-91960701D01*
X136253197Y-91936826D01*
X136271502Y-91919724D01*
X136295651Y-91905922D01*
X136354690Y-91887335D01*
X136390724Y-91891294D01*
G37*
G36*
X138681311Y-90704118D02*
G01*
X138742441Y-90731085D01*
X138762435Y-90744449D01*
X138819580Y-90789326D01*
X138871533Y-90839737D01*
X138922042Y-90900479D01*
X138974860Y-90976353D01*
X139033734Y-91072154D01*
X139076157Y-91145846D01*
X139200816Y-91366326D01*
X139181023Y-91429101D01*
X139152959Y-91485653D01*
X139122390Y-91512095D01*
X139083983Y-91526325D01*
X139048309Y-91525172D01*
X139012810Y-91506312D01*
X138974930Y-91467426D01*
X138932115Y-91406190D01*
X138881808Y-91320282D01*
X138853076Y-91267405D01*
X138799377Y-91169396D01*
X138755255Y-91095516D01*
X138717882Y-91042201D01*
X138684433Y-91005884D01*
X138652083Y-90982998D01*
X138618005Y-90969975D01*
X138617301Y-90969794D01*
X138563985Y-90964064D01*
X138504096Y-90969281D01*
X138446884Y-90983207D01*
X138401596Y-91003599D01*
X138377650Y-91027815D01*
X138367147Y-91058663D01*
X138363160Y-91090445D01*
X138366904Y-91127296D01*
X138379593Y-91173354D01*
X138402442Y-91232753D01*
X138436664Y-91309629D01*
X138483476Y-91408119D01*
X138498304Y-91438692D01*
X138547838Y-91542437D01*
X138585891Y-91626206D01*
X138611672Y-91688134D01*
X138624388Y-91726360D01*
X138625340Y-91737415D01*
X138608899Y-91760504D01*
X138577389Y-91788644D01*
X138569509Y-91794418D01*
X138524938Y-91818120D01*
X138482322Y-91820597D01*
X138473329Y-91819014D01*
X138455928Y-91814728D01*
X138440825Y-91807261D01*
X138425279Y-91792839D01*
X138406547Y-91767690D01*
X138381885Y-91728041D01*
X138348552Y-91670119D01*
X138303803Y-91590152D01*
X138293525Y-91571688D01*
X138246216Y-91486938D01*
X138210478Y-91424408D01*
X138183145Y-91379790D01*
X138161054Y-91348778D01*
X138141037Y-91327061D01*
X138119930Y-91310334D01*
X138094567Y-91294287D01*
X138085867Y-91289089D01*
X138029962Y-91261083D01*
X137978778Y-91250595D01*
X137927400Y-91252458D01*
X137857806Y-91256735D01*
X137811377Y-91251992D01*
X137781890Y-91236792D01*
X137765769Y-91215086D01*
X137762882Y-91179783D01*
X137784671Y-91140919D01*
X137826311Y-91102040D01*
X137882978Y-91066696D01*
X137949846Y-91038435D01*
X138022090Y-91020808D01*
X138031718Y-91019470D01*
X138117983Y-91008751D01*
X138179598Y-91000426D01*
X138221918Y-90992326D01*
X138250295Y-90982284D01*
X138270083Y-90968132D01*
X138286633Y-90947706D01*
X138305299Y-90918836D01*
X138314094Y-90905151D01*
X138352781Y-90851948D01*
X138394450Y-90811144D01*
X138450492Y-90772026D01*
X138465240Y-90762970D01*
X138548278Y-90719713D01*
X138618446Y-90700212D01*
X138681311Y-90704118D01*
G37*
G36*
X140501451Y-89791509D02*
G01*
X140532443Y-89800822D01*
X140539431Y-89806861D01*
X140558941Y-89822424D01*
X140566666Y-89822869D01*
X140597100Y-89832928D01*
X140636146Y-89870461D01*
X140682787Y-89934167D01*
X140736009Y-90022743D01*
X140766969Y-90080150D01*
X140804325Y-90151200D01*
X140832214Y-90201183D01*
X140855192Y-90235946D01*
X140877815Y-90261336D01*
X140904639Y-90283197D01*
X140940219Y-90307377D01*
X140948068Y-90312533D01*
X141018629Y-90366043D01*
X141062327Y-90415768D01*
X141078373Y-90460403D01*
X141065978Y-90498643D01*
X141062880Y-90502363D01*
X141032263Y-90528550D01*
X140988333Y-90557301D01*
X140971117Y-90566814D01*
X140918432Y-90586977D01*
X140870351Y-90587783D01*
X140823601Y-90567287D01*
X140774908Y-90523544D01*
X140720993Y-90454608D01*
X140681107Y-90394597D01*
X140648604Y-90346349D01*
X140619868Y-90308680D01*
X140600422Y-90288747D01*
X140598615Y-90287713D01*
X140556985Y-90284150D01*
X140508435Y-90302102D01*
X140460301Y-90336296D01*
X140419924Y-90381460D01*
X140394644Y-90432322D01*
X140393960Y-90434729D01*
X140391460Y-90497037D01*
X140403645Y-90531830D01*
X140418593Y-90555424D01*
X140438388Y-90570242D01*
X140470764Y-90579364D01*
X140523449Y-90585872D01*
X140543938Y-90587737D01*
X140600410Y-90594539D01*
X140644209Y-90603260D01*
X140667313Y-90612222D01*
X140668732Y-90613872D01*
X140671822Y-90638710D01*
X140668032Y-90677263D01*
X140667575Y-90679757D01*
X140660302Y-90707172D01*
X140646509Y-90727756D01*
X140619623Y-90747637D01*
X140573068Y-90772944D01*
X140561049Y-90779079D01*
X140509375Y-90803827D01*
X140465839Y-90821978D01*
X140439566Y-90829741D01*
X140439006Y-90829781D01*
X140353622Y-90820980D01*
X140277325Y-90788054D01*
X140214292Y-90735713D01*
X140168696Y-90668668D01*
X140144710Y-90591628D01*
X140146509Y-90509303D01*
X140148133Y-90501550D01*
X140157623Y-90470200D01*
X140173570Y-90440083D01*
X140200123Y-90405790D01*
X140241429Y-90361918D01*
X140297130Y-90307388D01*
X140371767Y-90232904D01*
X140423992Y-90173711D01*
X140455690Y-90126911D01*
X140468744Y-90089611D01*
X140465039Y-90058913D01*
X140462441Y-90053290D01*
X140432315Y-90025516D01*
X140384792Y-90013539D01*
X140328939Y-90018306D01*
X140284475Y-90034743D01*
X140220992Y-90062206D01*
X140174732Y-90067926D01*
X140141520Y-90051667D01*
X140123068Y-90025709D01*
X140110425Y-89990420D01*
X140114525Y-89959225D01*
X140138239Y-89928532D01*
X140184434Y-89894748D01*
X140255980Y-89854282D01*
X140262873Y-89850655D01*
X140327888Y-89818195D01*
X140376359Y-89798868D01*
X140417455Y-89789694D01*
X140456735Y-89787660D01*
X140501451Y-89791509D01*
G37*
%TD*%
D15*
%TO.C,Piezo*%
X141478000Y-105917500D03*
X141478000Y-97917500D03*
%TD*%
D16*
%TO.C,J3*%
X144653000Y-114744500D03*
X147193000Y-114744500D03*
X149733000Y-114744500D03*
%TD*%
D17*
%TO.C,R1*%
X153670000Y-104076500D03*
X153670000Y-100636500D03*
%TD*%
D18*
%TO.C,J1*%
X132703500Y-102044500D03*
D19*
X127483500Y-102044500D03*
%TD*%
D20*
%TO.C,U1*%
X147520000Y-105781500D03*
D21*
X148844000Y-105781500D03*
X150114000Y-105781500D03*
X151384000Y-105781500D03*
X151384000Y-98307500D03*
X150114000Y-98307500D03*
X148844000Y-98307500D03*
X147574000Y-98307500D03*
%TD*%
D22*
%TO.C,R2*%
X152088000Y-95186500D03*
X148648000Y-95186500D03*
%TD*%
D18*
%TO.C,J2*%
X163182000Y-102171500D03*
D19*
X168402000Y-102171500D03*
%TD*%
D23*
%TO.C,D1*%
X156972000Y-103953500D03*
D24*
X156972000Y-100651500D03*
%TD*%
D25*
%TO.C,C1*%
X139504000Y-109918500D03*
X142944000Y-109918500D03*
%TD*%
M02*
