%TF.GenerationSoftware,KiCad,Pcbnew,9.0.9-9.0.9~ubuntu22.04.1*%
%TF.CreationDate,2026-05-23T16:30:55+07:00*%
%TF.ProjectId,peepsy_phycom,70656570-7379-45f7-9068-79636f6d2e6b,rev?*%
%TF.SameCoordinates,Original*%
%TF.FileFunction,Profile,NP*%
%FSLAX46Y46*%
G04 Gerber Fmt 4.6, Leading zero omitted, Abs format (unit mm)*
G04 Created by KiCad (PCBNEW 9.0.9-9.0.9~ubuntu22.04.1) date 2026-05-23 16:30:55*
%MOMM*%
%LPD*%
G01*
G04 APERTURE LIST*
%TA.AperFunction,Profile*%
%ADD10C,0.100000*%
%TD*%
G04 APERTURE END LIST*
D10*
X123173420Y-100415250D02*
X123185620Y-100066250D01*
X123173420Y-103923350D02*
X123173420Y-100415250D01*
X123185020Y-104264550D02*
X123173420Y-103923350D01*
X123185620Y-100066250D02*
X123221620Y-99721950D01*
X123219520Y-104601350D02*
X123185020Y-104264550D01*
X123221620Y-99721950D02*
X123280920Y-99383350D01*
X123276220Y-104932850D02*
X123219520Y-104601350D01*
X123280920Y-99383350D02*
X123362820Y-99051450D01*
X123354720Y-105257950D02*
X123276220Y-104932850D01*
X123362820Y-99051450D02*
X123466820Y-98727450D01*
X123454220Y-105575750D02*
X123354720Y-105257950D01*
X123466820Y-98727450D02*
X123592120Y-98412150D01*
X123574320Y-105885250D02*
X123454220Y-105575750D01*
X123592120Y-98412150D02*
X123738220Y-98106750D01*
X123714420Y-106185650D02*
X123574320Y-105885250D01*
X123738220Y-98106750D02*
X123904420Y-97812250D01*
X123873920Y-106475750D02*
X123714420Y-106185650D01*
X123904420Y-97812250D02*
X124090120Y-97529650D01*
X124052220Y-106754650D02*
X123873920Y-106475750D01*
X124090120Y-97529650D02*
X124294720Y-97259850D01*
X124248820Y-107021450D02*
X124052220Y-106754650D01*
X124294720Y-97259850D02*
X124517620Y-97004150D01*
X124463020Y-107275050D02*
X124248820Y-107021450D01*
X124517620Y-97004150D02*
X124758020Y-96763350D01*
X124694320Y-107514650D02*
X124463020Y-107275050D01*
X124758020Y-96763350D02*
X125015520Y-96538450D01*
X124942220Y-107739250D02*
X124694320Y-107514650D01*
X125015520Y-96538450D02*
X125289320Y-96330750D01*
X125206020Y-107947750D02*
X124942220Y-107739250D01*
X125289320Y-96330750D02*
X125578920Y-96140950D01*
X125485220Y-108139250D02*
X125206020Y-107947750D01*
X125578920Y-96140950D02*
X125883620Y-95970350D01*
X125779120Y-108312850D02*
X125485220Y-108139250D01*
X125883620Y-95970350D02*
X143050850Y-87126650D01*
X143009150Y-117711050D02*
X125779120Y-108312850D01*
X143050850Y-87126650D02*
X143050850Y-87126650D01*
X143050850Y-87126650D02*
X143319950Y-86998060D01*
X143288650Y-117852350D02*
X143009150Y-117711050D01*
X143319950Y-86998060D02*
X143595350Y-86886010D01*
X143575450Y-117975450D02*
X143288650Y-117852350D01*
X143595350Y-86886010D02*
X143876550Y-86790700D01*
X143868950Y-118080250D02*
X143575450Y-117975450D01*
X143876550Y-86790700D02*
X144162650Y-86712300D01*
X144162650Y-86712300D02*
X144452850Y-86650990D01*
X144168050Y-118166550D02*
X143868950Y-118080250D01*
X144452850Y-86650990D02*
X144746450Y-86606980D01*
X144471950Y-118234050D02*
X144168050Y-118166550D01*
X144746450Y-86606980D02*
X145042650Y-86580440D01*
X144779750Y-118282550D02*
X144471950Y-118234050D01*
X145042650Y-86580440D02*
X145340650Y-86571550D01*
X145090550Y-118311750D02*
X144779750Y-118282550D01*
X145340650Y-86571550D02*
X145955650Y-86571550D01*
X145403450Y-118321550D02*
X145090550Y-118311750D01*
X145955650Y-86571550D02*
X148398550Y-86571550D01*
X148398550Y-86571550D02*
X148722250Y-86571550D01*
X148663150Y-118321550D02*
X145403450Y-118321550D01*
X148722250Y-86571550D02*
X148998650Y-86579200D01*
X148953650Y-118313150D02*
X148663150Y-118321550D01*
X148998650Y-86579200D02*
X149273450Y-86602040D01*
X149242350Y-118287850D02*
X148953650Y-118313150D01*
X149273450Y-86602040D02*
X149546250Y-86639930D01*
X149528750Y-118246050D02*
X149242350Y-118287850D01*
X149546250Y-86639930D02*
X149816250Y-86692730D01*
X149811950Y-118187750D02*
X149528750Y-118246050D01*
X149816250Y-86692730D02*
X150083050Y-86760310D01*
X150083050Y-86760310D02*
X150345850Y-86842540D01*
X150091250Y-118113250D02*
X149811950Y-118187750D01*
X150345850Y-86842540D02*
X150604150Y-86939260D01*
X150366050Y-118022650D02*
X150091250Y-118113250D01*
X150604150Y-86939260D02*
X150857250Y-87050350D01*
X150635650Y-117916050D02*
X150366050Y-118022650D01*
X150857250Y-87050350D02*
X151019050Y-87131270D01*
X150899150Y-117793650D02*
X150635650Y-117916050D01*
X151019050Y-87131270D02*
X169838450Y-96013650D01*
X169838450Y-96013650D02*
X170158950Y-96179250D01*
X169939550Y-108273550D02*
X150899150Y-117793650D01*
X170158950Y-96179250D02*
X170463750Y-96365750D01*
X170249750Y-108104450D02*
X169939550Y-108273550D01*
X170463750Y-96365750D02*
X170752450Y-96571850D01*
X170544650Y-107915850D02*
X170249750Y-108104450D01*
X170752450Y-96571850D02*
X171024050Y-96796550D01*
X170823650Y-107708550D02*
X170544650Y-107915850D01*
X171024050Y-96796550D02*
X171278050Y-97038650D01*
X171086050Y-107483750D02*
X170823650Y-107708550D01*
X171278050Y-97038650D02*
X171513650Y-97297150D01*
X171331250Y-107242350D02*
X171086050Y-107483750D01*
X171513650Y-97297150D02*
X171730150Y-97570850D01*
X171558450Y-106985650D02*
X171331250Y-107242350D01*
X171730150Y-97570850D02*
X171926850Y-97858650D01*
X171767250Y-106714450D02*
X171558450Y-106985650D01*
X171926850Y-97858650D02*
X172103150Y-98159350D01*
X171956750Y-106430050D02*
X171767250Y-106714450D01*
X172103150Y-98159350D02*
X172258150Y-98472050D01*
X172126450Y-106133250D02*
X171956750Y-106430050D01*
X172258150Y-98472050D02*
X172391250Y-98795450D01*
X172275550Y-105825350D02*
X172126450Y-106133250D01*
X172391250Y-98795450D02*
X172501750Y-99128450D01*
X172403650Y-105507250D02*
X172275550Y-105825350D01*
X172501750Y-99128450D02*
X172588950Y-99470050D01*
X172509850Y-105180050D02*
X172403650Y-105507250D01*
X172588950Y-99470050D02*
X172652150Y-99819050D01*
X172593550Y-104844750D02*
X172509850Y-105180050D01*
X172652150Y-99819050D02*
X172690550Y-100174350D01*
X172654150Y-104502550D02*
X172593550Y-104844750D01*
X172690550Y-100174350D02*
X172703450Y-100534850D01*
X172691050Y-104154350D02*
X172654150Y-104502550D01*
X172703450Y-100534850D02*
X172703450Y-103801350D01*
X172703450Y-103801350D02*
X172691050Y-104154350D01*
M02*
