%TF.GenerationSoftware,KiCad,Pcbnew,5.1.10-88a1d61d58~90~ubuntu20.04.1*%
%TF.CreationDate,2022-09-07T23:38:44+02:00*%
%TF.ProjectId,Wawies_PCB_inv2,57617769-6573-45f5-9043-425f696e7632,rev?*%
%TF.SameCoordinates,Original*%
%TF.FileFunction,Legend,Top*%
%TF.FilePolarity,Positive*%
%FSLAX46Y46*%
G04 Gerber Fmt 4.6, Leading zero omitted, Abs format (unit mm)*
G04 Created by KiCad (PCBNEW 5.1.10-88a1d61d58~90~ubuntu20.04.1) date 2022-09-07 23:38:44*
%MOMM*%
%LPD*%
G01*
G04 APERTURE LIST*
%ADD10C,0.010000*%
%ADD11C,0.150000*%
G04 APERTURE END LIST*
D10*
%TO.C,G\u002A\u002A\u002A*%
G36*
X-4945481Y24686011D02*
G01*
X-4944617Y24675638D01*
X-4943014Y24646929D01*
X-4940795Y24602699D01*
X-4938083Y24545759D01*
X-4934999Y24478924D01*
X-4931667Y24405007D01*
X-4928210Y24326822D01*
X-4924750Y24247182D01*
X-4921410Y24168900D01*
X-4918313Y24094790D01*
X-4915581Y24027665D01*
X-4913337Y23970338D01*
X-4911704Y23925624D01*
X-4910804Y23896336D01*
X-4910666Y23887794D01*
X-4910666Y23862418D01*
X-4783666Y23869847D01*
X-4656666Y23877275D01*
X-4656666Y23783903D01*
X-4802187Y23777193D01*
X-4865337Y23774386D01*
X-4941724Y23771150D01*
X-5023432Y23767813D01*
X-5102545Y23764701D01*
X-5135562Y23763447D01*
X-5323416Y23756411D01*
X-5323416Y23799096D01*
X-5322284Y23820768D01*
X-5316748Y23835914D01*
X-5303602Y23845705D01*
X-5279641Y23851312D01*
X-5241658Y23853905D01*
X-5186447Y23854654D01*
X-5171171Y23854689D01*
X-5066550Y23854833D01*
X-5073135Y23984479D01*
X-5075911Y24043321D01*
X-5078988Y24115360D01*
X-5082042Y24192636D01*
X-5084751Y24267189D01*
X-5085478Y24288750D01*
X-5087817Y24353169D01*
X-5090462Y24415473D01*
X-5093158Y24470261D01*
X-5095648Y24512130D01*
X-5096787Y24527121D01*
X-5102337Y24590867D01*
X-5212877Y24586775D01*
X-5264860Y24585174D01*
X-5298637Y24586135D01*
X-5317151Y24591404D01*
X-5323347Y24602731D01*
X-5320170Y24621864D01*
X-5312226Y24645776D01*
X-5301035Y24677878D01*
X-5124372Y24682600D01*
X-5065704Y24684091D01*
X-5015009Y24685230D01*
X-4975810Y24685952D01*
X-4951631Y24686188D01*
X-4945481Y24686011D01*
G37*
X-4945481Y24686011D02*
X-4944617Y24675638D01*
X-4943014Y24646929D01*
X-4940795Y24602699D01*
X-4938083Y24545759D01*
X-4934999Y24478924D01*
X-4931667Y24405007D01*
X-4928210Y24326822D01*
X-4924750Y24247182D01*
X-4921410Y24168900D01*
X-4918313Y24094790D01*
X-4915581Y24027665D01*
X-4913337Y23970338D01*
X-4911704Y23925624D01*
X-4910804Y23896336D01*
X-4910666Y23887794D01*
X-4910666Y23862418D01*
X-4783666Y23869847D01*
X-4656666Y23877275D01*
X-4656666Y23783903D01*
X-4802187Y23777193D01*
X-4865337Y23774386D01*
X-4941724Y23771150D01*
X-5023432Y23767813D01*
X-5102545Y23764701D01*
X-5135562Y23763447D01*
X-5323416Y23756411D01*
X-5323416Y23799096D01*
X-5322284Y23820768D01*
X-5316748Y23835914D01*
X-5303602Y23845705D01*
X-5279641Y23851312D01*
X-5241658Y23853905D01*
X-5186447Y23854654D01*
X-5171171Y23854689D01*
X-5066550Y23854833D01*
X-5073135Y23984479D01*
X-5075911Y24043321D01*
X-5078988Y24115360D01*
X-5082042Y24192636D01*
X-5084751Y24267189D01*
X-5085478Y24288750D01*
X-5087817Y24353169D01*
X-5090462Y24415473D01*
X-5093158Y24470261D01*
X-5095648Y24512130D01*
X-5096787Y24527121D01*
X-5102337Y24590867D01*
X-5212877Y24586775D01*
X-5264860Y24585174D01*
X-5298637Y24586135D01*
X-5317151Y24591404D01*
X-5323347Y24602731D01*
X-5320170Y24621864D01*
X-5312226Y24645776D01*
X-5301035Y24677878D01*
X-5124372Y24682600D01*
X-5065704Y24684091D01*
X-5015009Y24685230D01*
X-4975810Y24685952D01*
X-4951631Y24686188D01*
X-4945481Y24686011D01*
G36*
X-5513916Y23749000D02*
G01*
X-5560219Y23749000D01*
X-5598160Y23747413D01*
X-5633440Y23743487D01*
X-5639594Y23742386D01*
X-5672666Y23735771D01*
X-5672666Y23788688D01*
X-5671805Y23820267D01*
X-5666934Y23836866D01*
X-5654619Y23844662D01*
X-5639594Y23848219D01*
X-5607051Y23852506D01*
X-5568390Y23854741D01*
X-5560219Y23854833D01*
X-5513916Y23854833D01*
X-5513916Y23749000D01*
G37*
X-5513916Y23749000D02*
X-5560219Y23749000D01*
X-5598160Y23747413D01*
X-5633440Y23743487D01*
X-5639594Y23742386D01*
X-5672666Y23735771D01*
X-5672666Y23788688D01*
X-5671805Y23820267D01*
X-5666934Y23836866D01*
X-5654619Y23844662D01*
X-5639594Y23848219D01*
X-5607051Y23852506D01*
X-5568390Y23854741D01*
X-5560219Y23854833D01*
X-5513916Y23854833D01*
X-5513916Y23749000D01*
G36*
X-6154883Y24641173D02*
G01*
X-6122442Y24638395D01*
X-6097240Y24633405D01*
X-6074637Y24625663D01*
X-6059090Y24618876D01*
X-6006143Y24589532D01*
X-5968310Y24555303D01*
X-5943799Y24512712D01*
X-5930820Y24458280D01*
X-5927583Y24388528D01*
X-5928225Y24364590D01*
X-5930701Y24317481D01*
X-5934575Y24286059D01*
X-5941184Y24264841D01*
X-5951867Y24248349D01*
X-5958416Y24240949D01*
X-5975066Y24226580D01*
X-6006290Y24202791D01*
X-6048996Y24171817D01*
X-6100087Y24135893D01*
X-6156471Y24097252D01*
X-6170479Y24087801D01*
X-6226741Y24049586D01*
X-6277624Y24014317D01*
X-6320261Y23984038D01*
X-6351788Y23960792D01*
X-6369339Y23946623D01*
X-6371361Y23944558D01*
X-6381172Y23921084D01*
X-6386353Y23883152D01*
X-6386840Y23866679D01*
X-6385851Y23832099D01*
X-6381719Y23814175D01*
X-6373146Y23808477D01*
X-6369786Y23808468D01*
X-6354604Y23809154D01*
X-6321498Y23810390D01*
X-6273704Y23812062D01*
X-6214453Y23814058D01*
X-6146979Y23816268D01*
X-6108552Y23817502D01*
X-6030009Y23820151D01*
X-5970245Y23822039D01*
X-5926876Y23822552D01*
X-5897515Y23821082D01*
X-5879777Y23817016D01*
X-5871276Y23809745D01*
X-5869626Y23798657D01*
X-5872441Y23783141D01*
X-5877335Y23762587D01*
X-5878206Y23758530D01*
X-5883937Y23731019D01*
X-6119614Y23723863D01*
X-6194878Y23721407D01*
X-6269174Y23718675D01*
X-6337744Y23715865D01*
X-6395829Y23713174D01*
X-6438671Y23710800D01*
X-6446256Y23710292D01*
X-6537221Y23703877D01*
X-6544060Y23760835D01*
X-6550151Y23835257D01*
X-6549375Y23897141D01*
X-6541863Y23943471D01*
X-6535372Y23960349D01*
X-6522330Y23980200D01*
X-6501692Y24002416D01*
X-6471363Y24028678D01*
X-6429249Y24060662D01*
X-6373256Y24100049D01*
X-6301289Y24148515D01*
X-6297083Y24151307D01*
X-6246776Y24184996D01*
X-6199414Y24217284D01*
X-6159418Y24245118D01*
X-6131210Y24265443D01*
X-6125104Y24270089D01*
X-6085416Y24301112D01*
X-6085416Y24382535D01*
X-6088026Y24437721D01*
X-6097253Y24476598D01*
X-6115195Y24503535D01*
X-6143951Y24522901D01*
X-6155251Y24527993D01*
X-6195297Y24538002D01*
X-6249987Y24542369D01*
X-6313602Y24541236D01*
X-6380426Y24534742D01*
X-6444739Y24523028D01*
X-6454625Y24520626D01*
X-6494677Y24511051D01*
X-6526117Y24504575D01*
X-6543970Y24502181D01*
X-6546158Y24502547D01*
X-6549229Y24514617D01*
X-6552257Y24540342D01*
X-6553289Y24553776D01*
X-6556375Y24600958D01*
X-6482291Y24621169D01*
X-6439118Y24630861D01*
X-6390371Y24637276D01*
X-6330776Y24640914D01*
X-6260041Y24642250D01*
X-6199203Y24642278D01*
X-6154883Y24641173D01*
G37*
X-6154883Y24641173D02*
X-6122442Y24638395D01*
X-6097240Y24633405D01*
X-6074637Y24625663D01*
X-6059090Y24618876D01*
X-6006143Y24589532D01*
X-5968310Y24555303D01*
X-5943799Y24512712D01*
X-5930820Y24458280D01*
X-5927583Y24388528D01*
X-5928225Y24364590D01*
X-5930701Y24317481D01*
X-5934575Y24286059D01*
X-5941184Y24264841D01*
X-5951867Y24248349D01*
X-5958416Y24240949D01*
X-5975066Y24226580D01*
X-6006290Y24202791D01*
X-6048996Y24171817D01*
X-6100087Y24135893D01*
X-6156471Y24097252D01*
X-6170479Y24087801D01*
X-6226741Y24049586D01*
X-6277624Y24014317D01*
X-6320261Y23984038D01*
X-6351788Y23960792D01*
X-6369339Y23946623D01*
X-6371361Y23944558D01*
X-6381172Y23921084D01*
X-6386353Y23883152D01*
X-6386840Y23866679D01*
X-6385851Y23832099D01*
X-6381719Y23814175D01*
X-6373146Y23808477D01*
X-6369786Y23808468D01*
X-6354604Y23809154D01*
X-6321498Y23810390D01*
X-6273704Y23812062D01*
X-6214453Y23814058D01*
X-6146979Y23816268D01*
X-6108552Y23817502D01*
X-6030009Y23820151D01*
X-5970245Y23822039D01*
X-5926876Y23822552D01*
X-5897515Y23821082D01*
X-5879777Y23817016D01*
X-5871276Y23809745D01*
X-5869626Y23798657D01*
X-5872441Y23783141D01*
X-5877335Y23762587D01*
X-5878206Y23758530D01*
X-5883937Y23731019D01*
X-6119614Y23723863D01*
X-6194878Y23721407D01*
X-6269174Y23718675D01*
X-6337744Y23715865D01*
X-6395829Y23713174D01*
X-6438671Y23710800D01*
X-6446256Y23710292D01*
X-6537221Y23703877D01*
X-6544060Y23760835D01*
X-6550151Y23835257D01*
X-6549375Y23897141D01*
X-6541863Y23943471D01*
X-6535372Y23960349D01*
X-6522330Y23980200D01*
X-6501692Y24002416D01*
X-6471363Y24028678D01*
X-6429249Y24060662D01*
X-6373256Y24100049D01*
X-6301289Y24148515D01*
X-6297083Y24151307D01*
X-6246776Y24184996D01*
X-6199414Y24217284D01*
X-6159418Y24245118D01*
X-6131210Y24265443D01*
X-6125104Y24270089D01*
X-6085416Y24301112D01*
X-6085416Y24382535D01*
X-6088026Y24437721D01*
X-6097253Y24476598D01*
X-6115195Y24503535D01*
X-6143951Y24522901D01*
X-6155251Y24527993D01*
X-6195297Y24538002D01*
X-6249987Y24542369D01*
X-6313602Y24541236D01*
X-6380426Y24534742D01*
X-6444739Y24523028D01*
X-6454625Y24520626D01*
X-6494677Y24511051D01*
X-6526117Y24504575D01*
X-6543970Y24502181D01*
X-6546158Y24502547D01*
X-6549229Y24514617D01*
X-6552257Y24540342D01*
X-6553289Y24553776D01*
X-6556375Y24600958D01*
X-6482291Y24621169D01*
X-6439118Y24630861D01*
X-6390371Y24637276D01*
X-6330776Y24640914D01*
X-6260041Y24642250D01*
X-6199203Y24642278D01*
X-6154883Y24641173D01*
G36*
X-7616148Y24333486D02*
G01*
X-7574085Y24332270D01*
X-7542587Y24330317D01*
X-7526130Y24327681D01*
X-7524750Y24326557D01*
X-7527849Y24316151D01*
X-7535766Y24292089D01*
X-7541817Y24274181D01*
X-7552863Y24244640D01*
X-7562759Y24230897D01*
X-7576444Y24228480D01*
X-7589636Y24230846D01*
X-7626290Y24235704D01*
X-7675085Y24237958D01*
X-7729056Y24237752D01*
X-7781242Y24235229D01*
X-7824677Y24230534D01*
X-7847792Y24225523D01*
X-7879405Y24212921D01*
X-7904601Y24198785D01*
X-7908396Y24195814D01*
X-7923932Y24169764D01*
X-7924792Y24137771D01*
X-7911149Y24108970D01*
X-7906639Y24104346D01*
X-7889777Y24095149D01*
X-7856531Y24081788D01*
X-7810923Y24065714D01*
X-7756976Y24048379D01*
X-7724284Y24038562D01*
X-7642104Y24013557D01*
X-7578443Y23991351D01*
X-7531140Y23970245D01*
X-7498031Y23948538D01*
X-7476952Y23924532D01*
X-7465742Y23896525D01*
X-7462237Y23862819D01*
X-7463313Y23833474D01*
X-7474009Y23779132D01*
X-7498696Y23736514D01*
X-7539510Y23703280D01*
X-7598583Y23677093D01*
X-7609146Y23673630D01*
X-7656119Y23662906D01*
X-7718120Y23654611D01*
X-7789118Y23649033D01*
X-7863081Y23646460D01*
X-7933980Y23647183D01*
X-7995783Y23651489D01*
X-8015810Y23654154D01*
X-8049317Y23659798D01*
X-8072897Y23664484D01*
X-8080603Y23666796D01*
X-8078199Y23677236D01*
X-8069430Y23700586D01*
X-8063076Y23715795D01*
X-8049963Y23743552D01*
X-8038348Y23755996D01*
X-8022141Y23757574D01*
X-8008866Y23755384D01*
X-7982629Y23751663D01*
X-7942488Y23747457D01*
X-7895672Y23743493D01*
X-7878764Y23742279D01*
X-7797303Y23740830D01*
X-7729425Y23748095D01*
X-7676611Y23763555D01*
X-7640341Y23786691D01*
X-7622096Y23816985D01*
X-7620162Y23832866D01*
X-7621213Y23851954D01*
X-7625839Y23867319D01*
X-7636633Y23880393D01*
X-7656187Y23892606D01*
X-7687094Y23905390D01*
X-7731947Y23920178D01*
X-7793337Y23938401D01*
X-7830785Y23949173D01*
X-7887704Y23966258D01*
X-7940123Y23983423D01*
X-7983314Y23999017D01*
X-8012547Y24011391D01*
X-8018895Y24014832D01*
X-8056912Y24048257D01*
X-8078746Y24092730D01*
X-8085666Y24150273D01*
X-8083037Y24187531D01*
X-8072496Y24215041D01*
X-8053278Y24240235D01*
X-8007578Y24277088D01*
X-7943214Y24304709D01*
X-7860011Y24323161D01*
X-7800496Y24329895D01*
X-7760949Y24332170D01*
X-7714058Y24333490D01*
X-7664298Y24333911D01*
X-7616148Y24333486D01*
G37*
X-7616148Y24333486D02*
X-7574085Y24332270D01*
X-7542587Y24330317D01*
X-7526130Y24327681D01*
X-7524750Y24326557D01*
X-7527849Y24316151D01*
X-7535766Y24292089D01*
X-7541817Y24274181D01*
X-7552863Y24244640D01*
X-7562759Y24230897D01*
X-7576444Y24228480D01*
X-7589636Y24230846D01*
X-7626290Y24235704D01*
X-7675085Y24237958D01*
X-7729056Y24237752D01*
X-7781242Y24235229D01*
X-7824677Y24230534D01*
X-7847792Y24225523D01*
X-7879405Y24212921D01*
X-7904601Y24198785D01*
X-7908396Y24195814D01*
X-7923932Y24169764D01*
X-7924792Y24137771D01*
X-7911149Y24108970D01*
X-7906639Y24104346D01*
X-7889777Y24095149D01*
X-7856531Y24081788D01*
X-7810923Y24065714D01*
X-7756976Y24048379D01*
X-7724284Y24038562D01*
X-7642104Y24013557D01*
X-7578443Y23991351D01*
X-7531140Y23970245D01*
X-7498031Y23948538D01*
X-7476952Y23924532D01*
X-7465742Y23896525D01*
X-7462237Y23862819D01*
X-7463313Y23833474D01*
X-7474009Y23779132D01*
X-7498696Y23736514D01*
X-7539510Y23703280D01*
X-7598583Y23677093D01*
X-7609146Y23673630D01*
X-7656119Y23662906D01*
X-7718120Y23654611D01*
X-7789118Y23649033D01*
X-7863081Y23646460D01*
X-7933980Y23647183D01*
X-7995783Y23651489D01*
X-8015810Y23654154D01*
X-8049317Y23659798D01*
X-8072897Y23664484D01*
X-8080603Y23666796D01*
X-8078199Y23677236D01*
X-8069430Y23700586D01*
X-8063076Y23715795D01*
X-8049963Y23743552D01*
X-8038348Y23755996D01*
X-8022141Y23757574D01*
X-8008866Y23755384D01*
X-7982629Y23751663D01*
X-7942488Y23747457D01*
X-7895672Y23743493D01*
X-7878764Y23742279D01*
X-7797303Y23740830D01*
X-7729425Y23748095D01*
X-7676611Y23763555D01*
X-7640341Y23786691D01*
X-7622096Y23816985D01*
X-7620162Y23832866D01*
X-7621213Y23851954D01*
X-7625839Y23867319D01*
X-7636633Y23880393D01*
X-7656187Y23892606D01*
X-7687094Y23905390D01*
X-7731947Y23920178D01*
X-7793337Y23938401D01*
X-7830785Y23949173D01*
X-7887704Y23966258D01*
X-7940123Y23983423D01*
X-7983314Y23999017D01*
X-8012547Y24011391D01*
X-8018895Y24014832D01*
X-8056912Y24048257D01*
X-8078746Y24092730D01*
X-8085666Y24150273D01*
X-8083037Y24187531D01*
X-8072496Y24215041D01*
X-8053278Y24240235D01*
X-8007578Y24277088D01*
X-7943214Y24304709D01*
X-7860011Y24323161D01*
X-7800496Y24329895D01*
X-7760949Y24332170D01*
X-7714058Y24333490D01*
X-7664298Y24333911D01*
X-7616148Y24333486D01*
G36*
X-9312066Y24265467D02*
G01*
X-9239599Y24259377D01*
X-9183592Y24247640D01*
X-9139755Y24228805D01*
X-9103803Y24201422D01*
X-9094434Y24191884D01*
X-9075091Y24166973D01*
X-9061365Y24137672D01*
X-9051839Y24099160D01*
X-9045093Y24046618D01*
X-9042439Y24015161D01*
X-9035309Y23920713D01*
X-9214009Y23913961D01*
X-9281111Y23911233D01*
X-9348025Y23908175D01*
X-9408795Y23905080D01*
X-9457469Y23902245D01*
X-9476066Y23900968D01*
X-9559423Y23894727D01*
X-9552342Y23825614D01*
X-9545563Y23775867D01*
X-9535643Y23742304D01*
X-9519924Y23719948D01*
X-9495745Y23703822D01*
X-9484460Y23698585D01*
X-9441012Y23687068D01*
X-9383034Y23682134D01*
X-9315991Y23683420D01*
X-9245346Y23690562D01*
X-9176564Y23703196D01*
X-9115111Y23720961D01*
X-9107961Y23723621D01*
X-9092571Y23719152D01*
X-9074621Y23694414D01*
X-9070579Y23686800D01*
X-9057490Y23660159D01*
X-9049698Y23642399D01*
X-9048750Y23639118D01*
X-9058632Y23631371D01*
X-9085641Y23622423D01*
X-9125817Y23612937D01*
X-9175201Y23603576D01*
X-9229837Y23595003D01*
X-9285764Y23587881D01*
X-9339026Y23582873D01*
X-9385662Y23580642D01*
X-9398000Y23580616D01*
X-9446357Y23583229D01*
X-9497009Y23589062D01*
X-9525199Y23594026D01*
X-9588758Y23612786D01*
X-9635302Y23639047D01*
X-9668339Y23675122D01*
X-9680263Y23696261D01*
X-9689210Y23717390D01*
X-9695914Y23741082D01*
X-9700902Y23771269D01*
X-9704702Y23811884D01*
X-9707839Y23866859D01*
X-9710015Y23918333D01*
X-9712399Y23983266D01*
X-9713532Y24030928D01*
X-9713273Y24051780D01*
X-9556750Y24051780D01*
X-9556750Y23993715D01*
X-9421812Y23998835D01*
X-9365775Y24001258D01*
X-9313132Y24004065D01*
X-9269819Y24006906D01*
X-9241896Y24009417D01*
X-9213698Y24014030D01*
X-9200717Y24022296D01*
X-9197075Y24039620D01*
X-9196916Y24050776D01*
X-9205030Y24101674D01*
X-9229930Y24140094D01*
X-9262080Y24162599D01*
X-9311254Y24178518D01*
X-9369043Y24183297D01*
X-9428645Y24177658D01*
X-9483257Y24162326D01*
X-9526074Y24138026D01*
X-9530679Y24134006D01*
X-9546592Y24115257D01*
X-9554441Y24092262D01*
X-9556730Y24057119D01*
X-9556750Y24051780D01*
X-9713273Y24051780D01*
X-9713106Y24065194D01*
X-9710812Y24089940D01*
X-9706343Y24109040D01*
X-9699390Y24126370D01*
X-9692335Y24140583D01*
X-9656487Y24187386D01*
X-9602785Y24223552D01*
X-9531781Y24248901D01*
X-9444027Y24263251D01*
X-9340073Y24266421D01*
X-9312066Y24265467D01*
G37*
X-9312066Y24265467D02*
X-9239599Y24259377D01*
X-9183592Y24247640D01*
X-9139755Y24228805D01*
X-9103803Y24201422D01*
X-9094434Y24191884D01*
X-9075091Y24166973D01*
X-9061365Y24137672D01*
X-9051839Y24099160D01*
X-9045093Y24046618D01*
X-9042439Y24015161D01*
X-9035309Y23920713D01*
X-9214009Y23913961D01*
X-9281111Y23911233D01*
X-9348025Y23908175D01*
X-9408795Y23905080D01*
X-9457469Y23902245D01*
X-9476066Y23900968D01*
X-9559423Y23894727D01*
X-9552342Y23825614D01*
X-9545563Y23775867D01*
X-9535643Y23742304D01*
X-9519924Y23719948D01*
X-9495745Y23703822D01*
X-9484460Y23698585D01*
X-9441012Y23687068D01*
X-9383034Y23682134D01*
X-9315991Y23683420D01*
X-9245346Y23690562D01*
X-9176564Y23703196D01*
X-9115111Y23720961D01*
X-9107961Y23723621D01*
X-9092571Y23719152D01*
X-9074621Y23694414D01*
X-9070579Y23686800D01*
X-9057490Y23660159D01*
X-9049698Y23642399D01*
X-9048750Y23639118D01*
X-9058632Y23631371D01*
X-9085641Y23622423D01*
X-9125817Y23612937D01*
X-9175201Y23603576D01*
X-9229837Y23595003D01*
X-9285764Y23587881D01*
X-9339026Y23582873D01*
X-9385662Y23580642D01*
X-9398000Y23580616D01*
X-9446357Y23583229D01*
X-9497009Y23589062D01*
X-9525199Y23594026D01*
X-9588758Y23612786D01*
X-9635302Y23639047D01*
X-9668339Y23675122D01*
X-9680263Y23696261D01*
X-9689210Y23717390D01*
X-9695914Y23741082D01*
X-9700902Y23771269D01*
X-9704702Y23811884D01*
X-9707839Y23866859D01*
X-9710015Y23918333D01*
X-9712399Y23983266D01*
X-9713532Y24030928D01*
X-9713273Y24051780D01*
X-9556750Y24051780D01*
X-9556750Y23993715D01*
X-9421812Y23998835D01*
X-9365775Y24001258D01*
X-9313132Y24004065D01*
X-9269819Y24006906D01*
X-9241896Y24009417D01*
X-9213698Y24014030D01*
X-9200717Y24022296D01*
X-9197075Y24039620D01*
X-9196916Y24050776D01*
X-9205030Y24101674D01*
X-9229930Y24140094D01*
X-9262080Y24162599D01*
X-9311254Y24178518D01*
X-9369043Y24183297D01*
X-9428645Y24177658D01*
X-9483257Y24162326D01*
X-9526074Y24138026D01*
X-9530679Y24134006D01*
X-9546592Y24115257D01*
X-9554441Y24092262D01*
X-9556730Y24057119D01*
X-9556750Y24051780D01*
X-9713273Y24051780D01*
X-9713106Y24065194D01*
X-9710812Y24089940D01*
X-9706343Y24109040D01*
X-9699390Y24126370D01*
X-9692335Y24140583D01*
X-9656487Y24187386D01*
X-9602785Y24223552D01*
X-9531781Y24248901D01*
X-9444027Y24263251D01*
X-9340073Y24266421D01*
X-9312066Y24265467D01*
G36*
X-10069951Y24231711D02*
G01*
X-9997704Y24219642D01*
X-9941832Y24197882D01*
X-9900487Y24164948D01*
X-9871821Y24119353D01*
X-9853987Y24059613D01*
X-9845135Y23984242D01*
X-9845011Y23982113D01*
X-9839698Y23888943D01*
X-10007787Y23882281D01*
X-10073923Y23879487D01*
X-10140680Y23876365D01*
X-10201570Y23873239D01*
X-10250106Y23870431D01*
X-10263187Y23869568D01*
X-10350500Y23863517D01*
X-10350500Y23801465D01*
X-10347059Y23747817D01*
X-10335349Y23709954D01*
X-10313288Y23683421D01*
X-10288179Y23668023D01*
X-10246724Y23655632D01*
X-10190701Y23649673D01*
X-10125677Y23650049D01*
X-10057220Y23656667D01*
X-9990897Y23669430D01*
X-9976028Y23673366D01*
X-9937477Y23683803D01*
X-9907952Y23691062D01*
X-9892321Y23693973D01*
X-9891047Y23693792D01*
X-9869887Y23650866D01*
X-9860575Y23622334D01*
X-9864579Y23604142D01*
X-9883367Y23592239D01*
X-9918409Y23582572D01*
X-9932458Y23579469D01*
X-10041716Y23560398D01*
X-10146730Y23550912D01*
X-10242817Y23551212D01*
X-10325296Y23561501D01*
X-10329333Y23562359D01*
X-10397686Y23583971D01*
X-10448520Y23615649D01*
X-10480074Y23652691D01*
X-10488483Y23668648D01*
X-10494953Y23688032D01*
X-10499991Y23714367D01*
X-10504103Y23751173D01*
X-10507794Y23801972D01*
X-10511569Y23870287D01*
X-10511706Y23872979D01*
X-10514975Y23939945D01*
X-10516833Y23989496D01*
X-10517013Y24017496D01*
X-10361083Y24017496D01*
X-10361083Y23961598D01*
X-10215562Y23966979D01*
X-10159017Y23969354D01*
X-10107275Y23972044D01*
X-10065454Y23974748D01*
X-10038675Y23977165D01*
X-10035646Y23977576D01*
X-10013967Y23982492D01*
X-10004061Y23992852D01*
X-10001347Y24015314D01*
X-10001250Y24027583D01*
X-10004881Y24061486D01*
X-10013890Y24089648D01*
X-10016759Y24094516D01*
X-10049131Y24123588D01*
X-10094988Y24142413D01*
X-10149283Y24150967D01*
X-10206969Y24149230D01*
X-10262998Y24137179D01*
X-10312324Y24114793D01*
X-10337126Y24095900D01*
X-10352340Y24076434D01*
X-10359522Y24050477D01*
X-10361083Y24017496D01*
X-10517013Y24017496D01*
X-10517064Y24025351D01*
X-10515452Y24051227D01*
X-10511780Y24070843D01*
X-10505833Y24087916D01*
X-10498263Y24104376D01*
X-10464056Y24151028D01*
X-10411897Y24187859D01*
X-10342779Y24214483D01*
X-10257698Y24230513D01*
X-10160422Y24235575D01*
X-10069951Y24231711D01*
G37*
X-10069951Y24231711D02*
X-9997704Y24219642D01*
X-9941832Y24197882D01*
X-9900487Y24164948D01*
X-9871821Y24119353D01*
X-9853987Y24059613D01*
X-9845135Y23984242D01*
X-9845011Y23982113D01*
X-9839698Y23888943D01*
X-10007787Y23882281D01*
X-10073923Y23879487D01*
X-10140680Y23876365D01*
X-10201570Y23873239D01*
X-10250106Y23870431D01*
X-10263187Y23869568D01*
X-10350500Y23863517D01*
X-10350500Y23801465D01*
X-10347059Y23747817D01*
X-10335349Y23709954D01*
X-10313288Y23683421D01*
X-10288179Y23668023D01*
X-10246724Y23655632D01*
X-10190701Y23649673D01*
X-10125677Y23650049D01*
X-10057220Y23656667D01*
X-9990897Y23669430D01*
X-9976028Y23673366D01*
X-9937477Y23683803D01*
X-9907952Y23691062D01*
X-9892321Y23693973D01*
X-9891047Y23693792D01*
X-9869887Y23650866D01*
X-9860575Y23622334D01*
X-9864579Y23604142D01*
X-9883367Y23592239D01*
X-9918409Y23582572D01*
X-9932458Y23579469D01*
X-10041716Y23560398D01*
X-10146730Y23550912D01*
X-10242817Y23551212D01*
X-10325296Y23561501D01*
X-10329333Y23562359D01*
X-10397686Y23583971D01*
X-10448520Y23615649D01*
X-10480074Y23652691D01*
X-10488483Y23668648D01*
X-10494953Y23688032D01*
X-10499991Y23714367D01*
X-10504103Y23751173D01*
X-10507794Y23801972D01*
X-10511569Y23870287D01*
X-10511706Y23872979D01*
X-10514975Y23939945D01*
X-10516833Y23989496D01*
X-10517013Y24017496D01*
X-10361083Y24017496D01*
X-10361083Y23961598D01*
X-10215562Y23966979D01*
X-10159017Y23969354D01*
X-10107275Y23972044D01*
X-10065454Y23974748D01*
X-10038675Y23977165D01*
X-10035646Y23977576D01*
X-10013967Y23982492D01*
X-10004061Y23992852D01*
X-10001347Y24015314D01*
X-10001250Y24027583D01*
X-10004881Y24061486D01*
X-10013890Y24089648D01*
X-10016759Y24094516D01*
X-10049131Y24123588D01*
X-10094988Y24142413D01*
X-10149283Y24150967D01*
X-10206969Y24149230D01*
X-10262998Y24137179D01*
X-10312324Y24114793D01*
X-10337126Y24095900D01*
X-10352340Y24076434D01*
X-10359522Y24050477D01*
X-10361083Y24017496D01*
X-10517013Y24017496D01*
X-10517064Y24025351D01*
X-10515452Y24051227D01*
X-10511780Y24070843D01*
X-10505833Y24087916D01*
X-10498263Y24104376D01*
X-10464056Y24151028D01*
X-10411897Y24187859D01*
X-10342779Y24214483D01*
X-10257698Y24230513D01*
X-10160422Y24235575D01*
X-10069951Y24231711D01*
G36*
X-6708249Y24361851D02*
G01*
X-6680641Y24359253D01*
X-6668182Y24355566D01*
X-6667940Y24354896D01*
X-6671700Y24343676D01*
X-6682289Y24314703D01*
X-6698950Y24269982D01*
X-6720929Y24211522D01*
X-6747467Y24141329D01*
X-6777809Y24061409D01*
X-6811199Y23973771D01*
X-6840469Y23897167D01*
X-7012559Y23447375D01*
X-7089603Y23444248D01*
X-7129083Y23442989D01*
X-7151498Y23443952D01*
X-7160921Y23448241D01*
X-7161424Y23456955D01*
X-7159642Y23463196D01*
X-7152639Y23482193D01*
X-7139543Y23515207D01*
X-7122544Y23556776D01*
X-7111722Y23582739D01*
X-7093403Y23627295D01*
X-7082946Y23656092D01*
X-7079575Y23672693D01*
X-7082512Y23680661D01*
X-7089790Y23683379D01*
X-7098875Y23691321D01*
X-7113805Y23713652D01*
X-7135072Y23751303D01*
X-7163172Y23805202D01*
X-7198598Y23876279D01*
X-7241845Y23965463D01*
X-7260146Y24003694D01*
X-7296150Y24079547D01*
X-7328814Y24149174D01*
X-7357108Y24210321D01*
X-7380006Y24260730D01*
X-7396477Y24298145D01*
X-7405494Y24320309D01*
X-7406830Y24325531D01*
X-7394800Y24328542D01*
X-7367030Y24332365D01*
X-7328891Y24336293D01*
X-7317648Y24337268D01*
X-7233158Y24344315D01*
X-7130246Y24101686D01*
X-7101831Y24033920D01*
X-7076396Y23971777D01*
X-7055082Y23918164D01*
X-7039026Y23875986D01*
X-7029369Y23848150D01*
X-7027011Y23838424D01*
X-7026695Y23830283D01*
X-7025662Y23825557D01*
X-7023349Y23825696D01*
X-7019195Y23832147D01*
X-7012637Y23846361D01*
X-7003111Y23869785D01*
X-6990055Y23903868D01*
X-6972906Y23950058D01*
X-6951102Y24009806D01*
X-6924080Y24084558D01*
X-6891276Y24175764D01*
X-6852129Y24284873D01*
X-6834613Y24333729D01*
X-6828159Y24348639D01*
X-6818708Y24357326D01*
X-6801145Y24361470D01*
X-6770355Y24362746D01*
X-6745840Y24362833D01*
X-6708249Y24361851D01*
G37*
X-6708249Y24361851D02*
X-6680641Y24359253D01*
X-6668182Y24355566D01*
X-6667940Y24354896D01*
X-6671700Y24343676D01*
X-6682289Y24314703D01*
X-6698950Y24269982D01*
X-6720929Y24211522D01*
X-6747467Y24141329D01*
X-6777809Y24061409D01*
X-6811199Y23973771D01*
X-6840469Y23897167D01*
X-7012559Y23447375D01*
X-7089603Y23444248D01*
X-7129083Y23442989D01*
X-7151498Y23443952D01*
X-7160921Y23448241D01*
X-7161424Y23456955D01*
X-7159642Y23463196D01*
X-7152639Y23482193D01*
X-7139543Y23515207D01*
X-7122544Y23556776D01*
X-7111722Y23582739D01*
X-7093403Y23627295D01*
X-7082946Y23656092D01*
X-7079575Y23672693D01*
X-7082512Y23680661D01*
X-7089790Y23683379D01*
X-7098875Y23691321D01*
X-7113805Y23713652D01*
X-7135072Y23751303D01*
X-7163172Y23805202D01*
X-7198598Y23876279D01*
X-7241845Y23965463D01*
X-7260146Y24003694D01*
X-7296150Y24079547D01*
X-7328814Y24149174D01*
X-7357108Y24210321D01*
X-7380006Y24260730D01*
X-7396477Y24298145D01*
X-7405494Y24320309D01*
X-7406830Y24325531D01*
X-7394800Y24328542D01*
X-7367030Y24332365D01*
X-7328891Y24336293D01*
X-7317648Y24337268D01*
X-7233158Y24344315D01*
X-7130246Y24101686D01*
X-7101831Y24033920D01*
X-7076396Y23971777D01*
X-7055082Y23918164D01*
X-7039026Y23875986D01*
X-7029369Y23848150D01*
X-7027011Y23838424D01*
X-7026695Y23830283D01*
X-7025662Y23825557D01*
X-7023349Y23825696D01*
X-7019195Y23832147D01*
X-7012637Y23846361D01*
X-7003111Y23869785D01*
X-6990055Y23903868D01*
X-6972906Y23950058D01*
X-6951102Y24009806D01*
X-6924080Y24084558D01*
X-6891276Y24175764D01*
X-6852129Y24284873D01*
X-6834613Y24333729D01*
X-6828159Y24348639D01*
X-6818708Y24357326D01*
X-6801145Y24361470D01*
X-6770355Y24362746D01*
X-6745840Y24362833D01*
X-6708249Y24361851D01*
G36*
X-8430457Y24301295D02*
G01*
X-8363813Y24291663D01*
X-8332222Y24282522D01*
X-8282338Y24254622D01*
X-8244333Y24214018D01*
X-8222179Y24165396D01*
X-8219093Y24148968D01*
X-8214162Y24098689D01*
X-8210315Y24039461D01*
X-8207633Y23975926D01*
X-8206201Y23912727D01*
X-8206102Y23854504D01*
X-8207420Y23805902D01*
X-8210239Y23771560D01*
X-8212123Y23761601D01*
X-8235338Y23714840D01*
X-8276594Y23675087D01*
X-8333312Y23644557D01*
X-8358234Y23635881D01*
X-8398032Y23627521D01*
X-8450029Y23621742D01*
X-8508372Y23618628D01*
X-8567206Y23618261D01*
X-8620679Y23620724D01*
X-8662936Y23626100D01*
X-8681890Y23631305D01*
X-8711905Y23643336D01*
X-8704625Y23565650D01*
X-8701502Y23523061D01*
X-8702680Y23493035D01*
X-8709454Y23467186D01*
X-8723118Y23437123D01*
X-8725059Y23433274D01*
X-8742949Y23401292D01*
X-8758024Y23384621D01*
X-8774929Y23378765D01*
X-8781699Y23378439D01*
X-8813422Y23375898D01*
X-8834437Y23371913D01*
X-8846961Y23369722D01*
X-8854107Y23374395D01*
X-8857408Y23390155D01*
X-8858396Y23421226D01*
X-8858484Y23438203D01*
X-8859004Y23466491D01*
X-8860367Y23512765D01*
X-8862458Y23573866D01*
X-8865162Y23646637D01*
X-8868362Y23727918D01*
X-8871944Y23814551D01*
X-8874125Y23865417D01*
X-8877822Y23951205D01*
X-8881216Y24031255D01*
X-8883406Y24083924D01*
X-8724374Y24083924D01*
X-8723224Y24028112D01*
X-8720305Y23953360D01*
X-8719977Y23946077D01*
X-8716852Y23883233D01*
X-8713595Y23827908D01*
X-8710445Y23783481D01*
X-8707644Y23753329D01*
X-8705430Y23740832D01*
X-8705367Y23740756D01*
X-8692708Y23735005D01*
X-8666656Y23726541D01*
X-8649400Y23721664D01*
X-8583651Y23709938D01*
X-8517229Y23708493D01*
X-8457542Y23717130D01*
X-8426900Y23727584D01*
X-8391713Y23749382D01*
X-8371848Y23774372D01*
X-8371430Y23775423D01*
X-8367434Y23798471D01*
X-8365479Y23837619D01*
X-8365343Y23888023D01*
X-8366809Y23944841D01*
X-8369655Y24003230D01*
X-8373664Y24058347D01*
X-8378614Y24105349D01*
X-8384288Y24139393D01*
X-8388537Y24152851D01*
X-8413598Y24180816D01*
X-8453826Y24200898D01*
X-8504125Y24211343D01*
X-8556687Y24210732D01*
X-8603764Y24202382D01*
X-8650497Y24189401D01*
X-8690130Y24174031D01*
X-8715906Y24158515D01*
X-8716927Y24157568D01*
X-8721254Y24146666D01*
X-8723727Y24122780D01*
X-8724374Y24083924D01*
X-8883406Y24083924D01*
X-8884193Y24102849D01*
X-8886645Y24163267D01*
X-8888459Y24209789D01*
X-8889525Y24239698D01*
X-8889765Y24249063D01*
X-8887378Y24269115D01*
X-8875460Y24276798D01*
X-8855604Y24277689D01*
X-8819651Y24272834D01*
X-8789458Y24263569D01*
X-8763233Y24255639D01*
X-8738409Y24258728D01*
X-8720666Y24265332D01*
X-8657892Y24284907D01*
X-8584158Y24297623D01*
X-8506125Y24303184D01*
X-8430457Y24301295D01*
G37*
X-8430457Y24301295D02*
X-8363813Y24291663D01*
X-8332222Y24282522D01*
X-8282338Y24254622D01*
X-8244333Y24214018D01*
X-8222179Y24165396D01*
X-8219093Y24148968D01*
X-8214162Y24098689D01*
X-8210315Y24039461D01*
X-8207633Y23975926D01*
X-8206201Y23912727D01*
X-8206102Y23854504D01*
X-8207420Y23805902D01*
X-8210239Y23771560D01*
X-8212123Y23761601D01*
X-8235338Y23714840D01*
X-8276594Y23675087D01*
X-8333312Y23644557D01*
X-8358234Y23635881D01*
X-8398032Y23627521D01*
X-8450029Y23621742D01*
X-8508372Y23618628D01*
X-8567206Y23618261D01*
X-8620679Y23620724D01*
X-8662936Y23626100D01*
X-8681890Y23631305D01*
X-8711905Y23643336D01*
X-8704625Y23565650D01*
X-8701502Y23523061D01*
X-8702680Y23493035D01*
X-8709454Y23467186D01*
X-8723118Y23437123D01*
X-8725059Y23433274D01*
X-8742949Y23401292D01*
X-8758024Y23384621D01*
X-8774929Y23378765D01*
X-8781699Y23378439D01*
X-8813422Y23375898D01*
X-8834437Y23371913D01*
X-8846961Y23369722D01*
X-8854107Y23374395D01*
X-8857408Y23390155D01*
X-8858396Y23421226D01*
X-8858484Y23438203D01*
X-8859004Y23466491D01*
X-8860367Y23512765D01*
X-8862458Y23573866D01*
X-8865162Y23646637D01*
X-8868362Y23727918D01*
X-8871944Y23814551D01*
X-8874125Y23865417D01*
X-8877822Y23951205D01*
X-8881216Y24031255D01*
X-8883406Y24083924D01*
X-8724374Y24083924D01*
X-8723224Y24028112D01*
X-8720305Y23953360D01*
X-8719977Y23946077D01*
X-8716852Y23883233D01*
X-8713595Y23827908D01*
X-8710445Y23783481D01*
X-8707644Y23753329D01*
X-8705430Y23740832D01*
X-8705367Y23740756D01*
X-8692708Y23735005D01*
X-8666656Y23726541D01*
X-8649400Y23721664D01*
X-8583651Y23709938D01*
X-8517229Y23708493D01*
X-8457542Y23717130D01*
X-8426900Y23727584D01*
X-8391713Y23749382D01*
X-8371848Y23774372D01*
X-8371430Y23775423D01*
X-8367434Y23798471D01*
X-8365479Y23837619D01*
X-8365343Y23888023D01*
X-8366809Y23944841D01*
X-8369655Y24003230D01*
X-8373664Y24058347D01*
X-8378614Y24105349D01*
X-8384288Y24139393D01*
X-8388537Y24152851D01*
X-8413598Y24180816D01*
X-8453826Y24200898D01*
X-8504125Y24211343D01*
X-8556687Y24210732D01*
X-8603764Y24202382D01*
X-8650497Y24189401D01*
X-8690130Y24174031D01*
X-8715906Y24158515D01*
X-8716927Y24157568D01*
X-8721254Y24146666D01*
X-8723727Y24122780D01*
X-8724374Y24083924D01*
X-8883406Y24083924D01*
X-8884193Y24102849D01*
X-8886645Y24163267D01*
X-8888459Y24209789D01*
X-8889525Y24239698D01*
X-8889765Y24249063D01*
X-8887378Y24269115D01*
X-8875460Y24276798D01*
X-8855604Y24277689D01*
X-8819651Y24272834D01*
X-8789458Y24263569D01*
X-8763233Y24255639D01*
X-8738409Y24258728D01*
X-8720666Y24265332D01*
X-8657892Y24284907D01*
X-8584158Y24297623D01*
X-8506125Y24303184D01*
X-8430457Y24301295D01*
G36*
X-10840032Y24198576D02*
G01*
X-10782031Y24187918D01*
X-10744884Y24174215D01*
X-10715413Y24156754D01*
X-10692501Y24136862D01*
X-10675303Y24111727D01*
X-10662973Y24078532D01*
X-10654668Y24034464D01*
X-10649543Y23976708D01*
X-10646752Y23902449D01*
X-10645790Y23844040D01*
X-10645517Y23769682D01*
X-10647162Y23713056D01*
X-10651497Y23670760D01*
X-10659295Y23639389D01*
X-10671328Y23615541D01*
X-10688368Y23595812D01*
X-10705429Y23581253D01*
X-10750674Y23556042D01*
X-10811929Y23537088D01*
X-10884812Y23524974D01*
X-10964939Y23520286D01*
X-11047929Y23523610D01*
X-11094697Y23529292D01*
X-11145686Y23537125D01*
X-11143119Y23455209D01*
X-11142990Y23407277D01*
X-11146996Y23372672D01*
X-11156350Y23343757D01*
X-11163089Y23329672D01*
X-11185380Y23296888D01*
X-11213584Y23279230D01*
X-11254114Y23273065D01*
X-11263312Y23272895D01*
X-11284657Y23276165D01*
X-11292072Y23290704D01*
X-11292651Y23301854D01*
X-11293157Y23319178D01*
X-11294485Y23354928D01*
X-11296524Y23406386D01*
X-11299163Y23470832D01*
X-11302291Y23545547D01*
X-11305798Y23627813D01*
X-11308291Y23685500D01*
X-11312038Y23773705D01*
X-11315470Y23858305D01*
X-11318472Y23936155D01*
X-11320929Y24004109D01*
X-11322662Y24057142D01*
X-11165338Y24057142D01*
X-11158636Y23863383D01*
X-11156021Y23800483D01*
X-11152854Y23744157D01*
X-11149409Y23698126D01*
X-11145962Y23666107D01*
X-11143018Y23652207D01*
X-11124158Y23635950D01*
X-11089508Y23623663D01*
X-11044135Y23615707D01*
X-10993107Y23612445D01*
X-10941489Y23614238D01*
X-10894350Y23621446D01*
X-10861519Y23632131D01*
X-10825447Y23654738D01*
X-10810304Y23678715D01*
X-10808264Y23698044D01*
X-10806937Y23734246D01*
X-10806389Y23783041D01*
X-10806685Y23840145D01*
X-10807285Y23876076D01*
X-10810875Y24047104D01*
X-10844599Y24077219D01*
X-10890559Y24104386D01*
X-10948193Y24115468D01*
X-11015420Y24110467D01*
X-11090156Y24089385D01*
X-11120227Y24077097D01*
X-11165338Y24057142D01*
X-11322662Y24057142D01*
X-11322724Y24059021D01*
X-11323743Y24097746D01*
X-11323932Y24111479D01*
X-11324166Y24182917D01*
X-11292776Y24182917D01*
X-11261246Y24178199D01*
X-11227535Y24166756D01*
X-11225682Y24165892D01*
X-11199576Y24155445D01*
X-11180132Y24155714D01*
X-11159042Y24164865D01*
X-11110584Y24182773D01*
X-11048691Y24195229D01*
X-10979126Y24202101D01*
X-10907652Y24203260D01*
X-10840032Y24198576D01*
G37*
X-10840032Y24198576D02*
X-10782031Y24187918D01*
X-10744884Y24174215D01*
X-10715413Y24156754D01*
X-10692501Y24136862D01*
X-10675303Y24111727D01*
X-10662973Y24078532D01*
X-10654668Y24034464D01*
X-10649543Y23976708D01*
X-10646752Y23902449D01*
X-10645790Y23844040D01*
X-10645517Y23769682D01*
X-10647162Y23713056D01*
X-10651497Y23670760D01*
X-10659295Y23639389D01*
X-10671328Y23615541D01*
X-10688368Y23595812D01*
X-10705429Y23581253D01*
X-10750674Y23556042D01*
X-10811929Y23537088D01*
X-10884812Y23524974D01*
X-10964939Y23520286D01*
X-11047929Y23523610D01*
X-11094697Y23529292D01*
X-11145686Y23537125D01*
X-11143119Y23455209D01*
X-11142990Y23407277D01*
X-11146996Y23372672D01*
X-11156350Y23343757D01*
X-11163089Y23329672D01*
X-11185380Y23296888D01*
X-11213584Y23279230D01*
X-11254114Y23273065D01*
X-11263312Y23272895D01*
X-11284657Y23276165D01*
X-11292072Y23290704D01*
X-11292651Y23301854D01*
X-11293157Y23319178D01*
X-11294485Y23354928D01*
X-11296524Y23406386D01*
X-11299163Y23470832D01*
X-11302291Y23545547D01*
X-11305798Y23627813D01*
X-11308291Y23685500D01*
X-11312038Y23773705D01*
X-11315470Y23858305D01*
X-11318472Y23936155D01*
X-11320929Y24004109D01*
X-11322662Y24057142D01*
X-11165338Y24057142D01*
X-11158636Y23863383D01*
X-11156021Y23800483D01*
X-11152854Y23744157D01*
X-11149409Y23698126D01*
X-11145962Y23666107D01*
X-11143018Y23652207D01*
X-11124158Y23635950D01*
X-11089508Y23623663D01*
X-11044135Y23615707D01*
X-10993107Y23612445D01*
X-10941489Y23614238D01*
X-10894350Y23621446D01*
X-10861519Y23632131D01*
X-10825447Y23654738D01*
X-10810304Y23678715D01*
X-10808264Y23698044D01*
X-10806937Y23734246D01*
X-10806389Y23783041D01*
X-10806685Y23840145D01*
X-10807285Y23876076D01*
X-10810875Y24047104D01*
X-10844599Y24077219D01*
X-10890559Y24104386D01*
X-10948193Y24115468D01*
X-11015420Y24110467D01*
X-11090156Y24089385D01*
X-11120227Y24077097D01*
X-11165338Y24057142D01*
X-11322662Y24057142D01*
X-11322724Y24059021D01*
X-11323743Y24097746D01*
X-11323932Y24111479D01*
X-11324166Y24182917D01*
X-11292776Y24182917D01*
X-11261246Y24178199D01*
X-11227535Y24166756D01*
X-11225682Y24165892D01*
X-11199576Y24155445D01*
X-11180132Y24155714D01*
X-11159042Y24164865D01*
X-11110584Y24182773D01*
X-11048691Y24195229D01*
X-10979126Y24202101D01*
X-10907652Y24203260D01*
X-10840032Y24198576D01*
G36*
X-6275814Y21178537D02*
G01*
X-6243678Y21160933D01*
X-6221127Y21149408D01*
X-6183130Y21138941D01*
X-6135408Y21130608D01*
X-6083682Y21125489D01*
X-6049873Y21124395D01*
X-6019331Y21123567D01*
X-6005143Y21119503D01*
X-6002509Y21109685D01*
X-6004343Y21100521D01*
X-6010483Y21070641D01*
X-6017220Y21029827D01*
X-6023979Y20982808D01*
X-6030180Y20934311D01*
X-6035246Y20889065D01*
X-6038598Y20851796D01*
X-6039659Y20827234D01*
X-6038641Y20820030D01*
X-6031274Y20818221D01*
X-6022552Y20828283D01*
X-6011474Y20852383D01*
X-5997041Y20892687D01*
X-5978765Y20949708D01*
X-5959846Y21007294D01*
X-5943559Y21047293D01*
X-5927750Y21072739D01*
X-5910263Y21086664D01*
X-5888941Y21092099D01*
X-5877174Y21092583D01*
X-5852559Y21089831D01*
X-5836279Y21079775D01*
X-5827760Y21059717D01*
X-5826430Y21026957D01*
X-5831717Y20978797D01*
X-5841148Y20922838D01*
X-5853237Y20852923D01*
X-5860121Y20803443D01*
X-5861655Y20774282D01*
X-5857696Y20765325D01*
X-5848099Y20776452D01*
X-5832720Y20807549D01*
X-5811416Y20858499D01*
X-5799411Y20889024D01*
X-5774459Y20950862D01*
X-5754823Y20993551D01*
X-5739797Y21018231D01*
X-5728673Y21026044D01*
X-5720744Y21018132D01*
X-5720212Y21016817D01*
X-5719314Y20997329D01*
X-5723708Y20962959D01*
X-5732172Y20918966D01*
X-5743486Y20870608D01*
X-5756428Y20823144D01*
X-5769777Y20781832D01*
X-5781217Y20754084D01*
X-5804958Y20706292D01*
X-5900208Y20704303D01*
X-5953201Y20705088D01*
X-6007564Y20708965D01*
X-6053132Y20715149D01*
X-6060721Y20716687D01*
X-6105356Y20726853D01*
X-6136752Y20736854D01*
X-6156560Y20750175D01*
X-6166430Y20770298D01*
X-6168011Y20800707D01*
X-6162955Y20844886D01*
X-6152912Y20906317D01*
X-6152292Y20909998D01*
X-6143932Y20965193D01*
X-6140639Y21002280D01*
X-6142279Y21023671D01*
X-6145528Y21029929D01*
X-6163934Y21039510D01*
X-6198172Y21050069D01*
X-6243003Y21060565D01*
X-6293192Y21069952D01*
X-6343500Y21077189D01*
X-6388688Y21081231D01*
X-6405562Y21081728D01*
X-6441344Y21083149D01*
X-6466972Y21086617D01*
X-6476996Y21091388D01*
X-6477000Y21091487D01*
X-6468588Y21106591D01*
X-6447126Y21127229D01*
X-6418271Y21149033D01*
X-6387682Y21167639D01*
X-6365835Y21177263D01*
X-6319643Y21184793D01*
X-6275814Y21178537D01*
G37*
X-6275814Y21178537D02*
X-6243678Y21160933D01*
X-6221127Y21149408D01*
X-6183130Y21138941D01*
X-6135408Y21130608D01*
X-6083682Y21125489D01*
X-6049873Y21124395D01*
X-6019331Y21123567D01*
X-6005143Y21119503D01*
X-6002509Y21109685D01*
X-6004343Y21100521D01*
X-6010483Y21070641D01*
X-6017220Y21029827D01*
X-6023979Y20982808D01*
X-6030180Y20934311D01*
X-6035246Y20889065D01*
X-6038598Y20851796D01*
X-6039659Y20827234D01*
X-6038641Y20820030D01*
X-6031274Y20818221D01*
X-6022552Y20828283D01*
X-6011474Y20852383D01*
X-5997041Y20892687D01*
X-5978765Y20949708D01*
X-5959846Y21007294D01*
X-5943559Y21047293D01*
X-5927750Y21072739D01*
X-5910263Y21086664D01*
X-5888941Y21092099D01*
X-5877174Y21092583D01*
X-5852559Y21089831D01*
X-5836279Y21079775D01*
X-5827760Y21059717D01*
X-5826430Y21026957D01*
X-5831717Y20978797D01*
X-5841148Y20922838D01*
X-5853237Y20852923D01*
X-5860121Y20803443D01*
X-5861655Y20774282D01*
X-5857696Y20765325D01*
X-5848099Y20776452D01*
X-5832720Y20807549D01*
X-5811416Y20858499D01*
X-5799411Y20889024D01*
X-5774459Y20950862D01*
X-5754823Y20993551D01*
X-5739797Y21018231D01*
X-5728673Y21026044D01*
X-5720744Y21018132D01*
X-5720212Y21016817D01*
X-5719314Y20997329D01*
X-5723708Y20962959D01*
X-5732172Y20918966D01*
X-5743486Y20870608D01*
X-5756428Y20823144D01*
X-5769777Y20781832D01*
X-5781217Y20754084D01*
X-5804958Y20706292D01*
X-5900208Y20704303D01*
X-5953201Y20705088D01*
X-6007564Y20708965D01*
X-6053132Y20715149D01*
X-6060721Y20716687D01*
X-6105356Y20726853D01*
X-6136752Y20736854D01*
X-6156560Y20750175D01*
X-6166430Y20770298D01*
X-6168011Y20800707D01*
X-6162955Y20844886D01*
X-6152912Y20906317D01*
X-6152292Y20909998D01*
X-6143932Y20965193D01*
X-6140639Y21002280D01*
X-6142279Y21023671D01*
X-6145528Y21029929D01*
X-6163934Y21039510D01*
X-6198172Y21050069D01*
X-6243003Y21060565D01*
X-6293192Y21069952D01*
X-6343500Y21077189D01*
X-6388688Y21081231D01*
X-6405562Y21081728D01*
X-6441344Y21083149D01*
X-6466972Y21086617D01*
X-6476996Y21091388D01*
X-6477000Y21091487D01*
X-6468588Y21106591D01*
X-6447126Y21127229D01*
X-6418271Y21149033D01*
X-6387682Y21167639D01*
X-6365835Y21177263D01*
X-6319643Y21184793D01*
X-6275814Y21178537D01*
G36*
X-5043478Y20869652D02*
G01*
X-4996543Y20848610D01*
X-4992272Y20846294D01*
X-4952924Y20825885D01*
X-4915170Y20808294D01*
X-4889500Y20798163D01*
X-4856069Y20789825D01*
X-4804621Y20780297D01*
X-4738243Y20770035D01*
X-4660019Y20759494D01*
X-4573037Y20749130D01*
X-4514270Y20742807D01*
X-4387748Y20729756D01*
X-4556603Y20645175D01*
X-4649488Y20599317D01*
X-4726905Y20562838D01*
X-4791811Y20534695D01*
X-4847161Y20513845D01*
X-4895911Y20499245D01*
X-4941017Y20489853D01*
X-4985436Y20484625D01*
X-5016500Y20482926D01*
X-5069124Y20482763D01*
X-5119737Y20485432D01*
X-5160065Y20490422D01*
X-5169100Y20492339D01*
X-5199759Y20502016D01*
X-5220518Y20512504D01*
X-5225306Y20517721D01*
X-5223069Y20533067D01*
X-5204130Y20544561D01*
X-5167401Y20552445D01*
X-5111795Y20556961D01*
X-5042958Y20558351D01*
X-4982398Y20558967D01*
X-4937775Y20561007D01*
X-4903875Y20565104D01*
X-4875482Y20571889D01*
X-4847381Y20581994D01*
X-4847166Y20582080D01*
X-4806468Y20599916D01*
X-4769673Y20618500D01*
X-4740929Y20635439D01*
X-4724388Y20648341D01*
X-4722520Y20653965D01*
X-4734216Y20657603D01*
X-4762447Y20663934D01*
X-4802889Y20672045D01*
X-4847904Y20680429D01*
X-4902194Y20691606D01*
X-4952240Y20704427D01*
X-4991895Y20717193D01*
X-5010550Y20725389D01*
X-5040289Y20746546D01*
X-5070311Y20775422D01*
X-5096432Y20806931D01*
X-5114472Y20835990D01*
X-5120247Y20857513D01*
X-5120090Y20858574D01*
X-5107843Y20874882D01*
X-5081442Y20878492D01*
X-5043478Y20869652D01*
G37*
X-5043478Y20869652D02*
X-4996543Y20848610D01*
X-4992272Y20846294D01*
X-4952924Y20825885D01*
X-4915170Y20808294D01*
X-4889500Y20798163D01*
X-4856069Y20789825D01*
X-4804621Y20780297D01*
X-4738243Y20770035D01*
X-4660019Y20759494D01*
X-4573037Y20749130D01*
X-4514270Y20742807D01*
X-4387748Y20729756D01*
X-4556603Y20645175D01*
X-4649488Y20599317D01*
X-4726905Y20562838D01*
X-4791811Y20534695D01*
X-4847161Y20513845D01*
X-4895911Y20499245D01*
X-4941017Y20489853D01*
X-4985436Y20484625D01*
X-5016500Y20482926D01*
X-5069124Y20482763D01*
X-5119737Y20485432D01*
X-5160065Y20490422D01*
X-5169100Y20492339D01*
X-5199759Y20502016D01*
X-5220518Y20512504D01*
X-5225306Y20517721D01*
X-5223069Y20533067D01*
X-5204130Y20544561D01*
X-5167401Y20552445D01*
X-5111795Y20556961D01*
X-5042958Y20558351D01*
X-4982398Y20558967D01*
X-4937775Y20561007D01*
X-4903875Y20565104D01*
X-4875482Y20571889D01*
X-4847381Y20581994D01*
X-4847166Y20582080D01*
X-4806468Y20599916D01*
X-4769673Y20618500D01*
X-4740929Y20635439D01*
X-4724388Y20648341D01*
X-4722520Y20653965D01*
X-4734216Y20657603D01*
X-4762447Y20663934D01*
X-4802889Y20672045D01*
X-4847904Y20680429D01*
X-4902194Y20691606D01*
X-4952240Y20704427D01*
X-4991895Y20717193D01*
X-5010550Y20725389D01*
X-5040289Y20746546D01*
X-5070311Y20775422D01*
X-5096432Y20806931D01*
X-5114472Y20835990D01*
X-5120247Y20857513D01*
X-5120090Y20858574D01*
X-5107843Y20874882D01*
X-5081442Y20878492D01*
X-5043478Y20869652D01*
G36*
X-8581237Y20971688D02*
G01*
X-8572500Y20970535D01*
X-8549562Y20967378D01*
X-8531725Y20963791D01*
X-8518335Y20957328D01*
X-8508739Y20945542D01*
X-8502283Y20925985D01*
X-8498314Y20896212D01*
X-8496179Y20853776D01*
X-8495224Y20796229D01*
X-8494797Y20721124D01*
X-8494590Y20678752D01*
X-8493125Y20409958D01*
X-8460561Y20406779D01*
X-8423964Y20411830D01*
X-8404234Y20422841D01*
X-8395552Y20431118D01*
X-8388994Y20442040D01*
X-8384023Y20458847D01*
X-8380104Y20484782D01*
X-8376700Y20523084D01*
X-8373273Y20576996D01*
X-8370541Y20626385D01*
X-8365578Y20708725D01*
X-8360224Y20772918D01*
X-8353845Y20821983D01*
X-8345809Y20858939D01*
X-8335481Y20886805D01*
X-8322227Y20908600D01*
X-8307872Y20924923D01*
X-8291782Y20939117D01*
X-8274558Y20948481D01*
X-8253028Y20952928D01*
X-8224019Y20952373D01*
X-8184361Y20946728D01*
X-8130880Y20935907D01*
X-8060405Y20919824D01*
X-8052452Y20917958D01*
X-7976618Y20900694D01*
X-7917828Y20889062D01*
X-7872722Y20883067D01*
X-7837940Y20882714D01*
X-7810122Y20888007D01*
X-7785908Y20898950D01*
X-7761937Y20915547D01*
X-7758389Y20918338D01*
X-7725611Y20940803D01*
X-7705571Y20947016D01*
X-7699274Y20937766D01*
X-7707720Y20913841D01*
X-7722205Y20889878D01*
X-7754902Y20853966D01*
X-7800067Y20820720D01*
X-7850699Y20794087D01*
X-7899799Y20778015D01*
X-7925751Y20775083D01*
X-7950146Y20777593D01*
X-7990106Y20784482D01*
X-8040713Y20794792D01*
X-8097051Y20807566D01*
X-8116220Y20812198D01*
X-8170090Y20824962D01*
X-8216646Y20835118D01*
X-8252046Y20841896D01*
X-8272451Y20844526D01*
X-8275670Y20844182D01*
X-8281982Y20834173D01*
X-8287793Y20811187D01*
X-8293322Y20773474D01*
X-8298795Y20719287D01*
X-8304432Y20646877D01*
X-8308473Y20586331D01*
X-8314301Y20508555D01*
X-8321232Y20449153D01*
X-8330196Y20405334D01*
X-8342122Y20374306D01*
X-8357941Y20353277D01*
X-8378582Y20339455D01*
X-8392583Y20333827D01*
X-8429926Y20325836D01*
X-8477946Y20321904D01*
X-8528872Y20322002D01*
X-8574931Y20326098D01*
X-8608352Y20334163D01*
X-8609546Y20334668D01*
X-8626419Y20342309D01*
X-8639650Y20350464D01*
X-8649655Y20361604D01*
X-8656851Y20378200D01*
X-8661657Y20402725D01*
X-8664490Y20437649D01*
X-8665766Y20485444D01*
X-8665904Y20548582D01*
X-8665320Y20629534D01*
X-8665018Y20663147D01*
X-8664178Y20748035D01*
X-8663245Y20814252D01*
X-8662022Y20864292D01*
X-8660311Y20900650D01*
X-8657912Y20925822D01*
X-8654628Y20942301D01*
X-8650261Y20952584D01*
X-8644612Y20959164D01*
X-8641291Y20961811D01*
X-8616908Y20971888D01*
X-8581237Y20971688D01*
G37*
X-8581237Y20971688D02*
X-8572500Y20970535D01*
X-8549562Y20967378D01*
X-8531725Y20963791D01*
X-8518335Y20957328D01*
X-8508739Y20945542D01*
X-8502283Y20925985D01*
X-8498314Y20896212D01*
X-8496179Y20853776D01*
X-8495224Y20796229D01*
X-8494797Y20721124D01*
X-8494590Y20678752D01*
X-8493125Y20409958D01*
X-8460561Y20406779D01*
X-8423964Y20411830D01*
X-8404234Y20422841D01*
X-8395552Y20431118D01*
X-8388994Y20442040D01*
X-8384023Y20458847D01*
X-8380104Y20484782D01*
X-8376700Y20523084D01*
X-8373273Y20576996D01*
X-8370541Y20626385D01*
X-8365578Y20708725D01*
X-8360224Y20772918D01*
X-8353845Y20821983D01*
X-8345809Y20858939D01*
X-8335481Y20886805D01*
X-8322227Y20908600D01*
X-8307872Y20924923D01*
X-8291782Y20939117D01*
X-8274558Y20948481D01*
X-8253028Y20952928D01*
X-8224019Y20952373D01*
X-8184361Y20946728D01*
X-8130880Y20935907D01*
X-8060405Y20919824D01*
X-8052452Y20917958D01*
X-7976618Y20900694D01*
X-7917828Y20889062D01*
X-7872722Y20883067D01*
X-7837940Y20882714D01*
X-7810122Y20888007D01*
X-7785908Y20898950D01*
X-7761937Y20915547D01*
X-7758389Y20918338D01*
X-7725611Y20940803D01*
X-7705571Y20947016D01*
X-7699274Y20937766D01*
X-7707720Y20913841D01*
X-7722205Y20889878D01*
X-7754902Y20853966D01*
X-7800067Y20820720D01*
X-7850699Y20794087D01*
X-7899799Y20778015D01*
X-7925751Y20775083D01*
X-7950146Y20777593D01*
X-7990106Y20784482D01*
X-8040713Y20794792D01*
X-8097051Y20807566D01*
X-8116220Y20812198D01*
X-8170090Y20824962D01*
X-8216646Y20835118D01*
X-8252046Y20841896D01*
X-8272451Y20844526D01*
X-8275670Y20844182D01*
X-8281982Y20834173D01*
X-8287793Y20811187D01*
X-8293322Y20773474D01*
X-8298795Y20719287D01*
X-8304432Y20646877D01*
X-8308473Y20586331D01*
X-8314301Y20508555D01*
X-8321232Y20449153D01*
X-8330196Y20405334D01*
X-8342122Y20374306D01*
X-8357941Y20353277D01*
X-8378582Y20339455D01*
X-8392583Y20333827D01*
X-8429926Y20325836D01*
X-8477946Y20321904D01*
X-8528872Y20322002D01*
X-8574931Y20326098D01*
X-8608352Y20334163D01*
X-8609546Y20334668D01*
X-8626419Y20342309D01*
X-8639650Y20350464D01*
X-8649655Y20361604D01*
X-8656851Y20378200D01*
X-8661657Y20402725D01*
X-8664490Y20437649D01*
X-8665766Y20485444D01*
X-8665904Y20548582D01*
X-8665320Y20629534D01*
X-8665018Y20663147D01*
X-8664178Y20748035D01*
X-8663245Y20814252D01*
X-8662022Y20864292D01*
X-8660311Y20900650D01*
X-8657912Y20925822D01*
X-8654628Y20942301D01*
X-8650261Y20952584D01*
X-8644612Y20959164D01*
X-8641291Y20961811D01*
X-8616908Y20971888D01*
X-8581237Y20971688D01*
G36*
X-8978922Y20953440D02*
G01*
X-8964702Y20946385D01*
X-8950849Y20929264D01*
X-8936515Y20899982D01*
X-8920850Y20856439D01*
X-8903004Y20796539D01*
X-8882127Y20718184D01*
X-8879543Y20708088D01*
X-8856861Y20611965D01*
X-8842817Y20533195D01*
X-8837667Y20469693D01*
X-8841671Y20419375D01*
X-8855084Y20380155D01*
X-8878165Y20349949D01*
X-8911172Y20326673D01*
X-8927660Y20318636D01*
X-8964459Y20306395D01*
X-9010938Y20296295D01*
X-9047226Y20291519D01*
X-9099176Y20290111D01*
X-9141491Y20296941D01*
X-9176280Y20314131D01*
X-9205652Y20343805D01*
X-9231717Y20388086D01*
X-9256583Y20449098D01*
X-9282052Y20527939D01*
X-9298759Y20580666D01*
X-9315465Y20628162D01*
X-9330346Y20665559D01*
X-9341579Y20687992D01*
X-9342551Y20689388D01*
X-9371778Y20720314D01*
X-9407267Y20745975D01*
X-9441842Y20761730D01*
X-9458704Y20764500D01*
X-9474570Y20762921D01*
X-9480694Y20754356D01*
X-9479462Y20733069D01*
X-9477414Y20719521D01*
X-9472339Y20691994D01*
X-9463644Y20649464D01*
X-9452509Y20597544D01*
X-9440115Y20541846D01*
X-9439005Y20536958D01*
X-9421400Y20457027D01*
X-9409257Y20394779D01*
X-9402388Y20347502D01*
X-9400606Y20312481D01*
X-9403721Y20287003D01*
X-9411545Y20268352D01*
X-9419654Y20257980D01*
X-9446741Y20236001D01*
X-9478534Y20218292D01*
X-9517752Y20208297D01*
X-9567233Y20204320D01*
X-9618328Y20206260D01*
X-9662388Y20214016D01*
X-9680335Y20220649D01*
X-9695358Y20229537D01*
X-9708325Y20241734D01*
X-9720263Y20259796D01*
X-9732198Y20286280D01*
X-9745159Y20323741D01*
X-9760172Y20374735D01*
X-9778266Y20441819D01*
X-9794761Y20505340D01*
X-9817982Y20601149D01*
X-9833409Y20678114D01*
X-9841147Y20737026D01*
X-9841300Y20778679D01*
X-9834029Y20803777D01*
X-9817804Y20817084D01*
X-9789480Y20831498D01*
X-9757585Y20843374D01*
X-9730647Y20849070D01*
X-9727795Y20849167D01*
X-9718247Y20843866D01*
X-9707376Y20826989D01*
X-9694701Y20797074D01*
X-9679739Y20752658D01*
X-9662007Y20692278D01*
X-9641023Y20614473D01*
X-9616305Y20517780D01*
X-9609455Y20490362D01*
X-9591710Y20421501D01*
X-9576881Y20370879D01*
X-9563735Y20335978D01*
X-9551035Y20314281D01*
X-9537548Y20303271D01*
X-9522037Y20300431D01*
X-9516457Y20300835D01*
X-9498058Y20305495D01*
X-9488983Y20318046D01*
X-9485009Y20344816D01*
X-9484738Y20348396D01*
X-9486066Y20375365D01*
X-9492067Y20418130D01*
X-9501951Y20472039D01*
X-9514926Y20532440D01*
X-9519134Y20550427D01*
X-9538400Y20636809D01*
X-9550528Y20705462D01*
X-9555664Y20758529D01*
X-9553947Y20798158D01*
X-9550320Y20810360D01*
X-9191873Y20810360D01*
X-9183649Y20792841D01*
X-9168412Y20770335D01*
X-9149617Y20748318D01*
X-9140597Y20739748D01*
X-9122070Y20727347D01*
X-9114269Y20729470D01*
X-9116831Y20742611D01*
X-9129394Y20763263D01*
X-9144888Y20781292D01*
X-9167451Y20802622D01*
X-9184812Y20815592D01*
X-9189626Y20817417D01*
X-9191873Y20810360D01*
X-9550320Y20810360D01*
X-9545523Y20826493D01*
X-9538229Y20837859D01*
X-9525441Y20849744D01*
X-9507211Y20857179D01*
X-9478238Y20861504D01*
X-9435041Y20863993D01*
X-9379049Y20868487D01*
X-9334534Y20878218D01*
X-9292166Y20895191D01*
X-9233022Y20917801D01*
X-9183326Y20923344D01*
X-9139780Y20911654D01*
X-9102303Y20885524D01*
X-9064180Y20843619D01*
X-9035498Y20797263D01*
X-9016420Y20749522D01*
X-9007111Y20703462D01*
X-9007733Y20662151D01*
X-9018451Y20628655D01*
X-9039428Y20606040D01*
X-9070828Y20597374D01*
X-9086983Y20598602D01*
X-9107342Y20600362D01*
X-9118969Y20595591D01*
X-9122121Y20581293D01*
X-9117057Y20554468D01*
X-9104036Y20512121D01*
X-9096397Y20489400D01*
X-9077153Y20437742D01*
X-9059359Y20403551D01*
X-9040198Y20383559D01*
X-9016849Y20374502D01*
X-8995833Y20372917D01*
X-8963968Y20377357D01*
X-8941237Y20391774D01*
X-8927404Y20417814D01*
X-8922231Y20457123D01*
X-8925482Y20511346D01*
X-8936921Y20582129D01*
X-8954232Y20662259D01*
X-8967308Y20722367D01*
X-8978947Y20783269D01*
X-8987886Y20837881D01*
X-8992865Y20879120D01*
X-8992884Y20879357D01*
X-8995637Y20919150D01*
X-8995500Y20942076D01*
X-8991683Y20952331D01*
X-8983395Y20954111D01*
X-8978922Y20953440D01*
G37*
X-8978922Y20953440D02*
X-8964702Y20946385D01*
X-8950849Y20929264D01*
X-8936515Y20899982D01*
X-8920850Y20856439D01*
X-8903004Y20796539D01*
X-8882127Y20718184D01*
X-8879543Y20708088D01*
X-8856861Y20611965D01*
X-8842817Y20533195D01*
X-8837667Y20469693D01*
X-8841671Y20419375D01*
X-8855084Y20380155D01*
X-8878165Y20349949D01*
X-8911172Y20326673D01*
X-8927660Y20318636D01*
X-8964459Y20306395D01*
X-9010938Y20296295D01*
X-9047226Y20291519D01*
X-9099176Y20290111D01*
X-9141491Y20296941D01*
X-9176280Y20314131D01*
X-9205652Y20343805D01*
X-9231717Y20388086D01*
X-9256583Y20449098D01*
X-9282052Y20527939D01*
X-9298759Y20580666D01*
X-9315465Y20628162D01*
X-9330346Y20665559D01*
X-9341579Y20687992D01*
X-9342551Y20689388D01*
X-9371778Y20720314D01*
X-9407267Y20745975D01*
X-9441842Y20761730D01*
X-9458704Y20764500D01*
X-9474570Y20762921D01*
X-9480694Y20754356D01*
X-9479462Y20733069D01*
X-9477414Y20719521D01*
X-9472339Y20691994D01*
X-9463644Y20649464D01*
X-9452509Y20597544D01*
X-9440115Y20541846D01*
X-9439005Y20536958D01*
X-9421400Y20457027D01*
X-9409257Y20394779D01*
X-9402388Y20347502D01*
X-9400606Y20312481D01*
X-9403721Y20287003D01*
X-9411545Y20268352D01*
X-9419654Y20257980D01*
X-9446741Y20236001D01*
X-9478534Y20218292D01*
X-9517752Y20208297D01*
X-9567233Y20204320D01*
X-9618328Y20206260D01*
X-9662388Y20214016D01*
X-9680335Y20220649D01*
X-9695358Y20229537D01*
X-9708325Y20241734D01*
X-9720263Y20259796D01*
X-9732198Y20286280D01*
X-9745159Y20323741D01*
X-9760172Y20374735D01*
X-9778266Y20441819D01*
X-9794761Y20505340D01*
X-9817982Y20601149D01*
X-9833409Y20678114D01*
X-9841147Y20737026D01*
X-9841300Y20778679D01*
X-9834029Y20803777D01*
X-9817804Y20817084D01*
X-9789480Y20831498D01*
X-9757585Y20843374D01*
X-9730647Y20849070D01*
X-9727795Y20849167D01*
X-9718247Y20843866D01*
X-9707376Y20826989D01*
X-9694701Y20797074D01*
X-9679739Y20752658D01*
X-9662007Y20692278D01*
X-9641023Y20614473D01*
X-9616305Y20517780D01*
X-9609455Y20490362D01*
X-9591710Y20421501D01*
X-9576881Y20370879D01*
X-9563735Y20335978D01*
X-9551035Y20314281D01*
X-9537548Y20303271D01*
X-9522037Y20300431D01*
X-9516457Y20300835D01*
X-9498058Y20305495D01*
X-9488983Y20318046D01*
X-9485009Y20344816D01*
X-9484738Y20348396D01*
X-9486066Y20375365D01*
X-9492067Y20418130D01*
X-9501951Y20472039D01*
X-9514926Y20532440D01*
X-9519134Y20550427D01*
X-9538400Y20636809D01*
X-9550528Y20705462D01*
X-9555664Y20758529D01*
X-9553947Y20798158D01*
X-9550320Y20810360D01*
X-9191873Y20810360D01*
X-9183649Y20792841D01*
X-9168412Y20770335D01*
X-9149617Y20748318D01*
X-9140597Y20739748D01*
X-9122070Y20727347D01*
X-9114269Y20729470D01*
X-9116831Y20742611D01*
X-9129394Y20763263D01*
X-9144888Y20781292D01*
X-9167451Y20802622D01*
X-9184812Y20815592D01*
X-9189626Y20817417D01*
X-9191873Y20810360D01*
X-9550320Y20810360D01*
X-9545523Y20826493D01*
X-9538229Y20837859D01*
X-9525441Y20849744D01*
X-9507211Y20857179D01*
X-9478238Y20861504D01*
X-9435041Y20863993D01*
X-9379049Y20868487D01*
X-9334534Y20878218D01*
X-9292166Y20895191D01*
X-9233022Y20917801D01*
X-9183326Y20923344D01*
X-9139780Y20911654D01*
X-9102303Y20885524D01*
X-9064180Y20843619D01*
X-9035498Y20797263D01*
X-9016420Y20749522D01*
X-9007111Y20703462D01*
X-9007733Y20662151D01*
X-9018451Y20628655D01*
X-9039428Y20606040D01*
X-9070828Y20597374D01*
X-9086983Y20598602D01*
X-9107342Y20600362D01*
X-9118969Y20595591D01*
X-9122121Y20581293D01*
X-9117057Y20554468D01*
X-9104036Y20512121D01*
X-9096397Y20489400D01*
X-9077153Y20437742D01*
X-9059359Y20403551D01*
X-9040198Y20383559D01*
X-9016849Y20374502D01*
X-8995833Y20372917D01*
X-8963968Y20377357D01*
X-8941237Y20391774D01*
X-8927404Y20417814D01*
X-8922231Y20457123D01*
X-8925482Y20511346D01*
X-8936921Y20582129D01*
X-8954232Y20662259D01*
X-8967308Y20722367D01*
X-8978947Y20783269D01*
X-8987886Y20837881D01*
X-8992865Y20879120D01*
X-8992884Y20879357D01*
X-8995637Y20919150D01*
X-8995500Y20942076D01*
X-8991683Y20952331D01*
X-8983395Y20954111D01*
X-8978922Y20953440D01*
G36*
X-7576973Y20921017D02*
G01*
X-7546334Y20917334D01*
X-7514896Y20911610D01*
X-7489270Y20904745D01*
X-7480586Y20901104D01*
X-7468602Y20889378D01*
X-7462652Y20868426D01*
X-7462752Y20835504D01*
X-7468916Y20787873D01*
X-7481160Y20722790D01*
X-7481591Y20720686D01*
X-7501148Y20616463D01*
X-7514138Y20526846D01*
X-7520522Y20452874D01*
X-7520264Y20395588D01*
X-7513327Y20356026D01*
X-7499675Y20335229D01*
X-7495337Y20333126D01*
X-7484627Y20335806D01*
X-7473625Y20352011D01*
X-7461843Y20383271D01*
X-7448793Y20431111D01*
X-7433986Y20497059D01*
X-7418900Y20572408D01*
X-7403470Y20649963D01*
X-7390231Y20709573D01*
X-7378157Y20754216D01*
X-7366227Y20786869D01*
X-7353419Y20810508D01*
X-7338709Y20828112D01*
X-7327797Y20837606D01*
X-7309628Y20849005D01*
X-7287645Y20855999D01*
X-7258912Y20858471D01*
X-7220488Y20856307D01*
X-7169438Y20849388D01*
X-7102821Y20837600D01*
X-7045637Y20826444D01*
X-6982143Y20813442D01*
X-6936853Y20803222D01*
X-6907113Y20794963D01*
X-6890269Y20787840D01*
X-6883669Y20781029D01*
X-6883674Y20776166D01*
X-6888752Y20752848D01*
X-6895692Y20712898D01*
X-6903883Y20660706D01*
X-6912717Y20600663D01*
X-6921585Y20537158D01*
X-6929877Y20474582D01*
X-6936985Y20417325D01*
X-6942299Y20369777D01*
X-6945210Y20336328D01*
X-6945495Y20330583D01*
X-6946366Y20293552D01*
X-6944491Y20272655D01*
X-6938161Y20262886D01*
X-6925667Y20259238D01*
X-6920948Y20258645D01*
X-6902720Y20258867D01*
X-6887427Y20265757D01*
X-6874019Y20281642D01*
X-6861448Y20308850D01*
X-6848665Y20349709D01*
X-6834620Y20406549D01*
X-6818265Y20481696D01*
X-6816371Y20490743D01*
X-6802710Y20555472D01*
X-6789662Y20616022D01*
X-6778160Y20668152D01*
X-6769140Y20707622D01*
X-6763901Y20728871D01*
X-6749498Y20766380D01*
X-6731917Y20788400D01*
X-6713384Y20792446D01*
X-6708790Y20790314D01*
X-6702351Y20775240D01*
X-6699897Y20742929D01*
X-6700996Y20696846D01*
X-6705211Y20640452D01*
X-6712108Y20577211D01*
X-6721254Y20510586D01*
X-6732212Y20444041D01*
X-6744550Y20381039D01*
X-6757831Y20325043D01*
X-6771622Y20279516D01*
X-6773553Y20274218D01*
X-6796843Y20223565D01*
X-6824074Y20190721D01*
X-6859390Y20172328D01*
X-6906934Y20165028D01*
X-6908416Y20164954D01*
X-6953583Y20166001D01*
X-6999922Y20171952D01*
X-7019697Y20176498D01*
X-7066935Y20191686D01*
X-7097090Y20207595D01*
X-7113912Y20228672D01*
X-7121154Y20259364D01*
X-7122583Y20298429D01*
X-7120689Y20336051D01*
X-7115496Y20388262D01*
X-7107739Y20448869D01*
X-7098151Y20511682D01*
X-7095317Y20528372D01*
X-7085248Y20586292D01*
X-7076046Y20639298D01*
X-7068524Y20682699D01*
X-7063496Y20711804D01*
X-7062370Y20718363D01*
X-7056690Y20751601D01*
X-7134616Y20764341D01*
X-7175679Y20770826D01*
X-7210632Y20775939D01*
X-7232376Y20778647D01*
X-7233327Y20778728D01*
X-7241746Y20777351D01*
X-7249141Y20769792D01*
X-7256545Y20753113D01*
X-7264993Y20724374D01*
X-7275516Y20680637D01*
X-7288572Y20621625D01*
X-7300756Y20563086D01*
X-7311092Y20508830D01*
X-7318742Y20463622D01*
X-7322868Y20432224D01*
X-7323349Y20424118D01*
X-7322083Y20399252D01*
X-7313795Y20386739D01*
X-7292565Y20380204D01*
X-7280596Y20378084D01*
X-7246568Y20367549D01*
X-7231261Y20351621D01*
X-7235607Y20331986D01*
X-7247992Y20319161D01*
X-7277597Y20303454D01*
X-7323165Y20289025D01*
X-7379500Y20276586D01*
X-7441405Y20266853D01*
X-7503684Y20260538D01*
X-7561141Y20258355D01*
X-7608580Y20261019D01*
X-7633287Y20266230D01*
X-7662339Y20280615D01*
X-7676320Y20302104D01*
X-7678008Y20308507D01*
X-7680016Y20336428D01*
X-7678329Y20383163D01*
X-7673144Y20446720D01*
X-7664658Y20525108D01*
X-7653069Y20616335D01*
X-7638573Y20718409D01*
X-7635331Y20740022D01*
X-7626637Y20797923D01*
X-7619184Y20848372D01*
X-7613503Y20887707D01*
X-7610126Y20912266D01*
X-7609416Y20918656D01*
X-7600204Y20921757D01*
X-7576973Y20921017D01*
G37*
X-7576973Y20921017D02*
X-7546334Y20917334D01*
X-7514896Y20911610D01*
X-7489270Y20904745D01*
X-7480586Y20901104D01*
X-7468602Y20889378D01*
X-7462652Y20868426D01*
X-7462752Y20835504D01*
X-7468916Y20787873D01*
X-7481160Y20722790D01*
X-7481591Y20720686D01*
X-7501148Y20616463D01*
X-7514138Y20526846D01*
X-7520522Y20452874D01*
X-7520264Y20395588D01*
X-7513327Y20356026D01*
X-7499675Y20335229D01*
X-7495337Y20333126D01*
X-7484627Y20335806D01*
X-7473625Y20352011D01*
X-7461843Y20383271D01*
X-7448793Y20431111D01*
X-7433986Y20497059D01*
X-7418900Y20572408D01*
X-7403470Y20649963D01*
X-7390231Y20709573D01*
X-7378157Y20754216D01*
X-7366227Y20786869D01*
X-7353419Y20810508D01*
X-7338709Y20828112D01*
X-7327797Y20837606D01*
X-7309628Y20849005D01*
X-7287645Y20855999D01*
X-7258912Y20858471D01*
X-7220488Y20856307D01*
X-7169438Y20849388D01*
X-7102821Y20837600D01*
X-7045637Y20826444D01*
X-6982143Y20813442D01*
X-6936853Y20803222D01*
X-6907113Y20794963D01*
X-6890269Y20787840D01*
X-6883669Y20781029D01*
X-6883674Y20776166D01*
X-6888752Y20752848D01*
X-6895692Y20712898D01*
X-6903883Y20660706D01*
X-6912717Y20600663D01*
X-6921585Y20537158D01*
X-6929877Y20474582D01*
X-6936985Y20417325D01*
X-6942299Y20369777D01*
X-6945210Y20336328D01*
X-6945495Y20330583D01*
X-6946366Y20293552D01*
X-6944491Y20272655D01*
X-6938161Y20262886D01*
X-6925667Y20259238D01*
X-6920948Y20258645D01*
X-6902720Y20258867D01*
X-6887427Y20265757D01*
X-6874019Y20281642D01*
X-6861448Y20308850D01*
X-6848665Y20349709D01*
X-6834620Y20406549D01*
X-6818265Y20481696D01*
X-6816371Y20490743D01*
X-6802710Y20555472D01*
X-6789662Y20616022D01*
X-6778160Y20668152D01*
X-6769140Y20707622D01*
X-6763901Y20728871D01*
X-6749498Y20766380D01*
X-6731917Y20788400D01*
X-6713384Y20792446D01*
X-6708790Y20790314D01*
X-6702351Y20775240D01*
X-6699897Y20742929D01*
X-6700996Y20696846D01*
X-6705211Y20640452D01*
X-6712108Y20577211D01*
X-6721254Y20510586D01*
X-6732212Y20444041D01*
X-6744550Y20381039D01*
X-6757831Y20325043D01*
X-6771622Y20279516D01*
X-6773553Y20274218D01*
X-6796843Y20223565D01*
X-6824074Y20190721D01*
X-6859390Y20172328D01*
X-6906934Y20165028D01*
X-6908416Y20164954D01*
X-6953583Y20166001D01*
X-6999922Y20171952D01*
X-7019697Y20176498D01*
X-7066935Y20191686D01*
X-7097090Y20207595D01*
X-7113912Y20228672D01*
X-7121154Y20259364D01*
X-7122583Y20298429D01*
X-7120689Y20336051D01*
X-7115496Y20388262D01*
X-7107739Y20448869D01*
X-7098151Y20511682D01*
X-7095317Y20528372D01*
X-7085248Y20586292D01*
X-7076046Y20639298D01*
X-7068524Y20682699D01*
X-7063496Y20711804D01*
X-7062370Y20718363D01*
X-7056690Y20751601D01*
X-7134616Y20764341D01*
X-7175679Y20770826D01*
X-7210632Y20775939D01*
X-7232376Y20778647D01*
X-7233327Y20778728D01*
X-7241746Y20777351D01*
X-7249141Y20769792D01*
X-7256545Y20753113D01*
X-7264993Y20724374D01*
X-7275516Y20680637D01*
X-7288572Y20621625D01*
X-7300756Y20563086D01*
X-7311092Y20508830D01*
X-7318742Y20463622D01*
X-7322868Y20432224D01*
X-7323349Y20424118D01*
X-7322083Y20399252D01*
X-7313795Y20386739D01*
X-7292565Y20380204D01*
X-7280596Y20378084D01*
X-7246568Y20367549D01*
X-7231261Y20351621D01*
X-7235607Y20331986D01*
X-7247992Y20319161D01*
X-7277597Y20303454D01*
X-7323165Y20289025D01*
X-7379500Y20276586D01*
X-7441405Y20266853D01*
X-7503684Y20260538D01*
X-7561141Y20258355D01*
X-7608580Y20261019D01*
X-7633287Y20266230D01*
X-7662339Y20280615D01*
X-7676320Y20302104D01*
X-7678008Y20308507D01*
X-7680016Y20336428D01*
X-7678329Y20383163D01*
X-7673144Y20446720D01*
X-7664658Y20525108D01*
X-7653069Y20616335D01*
X-7638573Y20718409D01*
X-7635331Y20740022D01*
X-7626637Y20797923D01*
X-7619184Y20848372D01*
X-7613503Y20887707D01*
X-7610126Y20912266D01*
X-7609416Y20918656D01*
X-7600204Y20921757D01*
X-7576973Y20921017D01*
G36*
X-8278226Y20213865D02*
G01*
X-8221552Y20198697D01*
X-8176479Y20171823D01*
X-8154987Y20151267D01*
X-8138053Y20118034D01*
X-8136313Y20077612D01*
X-8149878Y20037658D01*
X-8153275Y20032124D01*
X-8184664Y20001390D01*
X-8231097Y19976970D01*
X-8287071Y19960111D01*
X-8347080Y19952057D01*
X-8405618Y19954054D01*
X-8450791Y19964833D01*
X-8489849Y19986159D01*
X-8526809Y20017906D01*
X-8555389Y20053797D01*
X-8568220Y20082139D01*
X-8568797Y20111213D01*
X-8403166Y20111213D01*
X-8393975Y20084946D01*
X-8370725Y20065869D01*
X-8339903Y20056083D01*
X-8307997Y20057687D01*
X-8282214Y20072048D01*
X-8268561Y20094235D01*
X-8265583Y20108489D01*
X-8274786Y20130425D01*
X-8297346Y20149706D01*
X-8325691Y20160523D01*
X-8334375Y20161250D01*
X-8361677Y20154633D01*
X-8386713Y20138551D01*
X-8401714Y20118655D01*
X-8403166Y20111213D01*
X-8568797Y20111213D01*
X-8568941Y20118412D01*
X-8550914Y20150559D01*
X-8513102Y20180125D01*
X-8496171Y20189544D01*
X-8464148Y20204553D01*
X-8434625Y20213366D01*
X-8399804Y20217537D01*
X-8351888Y20218620D01*
X-8350250Y20218621D01*
X-8278226Y20213865D01*
G37*
X-8278226Y20213865D02*
X-8221552Y20198697D01*
X-8176479Y20171823D01*
X-8154987Y20151267D01*
X-8138053Y20118034D01*
X-8136313Y20077612D01*
X-8149878Y20037658D01*
X-8153275Y20032124D01*
X-8184664Y20001390D01*
X-8231097Y19976970D01*
X-8287071Y19960111D01*
X-8347080Y19952057D01*
X-8405618Y19954054D01*
X-8450791Y19964833D01*
X-8489849Y19986159D01*
X-8526809Y20017906D01*
X-8555389Y20053797D01*
X-8568220Y20082139D01*
X-8568797Y20111213D01*
X-8403166Y20111213D01*
X-8393975Y20084946D01*
X-8370725Y20065869D01*
X-8339903Y20056083D01*
X-8307997Y20057687D01*
X-8282214Y20072048D01*
X-8268561Y20094235D01*
X-8265583Y20108489D01*
X-8274786Y20130425D01*
X-8297346Y20149706D01*
X-8325691Y20160523D01*
X-8334375Y20161250D01*
X-8361677Y20154633D01*
X-8386713Y20138551D01*
X-8401714Y20118655D01*
X-8403166Y20111213D01*
X-8568797Y20111213D01*
X-8568941Y20118412D01*
X-8550914Y20150559D01*
X-8513102Y20180125D01*
X-8496171Y20189544D01*
X-8464148Y20204553D01*
X-8434625Y20213366D01*
X-8399804Y20217537D01*
X-8351888Y20218620D01*
X-8350250Y20218621D01*
X-8278226Y20213865D01*
G36*
X-9042113Y20240759D02*
G01*
X-8997086Y20209222D01*
X-8985779Y20197277D01*
X-8960256Y20156093D01*
X-8955703Y20114405D01*
X-8972169Y20072028D01*
X-9009701Y20028778D01*
X-9034522Y20008181D01*
X-9077525Y19981210D01*
X-9127379Y19958724D01*
X-9176070Y19943827D01*
X-9212067Y19939465D01*
X-9236199Y19943281D01*
X-9267870Y19952112D01*
X-9274403Y19954353D01*
X-9318248Y19978909D01*
X-9345590Y20013904D01*
X-9354689Y20056444D01*
X-9351254Y20082142D01*
X-9335813Y20113772D01*
X-9329122Y20122096D01*
X-9225748Y20122096D01*
X-9210445Y20099174D01*
X-9196823Y20090235D01*
X-9168959Y20078776D01*
X-9148088Y20079888D01*
X-9125188Y20093059D01*
X-9107607Y20110325D01*
X-9101666Y20124208D01*
X-9110929Y20142962D01*
X-9133818Y20159925D01*
X-9162992Y20170441D01*
X-9176809Y20171833D01*
X-9207480Y20164337D01*
X-9224276Y20145787D01*
X-9225748Y20122096D01*
X-9329122Y20122096D01*
X-9306871Y20149775D01*
X-9269688Y20184724D01*
X-9229523Y20213196D01*
X-9218170Y20219414D01*
X-9151681Y20245762D01*
X-9093320Y20252907D01*
X-9042113Y20240759D01*
G37*
X-9042113Y20240759D02*
X-8997086Y20209222D01*
X-8985779Y20197277D01*
X-8960256Y20156093D01*
X-8955703Y20114405D01*
X-8972169Y20072028D01*
X-9009701Y20028778D01*
X-9034522Y20008181D01*
X-9077525Y19981210D01*
X-9127379Y19958724D01*
X-9176070Y19943827D01*
X-9212067Y19939465D01*
X-9236199Y19943281D01*
X-9267870Y19952112D01*
X-9274403Y19954353D01*
X-9318248Y19978909D01*
X-9345590Y20013904D01*
X-9354689Y20056444D01*
X-9351254Y20082142D01*
X-9335813Y20113772D01*
X-9329122Y20122096D01*
X-9225748Y20122096D01*
X-9210445Y20099174D01*
X-9196823Y20090235D01*
X-9168959Y20078776D01*
X-9148088Y20079888D01*
X-9125188Y20093059D01*
X-9107607Y20110325D01*
X-9101666Y20124208D01*
X-9110929Y20142962D01*
X-9133818Y20159925D01*
X-9162992Y20170441D01*
X-9176809Y20171833D01*
X-9207480Y20164337D01*
X-9224276Y20145787D01*
X-9225748Y20122096D01*
X-9329122Y20122096D01*
X-9306871Y20149775D01*
X-9269688Y20184724D01*
X-9229523Y20213196D01*
X-9218170Y20219414D01*
X-9151681Y20245762D01*
X-9093320Y20252907D01*
X-9042113Y20240759D01*
G36*
X-10236645Y20511744D02*
G01*
X-10194330Y20490905D01*
X-10137281Y20457211D01*
X-10111123Y20440716D01*
X-10008974Y20373794D01*
X-9924922Y20314840D01*
X-9857953Y20262720D01*
X-9807056Y20216297D01*
X-9771216Y20174437D01*
X-9749422Y20136005D01*
X-9740660Y20099866D01*
X-9743919Y20064885D01*
X-9753211Y20039626D01*
X-9779417Y20002637D01*
X-9816885Y19972349D01*
X-9860174Y19951171D01*
X-9903843Y19941510D01*
X-9942450Y19945776D01*
X-9953625Y19950925D01*
X-9969164Y19960573D01*
X-9999126Y19979609D01*
X-10040179Y20005900D01*
X-10088990Y20037313D01*
X-10133541Y20066092D01*
X-10220679Y20121575D01*
X-10291727Y20164757D01*
X-10347522Y20196049D01*
X-10388898Y20215862D01*
X-10416692Y20224604D01*
X-10431740Y20222687D01*
X-10435166Y20214167D01*
X-10425970Y20206736D01*
X-10403812Y20203584D01*
X-10403416Y20203583D01*
X-10381860Y20202224D01*
X-10373812Y20195645D01*
X-10379043Y20180098D01*
X-10397323Y20151834D01*
X-10400003Y20147957D01*
X-10428738Y20111522D01*
X-10452226Y20094669D01*
X-10472654Y20097161D01*
X-10492213Y20118762D01*
X-10502481Y20136912D01*
X-10517634Y20182582D01*
X-10515307Y20228466D01*
X-10494821Y20276452D01*
X-10455495Y20328432D01*
X-10420715Y20364104D01*
X-10357954Y20424084D01*
X-10164948Y20294013D01*
X-10104452Y20253787D01*
X-10046011Y20215922D01*
X-9993219Y20182670D01*
X-9949670Y20156285D01*
X-9918959Y20139022D01*
X-9913168Y20136138D01*
X-9873157Y20119878D01*
X-9838087Y20110394D01*
X-9812390Y20108440D01*
X-9800499Y20114768D01*
X-9800166Y20116946D01*
X-9808504Y20126994D01*
X-9831875Y20147103D01*
X-9867817Y20175419D01*
X-9913867Y20210090D01*
X-9967561Y20249263D01*
X-10026438Y20291086D01*
X-10088034Y20333706D01*
X-10091208Y20335871D01*
X-10160656Y20384056D01*
X-10213347Y20422711D01*
X-10250750Y20453075D01*
X-10274331Y20476387D01*
X-10285557Y20493885D01*
X-10287000Y20501192D01*
X-10281799Y20516481D01*
X-10265408Y20520134D01*
X-10236645Y20511744D01*
G37*
X-10236645Y20511744D02*
X-10194330Y20490905D01*
X-10137281Y20457211D01*
X-10111123Y20440716D01*
X-10008974Y20373794D01*
X-9924922Y20314840D01*
X-9857953Y20262720D01*
X-9807056Y20216297D01*
X-9771216Y20174437D01*
X-9749422Y20136005D01*
X-9740660Y20099866D01*
X-9743919Y20064885D01*
X-9753211Y20039626D01*
X-9779417Y20002637D01*
X-9816885Y19972349D01*
X-9860174Y19951171D01*
X-9903843Y19941510D01*
X-9942450Y19945776D01*
X-9953625Y19950925D01*
X-9969164Y19960573D01*
X-9999126Y19979609D01*
X-10040179Y20005900D01*
X-10088990Y20037313D01*
X-10133541Y20066092D01*
X-10220679Y20121575D01*
X-10291727Y20164757D01*
X-10347522Y20196049D01*
X-10388898Y20215862D01*
X-10416692Y20224604D01*
X-10431740Y20222687D01*
X-10435166Y20214167D01*
X-10425970Y20206736D01*
X-10403812Y20203584D01*
X-10403416Y20203583D01*
X-10381860Y20202224D01*
X-10373812Y20195645D01*
X-10379043Y20180098D01*
X-10397323Y20151834D01*
X-10400003Y20147957D01*
X-10428738Y20111522D01*
X-10452226Y20094669D01*
X-10472654Y20097161D01*
X-10492213Y20118762D01*
X-10502481Y20136912D01*
X-10517634Y20182582D01*
X-10515307Y20228466D01*
X-10494821Y20276452D01*
X-10455495Y20328432D01*
X-10420715Y20364104D01*
X-10357954Y20424084D01*
X-10164948Y20294013D01*
X-10104452Y20253787D01*
X-10046011Y20215922D01*
X-9993219Y20182670D01*
X-9949670Y20156285D01*
X-9918959Y20139022D01*
X-9913168Y20136138D01*
X-9873157Y20119878D01*
X-9838087Y20110394D01*
X-9812390Y20108440D01*
X-9800499Y20114768D01*
X-9800166Y20116946D01*
X-9808504Y20126994D01*
X-9831875Y20147103D01*
X-9867817Y20175419D01*
X-9913867Y20210090D01*
X-9967561Y20249263D01*
X-10026438Y20291086D01*
X-10088034Y20333706D01*
X-10091208Y20335871D01*
X-10160656Y20384056D01*
X-10213347Y20422711D01*
X-10250750Y20453075D01*
X-10274331Y20476387D01*
X-10285557Y20493885D01*
X-10287000Y20501192D01*
X-10281799Y20516481D01*
X-10265408Y20520134D01*
X-10236645Y20511744D01*
G36*
X-6390094Y20747410D02*
G01*
X-6358875Y20743042D01*
X-6338442Y20736892D01*
X-6334881Y20733974D01*
X-6336376Y20722146D01*
X-6343045Y20693227D01*
X-6354057Y20650424D01*
X-6368586Y20596943D01*
X-6385802Y20535992D01*
X-6388236Y20527542D01*
X-6406831Y20461046D01*
X-6423653Y20396983D01*
X-6437603Y20339841D01*
X-6447586Y20294107D01*
X-6452446Y20264843D01*
X-6455695Y20229958D01*
X-6455130Y20211444D01*
X-6449277Y20204635D01*
X-6436661Y20204864D01*
X-6433627Y20205283D01*
X-6413206Y20216520D01*
X-6391814Y20245138D01*
X-6369042Y20292001D01*
X-6344480Y20357975D01*
X-6317720Y20443928D01*
X-6312757Y20461170D01*
X-6296968Y20515324D01*
X-6281749Y20565273D01*
X-6268729Y20605813D01*
X-6259537Y20631741D01*
X-6258816Y20633510D01*
X-6236080Y20668313D01*
X-6205974Y20685943D01*
X-6172020Y20684595D01*
X-6164791Y20681759D01*
X-6150993Y20672894D01*
X-6142532Y20659435D01*
X-6139591Y20638657D01*
X-6142352Y20607837D01*
X-6150999Y20564253D01*
X-6165713Y20505179D01*
X-6180235Y20451277D01*
X-6203670Y20364520D01*
X-6221068Y20295807D01*
X-6232471Y20242906D01*
X-6237916Y20203584D01*
X-6237443Y20175609D01*
X-6231091Y20156750D01*
X-6218900Y20144774D01*
X-6200908Y20137449D01*
X-6185815Y20134067D01*
X-6144736Y20131634D01*
X-6116131Y20144205D01*
X-6095518Y20174109D01*
X-6091698Y20183030D01*
X-6078335Y20223729D01*
X-6077848Y20254370D01*
X-6091903Y20282058D01*
X-6122168Y20313900D01*
X-6122458Y20314171D01*
X-6153241Y20346769D01*
X-6167460Y20375268D01*
X-6166751Y20406379D01*
X-6159412Y20427949D01*
X-6027381Y20427949D01*
X-6026202Y20424205D01*
X-6017482Y20422551D01*
X-6006856Y20435364D01*
X-5997367Y20456531D01*
X-5992059Y20479941D01*
X-5992156Y20492587D01*
X-5995429Y20504497D01*
X-6001482Y20500768D01*
X-6012820Y20479541D01*
X-6014531Y20475987D01*
X-6024823Y20448445D01*
X-6027381Y20427949D01*
X-6159412Y20427949D01*
X-6154023Y20443784D01*
X-6118286Y20508917D01*
X-6071309Y20563885D01*
X-6016872Y20605241D01*
X-5958755Y20629535D01*
X-5947833Y20631896D01*
X-5910572Y20633224D01*
X-5885626Y20620683D01*
X-5872753Y20593391D01*
X-5871706Y20550467D01*
X-5882241Y20491027D01*
X-5895321Y20442657D01*
X-5907714Y20396841D01*
X-5911379Y20367300D01*
X-5905135Y20350533D01*
X-5887801Y20343040D01*
X-5861145Y20341329D01*
X-5845087Y20342165D01*
X-5833251Y20347196D01*
X-5823683Y20359879D01*
X-5814432Y20383676D01*
X-5803545Y20422045D01*
X-5793417Y20461349D01*
X-5778024Y20515680D01*
X-5762998Y20551864D01*
X-5745949Y20572738D01*
X-5724483Y20581140D01*
X-5696210Y20579908D01*
X-5693833Y20579520D01*
X-5648600Y20571584D01*
X-5620614Y20565385D01*
X-5606199Y20559483D01*
X-5601674Y20552438D01*
X-5603008Y20543963D01*
X-5612632Y20509563D01*
X-5624943Y20462270D01*
X-5639065Y20405811D01*
X-5654121Y20343917D01*
X-5669236Y20280318D01*
X-5683532Y20218741D01*
X-5696132Y20162918D01*
X-5706161Y20116576D01*
X-5712741Y20083445D01*
X-5715000Y20067519D01*
X-5709332Y20041371D01*
X-5690199Y20027550D01*
X-5656170Y20023667D01*
X-5642580Y20025434D01*
X-5630326Y20032298D01*
X-5618215Y20046599D01*
X-5605052Y20070679D01*
X-5589641Y20106879D01*
X-5570788Y20157542D01*
X-5547297Y20225008D01*
X-5535037Y20261057D01*
X-5513731Y20322786D01*
X-5493431Y20379435D01*
X-5475562Y20427193D01*
X-5461545Y20462252D01*
X-5453131Y20480264D01*
X-5436260Y20502967D01*
X-5424207Y20507193D01*
X-5416949Y20495070D01*
X-5414465Y20468728D01*
X-5416732Y20430294D01*
X-5423728Y20381898D01*
X-5435429Y20325668D01*
X-5451814Y20263732D01*
X-5455542Y20251208D01*
X-5484810Y20160030D01*
X-5512106Y20087454D01*
X-5538749Y20031172D01*
X-5566059Y19988876D01*
X-5595357Y19958261D01*
X-5627962Y19937017D01*
X-5637931Y19932405D01*
X-5683869Y19920819D01*
X-5736974Y19919226D01*
X-5786881Y19927440D01*
X-5807941Y19935434D01*
X-5849775Y19964389D01*
X-5876026Y20003764D01*
X-5888266Y20056475D01*
X-5889625Y20087167D01*
X-5888181Y20132006D01*
X-5884451Y20175907D01*
X-5880757Y20200938D01*
X-5876194Y20229005D01*
X-5878281Y20242103D01*
X-5888555Y20245805D01*
X-5893174Y20245917D01*
X-5920321Y20237118D01*
X-5951342Y20213830D01*
X-5981104Y20180717D01*
X-6002408Y20146690D01*
X-6042956Y20084799D01*
X-6091961Y20041817D01*
X-6147657Y20018122D01*
X-6208278Y20014088D01*
X-6272055Y20030093D01*
X-6337222Y20066512D01*
X-6346532Y20073396D01*
X-6366088Y20087193D01*
X-6384582Y20095888D01*
X-6407601Y20100648D01*
X-6440734Y20102643D01*
X-6488246Y20103042D01*
X-6537853Y20103645D01*
X-6571200Y20106000D01*
X-6593172Y20110925D01*
X-6608654Y20119237D01*
X-6614703Y20124208D01*
X-6626717Y20136896D01*
X-6633129Y20151644D01*
X-6634928Y20174201D01*
X-6633101Y20210312D01*
X-6631986Y20224750D01*
X-6625514Y20276663D01*
X-6614161Y20337753D01*
X-6598963Y20404593D01*
X-6580954Y20473751D01*
X-6561171Y20541800D01*
X-6540649Y20605310D01*
X-6520424Y20660852D01*
X-6501532Y20704997D01*
X-6485008Y20734315D01*
X-6475053Y20744376D01*
X-6455523Y20748621D01*
X-6424757Y20749451D01*
X-6390094Y20747410D01*
G37*
X-6390094Y20747410D02*
X-6358875Y20743042D01*
X-6338442Y20736892D01*
X-6334881Y20733974D01*
X-6336376Y20722146D01*
X-6343045Y20693227D01*
X-6354057Y20650424D01*
X-6368586Y20596943D01*
X-6385802Y20535992D01*
X-6388236Y20527542D01*
X-6406831Y20461046D01*
X-6423653Y20396983D01*
X-6437603Y20339841D01*
X-6447586Y20294107D01*
X-6452446Y20264843D01*
X-6455695Y20229958D01*
X-6455130Y20211444D01*
X-6449277Y20204635D01*
X-6436661Y20204864D01*
X-6433627Y20205283D01*
X-6413206Y20216520D01*
X-6391814Y20245138D01*
X-6369042Y20292001D01*
X-6344480Y20357975D01*
X-6317720Y20443928D01*
X-6312757Y20461170D01*
X-6296968Y20515324D01*
X-6281749Y20565273D01*
X-6268729Y20605813D01*
X-6259537Y20631741D01*
X-6258816Y20633510D01*
X-6236080Y20668313D01*
X-6205974Y20685943D01*
X-6172020Y20684595D01*
X-6164791Y20681759D01*
X-6150993Y20672894D01*
X-6142532Y20659435D01*
X-6139591Y20638657D01*
X-6142352Y20607837D01*
X-6150999Y20564253D01*
X-6165713Y20505179D01*
X-6180235Y20451277D01*
X-6203670Y20364520D01*
X-6221068Y20295807D01*
X-6232471Y20242906D01*
X-6237916Y20203584D01*
X-6237443Y20175609D01*
X-6231091Y20156750D01*
X-6218900Y20144774D01*
X-6200908Y20137449D01*
X-6185815Y20134067D01*
X-6144736Y20131634D01*
X-6116131Y20144205D01*
X-6095518Y20174109D01*
X-6091698Y20183030D01*
X-6078335Y20223729D01*
X-6077848Y20254370D01*
X-6091903Y20282058D01*
X-6122168Y20313900D01*
X-6122458Y20314171D01*
X-6153241Y20346769D01*
X-6167460Y20375268D01*
X-6166751Y20406379D01*
X-6159412Y20427949D01*
X-6027381Y20427949D01*
X-6026202Y20424205D01*
X-6017482Y20422551D01*
X-6006856Y20435364D01*
X-5997367Y20456531D01*
X-5992059Y20479941D01*
X-5992156Y20492587D01*
X-5995429Y20504497D01*
X-6001482Y20500768D01*
X-6012820Y20479541D01*
X-6014531Y20475987D01*
X-6024823Y20448445D01*
X-6027381Y20427949D01*
X-6159412Y20427949D01*
X-6154023Y20443784D01*
X-6118286Y20508917D01*
X-6071309Y20563885D01*
X-6016872Y20605241D01*
X-5958755Y20629535D01*
X-5947833Y20631896D01*
X-5910572Y20633224D01*
X-5885626Y20620683D01*
X-5872753Y20593391D01*
X-5871706Y20550467D01*
X-5882241Y20491027D01*
X-5895321Y20442657D01*
X-5907714Y20396841D01*
X-5911379Y20367300D01*
X-5905135Y20350533D01*
X-5887801Y20343040D01*
X-5861145Y20341329D01*
X-5845087Y20342165D01*
X-5833251Y20347196D01*
X-5823683Y20359879D01*
X-5814432Y20383676D01*
X-5803545Y20422045D01*
X-5793417Y20461349D01*
X-5778024Y20515680D01*
X-5762998Y20551864D01*
X-5745949Y20572738D01*
X-5724483Y20581140D01*
X-5696210Y20579908D01*
X-5693833Y20579520D01*
X-5648600Y20571584D01*
X-5620614Y20565385D01*
X-5606199Y20559483D01*
X-5601674Y20552438D01*
X-5603008Y20543963D01*
X-5612632Y20509563D01*
X-5624943Y20462270D01*
X-5639065Y20405811D01*
X-5654121Y20343917D01*
X-5669236Y20280318D01*
X-5683532Y20218741D01*
X-5696132Y20162918D01*
X-5706161Y20116576D01*
X-5712741Y20083445D01*
X-5715000Y20067519D01*
X-5709332Y20041371D01*
X-5690199Y20027550D01*
X-5656170Y20023667D01*
X-5642580Y20025434D01*
X-5630326Y20032298D01*
X-5618215Y20046599D01*
X-5605052Y20070679D01*
X-5589641Y20106879D01*
X-5570788Y20157542D01*
X-5547297Y20225008D01*
X-5535037Y20261057D01*
X-5513731Y20322786D01*
X-5493431Y20379435D01*
X-5475562Y20427193D01*
X-5461545Y20462252D01*
X-5453131Y20480264D01*
X-5436260Y20502967D01*
X-5424207Y20507193D01*
X-5416949Y20495070D01*
X-5414465Y20468728D01*
X-5416732Y20430294D01*
X-5423728Y20381898D01*
X-5435429Y20325668D01*
X-5451814Y20263732D01*
X-5455542Y20251208D01*
X-5484810Y20160030D01*
X-5512106Y20087454D01*
X-5538749Y20031172D01*
X-5566059Y19988876D01*
X-5595357Y19958261D01*
X-5627962Y19937017D01*
X-5637931Y19932405D01*
X-5683869Y19920819D01*
X-5736974Y19919226D01*
X-5786881Y19927440D01*
X-5807941Y19935434D01*
X-5849775Y19964389D01*
X-5876026Y20003764D01*
X-5888266Y20056475D01*
X-5889625Y20087167D01*
X-5888181Y20132006D01*
X-5884451Y20175907D01*
X-5880757Y20200938D01*
X-5876194Y20229005D01*
X-5878281Y20242103D01*
X-5888555Y20245805D01*
X-5893174Y20245917D01*
X-5920321Y20237118D01*
X-5951342Y20213830D01*
X-5981104Y20180717D01*
X-6002408Y20146690D01*
X-6042956Y20084799D01*
X-6091961Y20041817D01*
X-6147657Y20018122D01*
X-6208278Y20014088D01*
X-6272055Y20030093D01*
X-6337222Y20066512D01*
X-6346532Y20073396D01*
X-6366088Y20087193D01*
X-6384582Y20095888D01*
X-6407601Y20100648D01*
X-6440734Y20102643D01*
X-6488246Y20103042D01*
X-6537853Y20103645D01*
X-6571200Y20106000D01*
X-6593172Y20110925D01*
X-6608654Y20119237D01*
X-6614703Y20124208D01*
X-6626717Y20136896D01*
X-6633129Y20151644D01*
X-6634928Y20174201D01*
X-6633101Y20210312D01*
X-6631986Y20224750D01*
X-6625514Y20276663D01*
X-6614161Y20337753D01*
X-6598963Y20404593D01*
X-6580954Y20473751D01*
X-6561171Y20541800D01*
X-6540649Y20605310D01*
X-6520424Y20660852D01*
X-6501532Y20704997D01*
X-6485008Y20734315D01*
X-6475053Y20744376D01*
X-6455523Y20748621D01*
X-6424757Y20749451D01*
X-6390094Y20747410D01*
G36*
X-5167359Y20461078D02*
G01*
X-5149547Y20451536D01*
X-5139646Y20438840D01*
X-5133864Y20422855D01*
X-5132669Y20401320D01*
X-5136531Y20371977D01*
X-5145919Y20332566D01*
X-5161301Y20280827D01*
X-5183147Y20214500D01*
X-5211926Y20131326D01*
X-5221879Y20103042D01*
X-5245382Y20033782D01*
X-5260712Y19981136D01*
X-5268185Y19942325D01*
X-5268114Y19914572D01*
X-5260815Y19895100D01*
X-5246978Y19881392D01*
X-5212355Y19867947D01*
X-5170844Y19866297D01*
X-5133130Y19876432D01*
X-5124546Y19881491D01*
X-5105246Y19901305D01*
X-5084754Y19931355D01*
X-5067811Y19963538D01*
X-5059155Y19989750D01*
X-5058833Y19993852D01*
X-5066299Y20007814D01*
X-5085460Y20029260D01*
X-5101927Y20044545D01*
X-5137184Y20085984D01*
X-5152694Y20132954D01*
X-5150719Y20160196D01*
X-5005041Y20160196D01*
X-4998425Y20150926D01*
X-4995743Y20150667D01*
X-4987346Y20159930D01*
X-4976576Y20183758D01*
X-4969321Y20205383D01*
X-4959807Y20242297D01*
X-4957987Y20261300D01*
X-4963288Y20261693D01*
X-4975136Y20242776D01*
X-4984329Y20223680D01*
X-5000425Y20183919D01*
X-5005041Y20160196D01*
X-5150719Y20160196D01*
X-5148776Y20186994D01*
X-5138313Y20220657D01*
X-5104508Y20285347D01*
X-5059570Y20332792D01*
X-5004511Y20362228D01*
X-4940345Y20372890D01*
X-4936769Y20372917D01*
X-4896574Y20370871D01*
X-4869211Y20363028D01*
X-4853828Y20346832D01*
X-4849572Y20319724D01*
X-4855590Y20279147D01*
X-4871030Y20222545D01*
X-4878560Y20198292D01*
X-4893289Y20148929D01*
X-4899842Y20115635D01*
X-4897439Y20094649D01*
X-4885300Y20082207D01*
X-4862646Y20074548D01*
X-4852458Y20072374D01*
X-4826235Y20069969D01*
X-4807482Y20077281D01*
X-4793186Y20097563D01*
X-4780335Y20134070D01*
X-4774139Y20156977D01*
X-4752188Y20228657D01*
X-4728577Y20279644D01*
X-4704623Y20309142D01*
X-4677274Y20320256D01*
X-4641213Y20320737D01*
X-4606031Y20310578D01*
X-4603388Y20309223D01*
X-4592854Y20301269D01*
X-4586597Y20289185D01*
X-4584995Y20270494D01*
X-4588425Y20242721D01*
X-4597263Y20203388D01*
X-4611888Y20150019D01*
X-4632675Y20080139D01*
X-4643849Y20043597D01*
X-4669821Y19956865D01*
X-4688715Y19888205D01*
X-4700842Y19835851D01*
X-4706510Y19798039D01*
X-4706028Y19773002D01*
X-4699704Y19758977D01*
X-4694275Y19755474D01*
X-4672717Y19757080D01*
X-4649474Y19778183D01*
X-4624217Y19819235D01*
X-4596620Y19880688D01*
X-4588099Y19902478D01*
X-4551220Y19999024D01*
X-4520895Y20077473D01*
X-4496281Y20139559D01*
X-4476536Y20187017D01*
X-4460819Y20221583D01*
X-4448288Y20244991D01*
X-4438101Y20258976D01*
X-4429415Y20265274D01*
X-4421390Y20265620D01*
X-4413633Y20262028D01*
X-4404515Y20244196D01*
X-4404918Y20208683D01*
X-4414634Y20156609D01*
X-4433454Y20089091D01*
X-4460973Y20007792D01*
X-4495061Y19916706D01*
X-4525137Y19843829D01*
X-4552498Y19786881D01*
X-4578440Y19743582D01*
X-4604263Y19711651D01*
X-4631262Y19688807D01*
X-4648203Y19678703D01*
X-4684020Y19666268D01*
X-4722790Y19666774D01*
X-4769523Y19680727D01*
X-4799761Y19693995D01*
X-4845007Y19719692D01*
X-4872713Y19747945D01*
X-4886358Y19783806D01*
X-4889500Y19824307D01*
X-4885719Y19861167D01*
X-4876204Y19903219D01*
X-4871329Y19918527D01*
X-4861901Y19948395D01*
X-4857563Y19969107D01*
X-4858100Y19974464D01*
X-4870846Y19978326D01*
X-4896511Y19982066D01*
X-4905375Y19982933D01*
X-4933883Y19983523D01*
X-4950217Y19975993D01*
X-4962989Y19956196D01*
X-4963656Y19954875D01*
X-4999416Y19891490D01*
X-5034773Y19845697D01*
X-5070741Y19815159D01*
X-5095095Y19800682D01*
X-5117496Y19793207D01*
X-5145667Y19791267D01*
X-5185949Y19793298D01*
X-5243266Y19802457D01*
X-5300921Y19820347D01*
X-5353189Y19844445D01*
X-5394350Y19872227D01*
X-5414590Y19894115D01*
X-5425676Y19915353D01*
X-5431300Y19939990D01*
X-5431010Y19970718D01*
X-5424353Y20010225D01*
X-5410878Y20061202D01*
X-5390132Y20126339D01*
X-5361832Y20207848D01*
X-5334647Y20283905D01*
X-5313325Y20342419D01*
X-5296830Y20385853D01*
X-5284124Y20416676D01*
X-5274168Y20437351D01*
X-5265926Y20450346D01*
X-5258359Y20458125D01*
X-5255686Y20460067D01*
X-5231579Y20467155D01*
X-5198702Y20467216D01*
X-5167359Y20461078D01*
G37*
X-5167359Y20461078D02*
X-5149547Y20451536D01*
X-5139646Y20438840D01*
X-5133864Y20422855D01*
X-5132669Y20401320D01*
X-5136531Y20371977D01*
X-5145919Y20332566D01*
X-5161301Y20280827D01*
X-5183147Y20214500D01*
X-5211926Y20131326D01*
X-5221879Y20103042D01*
X-5245382Y20033782D01*
X-5260712Y19981136D01*
X-5268185Y19942325D01*
X-5268114Y19914572D01*
X-5260815Y19895100D01*
X-5246978Y19881392D01*
X-5212355Y19867947D01*
X-5170844Y19866297D01*
X-5133130Y19876432D01*
X-5124546Y19881491D01*
X-5105246Y19901305D01*
X-5084754Y19931355D01*
X-5067811Y19963538D01*
X-5059155Y19989750D01*
X-5058833Y19993852D01*
X-5066299Y20007814D01*
X-5085460Y20029260D01*
X-5101927Y20044545D01*
X-5137184Y20085984D01*
X-5152694Y20132954D01*
X-5150719Y20160196D01*
X-5005041Y20160196D01*
X-4998425Y20150926D01*
X-4995743Y20150667D01*
X-4987346Y20159930D01*
X-4976576Y20183758D01*
X-4969321Y20205383D01*
X-4959807Y20242297D01*
X-4957987Y20261300D01*
X-4963288Y20261693D01*
X-4975136Y20242776D01*
X-4984329Y20223680D01*
X-5000425Y20183919D01*
X-5005041Y20160196D01*
X-5150719Y20160196D01*
X-5148776Y20186994D01*
X-5138313Y20220657D01*
X-5104508Y20285347D01*
X-5059570Y20332792D01*
X-5004511Y20362228D01*
X-4940345Y20372890D01*
X-4936769Y20372917D01*
X-4896574Y20370871D01*
X-4869211Y20363028D01*
X-4853828Y20346832D01*
X-4849572Y20319724D01*
X-4855590Y20279147D01*
X-4871030Y20222545D01*
X-4878560Y20198292D01*
X-4893289Y20148929D01*
X-4899842Y20115635D01*
X-4897439Y20094649D01*
X-4885300Y20082207D01*
X-4862646Y20074548D01*
X-4852458Y20072374D01*
X-4826235Y20069969D01*
X-4807482Y20077281D01*
X-4793186Y20097563D01*
X-4780335Y20134070D01*
X-4774139Y20156977D01*
X-4752188Y20228657D01*
X-4728577Y20279644D01*
X-4704623Y20309142D01*
X-4677274Y20320256D01*
X-4641213Y20320737D01*
X-4606031Y20310578D01*
X-4603388Y20309223D01*
X-4592854Y20301269D01*
X-4586597Y20289185D01*
X-4584995Y20270494D01*
X-4588425Y20242721D01*
X-4597263Y20203388D01*
X-4611888Y20150019D01*
X-4632675Y20080139D01*
X-4643849Y20043597D01*
X-4669821Y19956865D01*
X-4688715Y19888205D01*
X-4700842Y19835851D01*
X-4706510Y19798039D01*
X-4706028Y19773002D01*
X-4699704Y19758977D01*
X-4694275Y19755474D01*
X-4672717Y19757080D01*
X-4649474Y19778183D01*
X-4624217Y19819235D01*
X-4596620Y19880688D01*
X-4588099Y19902478D01*
X-4551220Y19999024D01*
X-4520895Y20077473D01*
X-4496281Y20139559D01*
X-4476536Y20187017D01*
X-4460819Y20221583D01*
X-4448288Y20244991D01*
X-4438101Y20258976D01*
X-4429415Y20265274D01*
X-4421390Y20265620D01*
X-4413633Y20262028D01*
X-4404515Y20244196D01*
X-4404918Y20208683D01*
X-4414634Y20156609D01*
X-4433454Y20089091D01*
X-4460973Y20007792D01*
X-4495061Y19916706D01*
X-4525137Y19843829D01*
X-4552498Y19786881D01*
X-4578440Y19743582D01*
X-4604263Y19711651D01*
X-4631262Y19688807D01*
X-4648203Y19678703D01*
X-4684020Y19666268D01*
X-4722790Y19666774D01*
X-4769523Y19680727D01*
X-4799761Y19693995D01*
X-4845007Y19719692D01*
X-4872713Y19747945D01*
X-4886358Y19783806D01*
X-4889500Y19824307D01*
X-4885719Y19861167D01*
X-4876204Y19903219D01*
X-4871329Y19918527D01*
X-4861901Y19948395D01*
X-4857563Y19969107D01*
X-4858100Y19974464D01*
X-4870846Y19978326D01*
X-4896511Y19982066D01*
X-4905375Y19982933D01*
X-4933883Y19983523D01*
X-4950217Y19975993D01*
X-4962989Y19956196D01*
X-4963656Y19954875D01*
X-4999416Y19891490D01*
X-5034773Y19845697D01*
X-5070741Y19815159D01*
X-5095095Y19800682D01*
X-5117496Y19793207D01*
X-5145667Y19791267D01*
X-5185949Y19793298D01*
X-5243266Y19802457D01*
X-5300921Y19820347D01*
X-5353189Y19844445D01*
X-5394350Y19872227D01*
X-5414590Y19894115D01*
X-5425676Y19915353D01*
X-5431300Y19939990D01*
X-5431010Y19970718D01*
X-5424353Y20010225D01*
X-5410878Y20061202D01*
X-5390132Y20126339D01*
X-5361832Y20207848D01*
X-5334647Y20283905D01*
X-5313325Y20342419D01*
X-5296830Y20385853D01*
X-5284124Y20416676D01*
X-5274168Y20437351D01*
X-5265926Y20450346D01*
X-5258359Y20458125D01*
X-5255686Y20460067D01*
X-5231579Y20467155D01*
X-5198702Y20467216D01*
X-5167359Y20461078D01*
G36*
X-10671476Y20058139D02*
G01*
X-10643207Y20044243D01*
X-10602417Y20021648D01*
X-10551697Y19991809D01*
X-10493635Y19956180D01*
X-10470322Y19941512D01*
X-10370215Y19878645D01*
X-10287226Y19827721D01*
X-10221089Y19788604D01*
X-10171541Y19761162D01*
X-10138316Y19745258D01*
X-10121149Y19740757D01*
X-10119776Y19747526D01*
X-10133932Y19765429D01*
X-10143209Y19775005D01*
X-10178769Y19816078D01*
X-10196493Y19848972D01*
X-10197019Y19872268D01*
X-10180987Y19884550D01*
X-10149035Y19884401D01*
X-10101803Y19870404D01*
X-10100438Y19869867D01*
X-10075329Y19860226D01*
X-10067377Y19858893D01*
X-10074102Y19866275D01*
X-10081717Y19872951D01*
X-10111558Y19906539D01*
X-10122575Y19938302D01*
X-10117666Y19960167D01*
X-10105583Y19976865D01*
X-10098212Y19981333D01*
X-10080097Y19973992D01*
X-10054065Y19955241D01*
X-10025674Y19929997D01*
X-10000485Y19903171D01*
X-9984800Y19881098D01*
X-9964464Y19843337D01*
X-9989193Y19796722D01*
X-10013383Y19758753D01*
X-10045183Y19719039D01*
X-10079724Y19682774D01*
X-10112133Y19655156D01*
X-10133656Y19642623D01*
X-10153361Y19628797D01*
X-10160039Y19613825D01*
X-10168134Y19584112D01*
X-10188583Y19551063D01*
X-10215790Y19522559D01*
X-10233090Y19510889D01*
X-10260835Y19499212D01*
X-10287233Y19496244D01*
X-10320131Y19501926D01*
X-10348154Y19510055D01*
X-10379367Y19522426D01*
X-10420409Y19542177D01*
X-10463214Y19565385D01*
X-10469862Y19569260D01*
X-10508406Y19592837D01*
X-10557276Y19623989D01*
X-10612571Y19660098D01*
X-10670391Y19698541D01*
X-10726833Y19736700D01*
X-10777998Y19771954D01*
X-10819984Y19801682D01*
X-10848890Y19823265D01*
X-10853208Y19826744D01*
X-10873202Y19844807D01*
X-10878790Y19858333D01*
X-10872376Y19875647D01*
X-10869083Y19881716D01*
X-10848297Y19909717D01*
X-10825757Y19930867D01*
X-10806271Y19943334D01*
X-10789429Y19945332D01*
X-10765335Y19937444D01*
X-10758977Y19934816D01*
X-10736200Y19922937D01*
X-10700439Y19901506D01*
X-10655982Y19873207D01*
X-10607114Y19840726D01*
X-10588882Y19828260D01*
X-10493402Y19763494D01*
X-10413970Y19711899D01*
X-10350226Y19673279D01*
X-10301806Y19647439D01*
X-10268348Y19634183D01*
X-10249490Y19633313D01*
X-10244666Y19641842D01*
X-10253638Y19656438D01*
X-10280169Y19681486D01*
X-10323683Y19716521D01*
X-10383603Y19761080D01*
X-10459354Y19814698D01*
X-10459957Y19815117D01*
X-10541857Y19873501D01*
X-10605858Y19922548D01*
X-10652711Y19962933D01*
X-10683167Y19995329D01*
X-10697977Y20020411D01*
X-10699750Y20030271D01*
X-10694230Y20052294D01*
X-10684635Y20061881D01*
X-10671476Y20058139D01*
G37*
X-10671476Y20058139D02*
X-10643207Y20044243D01*
X-10602417Y20021648D01*
X-10551697Y19991809D01*
X-10493635Y19956180D01*
X-10470322Y19941512D01*
X-10370215Y19878645D01*
X-10287226Y19827721D01*
X-10221089Y19788604D01*
X-10171541Y19761162D01*
X-10138316Y19745258D01*
X-10121149Y19740757D01*
X-10119776Y19747526D01*
X-10133932Y19765429D01*
X-10143209Y19775005D01*
X-10178769Y19816078D01*
X-10196493Y19848972D01*
X-10197019Y19872268D01*
X-10180987Y19884550D01*
X-10149035Y19884401D01*
X-10101803Y19870404D01*
X-10100438Y19869867D01*
X-10075329Y19860226D01*
X-10067377Y19858893D01*
X-10074102Y19866275D01*
X-10081717Y19872951D01*
X-10111558Y19906539D01*
X-10122575Y19938302D01*
X-10117666Y19960167D01*
X-10105583Y19976865D01*
X-10098212Y19981333D01*
X-10080097Y19973992D01*
X-10054065Y19955241D01*
X-10025674Y19929997D01*
X-10000485Y19903171D01*
X-9984800Y19881098D01*
X-9964464Y19843337D01*
X-9989193Y19796722D01*
X-10013383Y19758753D01*
X-10045183Y19719039D01*
X-10079724Y19682774D01*
X-10112133Y19655156D01*
X-10133656Y19642623D01*
X-10153361Y19628797D01*
X-10160039Y19613825D01*
X-10168134Y19584112D01*
X-10188583Y19551063D01*
X-10215790Y19522559D01*
X-10233090Y19510889D01*
X-10260835Y19499212D01*
X-10287233Y19496244D01*
X-10320131Y19501926D01*
X-10348154Y19510055D01*
X-10379367Y19522426D01*
X-10420409Y19542177D01*
X-10463214Y19565385D01*
X-10469862Y19569260D01*
X-10508406Y19592837D01*
X-10557276Y19623989D01*
X-10612571Y19660098D01*
X-10670391Y19698541D01*
X-10726833Y19736700D01*
X-10777998Y19771954D01*
X-10819984Y19801682D01*
X-10848890Y19823265D01*
X-10853208Y19826744D01*
X-10873202Y19844807D01*
X-10878790Y19858333D01*
X-10872376Y19875647D01*
X-10869083Y19881716D01*
X-10848297Y19909717D01*
X-10825757Y19930867D01*
X-10806271Y19943334D01*
X-10789429Y19945332D01*
X-10765335Y19937444D01*
X-10758977Y19934816D01*
X-10736200Y19922937D01*
X-10700439Y19901506D01*
X-10655982Y19873207D01*
X-10607114Y19840726D01*
X-10588882Y19828260D01*
X-10493402Y19763494D01*
X-10413970Y19711899D01*
X-10350226Y19673279D01*
X-10301806Y19647439D01*
X-10268348Y19634183D01*
X-10249490Y19633313D01*
X-10244666Y19641842D01*
X-10253638Y19656438D01*
X-10280169Y19681486D01*
X-10323683Y19716521D01*
X-10383603Y19761080D01*
X-10459354Y19814698D01*
X-10459957Y19815117D01*
X-10541857Y19873501D01*
X-10605858Y19922548D01*
X-10652711Y19962933D01*
X-10683167Y19995329D01*
X-10697977Y20020411D01*
X-10699750Y20030271D01*
X-10694230Y20052294D01*
X-10684635Y20061881D01*
X-10671476Y20058139D01*
G36*
X-9732774Y19825336D02*
G01*
X-9691425Y19800016D01*
X-9676579Y19787200D01*
X-9645010Y19745289D01*
X-9631577Y19696478D01*
X-9635851Y19644032D01*
X-9657402Y19591217D01*
X-9695800Y19541300D01*
X-9710760Y19527185D01*
X-9752722Y19495518D01*
X-9792602Y19478727D01*
X-9838927Y19473372D01*
X-9844247Y19473333D01*
X-9876109Y19476911D01*
X-9902220Y19490659D01*
X-9922933Y19509317D01*
X-9944421Y19533354D01*
X-9955131Y19555576D01*
X-9958686Y19585404D01*
X-9958916Y19602902D01*
X-9948807Y19670743D01*
X-9947544Y19673336D01*
X-9895416Y19673336D01*
X-9887124Y19655768D01*
X-9867201Y19635307D01*
X-9843083Y19618256D01*
X-9822203Y19610921D01*
X-9821814Y19610917D01*
X-9798384Y19618116D01*
X-9779000Y19632083D01*
X-9759999Y19661423D01*
X-9760263Y19688123D01*
X-9777948Y19707946D01*
X-9811213Y19716653D01*
X-9815803Y19716750D01*
X-9845234Y19711704D01*
X-9872937Y19699224D01*
X-9891597Y19683300D01*
X-9895416Y19673336D01*
X-9947544Y19673336D01*
X-9919200Y19731508D01*
X-9871181Y19783065D01*
X-9864674Y19788195D01*
X-9815796Y19819406D01*
X-9773030Y19831793D01*
X-9732774Y19825336D01*
G37*
X-9732774Y19825336D02*
X-9691425Y19800016D01*
X-9676579Y19787200D01*
X-9645010Y19745289D01*
X-9631577Y19696478D01*
X-9635851Y19644032D01*
X-9657402Y19591217D01*
X-9695800Y19541300D01*
X-9710760Y19527185D01*
X-9752722Y19495518D01*
X-9792602Y19478727D01*
X-9838927Y19473372D01*
X-9844247Y19473333D01*
X-9876109Y19476911D01*
X-9902220Y19490659D01*
X-9922933Y19509317D01*
X-9944421Y19533354D01*
X-9955131Y19555576D01*
X-9958686Y19585404D01*
X-9958916Y19602902D01*
X-9948807Y19670743D01*
X-9947544Y19673336D01*
X-9895416Y19673336D01*
X-9887124Y19655768D01*
X-9867201Y19635307D01*
X-9843083Y19618256D01*
X-9822203Y19610921D01*
X-9821814Y19610917D01*
X-9798384Y19618116D01*
X-9779000Y19632083D01*
X-9759999Y19661423D01*
X-9760263Y19688123D01*
X-9777948Y19707946D01*
X-9811213Y19716653D01*
X-9815803Y19716750D01*
X-9845234Y19711704D01*
X-9872937Y19699224D01*
X-9891597Y19683300D01*
X-9895416Y19673336D01*
X-9947544Y19673336D01*
X-9919200Y19731508D01*
X-9871181Y19783065D01*
X-9864674Y19788195D01*
X-9815796Y19819406D01*
X-9773030Y19831793D01*
X-9732774Y19825336D01*
G36*
X-4230468Y20225664D02*
G01*
X-4205363Y20216589D01*
X-4163857Y20197063D01*
X-4141542Y20174949D01*
X-4136455Y20146898D01*
X-4145055Y20113625D01*
X-4159401Y20074084D01*
X-4176962Y20023113D01*
X-4196462Y19964713D01*
X-4216621Y19902886D01*
X-4236162Y19841631D01*
X-4253806Y19784949D01*
X-4268275Y19736842D01*
X-4278291Y19701310D01*
X-4282376Y19683811D01*
X-4283027Y19651402D01*
X-4271074Y19635515D01*
X-4245376Y19634878D01*
X-4239601Y19636184D01*
X-4218623Y19651053D01*
X-4193421Y19685703D01*
X-4164491Y19739279D01*
X-4132326Y19810927D01*
X-4117807Y19846618D01*
X-4089380Y19914588D01*
X-4060608Y19976653D01*
X-4033330Y20029258D01*
X-4009386Y20068848D01*
X-3991194Y20091353D01*
X-3975152Y20102447D01*
X-3954882Y20107245D01*
X-3923697Y20106778D01*
X-3902714Y20104968D01*
X-3845045Y20096835D01*
X-3784563Y20084023D01*
X-3725441Y20067896D01*
X-3671850Y20049816D01*
X-3627962Y20031145D01*
X-3597951Y20013246D01*
X-3587484Y20002003D01*
X-3583003Y19987249D01*
X-3583173Y19966110D01*
X-3588609Y19936263D01*
X-3599926Y19895386D01*
X-3617739Y19841155D01*
X-3642662Y19771249D01*
X-3663461Y19714977D01*
X-3692260Y19634387D01*
X-3711813Y19571276D01*
X-3722384Y19524212D01*
X-3724237Y19491766D01*
X-3717636Y19472507D01*
X-3709323Y19466526D01*
X-3692732Y19465733D01*
X-3675160Y19476923D01*
X-3655733Y19501580D01*
X-3633581Y19541187D01*
X-3607830Y19597228D01*
X-3577609Y19671186D01*
X-3556000Y19727334D01*
X-3526415Y19803076D01*
X-3499263Y19867801D01*
X-3475558Y19919325D01*
X-3456316Y19955460D01*
X-3442549Y19974021D01*
X-3440984Y19975176D01*
X-3427354Y19973160D01*
X-3418258Y19965268D01*
X-3413548Y19945428D01*
X-3416581Y19909653D01*
X-3426289Y19861256D01*
X-3441604Y19803547D01*
X-3461457Y19739837D01*
X-3484782Y19673439D01*
X-3510510Y19607664D01*
X-3537573Y19545821D01*
X-3564903Y19491225D01*
X-3579214Y19466222D01*
X-3619173Y19416805D01*
X-3666533Y19387051D01*
X-3720012Y19377334D01*
X-3778329Y19388029D01*
X-3806330Y19399858D01*
X-3846459Y19427579D01*
X-3879245Y19464774D01*
X-3900132Y19505277D01*
X-3905250Y19533748D01*
X-3901693Y19553507D01*
X-3891771Y19589484D01*
X-3876610Y19638097D01*
X-3857335Y19695768D01*
X-3835069Y19758915D01*
X-3830870Y19770479D01*
X-3808864Y19832235D01*
X-3790244Y19887260D01*
X-3775972Y19932478D01*
X-3767006Y19964812D01*
X-3764309Y19981184D01*
X-3764725Y19982421D01*
X-3780694Y19990796D01*
X-3810630Y20001360D01*
X-3848272Y20012448D01*
X-3887359Y20022397D01*
X-3921629Y20029544D01*
X-3944821Y20032226D01*
X-3949826Y20031593D01*
X-3957752Y20025412D01*
X-3967525Y20011090D01*
X-3980089Y19986534D01*
X-3996388Y19949651D01*
X-4017367Y19898347D01*
X-4043970Y19830530D01*
X-4063942Y19778647D01*
X-4098913Y19695616D01*
X-4133115Y19632226D01*
X-4167731Y19587043D01*
X-4203944Y19558631D01*
X-4242938Y19545556D01*
X-4257179Y19544346D01*
X-4303168Y19548389D01*
X-4351996Y19561032D01*
X-4394941Y19579499D01*
X-4418026Y19595491D01*
X-4440909Y19623734D01*
X-4451627Y19657394D01*
X-4450860Y19701029D01*
X-4441232Y19751264D01*
X-4431926Y19784123D01*
X-4416896Y19830457D01*
X-4397609Y19886337D01*
X-4375530Y19947834D01*
X-4352128Y20011019D01*
X-4328868Y20071963D01*
X-4307218Y20126737D01*
X-4288643Y20171412D01*
X-4274612Y20202059D01*
X-4269501Y20211298D01*
X-4259516Y20224974D01*
X-4248759Y20229576D01*
X-4230468Y20225664D01*
G37*
X-4230468Y20225664D02*
X-4205363Y20216589D01*
X-4163857Y20197063D01*
X-4141542Y20174949D01*
X-4136455Y20146898D01*
X-4145055Y20113625D01*
X-4159401Y20074084D01*
X-4176962Y20023113D01*
X-4196462Y19964713D01*
X-4216621Y19902886D01*
X-4236162Y19841631D01*
X-4253806Y19784949D01*
X-4268275Y19736842D01*
X-4278291Y19701310D01*
X-4282376Y19683811D01*
X-4283027Y19651402D01*
X-4271074Y19635515D01*
X-4245376Y19634878D01*
X-4239601Y19636184D01*
X-4218623Y19651053D01*
X-4193421Y19685703D01*
X-4164491Y19739279D01*
X-4132326Y19810927D01*
X-4117807Y19846618D01*
X-4089380Y19914588D01*
X-4060608Y19976653D01*
X-4033330Y20029258D01*
X-4009386Y20068848D01*
X-3991194Y20091353D01*
X-3975152Y20102447D01*
X-3954882Y20107245D01*
X-3923697Y20106778D01*
X-3902714Y20104968D01*
X-3845045Y20096835D01*
X-3784563Y20084023D01*
X-3725441Y20067896D01*
X-3671850Y20049816D01*
X-3627962Y20031145D01*
X-3597951Y20013246D01*
X-3587484Y20002003D01*
X-3583003Y19987249D01*
X-3583173Y19966110D01*
X-3588609Y19936263D01*
X-3599926Y19895386D01*
X-3617739Y19841155D01*
X-3642662Y19771249D01*
X-3663461Y19714977D01*
X-3692260Y19634387D01*
X-3711813Y19571276D01*
X-3722384Y19524212D01*
X-3724237Y19491766D01*
X-3717636Y19472507D01*
X-3709323Y19466526D01*
X-3692732Y19465733D01*
X-3675160Y19476923D01*
X-3655733Y19501580D01*
X-3633581Y19541187D01*
X-3607830Y19597228D01*
X-3577609Y19671186D01*
X-3556000Y19727334D01*
X-3526415Y19803076D01*
X-3499263Y19867801D01*
X-3475558Y19919325D01*
X-3456316Y19955460D01*
X-3442549Y19974021D01*
X-3440984Y19975176D01*
X-3427354Y19973160D01*
X-3418258Y19965268D01*
X-3413548Y19945428D01*
X-3416581Y19909653D01*
X-3426289Y19861256D01*
X-3441604Y19803547D01*
X-3461457Y19739837D01*
X-3484782Y19673439D01*
X-3510510Y19607664D01*
X-3537573Y19545821D01*
X-3564903Y19491225D01*
X-3579214Y19466222D01*
X-3619173Y19416805D01*
X-3666533Y19387051D01*
X-3720012Y19377334D01*
X-3778329Y19388029D01*
X-3806330Y19399858D01*
X-3846459Y19427579D01*
X-3879245Y19464774D01*
X-3900132Y19505277D01*
X-3905250Y19533748D01*
X-3901693Y19553507D01*
X-3891771Y19589484D01*
X-3876610Y19638097D01*
X-3857335Y19695768D01*
X-3835069Y19758915D01*
X-3830870Y19770479D01*
X-3808864Y19832235D01*
X-3790244Y19887260D01*
X-3775972Y19932478D01*
X-3767006Y19964812D01*
X-3764309Y19981184D01*
X-3764725Y19982421D01*
X-3780694Y19990796D01*
X-3810630Y20001360D01*
X-3848272Y20012448D01*
X-3887359Y20022397D01*
X-3921629Y20029544D01*
X-3944821Y20032226D01*
X-3949826Y20031593D01*
X-3957752Y20025412D01*
X-3967525Y20011090D01*
X-3980089Y19986534D01*
X-3996388Y19949651D01*
X-4017367Y19898347D01*
X-4043970Y19830530D01*
X-4063942Y19778647D01*
X-4098913Y19695616D01*
X-4133115Y19632226D01*
X-4167731Y19587043D01*
X-4203944Y19558631D01*
X-4242938Y19545556D01*
X-4257179Y19544346D01*
X-4303168Y19548389D01*
X-4351996Y19561032D01*
X-4394941Y19579499D01*
X-4418026Y19595491D01*
X-4440909Y19623734D01*
X-4451627Y19657394D01*
X-4450860Y19701029D01*
X-4441232Y19751264D01*
X-4431926Y19784123D01*
X-4416896Y19830457D01*
X-4397609Y19886337D01*
X-4375530Y19947834D01*
X-4352128Y20011019D01*
X-4328868Y20071963D01*
X-4307218Y20126737D01*
X-4288643Y20171412D01*
X-4274612Y20202059D01*
X-4269501Y20211298D01*
X-4259516Y20224974D01*
X-4248759Y20229576D01*
X-4230468Y20225664D01*
G36*
X-2918999Y20269002D02*
G01*
X-2869769Y20254267D01*
X-2818134Y20233109D01*
X-2817812Y20232958D01*
X-2787799Y20215681D01*
X-2774496Y20198428D01*
X-2772833Y20187567D01*
X-2777191Y20161292D01*
X-2790085Y20116518D01*
X-2811242Y20053992D01*
X-2840392Y19974464D01*
X-2877263Y19878681D01*
X-2921584Y19767392D01*
X-2955117Y19685000D01*
X-2995818Y19585502D01*
X-3028933Y19503622D01*
X-3055006Y19437437D01*
X-3074585Y19385023D01*
X-3088214Y19344456D01*
X-3096441Y19313812D01*
X-3099809Y19291168D01*
X-3098866Y19274601D01*
X-3094158Y19262186D01*
X-3086229Y19252000D01*
X-3079750Y19245792D01*
X-3060587Y19223091D01*
X-3061213Y19207812D01*
X-3081508Y19200186D01*
X-3103562Y19199395D01*
X-3137253Y19201283D01*
X-3164885Y19204444D01*
X-3169708Y19205365D01*
X-3221921Y19219488D01*
X-3263012Y19235429D01*
X-3289260Y19251544D01*
X-3296644Y19261463D01*
X-3294886Y19278401D01*
X-3285285Y19312741D01*
X-3268571Y19362533D01*
X-3245475Y19425826D01*
X-3216729Y19500672D01*
X-3183062Y19585119D01*
X-3145206Y19677218D01*
X-3106180Y19769667D01*
X-3062437Y19872604D01*
X-3026868Y19957929D01*
X-2998965Y20027331D01*
X-2978218Y20082502D01*
X-2964118Y20125133D01*
X-2956156Y20156914D01*
X-2953824Y20179535D01*
X-2956610Y20194689D01*
X-2964008Y20204065D01*
X-2973928Y20208879D01*
X-2994764Y20222359D01*
X-3009357Y20243214D01*
X-3012521Y20263234D01*
X-3010823Y20267302D01*
X-2993669Y20276257D01*
X-2961680Y20276578D01*
X-2918999Y20269002D01*
G37*
X-2918999Y20269002D02*
X-2869769Y20254267D01*
X-2818134Y20233109D01*
X-2817812Y20232958D01*
X-2787799Y20215681D01*
X-2774496Y20198428D01*
X-2772833Y20187567D01*
X-2777191Y20161292D01*
X-2790085Y20116518D01*
X-2811242Y20053992D01*
X-2840392Y19974464D01*
X-2877263Y19878681D01*
X-2921584Y19767392D01*
X-2955117Y19685000D01*
X-2995818Y19585502D01*
X-3028933Y19503622D01*
X-3055006Y19437437D01*
X-3074585Y19385023D01*
X-3088214Y19344456D01*
X-3096441Y19313812D01*
X-3099809Y19291168D01*
X-3098866Y19274601D01*
X-3094158Y19262186D01*
X-3086229Y19252000D01*
X-3079750Y19245792D01*
X-3060587Y19223091D01*
X-3061213Y19207812D01*
X-3081508Y19200186D01*
X-3103562Y19199395D01*
X-3137253Y19201283D01*
X-3164885Y19204444D01*
X-3169708Y19205365D01*
X-3221921Y19219488D01*
X-3263012Y19235429D01*
X-3289260Y19251544D01*
X-3296644Y19261463D01*
X-3294886Y19278401D01*
X-3285285Y19312741D01*
X-3268571Y19362533D01*
X-3245475Y19425826D01*
X-3216729Y19500672D01*
X-3183062Y19585119D01*
X-3145206Y19677218D01*
X-3106180Y19769667D01*
X-3062437Y19872604D01*
X-3026868Y19957929D01*
X-2998965Y20027331D01*
X-2978218Y20082502D01*
X-2964118Y20125133D01*
X-2956156Y20156914D01*
X-2953824Y20179535D01*
X-2956610Y20194689D01*
X-2964008Y20204065D01*
X-2973928Y20208879D01*
X-2994764Y20222359D01*
X-3009357Y20243214D01*
X-3012521Y20263234D01*
X-3010823Y20267302D01*
X-2993669Y20276257D01*
X-2961680Y20276578D01*
X-2918999Y20269002D01*
G36*
X-2663949Y20178003D02*
G01*
X-2659672Y20177373D01*
X-2615486Y20168827D01*
X-2568760Y20156705D01*
X-2525056Y20142809D01*
X-2489938Y20128943D01*
X-2468966Y20116909D01*
X-2467007Y20114939D01*
X-2463719Y20106394D01*
X-2464097Y20091662D01*
X-2468681Y20069236D01*
X-2478011Y20037607D01*
X-2492628Y19995271D01*
X-2513071Y19940720D01*
X-2539882Y19872448D01*
X-2573601Y19788947D01*
X-2614768Y19688712D01*
X-2652613Y19597421D01*
X-2685721Y19517717D01*
X-2717072Y19442105D01*
X-2745512Y19373380D01*
X-2769888Y19314334D01*
X-2789046Y19267759D01*
X-2801832Y19236450D01*
X-2805634Y19226992D01*
X-2825661Y19176442D01*
X-2801458Y19167240D01*
X-2769011Y19147143D01*
X-2755913Y19119252D01*
X-2757650Y19098637D01*
X-2761985Y19084129D01*
X-2768733Y19075940D01*
X-2781820Y19074017D01*
X-2805176Y19078304D01*
X-2842727Y19088746D01*
X-2870743Y19097061D01*
X-2921368Y19113067D01*
X-2954660Y19127051D01*
X-2973865Y19141948D01*
X-2982228Y19160695D01*
X-2982994Y19186227D01*
X-2982024Y19197756D01*
X-2976791Y19220009D01*
X-2964327Y19259127D01*
X-2945653Y19312484D01*
X-2921791Y19377455D01*
X-2893762Y19451413D01*
X-2862586Y19531732D01*
X-2829286Y19615786D01*
X-2794882Y19700949D01*
X-2760396Y19784595D01*
X-2726848Y19864096D01*
X-2695261Y19936829D01*
X-2690061Y19948552D01*
X-2631636Y20079813D01*
X-2654237Y20096719D01*
X-2681609Y20116869D01*
X-2700218Y20130299D01*
X-2717085Y20149896D01*
X-2716344Y20165878D01*
X-2708607Y20177108D01*
X-2693178Y20180737D01*
X-2663949Y20178003D01*
G37*
X-2663949Y20178003D02*
X-2659672Y20177373D01*
X-2615486Y20168827D01*
X-2568760Y20156705D01*
X-2525056Y20142809D01*
X-2489938Y20128943D01*
X-2468966Y20116909D01*
X-2467007Y20114939D01*
X-2463719Y20106394D01*
X-2464097Y20091662D01*
X-2468681Y20069236D01*
X-2478011Y20037607D01*
X-2492628Y19995271D01*
X-2513071Y19940720D01*
X-2539882Y19872448D01*
X-2573601Y19788947D01*
X-2614768Y19688712D01*
X-2652613Y19597421D01*
X-2685721Y19517717D01*
X-2717072Y19442105D01*
X-2745512Y19373380D01*
X-2769888Y19314334D01*
X-2789046Y19267759D01*
X-2801832Y19236450D01*
X-2805634Y19226992D01*
X-2825661Y19176442D01*
X-2801458Y19167240D01*
X-2769011Y19147143D01*
X-2755913Y19119252D01*
X-2757650Y19098637D01*
X-2761985Y19084129D01*
X-2768733Y19075940D01*
X-2781820Y19074017D01*
X-2805176Y19078304D01*
X-2842727Y19088746D01*
X-2870743Y19097061D01*
X-2921368Y19113067D01*
X-2954660Y19127051D01*
X-2973865Y19141948D01*
X-2982228Y19160695D01*
X-2982994Y19186227D01*
X-2982024Y19197756D01*
X-2976791Y19220009D01*
X-2964327Y19259127D01*
X-2945653Y19312484D01*
X-2921791Y19377455D01*
X-2893762Y19451413D01*
X-2862586Y19531732D01*
X-2829286Y19615786D01*
X-2794882Y19700949D01*
X-2760396Y19784595D01*
X-2726848Y19864096D01*
X-2695261Y19936829D01*
X-2690061Y19948552D01*
X-2631636Y20079813D01*
X-2654237Y20096719D01*
X-2681609Y20116869D01*
X-2700218Y20130299D01*
X-2717085Y20149896D01*
X-2716344Y20165878D01*
X-2708607Y20177108D01*
X-2693178Y20180737D01*
X-2663949Y20178003D01*
%TO.C,*%
D11*
%TD*%
M02*
