%TF.GenerationSoftware,KiCad,Pcbnew,5.1.10-88a1d61d58~90~ubuntu20.04.1*%
%TF.CreationDate,2022-09-07T23:38:44+02:00*%
%TF.ProjectId,Wawies_PCB_inv2,57617769-6573-45f5-9043-425f696e7632,rev?*%
%TF.SameCoordinates,Original*%
%TF.FileFunction,Profile,NP*%
%FSLAX46Y46*%
G04 Gerber Fmt 4.6, Leading zero omitted, Abs format (unit mm)*
G04 Created by KiCad (PCBNEW 5.1.10-88a1d61d58~90~ubuntu20.04.1) date 2022-09-07 23:38:44*
%MOMM*%
%LPD*%
G01*
G04 APERTURE LIST*
%TA.AperFunction,Profile*%
%ADD10C,0.100000*%
%TD*%
G04 APERTURE END LIST*
D10*
X637568Y-8600462D02*
X1085507Y-8478489D01*
X1085507Y-8478489D02*
X1294792Y-8416047D01*
X1294792Y-8416047D02*
X1495610Y-8351224D01*
X1495610Y-8351224D02*
X1689814Y-8284285D01*
X1689814Y-8284285D02*
X1878197Y-8214170D01*
X1878197Y-8214170D02*
X2062082Y-8140616D01*
X2062082Y-8140616D02*
X2242528Y-8062829D01*
X2242528Y-8062829D02*
X2421122Y-7980544D01*
X2421122Y-7980544D02*
X2598657Y-7892967D01*
X2598657Y-7892967D02*
X2776986Y-7799833D01*
X2776986Y-7799833D02*
X2956638Y-7700086D01*
X2956638Y-7700086D02*
X3139464Y-7593723D01*
X3139464Y-7593723D02*
X3326260Y-7479953D01*
X3326260Y-7479953D02*
X3717049Y-7227805D01*
X3717049Y-7227805D02*
X4005445Y-7027780D01*
X4005445Y-7027780D02*
X4290665Y-6813733D01*
X4290665Y-6813733D02*
X4571917Y-6586191D01*
X4571917Y-6586191D02*
X4848406Y-6345950D01*
X4848406Y-6345950D02*
X5120133Y-6094067D01*
X5120133Y-6094067D02*
X5386039Y-5830807D01*
X5386039Y-5830807D02*
X5645595Y-5556963D01*
X5645595Y-5556963D02*
X5898271Y-5273330D01*
X5898271Y-5273330D02*
X6143540Y-4980437D01*
X6143540Y-4980437D02*
X6380606Y-4679341D01*
X6380606Y-4679341D02*
X6608941Y-4370573D01*
X6608941Y-4370573D02*
X6827751Y-4054661D01*
X6827751Y-4054661D02*
X7036507Y-3732664D01*
X7036507Y-3732664D02*
X7234945Y-3405110D01*
X7234945Y-3405110D02*
X7422005Y-3072529D01*
X7422005Y-3072529D02*
X7597423Y-2735715D01*
X7597423Y-2735715D02*
X7676005Y-2565323D01*
X7676005Y-2565323D02*
X7776546Y-2326934D01*
X7776546Y-2326934D02*
X7894815Y-2031659D01*
X7894815Y-2031659D02*
X8026312Y-1690612D01*
X8026312Y-1690612D02*
X8313650Y-913532D01*
X8313650Y-913532D02*
X8605220Y-83270D01*
X8605220Y-83270D02*
X8879063Y705452D01*
X8879063Y705452D02*
X9118246Y1369026D01*
X9118246Y1369026D02*
X9296575Y1837867D01*
X9296575Y1837867D02*
X9355048Y1977567D01*
X9355048Y1977567D02*
X9388650Y2042125D01*
X9388650Y2042125D02*
X9403202Y2054560D01*
X9403202Y2054560D02*
X9425692Y2067260D01*
X9425692Y2067260D02*
X9493954Y2093719D01*
X9493954Y2093719D02*
X9589733Y2120706D01*
X9589733Y2120706D02*
X9708531Y2147429D01*
X9708531Y2147429D02*
X9846908Y2172829D01*
X9846908Y2172829D02*
X10000895Y2196377D01*
X10000895Y2196377D02*
X10166524Y2217279D01*
X10166524Y2217279D02*
X10340091Y2234477D01*
X10340091Y2234477D02*
X10584301Y2258819D01*
X10584301Y2258819D02*
X10827717Y2288716D01*
X10827717Y2288716D02*
X11070340Y2324435D01*
X11070340Y2324435D02*
X11312169Y2365710D01*
X11312169Y2365710D02*
X11552939Y2412541D01*
X11552939Y2412541D02*
X11792651Y2465193D01*
X11792651Y2465193D02*
X12031041Y2523137D01*
X12031041Y2523137D02*
X12268636Y2586637D01*
X12268636Y2586637D02*
X12504644Y2655693D01*
X12504644Y2655693D02*
X12739329Y2730305D01*
X12739329Y2730305D02*
X12972692Y2810210D01*
X12972692Y2810210D02*
X13204466Y2895405D01*
X13204466Y2895405D02*
X13434918Y2986157D01*
X13434918Y2986157D02*
X13663518Y3081936D01*
X13663518Y3081936D02*
X13890530Y3183272D01*
X13890530Y3183272D02*
X14115690Y3289634D01*
X14115690Y3289634D02*
X14338998Y3401288D01*
X14338998Y3401288D02*
X14560454Y3518234D01*
X14560454Y3518234D02*
X14779793Y3640206D01*
X14779793Y3640206D02*
X14997281Y3767206D01*
X14997281Y3767206D02*
X15212651Y3899498D01*
X15212651Y3899498D02*
X15425641Y4036552D01*
X15425641Y4036552D02*
X15636249Y4178633D01*
X15636249Y4178633D02*
X15844740Y4325741D01*
X15844740Y4325741D02*
X16050586Y4477876D01*
X16050586Y4477876D02*
X16254315Y4634774D01*
X16254315Y4634774D02*
X16455133Y4796434D01*
X16455133Y4796434D02*
X16653306Y4963121D01*
X16653306Y4963121D02*
X16849097Y5134307D01*
X16849097Y5134307D02*
X17041714Y5310519D01*
X17041714Y5310519D02*
X17231684Y5491229D01*
X17231684Y5491229D02*
X17418744Y5676966D01*
X17418744Y5676966D02*
X17586225Y5850533D01*
X17586225Y5850533D02*
X17750531Y6029126D01*
X17750531Y6029126D02*
X17911662Y6212482D01*
X17911662Y6212482D02*
X18069619Y6400865D01*
X18069619Y6400865D02*
X18224400Y6593217D01*
X18224400Y6593217D02*
X18375476Y6790332D01*
X18375476Y6790332D02*
X18523114Y6991150D01*
X18523114Y6991150D02*
X18667047Y7196202D01*
X18667047Y7196202D02*
X18807540Y7404958D01*
X18807540Y7404958D02*
X18944065Y7617153D01*
X18944065Y7617153D02*
X19076886Y7833053D01*
X19076886Y7833053D02*
X19205738Y8051863D01*
X19205738Y8051863D02*
X19330357Y8273848D01*
X19330357Y8273848D02*
X19451271Y8498744D01*
X19451271Y8498744D02*
X19567687Y8726285D01*
X19567687Y8726285D02*
X19679871Y8956208D01*
X19679871Y8956208D02*
X19787821Y9188512D01*
X19787821Y9188512D02*
X19891008Y9423197D01*
X19891008Y9423197D02*
X19989962Y9659734D01*
X19989962Y9659734D02*
X20084153Y9897859D01*
X20084153Y9897859D02*
X20173847Y10137836D01*
X20173847Y10137836D02*
X20258514Y10379135D01*
X20258514Y10379135D02*
X20338418Y10621758D01*
X20338418Y10621758D02*
X20413295Y10865439D01*
X20413295Y10865439D02*
X20483145Y11109914D01*
X20483145Y11109914D02*
X20547967Y11355182D01*
X20547967Y11355182D02*
X20607499Y11601244D01*
X20607499Y11601244D02*
X20661474Y11847306D01*
X20661474Y11847306D02*
X20710421Y12093633D01*
X20710421Y12093633D02*
X20753813Y12340225D01*
X20753813Y12340225D02*
X20791648Y12586287D01*
X20791648Y12586287D02*
X20823928Y12832349D01*
X20823928Y12832349D02*
X20851444Y13098784D01*
X20851444Y13098784D02*
X20870494Y13366013D01*
X20870494Y13366013D02*
X20881342Y13633771D01*
X20881342Y13633771D02*
X20883723Y13902587D01*
X20883723Y13902587D02*
X20877902Y14171668D01*
X20877902Y14171668D02*
X20863615Y14441543D01*
X20863615Y14441543D02*
X20841125Y14711682D01*
X20841125Y14711682D02*
X20810434Y14982350D01*
X20810434Y14982350D02*
X20771540Y15253548D01*
X20771540Y15253548D02*
X20724444Y15524746D01*
X20724444Y15524746D02*
X20668882Y15796208D01*
X20668882Y15796208D02*
X20605382Y16067670D01*
X20605382Y16067670D02*
X20533680Y16339397D01*
X20533680Y16339397D02*
X20454041Y16611123D01*
X20454041Y16611123D02*
X20366199Y16882850D01*
X20366199Y16882850D02*
X20270155Y17154577D01*
X20270155Y17154577D02*
X20166174Y17426039D01*
X20166174Y17426039D02*
X20054256Y17696972D01*
X20054256Y17696972D02*
X19934399Y17967905D01*
X19934399Y17967905D02*
X19806341Y18238573D01*
X19806341Y18238573D02*
X19670346Y18508448D01*
X19670346Y18508448D02*
X19526677Y18778058D01*
X19526677Y18778058D02*
X19374806Y19047139D01*
X19374806Y19047139D02*
X19215263Y19315426D01*
X19215263Y19315426D02*
X19047782Y19583184D01*
X19047782Y19583184D02*
X18872628Y19850148D01*
X18872628Y19850148D02*
X18689536Y20116319D01*
X18689536Y20116319D02*
X18498508Y20381696D01*
X18498508Y20381696D02*
X18300070Y20646014D01*
X18300070Y20646014D02*
X18093696Y20909274D01*
X18093696Y20909274D02*
X17879648Y21171476D01*
X17879648Y21171476D02*
X17657663Y21432619D01*
X17657663Y21432619D02*
X17433561Y21697732D01*
X17433561Y21697732D02*
X17249676Y21926067D01*
X17249676Y21926067D02*
X17125586Y22093548D01*
X17125586Y22093548D02*
X17091720Y22146729D01*
X17091720Y22146729D02*
X17080078Y22175568D01*
X17080078Y22175568D02*
X17092249Y22197793D01*
X17092249Y22197793D02*
X17127174Y22231660D01*
X17127174Y22231660D02*
X17182472Y22275581D01*
X17182472Y22275581D02*
X17255761Y22327704D01*
X17255761Y22327704D02*
X17445996Y22450735D01*
X17445996Y22450735D02*
X17678300Y22586995D01*
X17678300Y22586995D02*
X17850279Y22690712D01*
X17850279Y22690712D02*
X18029666Y22812684D01*
X18029666Y22812684D02*
X18214610Y22951061D01*
X18214610Y22951061D02*
X18403522Y23104255D01*
X18403522Y23104255D02*
X18594816Y23270413D01*
X18594816Y23270413D02*
X18786903Y23447684D01*
X18786903Y23447684D02*
X18977932Y23634215D01*
X18977932Y23634215D02*
X19166315Y23828683D01*
X19166315Y23828683D02*
X19350200Y24028708D01*
X19350200Y24028708D02*
X19528265Y24232966D01*
X19528265Y24232966D02*
X19698656Y24439605D01*
X19698656Y24439605D02*
X19859523Y24647038D01*
X19859523Y24647038D02*
X20009806Y24853148D01*
X20009806Y24853148D02*
X20147124Y25056084D01*
X20147124Y25056084D02*
X20270155Y25254521D01*
X20270155Y25254521D02*
X20377311Y25446608D01*
X20377311Y25446608D02*
X20505370Y25696904D01*
X20505370Y25696904D02*
X20621786Y25937674D01*
X20621786Y25937674D02*
X20726826Y26170772D01*
X20726826Y26170772D02*
X20821282Y26398578D01*
X20821282Y26398578D02*
X20905684Y26622944D01*
X20905684Y26622944D02*
X20980032Y26845988D01*
X20980032Y26845988D02*
X21045384Y27069825D01*
X21045384Y27069825D02*
X21101475Y27296308D01*
X21101475Y27296308D02*
X21149365Y27527553D01*
X21149365Y27527553D02*
X21189581Y27765413D01*
X21189581Y27765413D02*
X21222125Y28012534D01*
X21222125Y28012534D02*
X21247525Y28270238D01*
X21247525Y28270238D02*
X21266575Y28541171D01*
X21266575Y28541171D02*
X21279804Y28827000D01*
X21279804Y28827000D02*
X21287212Y29129894D01*
X21287212Y29129894D02*
X21289329Y29451892D01*
X21289329Y29451892D02*
X21284831Y29824875D01*
X21284831Y29824875D02*
X21271073Y30189258D01*
X21271073Y30189258D02*
X21248054Y30546392D01*
X21248054Y30546392D02*
X21214981Y30897600D01*
X21214981Y30897600D02*
X21172119Y31244230D01*
X21172119Y31244230D02*
X21118673Y31587579D01*
X21118673Y31587579D02*
X21054644Y31928997D01*
X21054644Y31928997D02*
X20979502Y32269833D01*
X20979502Y32269833D02*
X20892984Y32611357D01*
X20892984Y32611357D02*
X20794823Y32954971D01*
X20794823Y32954971D02*
X20684757Y33301972D01*
X20684757Y33301972D02*
X20562255Y33653682D01*
X20562255Y33653682D02*
X20427318Y34011424D01*
X20427318Y34011424D02*
X20279416Y34376549D01*
X20279416Y34376549D02*
X20118285Y34750378D01*
X20118285Y34750378D02*
X19943660Y35134262D01*
X19943660Y35134262D02*
X19832006Y35368841D01*
X19832006Y35368841D02*
X19721146Y35592519D01*
X19721146Y35592519D02*
X19610021Y35806011D01*
X19610021Y35806011D02*
X19498631Y36010111D01*
X19498631Y36010111D02*
X19385919Y36205558D01*
X19385919Y36205558D02*
X19271884Y36393174D01*
X19271884Y36393174D02*
X19155467Y36573673D01*
X19155467Y36573673D02*
X19036405Y36747874D01*
X19036405Y36747874D02*
X18914167Y36916519D01*
X18914167Y36916519D02*
X18788226Y37080402D01*
X18788226Y37080402D02*
X18657787Y37240237D01*
X18657787Y37240237D02*
X18522849Y37396870D01*
X18522849Y37396870D02*
X18382091Y37551016D01*
X18382091Y37551016D02*
X18235777Y37703442D01*
X18235777Y37703442D02*
X18082848Y37854969D01*
X18082848Y37854969D02*
X17922775Y38006310D01*
X17922775Y38006310D02*
X17714813Y38193026D01*
X17714813Y38193026D02*
X17503411Y38371011D01*
X17503411Y38371011D02*
X17287247Y38540477D01*
X17287247Y38540477D02*
X17066055Y38701528D01*
X17066055Y38701528D02*
X16839043Y38854378D01*
X16839043Y38854378D02*
X16604887Y38999158D01*
X16604887Y38999158D02*
X16363323Y39136000D01*
X16363323Y39136000D02*
X16113027Y39265117D01*
X16113027Y39265117D02*
X15853736Y39386613D01*
X15853736Y39386613D02*
X15584126Y39500701D01*
X15584126Y39500701D02*
X15303932Y39607487D01*
X15303932Y39607487D02*
X15011833Y39707182D01*
X15011833Y39707182D02*
X14707562Y39799892D01*
X14707562Y39799892D02*
X14389798Y39885828D01*
X14389798Y39885828D02*
X14057746Y39965097D01*
X14057746Y39965097D02*
X13711143Y40037884D01*
X13711143Y40037884D02*
X13348664Y40104348D01*
X13348664Y40104348D02*
X12969517Y40164646D01*
X12969517Y40164646D02*
X12573171Y40218938D01*
X12573171Y40218938D02*
X12158834Y40267357D01*
X12158834Y40267357D02*
X11725183Y40310114D01*
X11725183Y40310114D02*
X11272217Y40347314D01*
X11272217Y40347314D02*
X10798349Y40379143D01*
X10798349Y40379143D02*
X10303314Y40405760D01*
X10303314Y40405760D02*
X9786054Y40427324D01*
X9786054Y40427324D02*
X9245775Y40443993D01*
X9245775Y40443993D02*
X8681685Y40455899D01*
X8681685Y40455899D02*
X8093252Y40463228D01*
X8093252Y40463228D02*
X7479155Y40466138D01*
X7479155Y40466138D02*
X6838864Y40464789D01*
X6838864Y40464789D02*
X5476791Y40449919D01*
X5476791Y40449919D02*
X4544400Y40432721D01*
X4544400Y40432721D02*
X3665720Y40411687D01*
X3665720Y40411687D02*
X2839163Y40386737D01*
X2839163Y40386737D02*
X2063141Y40357686D01*
X2063141Y40357686D02*
X1336331Y40324454D01*
X1336331Y40324454D02*
X656882Y40286857D01*
X656882Y40286857D02*
X23470Y40244815D01*
X23470Y40244815D02*
X-565491Y40198142D01*
X-565491Y40198142D02*
X-1111326Y40146760D01*
X-1111326Y40146760D02*
X-1615621Y40090510D01*
X-1615621Y40090510D02*
X-2079964Y40029259D01*
X-2079964Y40029259D02*
X-2505678Y39962901D01*
X-2505678Y39962901D02*
X-2894615Y39891279D01*
X-2894615Y39891279D02*
X-3248098Y39814259D01*
X-3248098Y39814259D02*
X-3567715Y39731735D01*
X-3567715Y39731735D02*
X-3854787Y39643576D01*
X-3854787Y39643576D02*
X-4040260Y39582722D01*
X-4040260Y39582722D02*
X-4189485Y39538748D01*
X-4189485Y39538748D02*
X-4311722Y39511338D01*
X-4311722Y39511338D02*
X-4415968Y39500225D01*
X-4415968Y39500225D02*
X-4464651Y39500701D01*
X-4464651Y39500701D02*
X-4512011Y39505146D01*
X-4512011Y39505146D02*
X-4609113Y39525757D01*
X-4609113Y39525757D02*
X-4716534Y39561794D01*
X-4716534Y39561794D02*
X-4843269Y39612964D01*
X-4843269Y39612964D02*
X-4993552Y39667733D01*
X-4993552Y39667733D02*
X-5152038Y39710225D01*
X-5152038Y39710225D02*
X-5316873Y39740731D01*
X-5316873Y39740731D02*
X-5486735Y39759516D01*
X-5486735Y39759516D02*
X-5659243Y39766951D01*
X-5659243Y39766951D02*
X-5833339Y39763274D01*
X-5833339Y39763274D02*
X-6007170Y39748827D01*
X-6007170Y39748827D02*
X-6178884Y39723904D01*
X-6178884Y39723904D02*
X-6346630Y39688820D01*
X-6346630Y39688820D02*
X-6508819Y39643867D01*
X-6508819Y39643867D02*
X-6663865Y39589337D01*
X-6663865Y39589337D02*
X-6809915Y39525572D01*
X-6809915Y39525572D02*
X-6945117Y39452838D01*
X-6945117Y39452838D02*
X-7068148Y39371453D01*
X-7068148Y39371453D02*
X-7124504Y39327611D01*
X-7124504Y39327611D02*
X-7176891Y39281733D01*
X-7176891Y39281733D02*
X-7225310Y39233817D01*
X-7225310Y39233817D02*
X-7269760Y39183943D01*
X-7269760Y39183943D02*
X-7316327Y39130920D01*
X-7316327Y39130920D02*
X-7365274Y39082131D01*
X-7365274Y39082131D02*
X-7416868Y39037337D01*
X-7416868Y39037337D02*
X-7471901Y38996300D01*
X-7471901Y38996300D02*
X-7531433Y38958756D01*
X-7531433Y38958756D02*
X-7595726Y38924493D01*
X-7595726Y38924493D02*
X-7665841Y38893219D01*
X-7665841Y38893219D02*
X-7742570Y38864723D01*
X-7742570Y38864723D02*
X-7826178Y38838768D01*
X-7826178Y38838768D02*
X-7917988Y38815061D01*
X-7917988Y38815061D02*
X-8128067Y38773495D01*
X-8128067Y38773495D02*
X-8378363Y38738067D01*
X-8378363Y38738067D02*
X-8674696Y38706794D01*
X-8674696Y38706794D02*
X-8923933Y38678510D01*
X-8923933Y38678510D02*
X-9169995Y38639934D01*
X-9169995Y38639934D02*
X-9413941Y38590562D01*
X-9413941Y38590562D02*
X-9656828Y38529893D01*
X-9656828Y38529893D02*
X-9899980Y38457398D01*
X-9899980Y38457398D02*
X-10143925Y38372572D01*
X-10143925Y38372572D02*
X-10390252Y38274888D01*
X-10390252Y38274888D02*
X-10640018Y38163869D01*
X-10640018Y38163869D02*
X-10894283Y38038933D01*
X-10894283Y38038933D02*
X-11154103Y37899630D01*
X-11154103Y37899630D02*
X-11420538Y37745405D01*
X-11420538Y37745405D02*
X-11694646Y37575754D01*
X-11694646Y37575754D02*
X-11977750Y37390176D01*
X-11977750Y37390176D02*
X-12270643Y37188167D01*
X-12270643Y37188167D02*
X-12574649Y36969171D01*
X-12574649Y36969171D02*
X-12890826Y36732687D01*
X-12890826Y36732687D02*
X-13290082Y36419659D01*
X-13290082Y36419659D02*
X-13671372Y36101445D01*
X-13671372Y36101445D02*
X-14034036Y35779500D01*
X-14034036Y35779500D02*
X-14376830Y35455307D01*
X-14376830Y35455307D02*
X-14698642Y35130372D01*
X-14698642Y35130372D02*
X-14998335Y34806126D01*
X-14998335Y34806126D02*
X-15139543Y34644730D01*
X-15139543Y34644730D02*
X-15274798Y34484049D01*
X-15274798Y34484049D02*
X-15403994Y34324320D01*
X-15403994Y34324320D02*
X-15526919Y34165676D01*
X-15526919Y34165676D02*
X-15643521Y34008302D01*
X-15643521Y34008302D02*
X-15753587Y33852410D01*
X-15753587Y33852410D02*
X-15857013Y33698158D01*
X-15857013Y33698158D02*
X-15953665Y33545758D01*
X-15953665Y33545758D02*
X-16043359Y33395369D01*
X-16043359Y33395369D02*
X-16126014Y33247203D01*
X-16126014Y33247203D02*
X-16201474Y33101418D01*
X-16201474Y33101418D02*
X-16269577Y32958225D01*
X-16269577Y32958225D02*
X-16330167Y32817785D01*
X-16330167Y32817785D02*
X-16383163Y32680281D01*
X-16383163Y32680281D02*
X-16428380Y32545899D01*
X-16428380Y32545899D02*
X-16465713Y32414851D01*
X-16465713Y32414851D02*
X-16494975Y32287296D01*
X-16494975Y32287296D02*
X-16516063Y32163418D01*
X-16516063Y32163418D02*
X-16528816Y32043403D01*
X-16528816Y32043403D02*
X-16533128Y31927463D01*
X-16533128Y31927463D02*
X-16534054Y31765723D01*
X-16534054Y31765723D02*
X-16540219Y31642639D01*
X-16540219Y31642639D02*
X-16546887Y31593400D01*
X-16546887Y31593400D02*
X-16556782Y31551146D01*
X-16556782Y31551146D02*
X-16570567Y31515057D01*
X-16570567Y31515057D02*
X-16588876Y31484207D01*
X-16588876Y31484207D02*
X-16612344Y31457722D01*
X-16612344Y31457722D02*
X-16641634Y31434730D01*
X-16641634Y31434730D02*
X-16677379Y31414331D01*
X-16677379Y31414331D02*
X-16720241Y31395651D01*
X-16720241Y31395651D02*
X-16829805Y31359932D01*
X-16829805Y31359932D02*
X-16975485Y31320509D01*
X-16975485Y31320509D02*
X-17362358Y31213512D01*
X-17362358Y31213512D02*
X-17743939Y31097995D01*
X-17743939Y31097995D02*
X-18120309Y30973879D01*
X-18120309Y30973879D02*
X-18491598Y30841059D01*
X-18491598Y30841059D02*
X-18857913Y30699480D01*
X-18857913Y30699480D02*
X-19219307Y30549012D01*
X-19219307Y30549012D02*
X-19575939Y30389627D01*
X-19575939Y30389627D02*
X-19927913Y30221220D01*
X-19927913Y30221220D02*
X-20275284Y30043711D01*
X-20275284Y30043711D02*
X-20618210Y29857021D01*
X-20618210Y29857021D02*
X-20956771Y29661071D01*
X-20956771Y29661071D02*
X-21291071Y29455755D01*
X-21291071Y29455755D02*
X-21621218Y29241019D01*
X-21621218Y29241019D02*
X-21947343Y29016759D01*
X-21947343Y29016759D02*
X-22269499Y28782920D01*
X-22269499Y28782920D02*
X-22587819Y28539319D01*
X-22587819Y28539319D02*
X-22902408Y28286113D01*
X-22902408Y28286113D02*
X-23213373Y28023117D01*
X-23213373Y28023117D02*
X-23520792Y27750068D01*
X-23520792Y27750068D02*
X-23824798Y27466964D01*
X-23824798Y27466964D02*
X-24125496Y27173806D01*
X-24125496Y27173806D02*
X-24422993Y26870329D01*
X-24422993Y26870329D02*
X-24717368Y26556798D01*
X-24717368Y26556798D02*
X-25008727Y26232949D01*
X-25008727Y26232949D02*
X-25297202Y25898780D01*
X-25297202Y25898780D02*
X-25582899Y25553764D01*
X-25582899Y25553764D02*
X-25865897Y25198429D01*
X-25865897Y25198429D02*
X-26146302Y24832511D01*
X-26146302Y24832511D02*
X-26424246Y24455745D01*
X-26424246Y24455745D02*
X-26699783Y24068131D01*
X-26699783Y24068131D02*
X-26973071Y23669404D01*
X-26973071Y23669404D02*
X-27244189Y23260094D01*
X-27244189Y23260094D02*
X-27414236Y22994453D01*
X-27414236Y22994453D02*
X-27583570Y22721403D01*
X-27583570Y22721403D02*
X-27752056Y22441739D01*
X-27752056Y22441739D02*
X-27919458Y22155460D01*
X-27919458Y22155460D02*
X-28085616Y21863096D01*
X-28085616Y21863096D02*
X-28250319Y21565440D01*
X-28250319Y21565440D02*
X-28574645Y20955047D01*
X-28574645Y20955047D02*
X-28890927Y20327721D01*
X-28890927Y20327721D02*
X-29197658Y19687430D01*
X-29197658Y19687430D02*
X-29493303Y19037614D01*
X-29493303Y19037614D02*
X-29776354Y18381713D01*
X-29776354Y18381713D02*
X-30045276Y17723430D01*
X-30045276Y17723430D02*
X-30298588Y17066735D01*
X-30298588Y17066735D02*
X-30534755Y16414538D01*
X-30534755Y16414538D02*
X-30752295Y15771072D01*
X-30752295Y15771072D02*
X-30853577Y15453573D01*
X-30853577Y15453573D02*
X-30949621Y15139513D01*
X-30949621Y15139513D02*
X-31040267Y14829421D01*
X-31040267Y14829421D02*
X-31125278Y14523828D01*
X-31125278Y14523828D02*
X-31204520Y14222997D01*
X-31204520Y14222997D02*
X-31277757Y13927193D01*
X-31277757Y13927193D02*
X-31344802Y13637475D01*
X-31344802Y13637475D02*
X-31405497Y13353842D01*
X-31405497Y13353842D02*
X-31474739Y12992686D01*
X-31474739Y12992686D02*
X-31530513Y12650316D01*
X-31530513Y12650316D02*
X-31572687Y12325937D01*
X-31572687Y12325937D02*
X-31601157Y12018492D01*
X-31601157Y12018492D02*
X-31615735Y11727715D01*
X-31615735Y11727715D02*
X-31616370Y11452284D01*
X-31616370Y11452284D02*
X-31602903Y11191405D01*
X-31602903Y11191405D02*
X-31575227Y10944285D01*
X-31575227Y10944285D02*
X-31556019Y10825751D01*
X-31556019Y10825751D02*
X-31533212Y10710129D01*
X-31533212Y10710129D02*
X-31506806Y10597681D01*
X-31506806Y10597681D02*
X-31476750Y10488144D01*
X-31476750Y10488144D02*
X-31443068Y10381252D01*
X-31443068Y10381252D02*
X-31405709Y10277271D01*
X-31405709Y10277271D02*
X-31364672Y10175671D01*
X-31364672Y10175671D02*
X-31319958Y10076717D01*
X-31319958Y10076717D02*
X-31271513Y9980144D01*
X-31271513Y9980144D02*
X-31219363Y9885953D01*
X-31219363Y9885953D02*
X-31163483Y9793878D01*
X-31163483Y9793878D02*
X-31103846Y9703655D01*
X-31103846Y9703655D02*
X-31040452Y9615813D01*
X-31040452Y9615813D02*
X-30973248Y9529559D01*
X-30973248Y9529559D02*
X-30902287Y9445157D01*
X-30902287Y9445157D02*
X-30827489Y9362343D01*
X-30827489Y9362343D02*
X-30360130Y8862546D01*
X-30360130Y8862546D02*
X-30838867Y8204528D01*
X-30838867Y8204528D02*
X-31031853Y7929626D01*
X-31031853Y7929626D02*
X-31219893Y7641760D01*
X-31219893Y7641760D02*
X-31402481Y7342516D01*
X-31402481Y7342516D02*
X-31579090Y7032954D01*
X-31579090Y7032954D02*
X-31749217Y6714396D01*
X-31749217Y6714396D02*
X-31912333Y6388165D01*
X-31912333Y6388165D02*
X-32067907Y6055320D01*
X-32067907Y6055320D02*
X-32215439Y5716918D01*
X-32215439Y5716918D02*
X-32354398Y5374813D01*
X-32354398Y5374813D02*
X-32484255Y5029796D01*
X-32484255Y5029796D02*
X-32604535Y4683193D01*
X-32604535Y4683193D02*
X-32714654Y4336060D01*
X-32714654Y4336060D02*
X-32814164Y3989985D01*
X-32814164Y3989985D02*
X-32902482Y3645763D01*
X-32902482Y3645763D02*
X-32979131Y3304980D01*
X-32979131Y3304980D02*
X-33043557Y2968695D01*
X-33043557Y2968695D02*
X-33082716Y2722633D01*
X-33082716Y2722633D02*
X-33113725Y2479216D01*
X-33113725Y2479216D02*
X-33136532Y2238446D01*
X-33136532Y2238446D02*
X-33151084Y2000321D01*
X-33151084Y2000321D02*
X-33157328Y1764842D01*
X-33157328Y1764842D02*
X-33155185Y1531744D01*
X-33155185Y1531744D02*
X-33144602Y1300763D01*
X-33144602Y1300763D02*
X-33125552Y1071899D01*
X-33125552Y1071899D02*
X-33097982Y844887D01*
X-33097982Y844887D02*
X-33061814Y619991D01*
X-33061814Y619991D02*
X-33016967Y396683D01*
X-33016967Y396683D02*
X-32963442Y174963D01*
X-32963442Y174963D02*
X-32901159Y-45170D01*
X-32901159Y-45170D02*
X-32830039Y-264245D01*
X-32830039Y-264245D02*
X-32750055Y-481732D01*
X-32750055Y-481732D02*
X-32661155Y-698426D01*
X-32661155Y-698426D02*
X-32563260Y-914061D01*
X-32563260Y-914061D02*
X-32456342Y-1128902D01*
X-32456342Y-1128902D02*
X-32340322Y-1343214D01*
X-32340322Y-1343214D02*
X-32215148Y-1556733D01*
X-32215148Y-1556733D02*
X-32080766Y-1769987D01*
X-32080766Y-1769987D02*
X-31937124Y-1982712D01*
X-31937124Y-1982712D02*
X-31784195Y-2195436D01*
X-31784195Y-2195436D02*
X-31621847Y-2408161D01*
X-31621847Y-2408161D02*
X-31450106Y-2620886D01*
X-31450106Y-2620886D02*
X-31268867Y-2833875D01*
X-31268867Y-2833875D02*
X-31078076Y-3047129D01*
X-31078076Y-3047129D02*
X-30877707Y-3260912D01*
X-30877707Y-3260912D02*
X-30667681Y-3475224D01*
X-30667681Y-3475224D02*
X-30447972Y-3690330D01*
X-30447972Y-3690330D02*
X-30218472Y-3906230D01*
X-30218472Y-3906230D02*
X-29979157Y-4123188D01*
X-29979157Y-4123188D02*
X-29672691Y-4387771D01*
X-29672691Y-4387771D02*
X-29372759Y-4629864D01*
X-29372759Y-4629864D02*
X-29077141Y-4849468D01*
X-29077141Y-4849468D02*
X-28930244Y-4951333D01*
X-28930244Y-4951333D02*
X-28783586Y-5048170D01*
X-28783586Y-5048170D02*
X-28636848Y-5139716D01*
X-28636848Y-5139716D02*
X-28489793Y-5226235D01*
X-28489793Y-5226235D02*
X-28342129Y-5307726D01*
X-28342129Y-5307726D02*
X-28193539Y-5384720D01*
X-28193539Y-5384720D02*
X-28043785Y-5456951D01*
X-28043785Y-5456951D02*
X-27892550Y-5524420D01*
X-27892550Y-5524420D02*
X-27739594Y-5587390D01*
X-27739594Y-5587390D02*
X-27584575Y-5646128D01*
X-27584575Y-5646128D02*
X-27427280Y-5700367D01*
X-27427280Y-5700367D02*
X-27267366Y-5750638D01*
X-27267366Y-5750638D02*
X-27104595Y-5796675D01*
X-27104595Y-5796675D02*
X-26938649Y-5839009D01*
X-26938649Y-5839009D02*
X-26769263Y-5877109D01*
X-26769263Y-5877109D02*
X-26596172Y-5911505D01*
X-26596172Y-5911505D02*
X-26419060Y-5942461D01*
X-26419060Y-5942461D02*
X-26237662Y-5969448D01*
X-26237662Y-5969448D02*
X-25860870Y-6013634D01*
X-25860870Y-6013634D02*
X-25463572Y-6044590D01*
X-25463572Y-6044590D02*
X-25043467Y-6063375D01*
X-25043467Y-6063375D02*
X-24598280Y-6070519D01*
X-24598280Y-6070519D02*
X-24092053Y-6067344D01*
X-24092053Y-6067344D02*
X-23860966Y-6060994D01*
X-23860966Y-6060994D02*
X-23641733Y-6051469D01*
X-23641733Y-6051469D02*
X-23432236Y-6037711D01*
X-23432236Y-6037711D02*
X-23230359Y-6019984D01*
X-23230359Y-6019984D02*
X-23033986Y-5998023D01*
X-23033986Y-5998023D02*
X-22840972Y-5971036D01*
X-22840972Y-5971036D02*
X-22649229Y-5939021D01*
X-22649229Y-5939021D02*
X-22456613Y-5901450D01*
X-22456613Y-5901450D02*
X-22261006Y-5858059D01*
X-22261006Y-5858059D02*
X-22060320Y-5808582D01*
X-22060320Y-5808582D02*
X-21852411Y-5752755D01*
X-21852411Y-5752755D02*
X-21635135Y-5690313D01*
X-21635135Y-5690313D02*
X-21164125Y-5543734D01*
X-21164125Y-5543734D02*
X-20796672Y-5420438D01*
X-20796672Y-5420438D02*
X-20446946Y-5293968D01*
X-20446946Y-5293968D02*
X-20113413Y-5163528D01*
X-20113413Y-5163528D02*
X-19794484Y-5027797D01*
X-19794484Y-5027797D02*
X-19488653Y-4885981D01*
X-19488653Y-4885981D02*
X-19194357Y-4737021D01*
X-19194357Y-4737021D02*
X-18910010Y-4580123D01*
X-18910010Y-4580123D02*
X-18634103Y-4414229D01*
X-18634103Y-4414229D02*
X-18365075Y-4238282D01*
X-18365075Y-4238282D02*
X-18101365Y-4051221D01*
X-18101365Y-4051221D02*
X-17841412Y-3852520D01*
X-17841412Y-3852520D02*
X-17583682Y-3640589D01*
X-17583682Y-3640589D02*
X-17326639Y-3414899D01*
X-17326639Y-3414899D02*
X-17068697Y-3174393D01*
X-17068697Y-3174393D02*
X-16808348Y-2918012D01*
X-16808348Y-2918012D02*
X-16544003Y-2644963D01*
X-16544003Y-2644963D02*
X-16276562Y-2354715D01*
X-16276562Y-2354715D02*
X-16037062Y-2076109D01*
X-16037062Y-2076109D02*
X-15927233Y-1939320D01*
X-15927233Y-1939320D02*
X-15823728Y-1803324D01*
X-15823728Y-1803324D02*
X-15726362Y-1667064D01*
X-15726362Y-1667064D02*
X-15634922Y-1530010D01*
X-15634922Y-1530010D02*
X-15549171Y-1391369D01*
X-15549171Y-1391369D02*
X-15468896Y-1250346D01*
X-15468896Y-1250346D02*
X-15393913Y-1106148D01*
X-15393913Y-1106148D02*
X-15323984Y-958246D01*
X-15323984Y-958246D02*
X-15258870Y-805846D01*
X-15258870Y-805846D02*
X-15198413Y-647890D01*
X-15198413Y-647890D02*
X-15142374Y-484113D01*
X-15142374Y-484113D02*
X-15090542Y-313457D01*
X-15090542Y-313457D02*
X-15042706Y-135128D01*
X-15042706Y-135128D02*
X-14998653Y51403D01*
X-14998653Y51403D02*
X-14958145Y247194D01*
X-14958145Y247194D02*
X-14921024Y452510D01*
X-14921024Y452510D02*
X-14886999Y668410D01*
X-14886999Y668410D02*
X-14855937Y895687D01*
X-14855937Y895687D02*
X-14801724Y1387018D01*
X-14801724Y1387018D02*
X-14756639Y1932588D01*
X-14756639Y1932588D02*
X-14719015Y2538218D01*
X-14719015Y2538218D02*
X-14687133Y3209730D01*
X-14687133Y3209730D02*
X-14659272Y3953473D01*
X-14659272Y3953473D02*
X-14621596Y4926344D01*
X-14621596Y4926344D02*
X-14578230Y5747345D01*
X-14578230Y5747345D02*
X-14553704Y6106914D01*
X-14553704Y6106914D02*
X-14526822Y6435261D01*
X-14526822Y6435261D02*
X-14497321Y6735034D01*
X-14497321Y6735034D02*
X-14464936Y7008348D01*
X-14464936Y7008348D02*
X-14429297Y7257321D01*
X-14429297Y7257321D02*
X-14390165Y7484862D01*
X-14390165Y7484862D02*
X-14347196Y7692824D01*
X-14347196Y7692824D02*
X-14300127Y7883324D01*
X-14300127Y7883324D02*
X-14248639Y8059272D01*
X-14248639Y8059272D02*
X-14192415Y8222519D01*
X-14192415Y8222519D02*
X-14131191Y8375448D01*
X-14131191Y8375448D02*
X-14064648Y8520440D01*
X-14064648Y8520440D02*
X-14006228Y8634210D01*
X-14006228Y8634210D02*
X-13951909Y8723640D01*
X-13951909Y8723640D02*
X-13896506Y8791902D01*
X-13896506Y8791902D02*
X-13866767Y8819154D01*
X-13866767Y8819154D02*
X-13834832Y8842173D01*
X-13834832Y8842173D02*
X-13800012Y8861752D01*
X-13800012Y8861752D02*
X-13761701Y8878156D01*
X-13761701Y8878156D02*
X-13671954Y8902762D01*
X-13671954Y8902762D02*
X-13560380Y8919431D01*
X-13560380Y8919431D02*
X-13421844Y8931602D01*
X-13421844Y8931602D02*
X-12964115Y8964410D01*
X-12964115Y8964410D02*
X-13024705Y7683035D01*
X-13024705Y7683035D02*
X-13058571Y7043538D01*
X-13058571Y7043538D02*
X-13106196Y6250318D01*
X-13106196Y6250318D02*
X-13161230Y5404181D01*
X-13161230Y5404181D02*
X-13217057Y4605934D01*
X-13217057Y4605934D02*
X-13251452Y4076504D01*
X-13251452Y4076504D02*
X-13274736Y3572209D01*
X-13274736Y3572209D02*
X-13286113Y3090403D01*
X-13286113Y3090403D02*
X-13285584Y2628970D01*
X-13285584Y2628970D02*
X-13272884Y2185529D01*
X-13272884Y2185529D02*
X-13247484Y1757698D01*
X-13247484Y1757698D02*
X-13209119Y1342832D01*
X-13209119Y1342832D02*
X-13157261Y938814D01*
X-13157261Y938814D02*
X-13091909Y543262D01*
X-13091909Y543262D02*
X-13012269Y153532D01*
X-13012269Y153532D02*
X-12918342Y-232230D01*
X-12918342Y-232230D02*
X-12809599Y-616934D01*
X-12809599Y-616934D02*
X-12686039Y-1002696D01*
X-12686039Y-1002696D02*
X-12546868Y-1392162D01*
X-12546868Y-1392162D02*
X-12391822Y-1787185D01*
X-12391822Y-1787185D02*
X-12220637Y-2190674D01*
X-12220637Y-2190674D02*
X-12081731Y-2500765D01*
X-12081731Y-2500765D02*
X-11943090Y-2796833D01*
X-11943090Y-2796833D02*
X-11804183Y-3079937D01*
X-11804183Y-3079937D02*
X-11664219Y-3351399D01*
X-11664219Y-3351399D02*
X-11522667Y-3612014D01*
X-11522667Y-3612014D02*
X-11378734Y-3862838D01*
X-11378734Y-3862838D02*
X-11231890Y-4104667D01*
X-11231890Y-4104667D02*
X-11081343Y-4338823D01*
X-11081343Y-4338823D02*
X-10926562Y-4566100D01*
X-10926562Y-4566100D02*
X-10766489Y-4787556D01*
X-10766489Y-4787556D02*
X-10601125Y-5004249D01*
X-10601125Y-5004249D02*
X-10429410Y-5216974D01*
X-10429410Y-5216974D02*
X-10250552Y-5427053D01*
X-10250552Y-5427053D02*
X-10064286Y-5635015D01*
X-10064286Y-5635015D02*
X-9869817Y-5842448D01*
X-9869817Y-5842448D02*
X-9666088Y-6049881D01*
X-9666088Y-6049881D02*
X-9360495Y-6351241D01*
X-9360495Y-6351241D02*
X-9099351Y-6597833D01*
X-9099351Y-6597833D02*
X-8866783Y-6801297D01*
X-8866783Y-6801297D02*
X-8756452Y-6890462D01*
X-8756452Y-6890462D02*
X-8646914Y-6973276D01*
X-8646914Y-6973276D02*
X-8536848Y-7051328D01*
X-8536848Y-7051328D02*
X-8423871Y-7125676D01*
X-8423871Y-7125676D02*
X-8306132Y-7198172D01*
X-8306132Y-7198172D02*
X-8181513Y-7269874D01*
X-8181513Y-7269874D02*
X-7904230Y-7417776D01*
X-7904230Y-7417776D02*
X-7575618Y-7581023D01*
X-7575618Y-7581023D02*
X-7325587Y-7699292D01*
X-7325587Y-7699292D02*
X-7073704Y-7812004D01*
X-7073704Y-7812004D02*
X-6819969Y-7919689D01*
X-6819969Y-7919689D02*
X-6564117Y-8021554D01*
X-6564117Y-8021554D02*
X-6306942Y-8118391D01*
X-6306942Y-8118391D02*
X-6048445Y-8209408D01*
X-6048445Y-8209408D02*
X-5788360Y-8295133D01*
X-5788360Y-8295133D02*
X-5527481Y-8375301D01*
X-5527481Y-8375301D02*
X-5265544Y-8450178D01*
X-5265544Y-8450178D02*
X-5002813Y-8519235D01*
X-5002813Y-8519235D02*
X-4739553Y-8582999D01*
X-4739553Y-8582999D02*
X-4476028Y-8640943D01*
X-4476028Y-8640943D02*
X-4211974Y-8693330D01*
X-4211974Y-8693330D02*
X-3947920Y-8740426D01*
X-3947920Y-8740426D02*
X-3683867Y-8781436D01*
X-3683867Y-8781436D02*
X-3420077Y-8817155D01*
X-3420077Y-8817155D02*
X-3156553Y-8847053D01*
X-3156553Y-8847053D02*
X-2893557Y-8871130D01*
X-2893557Y-8871130D02*
X-2631355Y-8889651D01*
X-2631355Y-8889651D02*
X-2370212Y-8902351D01*
X-2370212Y-8902351D02*
X-2109862Y-8909230D01*
X-2109862Y-8909230D02*
X-1850836Y-8910553D01*
X-1850836Y-8910553D02*
X-1593132Y-8906055D01*
X-1593132Y-8906055D02*
X-1337015Y-8895472D01*
X-1337015Y-8895472D02*
X-1082487Y-8879332D01*
X-1082487Y-8879332D02*
X-829810Y-8857107D01*
X-829810Y-8857107D02*
X-579250Y-8829326D01*
X-579250Y-8829326D02*
X-330806Y-8795459D01*
X-330806Y-8795459D02*
X-84744Y-8755507D01*
X-84744Y-8755507D02*
X158672Y-8709734D01*
X158672Y-8709734D02*
X399707Y-8658141D01*
X399707Y-8658141D02*
X637568Y-8600462D01*
X637568Y-8600462D02*
X637568Y-8600462D01*
X637568Y-8600462D02*
X637568Y-8600462D01*
M02*
